%
M48
M72
T01C0.01181
T02C0.03150
T03C0.03937
T04C0.04724
T05C0.05118
T06C0.05709
T07C0.12598
%
T01
X127515Y243126
X141295Y272654
X149169Y276591
X172791Y245094
X196413Y260843
X204287Y256906
X212161Y264780
X204287Y268717
X216098Y278559
X218066Y260843
X210192Y243126
X243657Y258874
X284995Y252969
X294838Y243126
X304680Y249031
X314523Y260843
X316491Y280528
X318460Y284465
X302712Y288402
X300743Y282496
X308617Y296276
X326334Y296276
X346019Y327772
X306649Y327772
X222003Y298244
X182633Y321866
X377515Y243126
T02
X84208Y235252
X84208Y162417
X178696Y32496
X151137Y18717
T03
X418657Y245055
X418657Y255055
X418657Y265055
X418657Y275055
X418657Y285055
X418657Y295055
T04
X99956Y209858
X147200Y209858
X182633Y209858
X229877Y209858
X265310Y209858
X312554Y209858
X347987Y209858
X395232Y209858
X395232Y161827
X371610Y153953
X347987Y161827
X312554Y161827
X288932Y153953
X265310Y161827
X229877Y161827
X206255Y153953
X182633Y161827
X147200Y161827
X123578Y153953
X99956Y161827
T05
X119641Y24622
X139641Y24622
X212161Y24622
X232161Y24622
X261373Y24622
X281373Y24622
X310586Y24622
X330586Y24622
X359798Y24622
X379798Y24622
T06
X123578Y52457
X206255Y52457
X288932Y52457
X371610Y52457
X371610Y142457
X288932Y142457
X206255Y142457
X123578Y142457
T07
X418854Y327772
X418854Y24622
X80271Y24622
X80271Y327772
M30
