G75*
%MOIN*%
%OFA0B0*%
%FSLAX25Y25*%
%IPPOS*%
%LPD*%
%AMOC8*
5,1,8,0,0,1.08239X$1,22.5*
%
%ADD10C,0.00000*%
%ADD11C,0.00600*%
%ADD12C,0.00400*%
%ADD13C,0.00500*%
%ADD14C,0.00800*%
D10*
X0064523Y0024622D02*
X0064523Y0327772D01*
X0064503Y0328129D01*
X0064492Y0328486D01*
X0064490Y0328844D01*
X0064497Y0329201D01*
X0064512Y0329559D01*
X0064535Y0329915D01*
X0064568Y0330271D01*
X0064609Y0330627D01*
X0064658Y0330981D01*
X0064716Y0331334D01*
X0064783Y0331685D01*
X0064858Y0332035D01*
X0064941Y0332382D01*
X0065033Y0332728D01*
X0065133Y0333071D01*
X0065242Y0333412D01*
X0065358Y0333750D01*
X0065483Y0334085D01*
X0065616Y0334417D01*
X0065757Y0334746D01*
X0065905Y0335071D01*
X0066062Y0335392D01*
X0066226Y0335710D01*
X0066398Y0336024D01*
X0066577Y0336333D01*
X0066764Y0336638D01*
X0066958Y0336938D01*
X0067159Y0337234D01*
X0067368Y0337524D01*
X0067583Y0337810D01*
X0067805Y0338090D01*
X0068034Y0338365D01*
X0068270Y0338634D01*
X0068512Y0338897D01*
X0068760Y0339154D01*
X0069014Y0339406D01*
X0069274Y0339651D01*
X0069541Y0339890D01*
X0069813Y0340122D01*
X0070090Y0340348D01*
X0070373Y0340566D01*
X0070661Y0340778D01*
X0070954Y0340983D01*
X0071252Y0341181D01*
X0071554Y0341372D01*
X0071861Y0341555D01*
X0072173Y0341731D01*
X0072488Y0341899D01*
X0072808Y0342059D01*
X0073131Y0342212D01*
X0073458Y0342357D01*
X0073788Y0342493D01*
X0074122Y0342622D01*
X0074459Y0342743D01*
X0074798Y0342856D01*
X0075140Y0342960D01*
X0075484Y0343056D01*
X0075831Y0343144D01*
X0076180Y0343223D01*
X0076530Y0343294D01*
X0076882Y0343356D01*
X0077236Y0343410D01*
X0077591Y0343455D01*
X0077946Y0343492D01*
X0078303Y0343520D01*
X0078302Y0343520D02*
X0416885Y0343520D01*
X0416885Y0343519D02*
X0417296Y0343538D01*
X0417707Y0343547D01*
X0418118Y0343546D01*
X0418530Y0343535D01*
X0418940Y0343514D01*
X0419351Y0343482D01*
X0419760Y0343441D01*
X0420168Y0343390D01*
X0420575Y0343328D01*
X0420980Y0343257D01*
X0421383Y0343175D01*
X0421784Y0343084D01*
X0422183Y0342983D01*
X0422579Y0342873D01*
X0422973Y0342752D01*
X0423363Y0342622D01*
X0423750Y0342482D01*
X0424133Y0342333D01*
X0424513Y0342175D01*
X0424888Y0342007D01*
X0425260Y0341830D01*
X0425627Y0341645D01*
X0425989Y0341450D01*
X0426346Y0341246D01*
X0426699Y0341034D01*
X0427046Y0340813D01*
X0427387Y0340583D01*
X0427723Y0340345D01*
X0428053Y0340100D01*
X0428376Y0339846D01*
X0428694Y0339584D01*
X0429004Y0339314D01*
X0429308Y0339037D01*
X0429606Y0338753D01*
X0429896Y0338461D01*
X0430179Y0338163D01*
X0430454Y0337857D01*
X0430722Y0337545D01*
X0430982Y0337226D01*
X0431234Y0336901D01*
X0431479Y0336570D01*
X0431715Y0336233D01*
X0431942Y0335891D01*
X0432161Y0335542D01*
X0432372Y0335189D01*
X0432574Y0334831D01*
X0432767Y0334467D01*
X0432951Y0334099D01*
X0433126Y0333727D01*
X0433291Y0333351D01*
X0433448Y0332970D01*
X0433595Y0332586D01*
X0433732Y0332198D01*
X0433860Y0331807D01*
X0433979Y0331413D01*
X0434088Y0331017D01*
X0434186Y0330617D01*
X0434276Y0330216D01*
X0434355Y0329812D01*
X0434424Y0329407D01*
X0434483Y0328999D01*
X0434533Y0328591D01*
X0434572Y0328182D01*
X0434601Y0327771D01*
X0434602Y0327772D02*
X0434602Y0024622D01*
X0434597Y0024241D01*
X0434584Y0023861D01*
X0434561Y0023481D01*
X0434528Y0023102D01*
X0434487Y0022724D01*
X0434437Y0022347D01*
X0434377Y0021971D01*
X0434309Y0021596D01*
X0434231Y0021224D01*
X0434144Y0020853D01*
X0434049Y0020485D01*
X0433944Y0020119D01*
X0433831Y0019756D01*
X0433709Y0019395D01*
X0433579Y0019038D01*
X0433439Y0018684D01*
X0433292Y0018333D01*
X0433135Y0017986D01*
X0432971Y0017643D01*
X0432798Y0017304D01*
X0432617Y0016969D01*
X0432428Y0016638D01*
X0432231Y0016313D01*
X0432027Y0015992D01*
X0431814Y0015676D01*
X0431594Y0015366D01*
X0431367Y0015060D01*
X0431132Y0014761D01*
X0430890Y0014467D01*
X0430642Y0014179D01*
X0430386Y0013897D01*
X0430123Y0013622D01*
X0429854Y0013353D01*
X0429579Y0013090D01*
X0429297Y0012834D01*
X0429009Y0012586D01*
X0428715Y0012344D01*
X0428416Y0012109D01*
X0428110Y0011882D01*
X0427800Y0011662D01*
X0427484Y0011449D01*
X0427163Y0011245D01*
X0426838Y0011048D01*
X0426507Y0010859D01*
X0426172Y0010678D01*
X0425833Y0010505D01*
X0425490Y0010341D01*
X0425143Y0010184D01*
X0424792Y0010037D01*
X0424438Y0009897D01*
X0424081Y0009767D01*
X0423720Y0009645D01*
X0423357Y0009532D01*
X0422991Y0009427D01*
X0422623Y0009332D01*
X0422252Y0009245D01*
X0421880Y0009167D01*
X0421505Y0009099D01*
X0421129Y0009039D01*
X0420752Y0008989D01*
X0420374Y0008948D01*
X0419995Y0008915D01*
X0419615Y0008892D01*
X0419235Y0008879D01*
X0418854Y0008874D01*
X0080271Y0008874D01*
X0079890Y0008879D01*
X0079510Y0008892D01*
X0079130Y0008915D01*
X0078751Y0008948D01*
X0078373Y0008989D01*
X0077996Y0009039D01*
X0077620Y0009099D01*
X0077245Y0009167D01*
X0076873Y0009245D01*
X0076502Y0009332D01*
X0076134Y0009427D01*
X0075768Y0009532D01*
X0075405Y0009645D01*
X0075044Y0009767D01*
X0074687Y0009897D01*
X0074333Y0010037D01*
X0073982Y0010184D01*
X0073635Y0010341D01*
X0073292Y0010505D01*
X0072953Y0010678D01*
X0072618Y0010859D01*
X0072287Y0011048D01*
X0071962Y0011245D01*
X0071641Y0011449D01*
X0071325Y0011662D01*
X0071015Y0011882D01*
X0070709Y0012109D01*
X0070410Y0012344D01*
X0070116Y0012586D01*
X0069828Y0012834D01*
X0069546Y0013090D01*
X0069271Y0013353D01*
X0069002Y0013622D01*
X0068739Y0013897D01*
X0068483Y0014179D01*
X0068235Y0014467D01*
X0067993Y0014761D01*
X0067758Y0015060D01*
X0067531Y0015366D01*
X0067311Y0015676D01*
X0067098Y0015992D01*
X0066894Y0016313D01*
X0066697Y0016638D01*
X0066508Y0016969D01*
X0066327Y0017304D01*
X0066154Y0017643D01*
X0065990Y0017986D01*
X0065833Y0018333D01*
X0065686Y0018684D01*
X0065546Y0019038D01*
X0065416Y0019395D01*
X0065294Y0019756D01*
X0065181Y0020119D01*
X0065076Y0020485D01*
X0064981Y0020853D01*
X0064894Y0021224D01*
X0064816Y0021596D01*
X0064748Y0021971D01*
X0064688Y0022347D01*
X0064638Y0022724D01*
X0064597Y0023102D01*
X0064564Y0023481D01*
X0064541Y0023861D01*
X0064528Y0024241D01*
X0064523Y0024622D01*
D11*
X0073578Y0024622D02*
X0073580Y0024786D01*
X0073586Y0024950D01*
X0073596Y0025114D01*
X0073610Y0025278D01*
X0073628Y0025441D01*
X0073650Y0025604D01*
X0073677Y0025766D01*
X0073707Y0025928D01*
X0073741Y0026088D01*
X0073779Y0026248D01*
X0073820Y0026407D01*
X0073866Y0026565D01*
X0073916Y0026721D01*
X0073969Y0026877D01*
X0074026Y0027031D01*
X0074087Y0027183D01*
X0074152Y0027334D01*
X0074221Y0027484D01*
X0074293Y0027631D01*
X0074368Y0027777D01*
X0074448Y0027921D01*
X0074530Y0028063D01*
X0074616Y0028203D01*
X0074706Y0028340D01*
X0074799Y0028476D01*
X0074895Y0028609D01*
X0074995Y0028740D01*
X0075097Y0028868D01*
X0075203Y0028994D01*
X0075312Y0029117D01*
X0075424Y0029237D01*
X0075538Y0029355D01*
X0075656Y0029469D01*
X0075776Y0029581D01*
X0075899Y0029690D01*
X0076025Y0029796D01*
X0076153Y0029898D01*
X0076284Y0029998D01*
X0076417Y0030094D01*
X0076553Y0030187D01*
X0076690Y0030277D01*
X0076830Y0030363D01*
X0076972Y0030445D01*
X0077116Y0030525D01*
X0077262Y0030600D01*
X0077409Y0030672D01*
X0077559Y0030741D01*
X0077710Y0030806D01*
X0077862Y0030867D01*
X0078016Y0030924D01*
X0078172Y0030977D01*
X0078328Y0031027D01*
X0078486Y0031073D01*
X0078645Y0031114D01*
X0078805Y0031152D01*
X0078965Y0031186D01*
X0079127Y0031216D01*
X0079289Y0031243D01*
X0079452Y0031265D01*
X0079615Y0031283D01*
X0079779Y0031297D01*
X0079943Y0031307D01*
X0080107Y0031313D01*
X0080271Y0031315D01*
X0080435Y0031313D01*
X0080599Y0031307D01*
X0080763Y0031297D01*
X0080927Y0031283D01*
X0081090Y0031265D01*
X0081253Y0031243D01*
X0081415Y0031216D01*
X0081577Y0031186D01*
X0081737Y0031152D01*
X0081897Y0031114D01*
X0082056Y0031073D01*
X0082214Y0031027D01*
X0082370Y0030977D01*
X0082526Y0030924D01*
X0082680Y0030867D01*
X0082832Y0030806D01*
X0082983Y0030741D01*
X0083133Y0030672D01*
X0083280Y0030600D01*
X0083426Y0030525D01*
X0083570Y0030445D01*
X0083712Y0030363D01*
X0083852Y0030277D01*
X0083989Y0030187D01*
X0084125Y0030094D01*
X0084258Y0029998D01*
X0084389Y0029898D01*
X0084517Y0029796D01*
X0084643Y0029690D01*
X0084766Y0029581D01*
X0084886Y0029469D01*
X0085004Y0029355D01*
X0085118Y0029237D01*
X0085230Y0029117D01*
X0085339Y0028994D01*
X0085445Y0028868D01*
X0085547Y0028740D01*
X0085647Y0028609D01*
X0085743Y0028476D01*
X0085836Y0028340D01*
X0085926Y0028203D01*
X0086012Y0028063D01*
X0086094Y0027921D01*
X0086174Y0027777D01*
X0086249Y0027631D01*
X0086321Y0027484D01*
X0086390Y0027334D01*
X0086455Y0027183D01*
X0086516Y0027031D01*
X0086573Y0026877D01*
X0086626Y0026721D01*
X0086676Y0026565D01*
X0086722Y0026407D01*
X0086763Y0026248D01*
X0086801Y0026088D01*
X0086835Y0025928D01*
X0086865Y0025766D01*
X0086892Y0025604D01*
X0086914Y0025441D01*
X0086932Y0025278D01*
X0086946Y0025114D01*
X0086956Y0024950D01*
X0086962Y0024786D01*
X0086964Y0024622D01*
X0086962Y0024458D01*
X0086956Y0024294D01*
X0086946Y0024130D01*
X0086932Y0023966D01*
X0086914Y0023803D01*
X0086892Y0023640D01*
X0086865Y0023478D01*
X0086835Y0023316D01*
X0086801Y0023156D01*
X0086763Y0022996D01*
X0086722Y0022837D01*
X0086676Y0022679D01*
X0086626Y0022523D01*
X0086573Y0022367D01*
X0086516Y0022213D01*
X0086455Y0022061D01*
X0086390Y0021910D01*
X0086321Y0021760D01*
X0086249Y0021613D01*
X0086174Y0021467D01*
X0086094Y0021323D01*
X0086012Y0021181D01*
X0085926Y0021041D01*
X0085836Y0020904D01*
X0085743Y0020768D01*
X0085647Y0020635D01*
X0085547Y0020504D01*
X0085445Y0020376D01*
X0085339Y0020250D01*
X0085230Y0020127D01*
X0085118Y0020007D01*
X0085004Y0019889D01*
X0084886Y0019775D01*
X0084766Y0019663D01*
X0084643Y0019554D01*
X0084517Y0019448D01*
X0084389Y0019346D01*
X0084258Y0019246D01*
X0084125Y0019150D01*
X0083989Y0019057D01*
X0083852Y0018967D01*
X0083712Y0018881D01*
X0083570Y0018799D01*
X0083426Y0018719D01*
X0083280Y0018644D01*
X0083133Y0018572D01*
X0082983Y0018503D01*
X0082832Y0018438D01*
X0082680Y0018377D01*
X0082526Y0018320D01*
X0082370Y0018267D01*
X0082214Y0018217D01*
X0082056Y0018171D01*
X0081897Y0018130D01*
X0081737Y0018092D01*
X0081577Y0018058D01*
X0081415Y0018028D01*
X0081253Y0018001D01*
X0081090Y0017979D01*
X0080927Y0017961D01*
X0080763Y0017947D01*
X0080599Y0017937D01*
X0080435Y0017931D01*
X0080271Y0017929D01*
X0080107Y0017931D01*
X0079943Y0017937D01*
X0079779Y0017947D01*
X0079615Y0017961D01*
X0079452Y0017979D01*
X0079289Y0018001D01*
X0079127Y0018028D01*
X0078965Y0018058D01*
X0078805Y0018092D01*
X0078645Y0018130D01*
X0078486Y0018171D01*
X0078328Y0018217D01*
X0078172Y0018267D01*
X0078016Y0018320D01*
X0077862Y0018377D01*
X0077710Y0018438D01*
X0077559Y0018503D01*
X0077409Y0018572D01*
X0077262Y0018644D01*
X0077116Y0018719D01*
X0076972Y0018799D01*
X0076830Y0018881D01*
X0076690Y0018967D01*
X0076553Y0019057D01*
X0076417Y0019150D01*
X0076284Y0019246D01*
X0076153Y0019346D01*
X0076025Y0019448D01*
X0075899Y0019554D01*
X0075776Y0019663D01*
X0075656Y0019775D01*
X0075538Y0019889D01*
X0075424Y0020007D01*
X0075312Y0020127D01*
X0075203Y0020250D01*
X0075097Y0020376D01*
X0074995Y0020504D01*
X0074895Y0020635D01*
X0074799Y0020768D01*
X0074706Y0020904D01*
X0074616Y0021041D01*
X0074530Y0021181D01*
X0074448Y0021323D01*
X0074368Y0021467D01*
X0074293Y0021613D01*
X0074221Y0021760D01*
X0074152Y0021910D01*
X0074087Y0022061D01*
X0074026Y0022213D01*
X0073969Y0022367D01*
X0073916Y0022523D01*
X0073866Y0022679D01*
X0073820Y0022837D01*
X0073779Y0022996D01*
X0073741Y0023156D01*
X0073707Y0023316D01*
X0073677Y0023478D01*
X0073650Y0023640D01*
X0073628Y0023803D01*
X0073610Y0023966D01*
X0073596Y0024130D01*
X0073586Y0024294D01*
X0073580Y0024458D01*
X0073578Y0024622D01*
X0066771Y0024622D02*
X0066775Y0024953D01*
X0066787Y0025284D01*
X0066808Y0025615D01*
X0066836Y0025945D01*
X0066873Y0026275D01*
X0066917Y0026603D01*
X0066970Y0026930D01*
X0067030Y0027256D01*
X0067099Y0027580D01*
X0067176Y0027902D01*
X0067260Y0028223D01*
X0067352Y0028541D01*
X0067452Y0028857D01*
X0067560Y0029170D01*
X0067676Y0029481D01*
X0067799Y0029788D01*
X0067929Y0030093D01*
X0068067Y0030394D01*
X0068212Y0030692D01*
X0068365Y0030986D01*
X0068525Y0031276D01*
X0068692Y0031562D01*
X0068865Y0031844D01*
X0069046Y0032122D01*
X0069234Y0032395D01*
X0069428Y0032664D01*
X0069628Y0032928D01*
X0069835Y0033186D01*
X0070049Y0033440D01*
X0070268Y0033688D01*
X0070494Y0033931D01*
X0070725Y0034168D01*
X0070962Y0034399D01*
X0071205Y0034625D01*
X0071453Y0034844D01*
X0071707Y0035058D01*
X0071965Y0035265D01*
X0072229Y0035465D01*
X0072498Y0035659D01*
X0072771Y0035847D01*
X0073049Y0036028D01*
X0073331Y0036201D01*
X0073617Y0036368D01*
X0073907Y0036528D01*
X0074201Y0036681D01*
X0074499Y0036826D01*
X0074800Y0036964D01*
X0075105Y0037094D01*
X0075412Y0037217D01*
X0075723Y0037333D01*
X0076036Y0037441D01*
X0076352Y0037541D01*
X0076670Y0037633D01*
X0076991Y0037717D01*
X0077313Y0037794D01*
X0077637Y0037863D01*
X0077963Y0037923D01*
X0078290Y0037976D01*
X0078618Y0038020D01*
X0078948Y0038057D01*
X0079278Y0038085D01*
X0079609Y0038106D01*
X0079940Y0038118D01*
X0080271Y0038122D01*
X0080602Y0038118D01*
X0080933Y0038106D01*
X0081264Y0038085D01*
X0081594Y0038057D01*
X0081924Y0038020D01*
X0082252Y0037976D01*
X0082579Y0037923D01*
X0082905Y0037863D01*
X0083229Y0037794D01*
X0083551Y0037717D01*
X0083872Y0037633D01*
X0084190Y0037541D01*
X0084506Y0037441D01*
X0084819Y0037333D01*
X0085130Y0037217D01*
X0085437Y0037094D01*
X0085742Y0036964D01*
X0086043Y0036826D01*
X0086341Y0036681D01*
X0086635Y0036528D01*
X0086925Y0036368D01*
X0087211Y0036201D01*
X0087493Y0036028D01*
X0087771Y0035847D01*
X0088044Y0035659D01*
X0088313Y0035465D01*
X0088577Y0035265D01*
X0088835Y0035058D01*
X0089089Y0034844D01*
X0089337Y0034625D01*
X0089580Y0034399D01*
X0089817Y0034168D01*
X0090048Y0033931D01*
X0090274Y0033688D01*
X0090493Y0033440D01*
X0090707Y0033186D01*
X0090914Y0032928D01*
X0091114Y0032664D01*
X0091308Y0032395D01*
X0091496Y0032122D01*
X0091677Y0031844D01*
X0091850Y0031562D01*
X0092017Y0031276D01*
X0092177Y0030986D01*
X0092330Y0030692D01*
X0092475Y0030394D01*
X0092613Y0030093D01*
X0092743Y0029788D01*
X0092866Y0029481D01*
X0092982Y0029170D01*
X0093090Y0028857D01*
X0093190Y0028541D01*
X0093282Y0028223D01*
X0093366Y0027902D01*
X0093443Y0027580D01*
X0093512Y0027256D01*
X0093572Y0026930D01*
X0093625Y0026603D01*
X0093669Y0026275D01*
X0093706Y0025945D01*
X0093734Y0025615D01*
X0093755Y0025284D01*
X0093767Y0024953D01*
X0093771Y0024622D01*
X0093767Y0024291D01*
X0093755Y0023960D01*
X0093734Y0023629D01*
X0093706Y0023299D01*
X0093669Y0022969D01*
X0093625Y0022641D01*
X0093572Y0022314D01*
X0093512Y0021988D01*
X0093443Y0021664D01*
X0093366Y0021342D01*
X0093282Y0021021D01*
X0093190Y0020703D01*
X0093090Y0020387D01*
X0092982Y0020074D01*
X0092866Y0019763D01*
X0092743Y0019456D01*
X0092613Y0019151D01*
X0092475Y0018850D01*
X0092330Y0018552D01*
X0092177Y0018258D01*
X0092017Y0017968D01*
X0091850Y0017682D01*
X0091677Y0017400D01*
X0091496Y0017122D01*
X0091308Y0016849D01*
X0091114Y0016580D01*
X0090914Y0016316D01*
X0090707Y0016058D01*
X0090493Y0015804D01*
X0090274Y0015556D01*
X0090048Y0015313D01*
X0089817Y0015076D01*
X0089580Y0014845D01*
X0089337Y0014619D01*
X0089089Y0014400D01*
X0088835Y0014186D01*
X0088577Y0013979D01*
X0088313Y0013779D01*
X0088044Y0013585D01*
X0087771Y0013397D01*
X0087493Y0013216D01*
X0087211Y0013043D01*
X0086925Y0012876D01*
X0086635Y0012716D01*
X0086341Y0012563D01*
X0086043Y0012418D01*
X0085742Y0012280D01*
X0085437Y0012150D01*
X0085130Y0012027D01*
X0084819Y0011911D01*
X0084506Y0011803D01*
X0084190Y0011703D01*
X0083872Y0011611D01*
X0083551Y0011527D01*
X0083229Y0011450D01*
X0082905Y0011381D01*
X0082579Y0011321D01*
X0082252Y0011268D01*
X0081924Y0011224D01*
X0081594Y0011187D01*
X0081264Y0011159D01*
X0080933Y0011138D01*
X0080602Y0011126D01*
X0080271Y0011122D01*
X0079940Y0011126D01*
X0079609Y0011138D01*
X0079278Y0011159D01*
X0078948Y0011187D01*
X0078618Y0011224D01*
X0078290Y0011268D01*
X0077963Y0011321D01*
X0077637Y0011381D01*
X0077313Y0011450D01*
X0076991Y0011527D01*
X0076670Y0011611D01*
X0076352Y0011703D01*
X0076036Y0011803D01*
X0075723Y0011911D01*
X0075412Y0012027D01*
X0075105Y0012150D01*
X0074800Y0012280D01*
X0074499Y0012418D01*
X0074201Y0012563D01*
X0073907Y0012716D01*
X0073617Y0012876D01*
X0073331Y0013043D01*
X0073049Y0013216D01*
X0072771Y0013397D01*
X0072498Y0013585D01*
X0072229Y0013779D01*
X0071965Y0013979D01*
X0071707Y0014186D01*
X0071453Y0014400D01*
X0071205Y0014619D01*
X0070962Y0014845D01*
X0070725Y0015076D01*
X0070494Y0015313D01*
X0070268Y0015556D01*
X0070049Y0015804D01*
X0069835Y0016058D01*
X0069628Y0016316D01*
X0069428Y0016580D01*
X0069234Y0016849D01*
X0069046Y0017122D01*
X0068865Y0017400D01*
X0068692Y0017682D01*
X0068525Y0017968D01*
X0068365Y0018258D01*
X0068212Y0018552D01*
X0068067Y0018850D01*
X0067929Y0019151D01*
X0067799Y0019456D01*
X0067676Y0019763D01*
X0067560Y0020074D01*
X0067452Y0020387D01*
X0067352Y0020703D01*
X0067260Y0021021D01*
X0067176Y0021342D01*
X0067099Y0021664D01*
X0067030Y0021988D01*
X0066970Y0022314D01*
X0066917Y0022641D01*
X0066873Y0022969D01*
X0066836Y0023299D01*
X0066808Y0023629D01*
X0066787Y0023960D01*
X0066775Y0024291D01*
X0066771Y0024622D01*
X0071602Y0048544D02*
X0071602Y0051389D01*
X0071602Y0048544D02*
X0078002Y0048544D01*
X0078002Y0051389D01*
X0074447Y0050677D02*
X0074447Y0048544D01*
X0074269Y0054344D02*
X0075336Y0056300D01*
X0078002Y0055589D02*
X0078000Y0055481D01*
X0077994Y0055374D01*
X0077985Y0055266D01*
X0077971Y0055159D01*
X0077954Y0055053D01*
X0077933Y0054947D01*
X0077908Y0054842D01*
X0077879Y0054738D01*
X0077847Y0054635D01*
X0077811Y0054534D01*
X0077771Y0054434D01*
X0077728Y0054335D01*
X0077681Y0054238D01*
X0077631Y0054142D01*
X0077577Y0054049D01*
X0077520Y0053957D01*
X0077460Y0053868D01*
X0077397Y0053781D01*
X0077330Y0053696D01*
X0077261Y0053613D01*
X0077188Y0053533D01*
X0077113Y0053456D01*
X0075336Y0056300D02*
X0075376Y0056364D01*
X0075419Y0056425D01*
X0075465Y0056484D01*
X0075514Y0056541D01*
X0075566Y0056595D01*
X0075620Y0056646D01*
X0075678Y0056694D01*
X0075737Y0056740D01*
X0075799Y0056782D01*
X0075864Y0056821D01*
X0075930Y0056856D01*
X0075997Y0056888D01*
X0076067Y0056917D01*
X0076137Y0056942D01*
X0076209Y0056963D01*
X0076282Y0056980D01*
X0076356Y0056994D01*
X0076430Y0057003D01*
X0076505Y0057009D01*
X0076580Y0057011D01*
X0076654Y0057009D01*
X0076729Y0057003D01*
X0076802Y0056993D01*
X0076876Y0056980D01*
X0076948Y0056963D01*
X0077019Y0056941D01*
X0077090Y0056917D01*
X0077158Y0056888D01*
X0077226Y0056856D01*
X0077291Y0056820D01*
X0077354Y0056782D01*
X0077416Y0056739D01*
X0077475Y0056694D01*
X0077532Y0056646D01*
X0077586Y0056595D01*
X0077637Y0056541D01*
X0077685Y0056484D01*
X0077730Y0056425D01*
X0077773Y0056363D01*
X0077811Y0056300D01*
X0077847Y0056235D01*
X0077879Y0056167D01*
X0077908Y0056099D01*
X0077932Y0056028D01*
X0077954Y0055957D01*
X0077971Y0055885D01*
X0077984Y0055811D01*
X0077994Y0055738D01*
X0078000Y0055663D01*
X0078002Y0055589D01*
X0072135Y0056656D02*
X0072076Y0056574D01*
X0072020Y0056490D01*
X0071968Y0056404D01*
X0071918Y0056316D01*
X0071872Y0056226D01*
X0071830Y0056135D01*
X0071791Y0056042D01*
X0071755Y0055947D01*
X0071723Y0055851D01*
X0071695Y0055754D01*
X0071670Y0055657D01*
X0071650Y0055558D01*
X0071633Y0055458D01*
X0071619Y0055358D01*
X0071610Y0055258D01*
X0071604Y0055157D01*
X0071602Y0055056D01*
X0071603Y0055056D02*
X0071605Y0054982D01*
X0071611Y0054907D01*
X0071621Y0054834D01*
X0071634Y0054760D01*
X0071651Y0054688D01*
X0071673Y0054617D01*
X0071697Y0054546D01*
X0071726Y0054478D01*
X0071758Y0054410D01*
X0071794Y0054345D01*
X0071832Y0054282D01*
X0071875Y0054220D01*
X0071920Y0054161D01*
X0071968Y0054104D01*
X0072019Y0054050D01*
X0072073Y0053999D01*
X0072130Y0053951D01*
X0072189Y0053906D01*
X0072251Y0053863D01*
X0072314Y0053825D01*
X0072379Y0053789D01*
X0072447Y0053757D01*
X0072515Y0053728D01*
X0072586Y0053704D01*
X0072657Y0053682D01*
X0072729Y0053665D01*
X0072803Y0053652D01*
X0072876Y0053642D01*
X0072951Y0053636D01*
X0073025Y0053634D01*
X0073100Y0053636D01*
X0073175Y0053642D01*
X0073249Y0053651D01*
X0073323Y0053665D01*
X0073396Y0053682D01*
X0073468Y0053703D01*
X0073538Y0053728D01*
X0073608Y0053757D01*
X0073675Y0053789D01*
X0073741Y0053824D01*
X0073806Y0053863D01*
X0073868Y0053905D01*
X0073927Y0053951D01*
X0073985Y0053999D01*
X0074039Y0054050D01*
X0074091Y0054104D01*
X0074140Y0054161D01*
X0074186Y0054220D01*
X0074229Y0054281D01*
X0074269Y0054345D01*
X0075158Y0059693D02*
X0075158Y0061470D01*
X0075156Y0061553D01*
X0075150Y0061636D01*
X0075140Y0061719D01*
X0075127Y0061802D01*
X0075109Y0061883D01*
X0075088Y0061964D01*
X0075063Y0062043D01*
X0075034Y0062121D01*
X0075002Y0062198D01*
X0074966Y0062273D01*
X0074927Y0062347D01*
X0074884Y0062418D01*
X0074838Y0062488D01*
X0074788Y0062555D01*
X0074736Y0062620D01*
X0074681Y0062682D01*
X0074622Y0062742D01*
X0074561Y0062799D01*
X0074498Y0062853D01*
X0074432Y0062904D01*
X0074363Y0062951D01*
X0074293Y0062996D01*
X0074220Y0063037D01*
X0074146Y0063074D01*
X0074070Y0063109D01*
X0073992Y0063139D01*
X0073914Y0063166D01*
X0073833Y0063189D01*
X0073752Y0063209D01*
X0073670Y0063224D01*
X0073588Y0063236D01*
X0073505Y0063244D01*
X0073422Y0063248D01*
X0073338Y0063248D01*
X0073255Y0063244D01*
X0073172Y0063236D01*
X0073090Y0063224D01*
X0073008Y0063209D01*
X0072927Y0063189D01*
X0072846Y0063166D01*
X0072768Y0063139D01*
X0072690Y0063109D01*
X0072614Y0063074D01*
X0072540Y0063037D01*
X0072467Y0062996D01*
X0072397Y0062951D01*
X0072328Y0062904D01*
X0072262Y0062853D01*
X0072199Y0062799D01*
X0072138Y0062742D01*
X0072079Y0062682D01*
X0072024Y0062620D01*
X0071972Y0062555D01*
X0071922Y0062488D01*
X0071876Y0062418D01*
X0071833Y0062347D01*
X0071794Y0062273D01*
X0071758Y0062198D01*
X0071726Y0062121D01*
X0071697Y0062043D01*
X0071672Y0061964D01*
X0071651Y0061883D01*
X0071633Y0061802D01*
X0071620Y0061719D01*
X0071610Y0061636D01*
X0071604Y0061553D01*
X0071602Y0061470D01*
X0071602Y0059693D01*
X0078002Y0059693D01*
X0076225Y0065558D02*
X0076308Y0065560D01*
X0076391Y0065566D01*
X0076474Y0065576D01*
X0076557Y0065589D01*
X0076638Y0065607D01*
X0076719Y0065628D01*
X0076798Y0065653D01*
X0076876Y0065682D01*
X0076953Y0065714D01*
X0077028Y0065750D01*
X0077102Y0065789D01*
X0077173Y0065832D01*
X0077243Y0065878D01*
X0077310Y0065928D01*
X0077375Y0065980D01*
X0077437Y0066035D01*
X0077497Y0066094D01*
X0077554Y0066155D01*
X0077608Y0066218D01*
X0077659Y0066284D01*
X0077706Y0066353D01*
X0077751Y0066423D01*
X0077792Y0066496D01*
X0077829Y0066570D01*
X0077864Y0066646D01*
X0077894Y0066724D01*
X0077921Y0066802D01*
X0077944Y0066883D01*
X0077964Y0066964D01*
X0077979Y0067046D01*
X0077991Y0067128D01*
X0077999Y0067211D01*
X0078003Y0067294D01*
X0078003Y0067378D01*
X0077999Y0067461D01*
X0077991Y0067544D01*
X0077979Y0067626D01*
X0077964Y0067708D01*
X0077944Y0067789D01*
X0077921Y0067870D01*
X0077894Y0067948D01*
X0077864Y0068026D01*
X0077829Y0068102D01*
X0077792Y0068176D01*
X0077751Y0068249D01*
X0077706Y0068319D01*
X0077659Y0068388D01*
X0077608Y0068454D01*
X0077554Y0068517D01*
X0077497Y0068578D01*
X0077437Y0068637D01*
X0077375Y0068692D01*
X0077310Y0068744D01*
X0077243Y0068794D01*
X0077173Y0068840D01*
X0077102Y0068883D01*
X0077028Y0068922D01*
X0076953Y0068958D01*
X0076876Y0068990D01*
X0076798Y0069019D01*
X0076719Y0069044D01*
X0076638Y0069065D01*
X0076557Y0069083D01*
X0076474Y0069096D01*
X0076391Y0069106D01*
X0076308Y0069112D01*
X0076225Y0069114D01*
X0076142Y0069112D01*
X0076059Y0069106D01*
X0075976Y0069096D01*
X0075893Y0069083D01*
X0075812Y0069065D01*
X0075731Y0069044D01*
X0075652Y0069019D01*
X0075574Y0068990D01*
X0075497Y0068958D01*
X0075422Y0068922D01*
X0075348Y0068883D01*
X0075277Y0068840D01*
X0075207Y0068794D01*
X0075140Y0068744D01*
X0075075Y0068692D01*
X0075013Y0068637D01*
X0074953Y0068578D01*
X0074896Y0068517D01*
X0074842Y0068454D01*
X0074791Y0068388D01*
X0074744Y0068319D01*
X0074699Y0068249D01*
X0074658Y0068176D01*
X0074621Y0068102D01*
X0074586Y0068026D01*
X0074556Y0067948D01*
X0074529Y0067870D01*
X0074506Y0067789D01*
X0074486Y0067708D01*
X0074471Y0067626D01*
X0074459Y0067544D01*
X0074451Y0067461D01*
X0074447Y0067378D01*
X0074447Y0067294D01*
X0074451Y0067211D01*
X0074459Y0067128D01*
X0074471Y0067046D01*
X0074486Y0066964D01*
X0074506Y0066883D01*
X0074529Y0066802D01*
X0074556Y0066724D01*
X0074586Y0066646D01*
X0074621Y0066570D01*
X0074658Y0066496D01*
X0074699Y0066423D01*
X0074744Y0066353D01*
X0074791Y0066284D01*
X0074842Y0066218D01*
X0074896Y0066155D01*
X0074953Y0066094D01*
X0075013Y0066035D01*
X0075075Y0065980D01*
X0075140Y0065928D01*
X0075207Y0065878D01*
X0075277Y0065832D01*
X0075348Y0065789D01*
X0075422Y0065750D01*
X0075497Y0065714D01*
X0075574Y0065682D01*
X0075652Y0065653D01*
X0075731Y0065628D01*
X0075812Y0065607D01*
X0075893Y0065589D01*
X0075976Y0065576D01*
X0076059Y0065566D01*
X0076142Y0065560D01*
X0076225Y0065558D01*
X0073025Y0065914D02*
X0073099Y0065916D01*
X0073174Y0065922D01*
X0073247Y0065932D01*
X0073321Y0065945D01*
X0073393Y0065962D01*
X0073464Y0065984D01*
X0073535Y0066008D01*
X0073603Y0066037D01*
X0073671Y0066069D01*
X0073736Y0066105D01*
X0073799Y0066143D01*
X0073861Y0066186D01*
X0073920Y0066231D01*
X0073977Y0066279D01*
X0074031Y0066330D01*
X0074082Y0066384D01*
X0074130Y0066441D01*
X0074175Y0066500D01*
X0074218Y0066562D01*
X0074256Y0066625D01*
X0074292Y0066690D01*
X0074324Y0066758D01*
X0074353Y0066826D01*
X0074377Y0066897D01*
X0074399Y0066968D01*
X0074416Y0067040D01*
X0074429Y0067114D01*
X0074439Y0067187D01*
X0074445Y0067262D01*
X0074447Y0067336D01*
X0074445Y0067410D01*
X0074439Y0067485D01*
X0074429Y0067558D01*
X0074416Y0067632D01*
X0074399Y0067704D01*
X0074377Y0067775D01*
X0074353Y0067846D01*
X0074324Y0067914D01*
X0074292Y0067982D01*
X0074256Y0068047D01*
X0074218Y0068110D01*
X0074175Y0068172D01*
X0074130Y0068231D01*
X0074082Y0068288D01*
X0074031Y0068342D01*
X0073977Y0068393D01*
X0073920Y0068441D01*
X0073861Y0068486D01*
X0073799Y0068529D01*
X0073736Y0068567D01*
X0073671Y0068603D01*
X0073603Y0068635D01*
X0073535Y0068664D01*
X0073464Y0068688D01*
X0073393Y0068710D01*
X0073321Y0068727D01*
X0073247Y0068740D01*
X0073174Y0068750D01*
X0073099Y0068756D01*
X0073025Y0068758D01*
X0072951Y0068756D01*
X0072876Y0068750D01*
X0072803Y0068740D01*
X0072729Y0068727D01*
X0072657Y0068710D01*
X0072586Y0068688D01*
X0072515Y0068664D01*
X0072447Y0068635D01*
X0072379Y0068603D01*
X0072314Y0068567D01*
X0072251Y0068529D01*
X0072189Y0068486D01*
X0072130Y0068441D01*
X0072073Y0068393D01*
X0072019Y0068342D01*
X0071968Y0068288D01*
X0071920Y0068231D01*
X0071875Y0068172D01*
X0071832Y0068110D01*
X0071794Y0068047D01*
X0071758Y0067982D01*
X0071726Y0067914D01*
X0071697Y0067846D01*
X0071673Y0067775D01*
X0071651Y0067704D01*
X0071634Y0067632D01*
X0071621Y0067558D01*
X0071611Y0067485D01*
X0071605Y0067410D01*
X0071603Y0067336D01*
X0071605Y0067262D01*
X0071611Y0067187D01*
X0071621Y0067114D01*
X0071634Y0067040D01*
X0071651Y0066968D01*
X0071673Y0066897D01*
X0071697Y0066826D01*
X0071726Y0066758D01*
X0071758Y0066690D01*
X0071794Y0066625D01*
X0071832Y0066562D01*
X0071875Y0066500D01*
X0071920Y0066441D01*
X0071968Y0066384D01*
X0072019Y0066330D01*
X0072073Y0066279D01*
X0072130Y0066231D01*
X0072189Y0066186D01*
X0072251Y0066143D01*
X0072314Y0066105D01*
X0072379Y0066069D01*
X0072447Y0066037D01*
X0072515Y0066008D01*
X0072586Y0065984D01*
X0072657Y0065962D01*
X0072729Y0065945D01*
X0072803Y0065932D01*
X0072876Y0065922D01*
X0072951Y0065916D01*
X0073025Y0065914D01*
X0078002Y0071713D02*
X0078002Y0075268D01*
X0076225Y0077867D02*
X0074447Y0077867D01*
X0074447Y0080000D01*
X0074447Y0077867D02*
X0074341Y0077869D01*
X0074234Y0077875D01*
X0074129Y0077885D01*
X0074023Y0077899D01*
X0073918Y0077917D01*
X0073814Y0077938D01*
X0073711Y0077964D01*
X0073609Y0077993D01*
X0073508Y0078027D01*
X0073408Y0078064D01*
X0073310Y0078104D01*
X0073213Y0078149D01*
X0073118Y0078197D01*
X0073025Y0078248D01*
X0072934Y0078303D01*
X0072845Y0078361D01*
X0072758Y0078423D01*
X0072674Y0078487D01*
X0072592Y0078555D01*
X0072513Y0078626D01*
X0072436Y0078700D01*
X0072362Y0078777D01*
X0072291Y0078856D01*
X0072223Y0078938D01*
X0072159Y0079022D01*
X0072097Y0079109D01*
X0072039Y0079198D01*
X0071984Y0079289D01*
X0071933Y0079382D01*
X0071885Y0079477D01*
X0071840Y0079574D01*
X0071800Y0079672D01*
X0071763Y0079772D01*
X0071729Y0079873D01*
X0071700Y0079975D01*
X0071674Y0080078D01*
X0071653Y0080182D01*
X0071635Y0080287D01*
X0071621Y0080393D01*
X0071611Y0080498D01*
X0071605Y0080605D01*
X0071603Y0080711D01*
X0075869Y0081422D02*
X0076225Y0081422D01*
X0075869Y0081422D02*
X0075795Y0081420D01*
X0075720Y0081414D01*
X0075647Y0081404D01*
X0075573Y0081391D01*
X0075501Y0081374D01*
X0075430Y0081352D01*
X0075359Y0081328D01*
X0075291Y0081299D01*
X0075223Y0081267D01*
X0075158Y0081231D01*
X0075095Y0081193D01*
X0075033Y0081150D01*
X0074974Y0081105D01*
X0074917Y0081057D01*
X0074863Y0081006D01*
X0074812Y0080952D01*
X0074764Y0080895D01*
X0074719Y0080836D01*
X0074676Y0080774D01*
X0074638Y0080711D01*
X0074602Y0080646D01*
X0074570Y0080578D01*
X0074541Y0080510D01*
X0074517Y0080439D01*
X0074495Y0080368D01*
X0074478Y0080296D01*
X0074465Y0080222D01*
X0074455Y0080149D01*
X0074449Y0080074D01*
X0074447Y0080000D01*
X0076225Y0081422D02*
X0076308Y0081420D01*
X0076391Y0081414D01*
X0076474Y0081404D01*
X0076557Y0081391D01*
X0076638Y0081373D01*
X0076719Y0081352D01*
X0076798Y0081327D01*
X0076876Y0081298D01*
X0076953Y0081266D01*
X0077028Y0081230D01*
X0077102Y0081191D01*
X0077173Y0081148D01*
X0077243Y0081102D01*
X0077310Y0081052D01*
X0077375Y0081000D01*
X0077437Y0080945D01*
X0077497Y0080886D01*
X0077554Y0080825D01*
X0077608Y0080762D01*
X0077659Y0080696D01*
X0077706Y0080627D01*
X0077751Y0080557D01*
X0077792Y0080484D01*
X0077829Y0080410D01*
X0077864Y0080334D01*
X0077894Y0080256D01*
X0077921Y0080178D01*
X0077944Y0080097D01*
X0077964Y0080016D01*
X0077979Y0079934D01*
X0077991Y0079852D01*
X0077999Y0079769D01*
X0078003Y0079686D01*
X0078003Y0079602D01*
X0077999Y0079519D01*
X0077991Y0079436D01*
X0077979Y0079354D01*
X0077964Y0079272D01*
X0077944Y0079191D01*
X0077921Y0079110D01*
X0077894Y0079032D01*
X0077864Y0078954D01*
X0077829Y0078878D01*
X0077792Y0078804D01*
X0077751Y0078731D01*
X0077706Y0078661D01*
X0077659Y0078592D01*
X0077608Y0078526D01*
X0077554Y0078463D01*
X0077497Y0078402D01*
X0077437Y0078343D01*
X0077375Y0078288D01*
X0077310Y0078236D01*
X0077243Y0078186D01*
X0077173Y0078140D01*
X0077102Y0078097D01*
X0077028Y0078058D01*
X0076953Y0078022D01*
X0076876Y0077990D01*
X0076798Y0077961D01*
X0076719Y0077936D01*
X0076638Y0077915D01*
X0076557Y0077897D01*
X0076474Y0077884D01*
X0076391Y0077874D01*
X0076308Y0077868D01*
X0076225Y0077866D01*
X0074447Y0074735D02*
X0078002Y0071713D01*
X0073025Y0071712D02*
X0072940Y0071741D01*
X0072857Y0071774D01*
X0072776Y0071811D01*
X0072696Y0071851D01*
X0072619Y0071894D01*
X0072543Y0071941D01*
X0072469Y0071991D01*
X0072397Y0072044D01*
X0072328Y0072100D01*
X0072261Y0072159D01*
X0072197Y0072221D01*
X0072136Y0072286D01*
X0072077Y0072353D01*
X0072022Y0072423D01*
X0071969Y0072495D01*
X0071920Y0072569D01*
X0071874Y0072646D01*
X0071832Y0072724D01*
X0071792Y0072804D01*
X0071757Y0072886D01*
X0071724Y0072969D01*
X0071696Y0073053D01*
X0071671Y0073139D01*
X0071650Y0073226D01*
X0071633Y0073313D01*
X0071619Y0073401D01*
X0071610Y0073490D01*
X0071604Y0073579D01*
X0071602Y0073668D01*
X0071604Y0073747D01*
X0071610Y0073825D01*
X0071619Y0073903D01*
X0071633Y0073980D01*
X0071650Y0074057D01*
X0071671Y0074132D01*
X0071696Y0074207D01*
X0071724Y0074280D01*
X0071756Y0074352D01*
X0071791Y0074422D01*
X0071830Y0074491D01*
X0071872Y0074557D01*
X0071917Y0074621D01*
X0071965Y0074683D01*
X0072016Y0074742D01*
X0072071Y0074799D01*
X0072128Y0074854D01*
X0072187Y0074905D01*
X0072249Y0074953D01*
X0072313Y0074998D01*
X0072379Y0075040D01*
X0072448Y0075079D01*
X0072518Y0075114D01*
X0072590Y0075146D01*
X0072663Y0075174D01*
X0072738Y0075199D01*
X0072813Y0075220D01*
X0072890Y0075237D01*
X0072967Y0075251D01*
X0073045Y0075260D01*
X0073123Y0075266D01*
X0073202Y0075268D01*
X0073202Y0075269D02*
X0073284Y0075267D01*
X0073366Y0075261D01*
X0073447Y0075251D01*
X0073528Y0075238D01*
X0073608Y0075220D01*
X0073687Y0075199D01*
X0073765Y0075174D01*
X0073841Y0075146D01*
X0073917Y0075113D01*
X0073990Y0075078D01*
X0074062Y0075038D01*
X0074132Y0074996D01*
X0074200Y0074950D01*
X0074265Y0074901D01*
X0074328Y0074849D01*
X0074389Y0074793D01*
X0074447Y0074736D01*
X0074447Y0084021D02*
X0076225Y0084021D01*
X0076225Y0084020D02*
X0076308Y0084022D01*
X0076391Y0084028D01*
X0076474Y0084038D01*
X0076557Y0084051D01*
X0076638Y0084069D01*
X0076719Y0084090D01*
X0076798Y0084115D01*
X0076876Y0084144D01*
X0076953Y0084176D01*
X0077028Y0084212D01*
X0077102Y0084251D01*
X0077173Y0084294D01*
X0077243Y0084340D01*
X0077310Y0084390D01*
X0077375Y0084442D01*
X0077437Y0084497D01*
X0077497Y0084556D01*
X0077554Y0084617D01*
X0077608Y0084680D01*
X0077659Y0084746D01*
X0077706Y0084815D01*
X0077751Y0084885D01*
X0077792Y0084958D01*
X0077829Y0085032D01*
X0077864Y0085108D01*
X0077894Y0085186D01*
X0077921Y0085264D01*
X0077944Y0085345D01*
X0077964Y0085426D01*
X0077979Y0085508D01*
X0077991Y0085590D01*
X0077999Y0085673D01*
X0078003Y0085756D01*
X0078003Y0085840D01*
X0077999Y0085923D01*
X0077991Y0086006D01*
X0077979Y0086088D01*
X0077964Y0086170D01*
X0077944Y0086251D01*
X0077921Y0086332D01*
X0077894Y0086410D01*
X0077864Y0086488D01*
X0077829Y0086564D01*
X0077792Y0086638D01*
X0077751Y0086711D01*
X0077706Y0086781D01*
X0077659Y0086850D01*
X0077608Y0086916D01*
X0077554Y0086979D01*
X0077497Y0087040D01*
X0077437Y0087099D01*
X0077375Y0087154D01*
X0077310Y0087206D01*
X0077243Y0087256D01*
X0077173Y0087302D01*
X0077102Y0087345D01*
X0077028Y0087384D01*
X0076953Y0087420D01*
X0076876Y0087452D01*
X0076798Y0087481D01*
X0076719Y0087506D01*
X0076638Y0087527D01*
X0076557Y0087545D01*
X0076474Y0087558D01*
X0076391Y0087568D01*
X0076308Y0087574D01*
X0076225Y0087576D01*
X0075869Y0087576D01*
X0075795Y0087574D01*
X0075720Y0087568D01*
X0075647Y0087558D01*
X0075573Y0087545D01*
X0075501Y0087528D01*
X0075430Y0087506D01*
X0075359Y0087482D01*
X0075291Y0087453D01*
X0075223Y0087421D01*
X0075158Y0087385D01*
X0075095Y0087347D01*
X0075033Y0087304D01*
X0074974Y0087259D01*
X0074917Y0087211D01*
X0074863Y0087160D01*
X0074812Y0087106D01*
X0074764Y0087049D01*
X0074719Y0086990D01*
X0074676Y0086928D01*
X0074638Y0086865D01*
X0074602Y0086800D01*
X0074570Y0086732D01*
X0074541Y0086664D01*
X0074517Y0086593D01*
X0074495Y0086522D01*
X0074478Y0086450D01*
X0074465Y0086376D01*
X0074455Y0086303D01*
X0074449Y0086228D01*
X0074447Y0086154D01*
X0074447Y0084021D01*
X0074341Y0084023D01*
X0074234Y0084029D01*
X0074129Y0084039D01*
X0074023Y0084053D01*
X0073918Y0084071D01*
X0073814Y0084092D01*
X0073711Y0084118D01*
X0073609Y0084147D01*
X0073508Y0084181D01*
X0073408Y0084218D01*
X0073310Y0084258D01*
X0073213Y0084303D01*
X0073118Y0084351D01*
X0073025Y0084402D01*
X0072934Y0084457D01*
X0072845Y0084515D01*
X0072758Y0084577D01*
X0072674Y0084641D01*
X0072592Y0084709D01*
X0072513Y0084780D01*
X0072436Y0084854D01*
X0072362Y0084931D01*
X0072291Y0085010D01*
X0072223Y0085092D01*
X0072159Y0085176D01*
X0072097Y0085263D01*
X0072039Y0085352D01*
X0071984Y0085443D01*
X0071933Y0085536D01*
X0071885Y0085631D01*
X0071840Y0085728D01*
X0071800Y0085826D01*
X0071763Y0085926D01*
X0071729Y0086027D01*
X0071700Y0086129D01*
X0071674Y0086232D01*
X0071653Y0086336D01*
X0071635Y0086441D01*
X0071621Y0086547D01*
X0071611Y0086652D01*
X0071605Y0086759D01*
X0071603Y0086865D01*
X0071602Y0093698D02*
X0071602Y0095476D01*
X0071602Y0093698D02*
X0078002Y0093698D01*
X0075158Y0093698D02*
X0075158Y0095476D01*
X0075158Y0095831D02*
X0078002Y0097253D01*
X0076936Y0099761D02*
X0075158Y0099761D01*
X0075869Y0099761D02*
X0075869Y0102606D01*
X0075158Y0102606D01*
X0075158Y0102605D02*
X0075084Y0102603D01*
X0075009Y0102597D01*
X0074936Y0102587D01*
X0074862Y0102574D01*
X0074790Y0102557D01*
X0074719Y0102535D01*
X0074648Y0102511D01*
X0074580Y0102482D01*
X0074512Y0102450D01*
X0074447Y0102414D01*
X0074384Y0102376D01*
X0074322Y0102333D01*
X0074263Y0102288D01*
X0074206Y0102240D01*
X0074152Y0102189D01*
X0074101Y0102135D01*
X0074053Y0102078D01*
X0074008Y0102019D01*
X0073965Y0101957D01*
X0073927Y0101894D01*
X0073891Y0101829D01*
X0073859Y0101761D01*
X0073830Y0101693D01*
X0073806Y0101622D01*
X0073784Y0101551D01*
X0073767Y0101479D01*
X0073754Y0101405D01*
X0073744Y0101332D01*
X0073738Y0101257D01*
X0073736Y0101183D01*
X0073738Y0101109D01*
X0073744Y0101034D01*
X0073754Y0100961D01*
X0073767Y0100887D01*
X0073784Y0100815D01*
X0073806Y0100744D01*
X0073830Y0100673D01*
X0073859Y0100605D01*
X0073891Y0100537D01*
X0073927Y0100472D01*
X0073965Y0100409D01*
X0074008Y0100347D01*
X0074053Y0100288D01*
X0074101Y0100231D01*
X0074152Y0100177D01*
X0074206Y0100126D01*
X0074263Y0100078D01*
X0074322Y0100033D01*
X0074384Y0099990D01*
X0074447Y0099952D01*
X0074512Y0099916D01*
X0074580Y0099884D01*
X0074648Y0099855D01*
X0074719Y0099831D01*
X0074790Y0099809D01*
X0074862Y0099792D01*
X0074936Y0099779D01*
X0075009Y0099769D01*
X0075084Y0099763D01*
X0075158Y0099761D01*
X0076936Y0099761D02*
X0077000Y0099763D01*
X0077065Y0099769D01*
X0077128Y0099778D01*
X0077191Y0099792D01*
X0077253Y0099809D01*
X0077314Y0099830D01*
X0077374Y0099855D01*
X0077432Y0099883D01*
X0077488Y0099915D01*
X0077542Y0099950D01*
X0077594Y0099988D01*
X0077644Y0100029D01*
X0077690Y0100074D01*
X0077735Y0100120D01*
X0077776Y0100170D01*
X0077814Y0100222D01*
X0077849Y0100276D01*
X0077881Y0100332D01*
X0077909Y0100390D01*
X0077934Y0100450D01*
X0077955Y0100511D01*
X0077972Y0100573D01*
X0077986Y0100636D01*
X0077995Y0100699D01*
X0078001Y0100764D01*
X0078003Y0100828D01*
X0078002Y0100828D02*
X0078002Y0102606D01*
X0076936Y0105188D02*
X0071602Y0105188D01*
X0073736Y0108704D02*
X0073736Y0110126D01*
X0073735Y0110126D02*
X0073737Y0110190D01*
X0073743Y0110255D01*
X0073752Y0110318D01*
X0073766Y0110381D01*
X0073783Y0110443D01*
X0073804Y0110504D01*
X0073829Y0110564D01*
X0073857Y0110622D01*
X0073889Y0110678D01*
X0073924Y0110732D01*
X0073962Y0110784D01*
X0074003Y0110834D01*
X0074048Y0110880D01*
X0074094Y0110925D01*
X0074144Y0110966D01*
X0074196Y0111004D01*
X0074250Y0111039D01*
X0074306Y0111071D01*
X0074364Y0111099D01*
X0074424Y0111124D01*
X0074485Y0111145D01*
X0074547Y0111162D01*
X0074610Y0111176D01*
X0074673Y0111185D01*
X0074738Y0111191D01*
X0074802Y0111193D01*
X0074802Y0111192D02*
X0078002Y0111192D01*
X0078002Y0109592D01*
X0078000Y0109522D01*
X0077994Y0109453D01*
X0077984Y0109384D01*
X0077971Y0109315D01*
X0077953Y0109248D01*
X0077932Y0109181D01*
X0077907Y0109116D01*
X0077879Y0109052D01*
X0077847Y0108990D01*
X0077811Y0108930D01*
X0077773Y0108872D01*
X0077731Y0108816D01*
X0077686Y0108763D01*
X0077638Y0108712D01*
X0077587Y0108664D01*
X0077534Y0108619D01*
X0077478Y0108577D01*
X0077420Y0108539D01*
X0077360Y0108503D01*
X0077298Y0108471D01*
X0077234Y0108443D01*
X0077169Y0108418D01*
X0077102Y0108397D01*
X0077035Y0108379D01*
X0076966Y0108366D01*
X0076897Y0108356D01*
X0076828Y0108350D01*
X0076758Y0108348D01*
X0076688Y0108350D01*
X0076619Y0108356D01*
X0076550Y0108366D01*
X0076481Y0108379D01*
X0076414Y0108397D01*
X0076347Y0108418D01*
X0076282Y0108443D01*
X0076218Y0108471D01*
X0076156Y0108503D01*
X0076096Y0108539D01*
X0076038Y0108577D01*
X0075982Y0108619D01*
X0075929Y0108664D01*
X0075878Y0108712D01*
X0075830Y0108763D01*
X0075785Y0108816D01*
X0075743Y0108872D01*
X0075705Y0108930D01*
X0075669Y0108990D01*
X0075637Y0109052D01*
X0075609Y0109116D01*
X0075584Y0109181D01*
X0075563Y0109248D01*
X0075545Y0109315D01*
X0075532Y0109384D01*
X0075522Y0109453D01*
X0075516Y0109522D01*
X0075514Y0109592D01*
X0075514Y0111192D01*
X0073736Y0113710D02*
X0078002Y0115133D01*
X0080136Y0114421D02*
X0073736Y0116555D01*
X0074447Y0122464D02*
X0074447Y0124241D01*
X0074445Y0124315D01*
X0074439Y0124390D01*
X0074429Y0124463D01*
X0074416Y0124537D01*
X0074399Y0124609D01*
X0074377Y0124680D01*
X0074353Y0124751D01*
X0074324Y0124819D01*
X0074292Y0124887D01*
X0074256Y0124952D01*
X0074218Y0125015D01*
X0074175Y0125077D01*
X0074130Y0125136D01*
X0074082Y0125193D01*
X0074031Y0125247D01*
X0073977Y0125298D01*
X0073920Y0125346D01*
X0073861Y0125391D01*
X0073799Y0125434D01*
X0073736Y0125472D01*
X0073671Y0125508D01*
X0073603Y0125540D01*
X0073535Y0125569D01*
X0073464Y0125593D01*
X0073393Y0125615D01*
X0073321Y0125632D01*
X0073247Y0125645D01*
X0073174Y0125655D01*
X0073099Y0125661D01*
X0073025Y0125663D01*
X0072951Y0125661D01*
X0072876Y0125655D01*
X0072803Y0125645D01*
X0072729Y0125632D01*
X0072657Y0125615D01*
X0072586Y0125593D01*
X0072515Y0125569D01*
X0072447Y0125540D01*
X0072379Y0125508D01*
X0072314Y0125472D01*
X0072251Y0125434D01*
X0072189Y0125391D01*
X0072130Y0125346D01*
X0072073Y0125298D01*
X0072019Y0125247D01*
X0071968Y0125193D01*
X0071920Y0125136D01*
X0071875Y0125077D01*
X0071832Y0125015D01*
X0071794Y0124952D01*
X0071758Y0124887D01*
X0071726Y0124819D01*
X0071697Y0124751D01*
X0071673Y0124680D01*
X0071651Y0124609D01*
X0071634Y0124537D01*
X0071621Y0124463D01*
X0071611Y0124390D01*
X0071605Y0124315D01*
X0071603Y0124241D01*
X0071602Y0124241D02*
X0071602Y0122464D01*
X0078002Y0122464D01*
X0078002Y0124241D01*
X0078003Y0124241D02*
X0078001Y0124324D01*
X0077995Y0124407D01*
X0077985Y0124490D01*
X0077972Y0124573D01*
X0077954Y0124654D01*
X0077933Y0124735D01*
X0077908Y0124814D01*
X0077879Y0124892D01*
X0077847Y0124969D01*
X0077811Y0125044D01*
X0077772Y0125118D01*
X0077729Y0125189D01*
X0077683Y0125259D01*
X0077633Y0125326D01*
X0077581Y0125391D01*
X0077526Y0125453D01*
X0077467Y0125513D01*
X0077406Y0125570D01*
X0077343Y0125624D01*
X0077277Y0125675D01*
X0077208Y0125722D01*
X0077138Y0125767D01*
X0077065Y0125808D01*
X0076991Y0125845D01*
X0076915Y0125880D01*
X0076837Y0125910D01*
X0076759Y0125937D01*
X0076678Y0125960D01*
X0076597Y0125980D01*
X0076515Y0125995D01*
X0076433Y0126007D01*
X0076350Y0126015D01*
X0076267Y0126019D01*
X0076183Y0126019D01*
X0076100Y0126015D01*
X0076017Y0126007D01*
X0075935Y0125995D01*
X0075853Y0125980D01*
X0075772Y0125960D01*
X0075691Y0125937D01*
X0075613Y0125910D01*
X0075535Y0125880D01*
X0075459Y0125845D01*
X0075385Y0125808D01*
X0075312Y0125767D01*
X0075242Y0125722D01*
X0075173Y0125675D01*
X0075107Y0125624D01*
X0075044Y0125570D01*
X0074983Y0125513D01*
X0074924Y0125453D01*
X0074869Y0125391D01*
X0074817Y0125326D01*
X0074767Y0125259D01*
X0074721Y0125189D01*
X0074678Y0125118D01*
X0074639Y0125044D01*
X0074603Y0124969D01*
X0074571Y0124892D01*
X0074542Y0124814D01*
X0074517Y0124735D01*
X0074496Y0124654D01*
X0074478Y0124573D01*
X0074465Y0124490D01*
X0074455Y0124407D01*
X0074449Y0124324D01*
X0074447Y0124241D01*
X0075158Y0128275D02*
X0076580Y0128275D01*
X0076654Y0128277D01*
X0076729Y0128283D01*
X0076802Y0128293D01*
X0076876Y0128306D01*
X0076948Y0128323D01*
X0077019Y0128345D01*
X0077090Y0128369D01*
X0077158Y0128398D01*
X0077226Y0128430D01*
X0077291Y0128466D01*
X0077354Y0128504D01*
X0077416Y0128547D01*
X0077475Y0128592D01*
X0077532Y0128640D01*
X0077586Y0128691D01*
X0077637Y0128745D01*
X0077685Y0128802D01*
X0077730Y0128861D01*
X0077773Y0128923D01*
X0077811Y0128986D01*
X0077847Y0129051D01*
X0077879Y0129119D01*
X0077908Y0129187D01*
X0077932Y0129258D01*
X0077954Y0129329D01*
X0077971Y0129401D01*
X0077984Y0129475D01*
X0077994Y0129548D01*
X0078000Y0129623D01*
X0078002Y0129697D01*
X0078000Y0129771D01*
X0077994Y0129846D01*
X0077984Y0129919D01*
X0077971Y0129993D01*
X0077954Y0130065D01*
X0077932Y0130136D01*
X0077908Y0130207D01*
X0077879Y0130275D01*
X0077847Y0130343D01*
X0077811Y0130408D01*
X0077773Y0130471D01*
X0077730Y0130533D01*
X0077685Y0130592D01*
X0077637Y0130649D01*
X0077586Y0130703D01*
X0077532Y0130754D01*
X0077475Y0130802D01*
X0077416Y0130847D01*
X0077354Y0130890D01*
X0077291Y0130928D01*
X0077226Y0130964D01*
X0077158Y0130996D01*
X0077090Y0131025D01*
X0077019Y0131049D01*
X0076948Y0131071D01*
X0076876Y0131088D01*
X0076802Y0131101D01*
X0076729Y0131111D01*
X0076654Y0131117D01*
X0076580Y0131119D01*
X0075158Y0131119D01*
X0075084Y0131117D01*
X0075009Y0131111D01*
X0074936Y0131101D01*
X0074862Y0131088D01*
X0074790Y0131071D01*
X0074719Y0131049D01*
X0074648Y0131025D01*
X0074580Y0130996D01*
X0074512Y0130964D01*
X0074447Y0130928D01*
X0074384Y0130890D01*
X0074322Y0130847D01*
X0074263Y0130802D01*
X0074206Y0130754D01*
X0074152Y0130703D01*
X0074101Y0130649D01*
X0074053Y0130592D01*
X0074008Y0130533D01*
X0073965Y0130471D01*
X0073927Y0130408D01*
X0073891Y0130343D01*
X0073859Y0130275D01*
X0073830Y0130207D01*
X0073806Y0130136D01*
X0073784Y0130065D01*
X0073767Y0129993D01*
X0073754Y0129919D01*
X0073744Y0129846D01*
X0073738Y0129771D01*
X0073736Y0129697D01*
X0073738Y0129623D01*
X0073744Y0129548D01*
X0073754Y0129475D01*
X0073767Y0129401D01*
X0073784Y0129329D01*
X0073806Y0129258D01*
X0073830Y0129187D01*
X0073859Y0129119D01*
X0073891Y0129051D01*
X0073927Y0128986D01*
X0073965Y0128923D01*
X0074008Y0128861D01*
X0074053Y0128802D01*
X0074101Y0128745D01*
X0074152Y0128691D01*
X0074206Y0128640D01*
X0074263Y0128592D01*
X0074322Y0128547D01*
X0074384Y0128504D01*
X0074447Y0128466D01*
X0074512Y0128430D01*
X0074580Y0128398D01*
X0074648Y0128369D01*
X0074719Y0128345D01*
X0074790Y0128323D01*
X0074862Y0128306D01*
X0074936Y0128293D01*
X0075009Y0128283D01*
X0075084Y0128277D01*
X0075158Y0128275D01*
X0073736Y0133935D02*
X0073736Y0135357D01*
X0073735Y0135357D02*
X0073737Y0135421D01*
X0073743Y0135486D01*
X0073752Y0135549D01*
X0073766Y0135612D01*
X0073783Y0135674D01*
X0073804Y0135735D01*
X0073829Y0135795D01*
X0073857Y0135853D01*
X0073889Y0135909D01*
X0073924Y0135963D01*
X0073962Y0136015D01*
X0074003Y0136065D01*
X0074048Y0136111D01*
X0074094Y0136156D01*
X0074144Y0136197D01*
X0074196Y0136235D01*
X0074250Y0136270D01*
X0074306Y0136302D01*
X0074364Y0136330D01*
X0074424Y0136355D01*
X0074485Y0136376D01*
X0074547Y0136393D01*
X0074610Y0136407D01*
X0074673Y0136416D01*
X0074738Y0136422D01*
X0074802Y0136424D01*
X0078002Y0136424D01*
X0078002Y0134824D01*
X0078000Y0134754D01*
X0077994Y0134685D01*
X0077984Y0134616D01*
X0077971Y0134547D01*
X0077953Y0134480D01*
X0077932Y0134413D01*
X0077907Y0134348D01*
X0077879Y0134284D01*
X0077847Y0134222D01*
X0077811Y0134162D01*
X0077773Y0134104D01*
X0077731Y0134048D01*
X0077686Y0133995D01*
X0077638Y0133944D01*
X0077587Y0133896D01*
X0077534Y0133851D01*
X0077478Y0133809D01*
X0077420Y0133771D01*
X0077360Y0133735D01*
X0077298Y0133703D01*
X0077234Y0133675D01*
X0077169Y0133650D01*
X0077102Y0133629D01*
X0077035Y0133611D01*
X0076966Y0133598D01*
X0076897Y0133588D01*
X0076828Y0133582D01*
X0076758Y0133580D01*
X0076688Y0133582D01*
X0076619Y0133588D01*
X0076550Y0133598D01*
X0076481Y0133611D01*
X0076414Y0133629D01*
X0076347Y0133650D01*
X0076282Y0133675D01*
X0076218Y0133703D01*
X0076156Y0133735D01*
X0076096Y0133771D01*
X0076038Y0133809D01*
X0075982Y0133851D01*
X0075929Y0133896D01*
X0075878Y0133944D01*
X0075830Y0133995D01*
X0075785Y0134048D01*
X0075743Y0134104D01*
X0075705Y0134162D01*
X0075669Y0134222D01*
X0075637Y0134284D01*
X0075609Y0134348D01*
X0075584Y0134413D01*
X0075563Y0134480D01*
X0075545Y0134547D01*
X0075532Y0134616D01*
X0075522Y0134685D01*
X0075516Y0134754D01*
X0075514Y0134824D01*
X0075514Y0136424D01*
X0073736Y0139385D02*
X0073736Y0141519D01*
X0074447Y0141519D01*
X0074802Y0143426D02*
X0076936Y0143426D01*
X0077000Y0143428D01*
X0077065Y0143434D01*
X0077128Y0143443D01*
X0077191Y0143457D01*
X0077253Y0143474D01*
X0077314Y0143495D01*
X0077374Y0143520D01*
X0077432Y0143548D01*
X0077488Y0143580D01*
X0077542Y0143615D01*
X0077594Y0143653D01*
X0077644Y0143694D01*
X0077690Y0143739D01*
X0077735Y0143785D01*
X0077776Y0143835D01*
X0077814Y0143887D01*
X0077849Y0143941D01*
X0077881Y0143997D01*
X0077909Y0144055D01*
X0077934Y0144115D01*
X0077955Y0144176D01*
X0077972Y0144238D01*
X0077986Y0144301D01*
X0077995Y0144364D01*
X0078001Y0144429D01*
X0078003Y0144493D01*
X0078002Y0144493D02*
X0078002Y0146270D01*
X0071602Y0146270D01*
X0073736Y0146270D02*
X0073736Y0144493D01*
X0073735Y0144493D02*
X0073737Y0144429D01*
X0073743Y0144364D01*
X0073752Y0144301D01*
X0073766Y0144238D01*
X0073783Y0144176D01*
X0073804Y0144115D01*
X0073829Y0144055D01*
X0073857Y0143997D01*
X0073889Y0143941D01*
X0073924Y0143887D01*
X0073962Y0143835D01*
X0074003Y0143785D01*
X0074048Y0143739D01*
X0074094Y0143694D01*
X0074144Y0143653D01*
X0074196Y0143615D01*
X0074250Y0143580D01*
X0074306Y0143548D01*
X0074364Y0143520D01*
X0074424Y0143495D01*
X0074485Y0143474D01*
X0074547Y0143457D01*
X0074610Y0143443D01*
X0074673Y0143434D01*
X0074738Y0143428D01*
X0074802Y0143426D01*
X0073736Y0139385D02*
X0078002Y0139385D01*
X0075514Y0164851D02*
X0074091Y0164851D01*
X0074040Y0164853D01*
X0073990Y0164858D01*
X0073940Y0164867D01*
X0073891Y0164880D01*
X0073843Y0164896D01*
X0073796Y0164915D01*
X0073750Y0164938D01*
X0073707Y0164964D01*
X0073665Y0164993D01*
X0073625Y0165025D01*
X0073588Y0165059D01*
X0073554Y0165096D01*
X0073522Y0165136D01*
X0073493Y0165178D01*
X0073467Y0165221D01*
X0073444Y0165267D01*
X0073425Y0165314D01*
X0073409Y0165362D01*
X0073396Y0165411D01*
X0073387Y0165461D01*
X0073382Y0165511D01*
X0073380Y0165562D01*
X0073380Y0166451D01*
X0074802Y0168762D02*
X0074911Y0168760D01*
X0075020Y0168754D01*
X0075129Y0168744D01*
X0075237Y0168731D01*
X0075345Y0168713D01*
X0075452Y0168691D01*
X0075558Y0168666D01*
X0075663Y0168637D01*
X0075767Y0168604D01*
X0075870Y0168567D01*
X0075971Y0168527D01*
X0076071Y0168483D01*
X0076169Y0168435D01*
X0076266Y0168384D01*
X0076360Y0168329D01*
X0076452Y0168271D01*
X0076543Y0168210D01*
X0076631Y0168146D01*
X0076716Y0168078D01*
X0076800Y0168008D01*
X0076880Y0167934D01*
X0076958Y0167857D01*
X0077033Y0167778D01*
X0077105Y0167696D01*
X0077174Y0167612D01*
X0077240Y0167525D01*
X0077303Y0167436D01*
X0077363Y0167344D01*
X0077419Y0167251D01*
X0077472Y0167156D01*
X0077521Y0167058D01*
X0077567Y0166959D01*
X0077609Y0166859D01*
X0077648Y0166756D01*
X0077683Y0166653D01*
X0077714Y0166548D01*
X0077741Y0166443D01*
X0077765Y0166336D01*
X0077784Y0166229D01*
X0077800Y0166121D01*
X0077812Y0166012D01*
X0077820Y0165904D01*
X0077824Y0165795D01*
X0077824Y0165685D01*
X0077820Y0165576D01*
X0077812Y0165468D01*
X0077800Y0165359D01*
X0077784Y0165251D01*
X0077765Y0165144D01*
X0077741Y0165037D01*
X0077714Y0164932D01*
X0077683Y0164827D01*
X0077648Y0164724D01*
X0077609Y0164621D01*
X0077567Y0164521D01*
X0077521Y0164422D01*
X0077472Y0164324D01*
X0077419Y0164229D01*
X0077363Y0164136D01*
X0077303Y0164044D01*
X0077240Y0163955D01*
X0077174Y0163868D01*
X0077105Y0163784D01*
X0077033Y0163702D01*
X0076958Y0163623D01*
X0076880Y0163546D01*
X0076800Y0163472D01*
X0076716Y0163402D01*
X0076631Y0163334D01*
X0076543Y0163270D01*
X0076452Y0163209D01*
X0076360Y0163151D01*
X0076266Y0163096D01*
X0076169Y0163045D01*
X0076071Y0162997D01*
X0075971Y0162953D01*
X0075870Y0162913D01*
X0075767Y0162876D01*
X0075663Y0162843D01*
X0075558Y0162814D01*
X0075452Y0162789D01*
X0075345Y0162767D01*
X0075237Y0162749D01*
X0075129Y0162736D01*
X0075020Y0162726D01*
X0074911Y0162720D01*
X0074802Y0162718D01*
X0075514Y0164851D02*
X0075567Y0164853D01*
X0075620Y0164859D01*
X0075672Y0164869D01*
X0075724Y0164883D01*
X0075774Y0164900D01*
X0075822Y0164921D01*
X0075870Y0164946D01*
X0075915Y0164975D01*
X0075957Y0165006D01*
X0075998Y0165041D01*
X0076035Y0165078D01*
X0076070Y0165119D01*
X0076101Y0165161D01*
X0076130Y0165207D01*
X0076155Y0165254D01*
X0076176Y0165302D01*
X0076193Y0165352D01*
X0076207Y0165404D01*
X0076217Y0165456D01*
X0076223Y0165509D01*
X0076225Y0165562D01*
X0076225Y0166451D01*
X0074802Y0168762D02*
X0074693Y0168760D01*
X0074584Y0168754D01*
X0074475Y0168744D01*
X0074367Y0168731D01*
X0074259Y0168713D01*
X0074152Y0168691D01*
X0074046Y0168666D01*
X0073941Y0168637D01*
X0073837Y0168604D01*
X0073734Y0168567D01*
X0073633Y0168527D01*
X0073533Y0168483D01*
X0073435Y0168435D01*
X0073338Y0168384D01*
X0073244Y0168329D01*
X0073152Y0168271D01*
X0073061Y0168210D01*
X0072973Y0168146D01*
X0072888Y0168078D01*
X0072804Y0168008D01*
X0072724Y0167934D01*
X0072646Y0167857D01*
X0072571Y0167778D01*
X0072499Y0167696D01*
X0072430Y0167612D01*
X0072364Y0167525D01*
X0072301Y0167436D01*
X0072241Y0167344D01*
X0072185Y0167251D01*
X0072132Y0167156D01*
X0072083Y0167058D01*
X0072037Y0166959D01*
X0071995Y0166859D01*
X0071956Y0166756D01*
X0071921Y0166653D01*
X0071890Y0166548D01*
X0071863Y0166443D01*
X0071839Y0166336D01*
X0071820Y0166229D01*
X0071804Y0166121D01*
X0071792Y0166012D01*
X0071784Y0165904D01*
X0071780Y0165795D01*
X0071780Y0165685D01*
X0071784Y0165576D01*
X0071792Y0165468D01*
X0071804Y0165359D01*
X0071820Y0165251D01*
X0071839Y0165144D01*
X0071863Y0165037D01*
X0071890Y0164932D01*
X0071921Y0164827D01*
X0071956Y0164724D01*
X0071995Y0164621D01*
X0072037Y0164521D01*
X0072083Y0164422D01*
X0072132Y0164324D01*
X0072185Y0164229D01*
X0072241Y0164136D01*
X0072301Y0164044D01*
X0072364Y0163955D01*
X0072430Y0163868D01*
X0072499Y0163784D01*
X0072571Y0163702D01*
X0072646Y0163623D01*
X0072724Y0163546D01*
X0072804Y0163472D01*
X0072888Y0163402D01*
X0072973Y0163334D01*
X0073061Y0163270D01*
X0073152Y0163209D01*
X0073244Y0163151D01*
X0073338Y0163096D01*
X0073435Y0163045D01*
X0073533Y0162997D01*
X0073633Y0162953D01*
X0073734Y0162913D01*
X0073837Y0162876D01*
X0073941Y0162843D01*
X0074046Y0162814D01*
X0074152Y0162789D01*
X0074259Y0162767D01*
X0074367Y0162749D01*
X0074475Y0162736D01*
X0074584Y0162726D01*
X0074693Y0162720D01*
X0074802Y0162718D01*
X0078002Y0174021D02*
X0078002Y0174732D01*
X0078000Y0174806D01*
X0077994Y0174881D01*
X0077984Y0174954D01*
X0077971Y0175028D01*
X0077954Y0175100D01*
X0077932Y0175171D01*
X0077908Y0175242D01*
X0077879Y0175310D01*
X0077847Y0175378D01*
X0077811Y0175443D01*
X0077773Y0175506D01*
X0077730Y0175568D01*
X0077685Y0175627D01*
X0077637Y0175684D01*
X0077586Y0175738D01*
X0077532Y0175789D01*
X0077475Y0175837D01*
X0077416Y0175882D01*
X0077354Y0175925D01*
X0077291Y0175963D01*
X0077226Y0175999D01*
X0077158Y0176031D01*
X0077090Y0176060D01*
X0077019Y0176084D01*
X0076948Y0176106D01*
X0076876Y0176123D01*
X0076802Y0176136D01*
X0076729Y0176146D01*
X0076654Y0176152D01*
X0076580Y0176154D01*
X0071602Y0176154D01*
X0075158Y0178882D02*
X0076580Y0178882D01*
X0076654Y0178884D01*
X0076729Y0178890D01*
X0076802Y0178900D01*
X0076876Y0178913D01*
X0076948Y0178930D01*
X0077019Y0178952D01*
X0077090Y0178976D01*
X0077158Y0179005D01*
X0077226Y0179037D01*
X0077291Y0179073D01*
X0077354Y0179111D01*
X0077416Y0179154D01*
X0077475Y0179199D01*
X0077532Y0179247D01*
X0077586Y0179298D01*
X0077637Y0179352D01*
X0077685Y0179409D01*
X0077730Y0179468D01*
X0077773Y0179530D01*
X0077811Y0179593D01*
X0077847Y0179658D01*
X0077879Y0179726D01*
X0077908Y0179794D01*
X0077932Y0179865D01*
X0077954Y0179936D01*
X0077971Y0180008D01*
X0077984Y0180082D01*
X0077994Y0180155D01*
X0078000Y0180230D01*
X0078002Y0180304D01*
X0078000Y0180378D01*
X0077994Y0180453D01*
X0077984Y0180526D01*
X0077971Y0180600D01*
X0077954Y0180672D01*
X0077932Y0180743D01*
X0077908Y0180814D01*
X0077879Y0180882D01*
X0077847Y0180950D01*
X0077811Y0181015D01*
X0077773Y0181078D01*
X0077730Y0181140D01*
X0077685Y0181199D01*
X0077637Y0181256D01*
X0077586Y0181310D01*
X0077532Y0181361D01*
X0077475Y0181409D01*
X0077416Y0181454D01*
X0077354Y0181497D01*
X0077291Y0181535D01*
X0077226Y0181571D01*
X0077158Y0181603D01*
X0077090Y0181632D01*
X0077019Y0181656D01*
X0076948Y0181678D01*
X0076876Y0181695D01*
X0076802Y0181708D01*
X0076729Y0181718D01*
X0076654Y0181724D01*
X0076580Y0181726D01*
X0075158Y0181726D01*
X0075084Y0181724D01*
X0075009Y0181718D01*
X0074936Y0181708D01*
X0074862Y0181695D01*
X0074790Y0181678D01*
X0074719Y0181656D01*
X0074648Y0181632D01*
X0074580Y0181603D01*
X0074512Y0181571D01*
X0074447Y0181535D01*
X0074384Y0181497D01*
X0074322Y0181454D01*
X0074263Y0181409D01*
X0074206Y0181361D01*
X0074152Y0181310D01*
X0074101Y0181256D01*
X0074053Y0181199D01*
X0074008Y0181140D01*
X0073965Y0181078D01*
X0073927Y0181015D01*
X0073891Y0180950D01*
X0073859Y0180882D01*
X0073830Y0180814D01*
X0073806Y0180743D01*
X0073784Y0180672D01*
X0073767Y0180600D01*
X0073754Y0180526D01*
X0073744Y0180453D01*
X0073738Y0180378D01*
X0073736Y0180304D01*
X0073738Y0180230D01*
X0073744Y0180155D01*
X0073754Y0180082D01*
X0073767Y0180008D01*
X0073784Y0179936D01*
X0073806Y0179865D01*
X0073830Y0179794D01*
X0073859Y0179726D01*
X0073891Y0179658D01*
X0073927Y0179593D01*
X0073965Y0179530D01*
X0074008Y0179468D01*
X0074053Y0179409D01*
X0074101Y0179352D01*
X0074152Y0179298D01*
X0074206Y0179247D01*
X0074263Y0179199D01*
X0074322Y0179154D01*
X0074384Y0179111D01*
X0074447Y0179073D01*
X0074512Y0179037D01*
X0074580Y0179005D01*
X0074648Y0178976D01*
X0074719Y0178952D01*
X0074790Y0178930D01*
X0074862Y0178913D01*
X0074936Y0178900D01*
X0075009Y0178890D01*
X0075084Y0178884D01*
X0075158Y0178882D01*
X0073736Y0184420D02*
X0073736Y0186198D01*
X0073735Y0186198D02*
X0073737Y0186262D01*
X0073743Y0186327D01*
X0073752Y0186390D01*
X0073766Y0186453D01*
X0073783Y0186515D01*
X0073804Y0186576D01*
X0073829Y0186636D01*
X0073857Y0186694D01*
X0073889Y0186750D01*
X0073924Y0186804D01*
X0073962Y0186856D01*
X0074003Y0186906D01*
X0074048Y0186952D01*
X0074094Y0186997D01*
X0074144Y0187038D01*
X0074196Y0187076D01*
X0074250Y0187111D01*
X0074306Y0187143D01*
X0074364Y0187171D01*
X0074424Y0187196D01*
X0074485Y0187217D01*
X0074547Y0187234D01*
X0074610Y0187248D01*
X0074673Y0187257D01*
X0074738Y0187263D01*
X0074802Y0187265D01*
X0078002Y0187265D01*
X0078002Y0184420D02*
X0073736Y0184420D01*
X0073736Y0190164D02*
X0073736Y0191942D01*
X0073735Y0191942D02*
X0073737Y0192006D01*
X0073743Y0192071D01*
X0073752Y0192134D01*
X0073766Y0192197D01*
X0073783Y0192259D01*
X0073804Y0192320D01*
X0073829Y0192380D01*
X0073857Y0192438D01*
X0073889Y0192494D01*
X0073924Y0192548D01*
X0073962Y0192600D01*
X0074003Y0192650D01*
X0074048Y0192696D01*
X0074094Y0192741D01*
X0074144Y0192782D01*
X0074196Y0192820D01*
X0074250Y0192855D01*
X0074306Y0192887D01*
X0074364Y0192915D01*
X0074424Y0192940D01*
X0074485Y0192961D01*
X0074547Y0192978D01*
X0074610Y0192992D01*
X0074673Y0193001D01*
X0074738Y0193007D01*
X0074802Y0193009D01*
X0078002Y0193009D01*
X0078002Y0190164D02*
X0073736Y0190164D01*
X0073736Y0195498D02*
X0078002Y0196920D01*
X0080136Y0196209D02*
X0080136Y0195498D01*
X0080136Y0196209D02*
X0073736Y0198342D01*
X0074447Y0204251D02*
X0074447Y0206029D01*
X0074445Y0206103D01*
X0074439Y0206178D01*
X0074429Y0206251D01*
X0074416Y0206325D01*
X0074399Y0206397D01*
X0074377Y0206468D01*
X0074353Y0206539D01*
X0074324Y0206607D01*
X0074292Y0206675D01*
X0074256Y0206740D01*
X0074218Y0206803D01*
X0074175Y0206865D01*
X0074130Y0206924D01*
X0074082Y0206981D01*
X0074031Y0207035D01*
X0073977Y0207086D01*
X0073920Y0207134D01*
X0073861Y0207179D01*
X0073799Y0207222D01*
X0073736Y0207260D01*
X0073671Y0207296D01*
X0073603Y0207328D01*
X0073535Y0207357D01*
X0073464Y0207381D01*
X0073393Y0207403D01*
X0073321Y0207420D01*
X0073247Y0207433D01*
X0073174Y0207443D01*
X0073099Y0207449D01*
X0073025Y0207451D01*
X0072951Y0207449D01*
X0072876Y0207443D01*
X0072803Y0207433D01*
X0072729Y0207420D01*
X0072657Y0207403D01*
X0072586Y0207381D01*
X0072515Y0207357D01*
X0072447Y0207328D01*
X0072379Y0207296D01*
X0072314Y0207260D01*
X0072251Y0207222D01*
X0072189Y0207179D01*
X0072130Y0207134D01*
X0072073Y0207086D01*
X0072019Y0207035D01*
X0071968Y0206981D01*
X0071920Y0206924D01*
X0071875Y0206865D01*
X0071832Y0206803D01*
X0071794Y0206740D01*
X0071758Y0206675D01*
X0071726Y0206607D01*
X0071697Y0206539D01*
X0071673Y0206468D01*
X0071651Y0206397D01*
X0071634Y0206325D01*
X0071621Y0206251D01*
X0071611Y0206178D01*
X0071605Y0206103D01*
X0071603Y0206029D01*
X0071602Y0206029D02*
X0071602Y0204251D01*
X0078002Y0204251D01*
X0078002Y0206029D01*
X0078003Y0206029D02*
X0078001Y0206112D01*
X0077995Y0206195D01*
X0077985Y0206278D01*
X0077972Y0206361D01*
X0077954Y0206442D01*
X0077933Y0206523D01*
X0077908Y0206602D01*
X0077879Y0206680D01*
X0077847Y0206757D01*
X0077811Y0206832D01*
X0077772Y0206906D01*
X0077729Y0206977D01*
X0077683Y0207047D01*
X0077633Y0207114D01*
X0077581Y0207179D01*
X0077526Y0207241D01*
X0077467Y0207301D01*
X0077406Y0207358D01*
X0077343Y0207412D01*
X0077277Y0207463D01*
X0077208Y0207510D01*
X0077138Y0207555D01*
X0077065Y0207596D01*
X0076991Y0207633D01*
X0076915Y0207668D01*
X0076837Y0207698D01*
X0076759Y0207725D01*
X0076678Y0207748D01*
X0076597Y0207768D01*
X0076515Y0207783D01*
X0076433Y0207795D01*
X0076350Y0207803D01*
X0076267Y0207807D01*
X0076183Y0207807D01*
X0076100Y0207803D01*
X0076017Y0207795D01*
X0075935Y0207783D01*
X0075853Y0207768D01*
X0075772Y0207748D01*
X0075691Y0207725D01*
X0075613Y0207698D01*
X0075535Y0207668D01*
X0075459Y0207633D01*
X0075385Y0207596D01*
X0075312Y0207555D01*
X0075242Y0207510D01*
X0075173Y0207463D01*
X0075107Y0207412D01*
X0075044Y0207358D01*
X0074983Y0207301D01*
X0074924Y0207241D01*
X0074869Y0207179D01*
X0074817Y0207114D01*
X0074767Y0207047D01*
X0074721Y0206977D01*
X0074678Y0206906D01*
X0074639Y0206832D01*
X0074603Y0206757D01*
X0074571Y0206680D01*
X0074542Y0206602D01*
X0074517Y0206523D01*
X0074496Y0206442D01*
X0074478Y0206361D01*
X0074465Y0206278D01*
X0074455Y0206195D01*
X0074449Y0206112D01*
X0074447Y0206029D01*
X0075158Y0210062D02*
X0076936Y0210062D01*
X0077000Y0210064D01*
X0077065Y0210070D01*
X0077128Y0210079D01*
X0077191Y0210093D01*
X0077253Y0210110D01*
X0077314Y0210131D01*
X0077374Y0210156D01*
X0077432Y0210184D01*
X0077488Y0210216D01*
X0077542Y0210251D01*
X0077594Y0210289D01*
X0077644Y0210330D01*
X0077690Y0210375D01*
X0077735Y0210421D01*
X0077776Y0210471D01*
X0077814Y0210523D01*
X0077849Y0210577D01*
X0077881Y0210633D01*
X0077909Y0210691D01*
X0077934Y0210751D01*
X0077955Y0210812D01*
X0077972Y0210874D01*
X0077986Y0210937D01*
X0077995Y0211000D01*
X0078001Y0211065D01*
X0078003Y0211129D01*
X0078002Y0211129D02*
X0078002Y0212907D01*
X0075869Y0212907D02*
X0075869Y0210062D01*
X0075158Y0210062D02*
X0075084Y0210064D01*
X0075009Y0210070D01*
X0074936Y0210080D01*
X0074862Y0210093D01*
X0074790Y0210110D01*
X0074719Y0210132D01*
X0074648Y0210156D01*
X0074580Y0210185D01*
X0074512Y0210217D01*
X0074447Y0210253D01*
X0074384Y0210291D01*
X0074322Y0210334D01*
X0074263Y0210379D01*
X0074206Y0210427D01*
X0074152Y0210478D01*
X0074101Y0210532D01*
X0074053Y0210589D01*
X0074008Y0210648D01*
X0073965Y0210710D01*
X0073927Y0210773D01*
X0073891Y0210838D01*
X0073859Y0210906D01*
X0073830Y0210974D01*
X0073806Y0211045D01*
X0073784Y0211116D01*
X0073767Y0211188D01*
X0073754Y0211262D01*
X0073744Y0211335D01*
X0073738Y0211410D01*
X0073736Y0211484D01*
X0073738Y0211558D01*
X0073744Y0211633D01*
X0073754Y0211706D01*
X0073767Y0211780D01*
X0073784Y0211852D01*
X0073806Y0211923D01*
X0073830Y0211994D01*
X0073859Y0212062D01*
X0073891Y0212130D01*
X0073927Y0212195D01*
X0073965Y0212258D01*
X0074008Y0212320D01*
X0074053Y0212379D01*
X0074101Y0212436D01*
X0074152Y0212490D01*
X0074206Y0212541D01*
X0074263Y0212589D01*
X0074322Y0212634D01*
X0074384Y0212677D01*
X0074447Y0212715D01*
X0074512Y0212751D01*
X0074580Y0212783D01*
X0074648Y0212812D01*
X0074719Y0212836D01*
X0074790Y0212858D01*
X0074862Y0212875D01*
X0074936Y0212888D01*
X0075009Y0212898D01*
X0075084Y0212904D01*
X0075158Y0212906D01*
X0075158Y0212907D02*
X0075869Y0212907D01*
X0073736Y0215634D02*
X0073736Y0217768D01*
X0074447Y0217768D01*
X0074802Y0219675D02*
X0076936Y0219675D01*
X0076936Y0219674D02*
X0077000Y0219676D01*
X0077065Y0219682D01*
X0077128Y0219691D01*
X0077191Y0219705D01*
X0077253Y0219722D01*
X0077314Y0219743D01*
X0077374Y0219768D01*
X0077432Y0219796D01*
X0077488Y0219828D01*
X0077542Y0219863D01*
X0077594Y0219901D01*
X0077644Y0219942D01*
X0077690Y0219987D01*
X0077735Y0220033D01*
X0077776Y0220083D01*
X0077814Y0220135D01*
X0077849Y0220189D01*
X0077881Y0220245D01*
X0077909Y0220303D01*
X0077934Y0220363D01*
X0077955Y0220424D01*
X0077972Y0220486D01*
X0077986Y0220549D01*
X0077995Y0220612D01*
X0078001Y0220677D01*
X0078003Y0220741D01*
X0078002Y0220741D02*
X0078002Y0222519D01*
X0079069Y0222519D02*
X0073736Y0222519D01*
X0073736Y0220741D01*
X0073735Y0220741D02*
X0073737Y0220677D01*
X0073743Y0220612D01*
X0073752Y0220549D01*
X0073766Y0220486D01*
X0073783Y0220424D01*
X0073804Y0220363D01*
X0073829Y0220303D01*
X0073857Y0220245D01*
X0073889Y0220189D01*
X0073924Y0220135D01*
X0073962Y0220083D01*
X0074003Y0220033D01*
X0074048Y0219987D01*
X0074094Y0219942D01*
X0074144Y0219901D01*
X0074196Y0219863D01*
X0074250Y0219828D01*
X0074306Y0219796D01*
X0074364Y0219768D01*
X0074424Y0219743D01*
X0074485Y0219722D01*
X0074547Y0219705D01*
X0074610Y0219691D01*
X0074673Y0219682D01*
X0074738Y0219676D01*
X0074802Y0219674D01*
X0073736Y0215634D02*
X0078002Y0215634D01*
X0080136Y0220030D02*
X0080136Y0221452D01*
X0080134Y0221516D01*
X0080128Y0221581D01*
X0080119Y0221644D01*
X0080105Y0221707D01*
X0080088Y0221769D01*
X0080067Y0221830D01*
X0080042Y0221890D01*
X0080014Y0221948D01*
X0079982Y0222004D01*
X0079947Y0222058D01*
X0079909Y0222110D01*
X0079868Y0222160D01*
X0079823Y0222206D01*
X0079777Y0222251D01*
X0079727Y0222292D01*
X0079675Y0222330D01*
X0079621Y0222365D01*
X0079565Y0222397D01*
X0079507Y0222425D01*
X0079447Y0222450D01*
X0079386Y0222471D01*
X0079324Y0222488D01*
X0079261Y0222502D01*
X0079198Y0222511D01*
X0079133Y0222517D01*
X0079069Y0222519D01*
X0076936Y0225213D02*
X0074802Y0225213D01*
X0074738Y0225215D01*
X0074673Y0225221D01*
X0074610Y0225230D01*
X0074547Y0225244D01*
X0074485Y0225261D01*
X0074424Y0225282D01*
X0074364Y0225307D01*
X0074306Y0225335D01*
X0074250Y0225367D01*
X0074196Y0225402D01*
X0074144Y0225440D01*
X0074094Y0225481D01*
X0074048Y0225526D01*
X0074003Y0225572D01*
X0073962Y0225622D01*
X0073924Y0225674D01*
X0073889Y0225728D01*
X0073857Y0225784D01*
X0073829Y0225842D01*
X0073804Y0225902D01*
X0073783Y0225963D01*
X0073766Y0226025D01*
X0073752Y0226088D01*
X0073743Y0226151D01*
X0073737Y0226216D01*
X0073735Y0226280D01*
X0073736Y0226280D02*
X0073736Y0228058D01*
X0071602Y0228058D02*
X0078002Y0228058D01*
X0078002Y0226280D01*
X0078003Y0226280D02*
X0078001Y0226216D01*
X0077995Y0226151D01*
X0077986Y0226088D01*
X0077972Y0226025D01*
X0077955Y0225963D01*
X0077934Y0225902D01*
X0077909Y0225842D01*
X0077881Y0225784D01*
X0077849Y0225728D01*
X0077814Y0225674D01*
X0077776Y0225622D01*
X0077735Y0225572D01*
X0077690Y0225526D01*
X0077644Y0225481D01*
X0077594Y0225440D01*
X0077542Y0225402D01*
X0077488Y0225367D01*
X0077432Y0225335D01*
X0077374Y0225307D01*
X0077314Y0225282D01*
X0077253Y0225261D01*
X0077191Y0225244D01*
X0077128Y0225230D01*
X0077065Y0225221D01*
X0077000Y0225215D01*
X0076936Y0225213D01*
X0073736Y0231107D02*
X0073736Y0232530D01*
X0073735Y0232530D02*
X0073737Y0232594D01*
X0073743Y0232659D01*
X0073752Y0232722D01*
X0073766Y0232785D01*
X0073783Y0232847D01*
X0073804Y0232908D01*
X0073829Y0232968D01*
X0073857Y0233026D01*
X0073889Y0233082D01*
X0073924Y0233136D01*
X0073962Y0233188D01*
X0074003Y0233238D01*
X0074048Y0233284D01*
X0074094Y0233329D01*
X0074144Y0233370D01*
X0074196Y0233408D01*
X0074250Y0233443D01*
X0074306Y0233475D01*
X0074364Y0233503D01*
X0074424Y0233528D01*
X0074485Y0233549D01*
X0074547Y0233566D01*
X0074610Y0233580D01*
X0074673Y0233589D01*
X0074738Y0233595D01*
X0074802Y0233597D01*
X0074802Y0233596D02*
X0078002Y0233596D01*
X0078002Y0231996D01*
X0078000Y0231926D01*
X0077994Y0231857D01*
X0077984Y0231788D01*
X0077971Y0231719D01*
X0077953Y0231652D01*
X0077932Y0231585D01*
X0077907Y0231520D01*
X0077879Y0231456D01*
X0077847Y0231394D01*
X0077811Y0231334D01*
X0077773Y0231276D01*
X0077731Y0231220D01*
X0077686Y0231167D01*
X0077638Y0231116D01*
X0077587Y0231068D01*
X0077534Y0231023D01*
X0077478Y0230981D01*
X0077420Y0230943D01*
X0077360Y0230907D01*
X0077298Y0230875D01*
X0077234Y0230847D01*
X0077169Y0230822D01*
X0077102Y0230801D01*
X0077035Y0230783D01*
X0076966Y0230770D01*
X0076897Y0230760D01*
X0076828Y0230754D01*
X0076758Y0230752D01*
X0076688Y0230754D01*
X0076619Y0230760D01*
X0076550Y0230770D01*
X0076481Y0230783D01*
X0076414Y0230801D01*
X0076347Y0230822D01*
X0076282Y0230847D01*
X0076218Y0230875D01*
X0076156Y0230907D01*
X0076096Y0230943D01*
X0076038Y0230981D01*
X0075982Y0231023D01*
X0075929Y0231068D01*
X0075878Y0231116D01*
X0075830Y0231167D01*
X0075785Y0231220D01*
X0075743Y0231276D01*
X0075705Y0231334D01*
X0075669Y0231394D01*
X0075637Y0231456D01*
X0075609Y0231520D01*
X0075584Y0231585D01*
X0075563Y0231652D01*
X0075545Y0231719D01*
X0075532Y0231788D01*
X0075522Y0231857D01*
X0075516Y0231926D01*
X0075514Y0231996D01*
X0075514Y0233596D01*
X0073736Y0236524D02*
X0073736Y0238302D01*
X0073735Y0238302D02*
X0073737Y0238366D01*
X0073743Y0238431D01*
X0073752Y0238494D01*
X0073766Y0238557D01*
X0073783Y0238619D01*
X0073804Y0238680D01*
X0073829Y0238740D01*
X0073857Y0238798D01*
X0073889Y0238854D01*
X0073924Y0238908D01*
X0073962Y0238960D01*
X0074003Y0239010D01*
X0074048Y0239056D01*
X0074094Y0239101D01*
X0074144Y0239142D01*
X0074196Y0239180D01*
X0074250Y0239215D01*
X0074306Y0239247D01*
X0074364Y0239275D01*
X0074424Y0239300D01*
X0074485Y0239321D01*
X0074547Y0239338D01*
X0074610Y0239352D01*
X0074673Y0239361D01*
X0074738Y0239367D01*
X0074802Y0239369D01*
X0078002Y0239369D01*
X0078002Y0236524D02*
X0071602Y0236524D01*
X0071602Y0242156D02*
X0076936Y0242156D01*
X0077000Y0242158D01*
X0077065Y0242164D01*
X0077128Y0242173D01*
X0077191Y0242187D01*
X0077253Y0242204D01*
X0077314Y0242225D01*
X0077374Y0242250D01*
X0077432Y0242278D01*
X0077488Y0242310D01*
X0077542Y0242345D01*
X0077594Y0242383D01*
X0077644Y0242424D01*
X0077690Y0242469D01*
X0077735Y0242515D01*
X0077776Y0242565D01*
X0077814Y0242617D01*
X0077849Y0242671D01*
X0077881Y0242727D01*
X0077909Y0242785D01*
X0077934Y0242845D01*
X0077955Y0242906D01*
X0077972Y0242968D01*
X0077986Y0243031D01*
X0077995Y0243094D01*
X0078001Y0243159D01*
X0078003Y0243223D01*
X0078002Y0245133D02*
X0077647Y0245133D01*
X0077647Y0245488D01*
X0078002Y0245488D01*
X0079425Y0244955D01*
X0078002Y0245133D02*
X0078002Y0245488D01*
X0078002Y0251144D02*
X0078002Y0254699D01*
X0076580Y0257653D02*
X0073025Y0260498D01*
X0072491Y0260321D02*
X0072425Y0260296D01*
X0072360Y0260268D01*
X0072296Y0260236D01*
X0072235Y0260201D01*
X0072175Y0260162D01*
X0072117Y0260121D01*
X0072062Y0260076D01*
X0072010Y0260028D01*
X0071960Y0259978D01*
X0071912Y0259925D01*
X0071868Y0259870D01*
X0071827Y0259812D01*
X0071789Y0259752D01*
X0071754Y0259690D01*
X0071723Y0259626D01*
X0071695Y0259561D01*
X0071670Y0259494D01*
X0071650Y0259427D01*
X0071633Y0259358D01*
X0071619Y0259288D01*
X0071610Y0259218D01*
X0071604Y0259147D01*
X0071602Y0259076D01*
X0071604Y0259005D01*
X0071610Y0258934D01*
X0071619Y0258864D01*
X0071633Y0258794D01*
X0071650Y0258725D01*
X0071670Y0258658D01*
X0071695Y0258591D01*
X0071723Y0258526D01*
X0071754Y0258462D01*
X0071789Y0258400D01*
X0071827Y0258340D01*
X0071868Y0258282D01*
X0071912Y0258227D01*
X0071960Y0258174D01*
X0072010Y0258124D01*
X0072062Y0258076D01*
X0072117Y0258031D01*
X0072175Y0257990D01*
X0072235Y0257951D01*
X0072296Y0257916D01*
X0072360Y0257884D01*
X0072425Y0257856D01*
X0072491Y0257831D01*
X0072491Y0260320D02*
X0072618Y0260380D01*
X0072747Y0260436D01*
X0072877Y0260489D01*
X0073009Y0260539D01*
X0073142Y0260585D01*
X0073276Y0260627D01*
X0073411Y0260666D01*
X0073548Y0260702D01*
X0073685Y0260733D01*
X0073823Y0260761D01*
X0073961Y0260786D01*
X0074100Y0260806D01*
X0074240Y0260823D01*
X0074380Y0260836D01*
X0074521Y0260845D01*
X0074661Y0260851D01*
X0074802Y0260853D01*
X0074802Y0257298D02*
X0074661Y0257300D01*
X0074521Y0257306D01*
X0074380Y0257315D01*
X0074240Y0257328D01*
X0074100Y0257345D01*
X0073961Y0257365D01*
X0073823Y0257390D01*
X0073685Y0257418D01*
X0073548Y0257449D01*
X0073411Y0257485D01*
X0073276Y0257524D01*
X0073142Y0257566D01*
X0073009Y0257612D01*
X0072877Y0257662D01*
X0072747Y0257715D01*
X0072618Y0257771D01*
X0072491Y0257831D01*
X0074802Y0260853D02*
X0074943Y0260851D01*
X0075083Y0260845D01*
X0075224Y0260836D01*
X0075364Y0260823D01*
X0075504Y0260806D01*
X0075643Y0260786D01*
X0075781Y0260761D01*
X0075919Y0260733D01*
X0076056Y0260702D01*
X0076193Y0260666D01*
X0076328Y0260627D01*
X0076462Y0260585D01*
X0076595Y0260539D01*
X0076727Y0260489D01*
X0076857Y0260436D01*
X0076986Y0260380D01*
X0077113Y0260320D01*
X0077114Y0260321D02*
X0077180Y0260296D01*
X0077245Y0260268D01*
X0077309Y0260236D01*
X0077370Y0260201D01*
X0077430Y0260162D01*
X0077488Y0260121D01*
X0077543Y0260076D01*
X0077595Y0260028D01*
X0077645Y0259978D01*
X0077693Y0259925D01*
X0077737Y0259869D01*
X0077778Y0259812D01*
X0077816Y0259752D01*
X0077851Y0259690D01*
X0077882Y0259626D01*
X0077910Y0259561D01*
X0077935Y0259494D01*
X0077955Y0259427D01*
X0077972Y0259358D01*
X0077986Y0259288D01*
X0077995Y0259218D01*
X0078001Y0259147D01*
X0078003Y0259076D01*
X0078001Y0259005D01*
X0077995Y0258934D01*
X0077986Y0258864D01*
X0077972Y0258794D01*
X0077955Y0258725D01*
X0077935Y0258658D01*
X0077910Y0258591D01*
X0077882Y0258526D01*
X0077851Y0258462D01*
X0077816Y0258400D01*
X0077778Y0258340D01*
X0077737Y0258282D01*
X0077693Y0258227D01*
X0077645Y0258174D01*
X0077595Y0258124D01*
X0077543Y0258076D01*
X0077488Y0258031D01*
X0077430Y0257990D01*
X0077370Y0257951D01*
X0077309Y0257916D01*
X0077245Y0257884D01*
X0077180Y0257856D01*
X0077114Y0257831D01*
X0074447Y0254166D02*
X0078002Y0251144D01*
X0073025Y0251143D02*
X0072940Y0251172D01*
X0072857Y0251205D01*
X0072776Y0251242D01*
X0072696Y0251282D01*
X0072619Y0251325D01*
X0072543Y0251372D01*
X0072469Y0251422D01*
X0072397Y0251475D01*
X0072328Y0251531D01*
X0072261Y0251590D01*
X0072197Y0251652D01*
X0072136Y0251717D01*
X0072077Y0251784D01*
X0072022Y0251854D01*
X0071969Y0251926D01*
X0071920Y0252000D01*
X0071874Y0252077D01*
X0071832Y0252155D01*
X0071792Y0252235D01*
X0071757Y0252317D01*
X0071724Y0252400D01*
X0071696Y0252484D01*
X0071671Y0252570D01*
X0071650Y0252657D01*
X0071633Y0252744D01*
X0071619Y0252832D01*
X0071610Y0252921D01*
X0071604Y0253010D01*
X0071602Y0253099D01*
X0071604Y0253178D01*
X0071610Y0253256D01*
X0071619Y0253334D01*
X0071633Y0253411D01*
X0071650Y0253488D01*
X0071671Y0253563D01*
X0071696Y0253638D01*
X0071724Y0253711D01*
X0071756Y0253783D01*
X0071791Y0253853D01*
X0071830Y0253922D01*
X0071872Y0253988D01*
X0071917Y0254052D01*
X0071965Y0254114D01*
X0072016Y0254173D01*
X0072071Y0254230D01*
X0072128Y0254285D01*
X0072187Y0254336D01*
X0072249Y0254384D01*
X0072313Y0254429D01*
X0072379Y0254471D01*
X0072448Y0254510D01*
X0072518Y0254545D01*
X0072590Y0254577D01*
X0072663Y0254605D01*
X0072738Y0254630D01*
X0072813Y0254651D01*
X0072890Y0254668D01*
X0072967Y0254682D01*
X0073045Y0254691D01*
X0073123Y0254697D01*
X0073202Y0254699D01*
X0073202Y0254700D02*
X0073284Y0254698D01*
X0073366Y0254692D01*
X0073447Y0254682D01*
X0073528Y0254669D01*
X0073608Y0254651D01*
X0073687Y0254630D01*
X0073765Y0254605D01*
X0073841Y0254577D01*
X0073917Y0254544D01*
X0073990Y0254509D01*
X0074062Y0254469D01*
X0074132Y0254427D01*
X0074200Y0254381D01*
X0074265Y0254332D01*
X0074328Y0254280D01*
X0074389Y0254224D01*
X0074447Y0254167D01*
X0074802Y0257298D02*
X0074943Y0257300D01*
X0075083Y0257306D01*
X0075224Y0257315D01*
X0075364Y0257328D01*
X0075504Y0257345D01*
X0075643Y0257365D01*
X0075781Y0257390D01*
X0075919Y0257418D01*
X0076056Y0257449D01*
X0076193Y0257485D01*
X0076328Y0257524D01*
X0076462Y0257566D01*
X0076595Y0257612D01*
X0076727Y0257662D01*
X0076857Y0257715D01*
X0076986Y0257771D01*
X0077113Y0257831D01*
X0078002Y0263452D02*
X0078002Y0267007D01*
X0078002Y0269606D02*
X0078002Y0273161D01*
X0078002Y0271384D02*
X0071602Y0271384D01*
X0073025Y0269606D01*
X0074447Y0266474D02*
X0078002Y0263452D01*
X0073025Y0263451D02*
X0072940Y0263480D01*
X0072857Y0263513D01*
X0072776Y0263550D01*
X0072696Y0263590D01*
X0072619Y0263633D01*
X0072543Y0263680D01*
X0072469Y0263730D01*
X0072397Y0263783D01*
X0072328Y0263839D01*
X0072261Y0263898D01*
X0072197Y0263960D01*
X0072136Y0264025D01*
X0072077Y0264092D01*
X0072022Y0264162D01*
X0071969Y0264234D01*
X0071920Y0264308D01*
X0071874Y0264385D01*
X0071832Y0264463D01*
X0071792Y0264543D01*
X0071757Y0264625D01*
X0071724Y0264708D01*
X0071696Y0264792D01*
X0071671Y0264878D01*
X0071650Y0264965D01*
X0071633Y0265052D01*
X0071619Y0265140D01*
X0071610Y0265229D01*
X0071604Y0265318D01*
X0071602Y0265407D01*
X0071604Y0265486D01*
X0071610Y0265564D01*
X0071619Y0265642D01*
X0071633Y0265719D01*
X0071650Y0265796D01*
X0071671Y0265871D01*
X0071696Y0265946D01*
X0071724Y0266019D01*
X0071756Y0266091D01*
X0071791Y0266161D01*
X0071830Y0266230D01*
X0071872Y0266296D01*
X0071917Y0266360D01*
X0071965Y0266422D01*
X0072016Y0266481D01*
X0072071Y0266538D01*
X0072128Y0266593D01*
X0072187Y0266644D01*
X0072249Y0266692D01*
X0072313Y0266737D01*
X0072379Y0266779D01*
X0072448Y0266818D01*
X0072518Y0266853D01*
X0072590Y0266885D01*
X0072663Y0266913D01*
X0072738Y0266938D01*
X0072813Y0266959D01*
X0072890Y0266976D01*
X0072967Y0266990D01*
X0073045Y0266999D01*
X0073123Y0267005D01*
X0073202Y0267007D01*
X0073202Y0267008D02*
X0073284Y0267006D01*
X0073366Y0267000D01*
X0073447Y0266990D01*
X0073528Y0266977D01*
X0073608Y0266959D01*
X0073687Y0266938D01*
X0073765Y0266913D01*
X0073841Y0266885D01*
X0073917Y0266852D01*
X0073990Y0266817D01*
X0074062Y0266777D01*
X0074132Y0266735D01*
X0074200Y0266689D01*
X0074265Y0266640D01*
X0074328Y0266588D01*
X0074389Y0266532D01*
X0074447Y0266475D01*
X0126295Y0276504D02*
X0132673Y0276504D01*
X0132673Y0280835D02*
X0132673Y0284157D01*
X0132673Y0288488D02*
X0126295Y0288488D01*
X0139626Y0326103D02*
X0139626Y0332503D01*
X0141404Y0332503D01*
X0141487Y0332501D01*
X0141570Y0332495D01*
X0141653Y0332485D01*
X0141736Y0332472D01*
X0141817Y0332454D01*
X0141898Y0332433D01*
X0141977Y0332408D01*
X0142055Y0332379D01*
X0142132Y0332347D01*
X0142207Y0332311D01*
X0142281Y0332272D01*
X0142352Y0332229D01*
X0142422Y0332183D01*
X0142489Y0332133D01*
X0142554Y0332081D01*
X0142616Y0332026D01*
X0142676Y0331967D01*
X0142733Y0331906D01*
X0142787Y0331843D01*
X0142838Y0331777D01*
X0142885Y0331708D01*
X0142930Y0331638D01*
X0142971Y0331565D01*
X0143008Y0331491D01*
X0143043Y0331415D01*
X0143073Y0331337D01*
X0143100Y0331259D01*
X0143123Y0331178D01*
X0143143Y0331097D01*
X0143158Y0331015D01*
X0143170Y0330933D01*
X0143178Y0330850D01*
X0143182Y0330767D01*
X0143182Y0330683D01*
X0143178Y0330600D01*
X0143170Y0330517D01*
X0143158Y0330435D01*
X0143143Y0330353D01*
X0143123Y0330272D01*
X0143100Y0330191D01*
X0143073Y0330113D01*
X0143043Y0330035D01*
X0143008Y0329959D01*
X0142971Y0329885D01*
X0142930Y0329812D01*
X0142885Y0329742D01*
X0142838Y0329673D01*
X0142787Y0329607D01*
X0142733Y0329544D01*
X0142676Y0329483D01*
X0142616Y0329424D01*
X0142554Y0329369D01*
X0142489Y0329317D01*
X0142422Y0329267D01*
X0142352Y0329221D01*
X0142281Y0329178D01*
X0142207Y0329139D01*
X0142132Y0329103D01*
X0142055Y0329071D01*
X0141977Y0329042D01*
X0141898Y0329017D01*
X0141817Y0328996D01*
X0141736Y0328978D01*
X0141653Y0328965D01*
X0141570Y0328955D01*
X0141487Y0328949D01*
X0141404Y0328947D01*
X0141404Y0328948D02*
X0139626Y0328948D01*
X0145246Y0332503D02*
X0146668Y0326103D01*
X0148090Y0330370D01*
X0149512Y0326103D01*
X0150935Y0332503D01*
X0153528Y0332503D02*
X0155306Y0332503D01*
X0155389Y0332501D01*
X0155472Y0332495D01*
X0155555Y0332485D01*
X0155638Y0332472D01*
X0155719Y0332454D01*
X0155800Y0332433D01*
X0155879Y0332408D01*
X0155957Y0332379D01*
X0156034Y0332347D01*
X0156109Y0332311D01*
X0156183Y0332272D01*
X0156254Y0332229D01*
X0156324Y0332183D01*
X0156391Y0332133D01*
X0156456Y0332081D01*
X0156518Y0332026D01*
X0156578Y0331967D01*
X0156635Y0331906D01*
X0156689Y0331843D01*
X0156740Y0331777D01*
X0156787Y0331708D01*
X0156832Y0331638D01*
X0156873Y0331565D01*
X0156910Y0331491D01*
X0156945Y0331415D01*
X0156975Y0331337D01*
X0157002Y0331259D01*
X0157025Y0331178D01*
X0157045Y0331097D01*
X0157060Y0331015D01*
X0157072Y0330933D01*
X0157080Y0330850D01*
X0157084Y0330767D01*
X0157084Y0330683D01*
X0157080Y0330600D01*
X0157072Y0330517D01*
X0157060Y0330435D01*
X0157045Y0330353D01*
X0157025Y0330272D01*
X0157002Y0330191D01*
X0156975Y0330113D01*
X0156945Y0330035D01*
X0156910Y0329959D01*
X0156873Y0329885D01*
X0156832Y0329812D01*
X0156787Y0329742D01*
X0156740Y0329673D01*
X0156689Y0329607D01*
X0156635Y0329544D01*
X0156578Y0329483D01*
X0156518Y0329424D01*
X0156456Y0329369D01*
X0156391Y0329317D01*
X0156324Y0329267D01*
X0156254Y0329221D01*
X0156183Y0329178D01*
X0156109Y0329139D01*
X0156034Y0329103D01*
X0155957Y0329071D01*
X0155879Y0329042D01*
X0155800Y0329017D01*
X0155719Y0328996D01*
X0155638Y0328978D01*
X0155555Y0328965D01*
X0155472Y0328955D01*
X0155389Y0328949D01*
X0155306Y0328947D01*
X0155306Y0328948D02*
X0153528Y0328948D01*
X0155662Y0328948D02*
X0157084Y0326103D01*
X0153528Y0326103D02*
X0153528Y0332503D01*
X0186870Y0304944D02*
X0188648Y0304944D01*
X0188731Y0304942D01*
X0188814Y0304936D01*
X0188897Y0304926D01*
X0188980Y0304913D01*
X0189061Y0304895D01*
X0189142Y0304874D01*
X0189221Y0304849D01*
X0189299Y0304820D01*
X0189376Y0304788D01*
X0189451Y0304752D01*
X0189525Y0304713D01*
X0189596Y0304670D01*
X0189666Y0304624D01*
X0189733Y0304574D01*
X0189798Y0304522D01*
X0189860Y0304467D01*
X0189920Y0304408D01*
X0189977Y0304347D01*
X0190031Y0304284D01*
X0190082Y0304218D01*
X0190129Y0304149D01*
X0190174Y0304079D01*
X0190215Y0304006D01*
X0190252Y0303932D01*
X0190287Y0303856D01*
X0190317Y0303778D01*
X0190344Y0303700D01*
X0190367Y0303619D01*
X0190387Y0303538D01*
X0190402Y0303456D01*
X0190414Y0303374D01*
X0190422Y0303291D01*
X0190426Y0303208D01*
X0190426Y0303124D01*
X0190422Y0303041D01*
X0190414Y0302958D01*
X0190402Y0302876D01*
X0190387Y0302794D01*
X0190367Y0302713D01*
X0190344Y0302632D01*
X0190317Y0302554D01*
X0190287Y0302476D01*
X0190252Y0302400D01*
X0190215Y0302326D01*
X0190174Y0302253D01*
X0190129Y0302183D01*
X0190082Y0302114D01*
X0190031Y0302048D01*
X0189977Y0301985D01*
X0189920Y0301924D01*
X0189860Y0301865D01*
X0189798Y0301810D01*
X0189733Y0301758D01*
X0189666Y0301708D01*
X0189596Y0301662D01*
X0189525Y0301619D01*
X0189451Y0301580D01*
X0189376Y0301544D01*
X0189299Y0301512D01*
X0189221Y0301483D01*
X0189142Y0301458D01*
X0189061Y0301437D01*
X0188980Y0301419D01*
X0188897Y0301406D01*
X0188814Y0301396D01*
X0188731Y0301390D01*
X0188648Y0301388D01*
X0188648Y0301389D02*
X0186870Y0301389D01*
X0189003Y0301389D02*
X0190426Y0298544D01*
X0186870Y0298544D02*
X0186870Y0304944D01*
X0193672Y0302277D02*
X0195627Y0301211D01*
X0194916Y0298545D02*
X0194808Y0298547D01*
X0194701Y0298553D01*
X0194593Y0298562D01*
X0194486Y0298576D01*
X0194380Y0298593D01*
X0194274Y0298614D01*
X0194169Y0298639D01*
X0194065Y0298668D01*
X0193962Y0298700D01*
X0193861Y0298736D01*
X0193761Y0298776D01*
X0193662Y0298819D01*
X0193565Y0298866D01*
X0193469Y0298916D01*
X0193376Y0298970D01*
X0193284Y0299027D01*
X0193195Y0299087D01*
X0193108Y0299150D01*
X0193023Y0299217D01*
X0192940Y0299286D01*
X0192860Y0299359D01*
X0192783Y0299434D01*
X0195627Y0301210D02*
X0195691Y0301170D01*
X0195752Y0301127D01*
X0195811Y0301081D01*
X0195868Y0301032D01*
X0195922Y0300980D01*
X0195973Y0300926D01*
X0196021Y0300868D01*
X0196067Y0300809D01*
X0196109Y0300747D01*
X0196148Y0300682D01*
X0196183Y0300616D01*
X0196215Y0300549D01*
X0196244Y0300479D01*
X0196269Y0300409D01*
X0196290Y0300337D01*
X0196307Y0300264D01*
X0196321Y0300190D01*
X0196330Y0300116D01*
X0196336Y0300041D01*
X0196338Y0299966D01*
X0196336Y0299892D01*
X0196330Y0299817D01*
X0196320Y0299744D01*
X0196307Y0299670D01*
X0196290Y0299598D01*
X0196268Y0299527D01*
X0196244Y0299456D01*
X0196215Y0299388D01*
X0196183Y0299320D01*
X0196147Y0299255D01*
X0196109Y0299192D01*
X0196066Y0299130D01*
X0196021Y0299071D01*
X0195973Y0299014D01*
X0195922Y0298960D01*
X0195868Y0298909D01*
X0195811Y0298861D01*
X0195752Y0298816D01*
X0195690Y0298773D01*
X0195627Y0298735D01*
X0195562Y0298699D01*
X0195494Y0298667D01*
X0195426Y0298638D01*
X0195355Y0298614D01*
X0195284Y0298592D01*
X0195212Y0298575D01*
X0195138Y0298562D01*
X0195065Y0298552D01*
X0194990Y0298546D01*
X0194916Y0298544D01*
X0195983Y0304411D02*
X0195901Y0304470D01*
X0195817Y0304526D01*
X0195731Y0304578D01*
X0195643Y0304628D01*
X0195553Y0304674D01*
X0195462Y0304716D01*
X0195369Y0304755D01*
X0195274Y0304791D01*
X0195178Y0304823D01*
X0195081Y0304851D01*
X0194984Y0304876D01*
X0194885Y0304896D01*
X0194785Y0304913D01*
X0194685Y0304927D01*
X0194585Y0304936D01*
X0194484Y0304942D01*
X0194383Y0304944D01*
X0194309Y0304942D01*
X0194234Y0304936D01*
X0194161Y0304926D01*
X0194087Y0304913D01*
X0194015Y0304896D01*
X0193944Y0304874D01*
X0193873Y0304850D01*
X0193805Y0304821D01*
X0193737Y0304789D01*
X0193672Y0304753D01*
X0193609Y0304715D01*
X0193547Y0304672D01*
X0193488Y0304627D01*
X0193432Y0304579D01*
X0193377Y0304528D01*
X0193326Y0304474D01*
X0193278Y0304417D01*
X0193233Y0304358D01*
X0193190Y0304296D01*
X0193152Y0304233D01*
X0193116Y0304168D01*
X0193084Y0304100D01*
X0193055Y0304032D01*
X0193031Y0303961D01*
X0193009Y0303890D01*
X0192992Y0303818D01*
X0192979Y0303744D01*
X0192969Y0303671D01*
X0192963Y0303596D01*
X0192961Y0303522D01*
X0192963Y0303447D01*
X0192969Y0303372D01*
X0192978Y0303298D01*
X0192992Y0303224D01*
X0193009Y0303151D01*
X0193030Y0303079D01*
X0193055Y0303009D01*
X0193084Y0302939D01*
X0193116Y0302872D01*
X0193151Y0302806D01*
X0193190Y0302741D01*
X0193232Y0302679D01*
X0193278Y0302620D01*
X0193326Y0302562D01*
X0193377Y0302508D01*
X0193431Y0302456D01*
X0193488Y0302407D01*
X0193547Y0302361D01*
X0193608Y0302318D01*
X0193672Y0302278D01*
X0198322Y0304944D02*
X0201877Y0304944D01*
X0200099Y0304944D02*
X0200099Y0298544D01*
X0312854Y0298544D02*
X0312854Y0304944D01*
X0314632Y0304944D01*
X0314706Y0304942D01*
X0314781Y0304936D01*
X0314854Y0304926D01*
X0314928Y0304913D01*
X0315000Y0304896D01*
X0315071Y0304874D01*
X0315142Y0304850D01*
X0315210Y0304821D01*
X0315278Y0304789D01*
X0315343Y0304753D01*
X0315406Y0304715D01*
X0315468Y0304672D01*
X0315527Y0304627D01*
X0315584Y0304579D01*
X0315638Y0304528D01*
X0315689Y0304474D01*
X0315737Y0304417D01*
X0315782Y0304358D01*
X0315825Y0304296D01*
X0315863Y0304233D01*
X0315899Y0304168D01*
X0315931Y0304100D01*
X0315960Y0304032D01*
X0315984Y0303961D01*
X0316006Y0303890D01*
X0316023Y0303818D01*
X0316036Y0303744D01*
X0316046Y0303671D01*
X0316052Y0303596D01*
X0316054Y0303522D01*
X0316052Y0303448D01*
X0316046Y0303373D01*
X0316036Y0303300D01*
X0316023Y0303226D01*
X0316006Y0303154D01*
X0315984Y0303083D01*
X0315960Y0303012D01*
X0315931Y0302944D01*
X0315899Y0302876D01*
X0315863Y0302811D01*
X0315825Y0302748D01*
X0315782Y0302686D01*
X0315737Y0302627D01*
X0315689Y0302570D01*
X0315638Y0302516D01*
X0315584Y0302465D01*
X0315527Y0302417D01*
X0315468Y0302372D01*
X0315406Y0302329D01*
X0315343Y0302291D01*
X0315278Y0302255D01*
X0315210Y0302223D01*
X0315142Y0302194D01*
X0315071Y0302170D01*
X0315000Y0302148D01*
X0314928Y0302131D01*
X0314854Y0302118D01*
X0314781Y0302108D01*
X0314706Y0302102D01*
X0314632Y0302100D01*
X0312854Y0302100D01*
X0314632Y0302100D02*
X0314715Y0302098D01*
X0314798Y0302092D01*
X0314881Y0302082D01*
X0314964Y0302069D01*
X0315045Y0302051D01*
X0315126Y0302030D01*
X0315205Y0302005D01*
X0315283Y0301976D01*
X0315360Y0301944D01*
X0315435Y0301908D01*
X0315509Y0301869D01*
X0315580Y0301826D01*
X0315650Y0301780D01*
X0315717Y0301730D01*
X0315782Y0301678D01*
X0315844Y0301623D01*
X0315904Y0301564D01*
X0315961Y0301503D01*
X0316015Y0301440D01*
X0316066Y0301374D01*
X0316113Y0301305D01*
X0316158Y0301235D01*
X0316199Y0301162D01*
X0316236Y0301088D01*
X0316271Y0301012D01*
X0316301Y0300934D01*
X0316328Y0300856D01*
X0316351Y0300775D01*
X0316371Y0300694D01*
X0316386Y0300612D01*
X0316398Y0300530D01*
X0316406Y0300447D01*
X0316410Y0300364D01*
X0316410Y0300280D01*
X0316406Y0300197D01*
X0316398Y0300114D01*
X0316386Y0300032D01*
X0316371Y0299950D01*
X0316351Y0299869D01*
X0316328Y0299788D01*
X0316301Y0299710D01*
X0316271Y0299632D01*
X0316236Y0299556D01*
X0316199Y0299482D01*
X0316158Y0299409D01*
X0316113Y0299339D01*
X0316066Y0299270D01*
X0316015Y0299204D01*
X0315961Y0299141D01*
X0315904Y0299080D01*
X0315844Y0299021D01*
X0315782Y0298966D01*
X0315717Y0298914D01*
X0315650Y0298864D01*
X0315580Y0298818D01*
X0315509Y0298775D01*
X0315435Y0298736D01*
X0315360Y0298700D01*
X0315283Y0298668D01*
X0315205Y0298639D01*
X0315126Y0298614D01*
X0315045Y0298593D01*
X0314964Y0298575D01*
X0314881Y0298562D01*
X0314798Y0298552D01*
X0314715Y0298546D01*
X0314632Y0298544D01*
X0312854Y0298544D01*
X0318720Y0300322D02*
X0318720Y0303166D01*
X0318722Y0303249D01*
X0318728Y0303332D01*
X0318738Y0303415D01*
X0318751Y0303498D01*
X0318769Y0303579D01*
X0318790Y0303660D01*
X0318815Y0303739D01*
X0318844Y0303817D01*
X0318876Y0303894D01*
X0318912Y0303969D01*
X0318951Y0304043D01*
X0318994Y0304114D01*
X0319040Y0304184D01*
X0319090Y0304251D01*
X0319142Y0304316D01*
X0319197Y0304378D01*
X0319256Y0304438D01*
X0319317Y0304495D01*
X0319380Y0304549D01*
X0319446Y0304600D01*
X0319515Y0304647D01*
X0319585Y0304692D01*
X0319658Y0304733D01*
X0319732Y0304770D01*
X0319808Y0304805D01*
X0319886Y0304835D01*
X0319964Y0304862D01*
X0320045Y0304885D01*
X0320126Y0304905D01*
X0320208Y0304920D01*
X0320290Y0304932D01*
X0320373Y0304940D01*
X0320456Y0304944D01*
X0320540Y0304944D01*
X0320623Y0304940D01*
X0320706Y0304932D01*
X0320788Y0304920D01*
X0320870Y0304905D01*
X0320951Y0304885D01*
X0321032Y0304862D01*
X0321110Y0304835D01*
X0321188Y0304805D01*
X0321264Y0304770D01*
X0321338Y0304733D01*
X0321411Y0304692D01*
X0321481Y0304647D01*
X0321550Y0304600D01*
X0321616Y0304549D01*
X0321679Y0304495D01*
X0321740Y0304438D01*
X0321799Y0304378D01*
X0321854Y0304316D01*
X0321906Y0304251D01*
X0321956Y0304184D01*
X0322002Y0304114D01*
X0322045Y0304043D01*
X0322084Y0303969D01*
X0322120Y0303894D01*
X0322152Y0303817D01*
X0322181Y0303739D01*
X0322206Y0303660D01*
X0322227Y0303579D01*
X0322245Y0303498D01*
X0322258Y0303415D01*
X0322268Y0303332D01*
X0322274Y0303249D01*
X0322276Y0303166D01*
X0322276Y0300322D01*
X0322274Y0300239D01*
X0322268Y0300156D01*
X0322258Y0300073D01*
X0322245Y0299990D01*
X0322227Y0299909D01*
X0322206Y0299828D01*
X0322181Y0299749D01*
X0322152Y0299671D01*
X0322120Y0299594D01*
X0322084Y0299519D01*
X0322045Y0299445D01*
X0322002Y0299374D01*
X0321956Y0299304D01*
X0321906Y0299237D01*
X0321854Y0299172D01*
X0321799Y0299110D01*
X0321740Y0299050D01*
X0321679Y0298993D01*
X0321616Y0298939D01*
X0321550Y0298888D01*
X0321481Y0298841D01*
X0321411Y0298796D01*
X0321338Y0298755D01*
X0321264Y0298718D01*
X0321188Y0298683D01*
X0321110Y0298653D01*
X0321032Y0298626D01*
X0320951Y0298603D01*
X0320870Y0298583D01*
X0320788Y0298568D01*
X0320706Y0298556D01*
X0320623Y0298548D01*
X0320540Y0298544D01*
X0320456Y0298544D01*
X0320373Y0298548D01*
X0320290Y0298556D01*
X0320208Y0298568D01*
X0320126Y0298583D01*
X0320045Y0298603D01*
X0319964Y0298626D01*
X0319886Y0298653D01*
X0319808Y0298683D01*
X0319732Y0298718D01*
X0319658Y0298755D01*
X0319585Y0298796D01*
X0319515Y0298841D01*
X0319446Y0298888D01*
X0319380Y0298939D01*
X0319317Y0298993D01*
X0319256Y0299050D01*
X0319197Y0299110D01*
X0319142Y0299172D01*
X0319090Y0299237D01*
X0319040Y0299304D01*
X0318994Y0299374D01*
X0318951Y0299445D01*
X0318912Y0299519D01*
X0318876Y0299594D01*
X0318844Y0299671D01*
X0318815Y0299749D01*
X0318790Y0299828D01*
X0318769Y0299909D01*
X0318751Y0299990D01*
X0318738Y0300073D01*
X0318728Y0300156D01*
X0318722Y0300239D01*
X0318720Y0300322D01*
X0324874Y0300322D02*
X0324874Y0303166D01*
X0324876Y0303249D01*
X0324882Y0303332D01*
X0324892Y0303415D01*
X0324905Y0303498D01*
X0324923Y0303579D01*
X0324944Y0303660D01*
X0324969Y0303739D01*
X0324998Y0303817D01*
X0325030Y0303894D01*
X0325066Y0303969D01*
X0325105Y0304043D01*
X0325148Y0304114D01*
X0325194Y0304184D01*
X0325244Y0304251D01*
X0325296Y0304316D01*
X0325351Y0304378D01*
X0325410Y0304438D01*
X0325471Y0304495D01*
X0325534Y0304549D01*
X0325600Y0304600D01*
X0325669Y0304647D01*
X0325739Y0304692D01*
X0325812Y0304733D01*
X0325886Y0304770D01*
X0325962Y0304805D01*
X0326040Y0304835D01*
X0326118Y0304862D01*
X0326199Y0304885D01*
X0326280Y0304905D01*
X0326362Y0304920D01*
X0326444Y0304932D01*
X0326527Y0304940D01*
X0326610Y0304944D01*
X0326694Y0304944D01*
X0326777Y0304940D01*
X0326860Y0304932D01*
X0326942Y0304920D01*
X0327024Y0304905D01*
X0327105Y0304885D01*
X0327186Y0304862D01*
X0327264Y0304835D01*
X0327342Y0304805D01*
X0327418Y0304770D01*
X0327492Y0304733D01*
X0327565Y0304692D01*
X0327635Y0304647D01*
X0327704Y0304600D01*
X0327770Y0304549D01*
X0327833Y0304495D01*
X0327894Y0304438D01*
X0327953Y0304378D01*
X0328008Y0304316D01*
X0328060Y0304251D01*
X0328110Y0304184D01*
X0328156Y0304114D01*
X0328199Y0304043D01*
X0328238Y0303969D01*
X0328274Y0303894D01*
X0328306Y0303817D01*
X0328335Y0303739D01*
X0328360Y0303660D01*
X0328381Y0303579D01*
X0328399Y0303498D01*
X0328412Y0303415D01*
X0328422Y0303332D01*
X0328428Y0303249D01*
X0328430Y0303166D01*
X0328430Y0300322D01*
X0328428Y0300239D01*
X0328422Y0300156D01*
X0328412Y0300073D01*
X0328399Y0299990D01*
X0328381Y0299909D01*
X0328360Y0299828D01*
X0328335Y0299749D01*
X0328306Y0299671D01*
X0328274Y0299594D01*
X0328238Y0299519D01*
X0328199Y0299445D01*
X0328156Y0299374D01*
X0328110Y0299304D01*
X0328060Y0299237D01*
X0328008Y0299172D01*
X0327953Y0299110D01*
X0327894Y0299050D01*
X0327833Y0298993D01*
X0327770Y0298939D01*
X0327704Y0298888D01*
X0327635Y0298841D01*
X0327565Y0298796D01*
X0327492Y0298755D01*
X0327418Y0298718D01*
X0327342Y0298683D01*
X0327264Y0298653D01*
X0327186Y0298626D01*
X0327105Y0298603D01*
X0327024Y0298583D01*
X0326942Y0298568D01*
X0326860Y0298556D01*
X0326777Y0298548D01*
X0326694Y0298544D01*
X0326610Y0298544D01*
X0326527Y0298548D01*
X0326444Y0298556D01*
X0326362Y0298568D01*
X0326280Y0298583D01*
X0326199Y0298603D01*
X0326118Y0298626D01*
X0326040Y0298653D01*
X0325962Y0298683D01*
X0325886Y0298718D01*
X0325812Y0298755D01*
X0325739Y0298796D01*
X0325669Y0298841D01*
X0325600Y0298888D01*
X0325534Y0298939D01*
X0325471Y0298993D01*
X0325410Y0299050D01*
X0325351Y0299110D01*
X0325296Y0299172D01*
X0325244Y0299237D01*
X0325194Y0299304D01*
X0325148Y0299374D01*
X0325105Y0299445D01*
X0325066Y0299519D01*
X0325030Y0299594D01*
X0324998Y0299671D01*
X0324969Y0299749D01*
X0324944Y0299828D01*
X0324923Y0299909D01*
X0324905Y0299990D01*
X0324892Y0300073D01*
X0324882Y0300156D01*
X0324876Y0300239D01*
X0324874Y0300322D01*
X0330618Y0304944D02*
X0334174Y0304944D01*
X0332396Y0304944D02*
X0332396Y0298544D01*
X0412161Y0327772D02*
X0412163Y0327936D01*
X0412169Y0328100D01*
X0412179Y0328264D01*
X0412193Y0328428D01*
X0412211Y0328591D01*
X0412233Y0328754D01*
X0412260Y0328916D01*
X0412290Y0329078D01*
X0412324Y0329238D01*
X0412362Y0329398D01*
X0412403Y0329557D01*
X0412449Y0329715D01*
X0412499Y0329871D01*
X0412552Y0330027D01*
X0412609Y0330181D01*
X0412670Y0330333D01*
X0412735Y0330484D01*
X0412804Y0330634D01*
X0412876Y0330781D01*
X0412951Y0330927D01*
X0413031Y0331071D01*
X0413113Y0331213D01*
X0413199Y0331353D01*
X0413289Y0331490D01*
X0413382Y0331626D01*
X0413478Y0331759D01*
X0413578Y0331890D01*
X0413680Y0332018D01*
X0413786Y0332144D01*
X0413895Y0332267D01*
X0414007Y0332387D01*
X0414121Y0332505D01*
X0414239Y0332619D01*
X0414359Y0332731D01*
X0414482Y0332840D01*
X0414608Y0332946D01*
X0414736Y0333048D01*
X0414867Y0333148D01*
X0415000Y0333244D01*
X0415136Y0333337D01*
X0415273Y0333427D01*
X0415413Y0333513D01*
X0415555Y0333595D01*
X0415699Y0333675D01*
X0415845Y0333750D01*
X0415992Y0333822D01*
X0416142Y0333891D01*
X0416293Y0333956D01*
X0416445Y0334017D01*
X0416599Y0334074D01*
X0416755Y0334127D01*
X0416911Y0334177D01*
X0417069Y0334223D01*
X0417228Y0334264D01*
X0417388Y0334302D01*
X0417548Y0334336D01*
X0417710Y0334366D01*
X0417872Y0334393D01*
X0418035Y0334415D01*
X0418198Y0334433D01*
X0418362Y0334447D01*
X0418526Y0334457D01*
X0418690Y0334463D01*
X0418854Y0334465D01*
X0419018Y0334463D01*
X0419182Y0334457D01*
X0419346Y0334447D01*
X0419510Y0334433D01*
X0419673Y0334415D01*
X0419836Y0334393D01*
X0419998Y0334366D01*
X0420160Y0334336D01*
X0420320Y0334302D01*
X0420480Y0334264D01*
X0420639Y0334223D01*
X0420797Y0334177D01*
X0420953Y0334127D01*
X0421109Y0334074D01*
X0421263Y0334017D01*
X0421415Y0333956D01*
X0421566Y0333891D01*
X0421716Y0333822D01*
X0421863Y0333750D01*
X0422009Y0333675D01*
X0422153Y0333595D01*
X0422295Y0333513D01*
X0422435Y0333427D01*
X0422572Y0333337D01*
X0422708Y0333244D01*
X0422841Y0333148D01*
X0422972Y0333048D01*
X0423100Y0332946D01*
X0423226Y0332840D01*
X0423349Y0332731D01*
X0423469Y0332619D01*
X0423587Y0332505D01*
X0423701Y0332387D01*
X0423813Y0332267D01*
X0423922Y0332144D01*
X0424028Y0332018D01*
X0424130Y0331890D01*
X0424230Y0331759D01*
X0424326Y0331626D01*
X0424419Y0331490D01*
X0424509Y0331353D01*
X0424595Y0331213D01*
X0424677Y0331071D01*
X0424757Y0330927D01*
X0424832Y0330781D01*
X0424904Y0330634D01*
X0424973Y0330484D01*
X0425038Y0330333D01*
X0425099Y0330181D01*
X0425156Y0330027D01*
X0425209Y0329871D01*
X0425259Y0329715D01*
X0425305Y0329557D01*
X0425346Y0329398D01*
X0425384Y0329238D01*
X0425418Y0329078D01*
X0425448Y0328916D01*
X0425475Y0328754D01*
X0425497Y0328591D01*
X0425515Y0328428D01*
X0425529Y0328264D01*
X0425539Y0328100D01*
X0425545Y0327936D01*
X0425547Y0327772D01*
X0425545Y0327608D01*
X0425539Y0327444D01*
X0425529Y0327280D01*
X0425515Y0327116D01*
X0425497Y0326953D01*
X0425475Y0326790D01*
X0425448Y0326628D01*
X0425418Y0326466D01*
X0425384Y0326306D01*
X0425346Y0326146D01*
X0425305Y0325987D01*
X0425259Y0325829D01*
X0425209Y0325673D01*
X0425156Y0325517D01*
X0425099Y0325363D01*
X0425038Y0325211D01*
X0424973Y0325060D01*
X0424904Y0324910D01*
X0424832Y0324763D01*
X0424757Y0324617D01*
X0424677Y0324473D01*
X0424595Y0324331D01*
X0424509Y0324191D01*
X0424419Y0324054D01*
X0424326Y0323918D01*
X0424230Y0323785D01*
X0424130Y0323654D01*
X0424028Y0323526D01*
X0423922Y0323400D01*
X0423813Y0323277D01*
X0423701Y0323157D01*
X0423587Y0323039D01*
X0423469Y0322925D01*
X0423349Y0322813D01*
X0423226Y0322704D01*
X0423100Y0322598D01*
X0422972Y0322496D01*
X0422841Y0322396D01*
X0422708Y0322300D01*
X0422572Y0322207D01*
X0422435Y0322117D01*
X0422295Y0322031D01*
X0422153Y0321949D01*
X0422009Y0321869D01*
X0421863Y0321794D01*
X0421716Y0321722D01*
X0421566Y0321653D01*
X0421415Y0321588D01*
X0421263Y0321527D01*
X0421109Y0321470D01*
X0420953Y0321417D01*
X0420797Y0321367D01*
X0420639Y0321321D01*
X0420480Y0321280D01*
X0420320Y0321242D01*
X0420160Y0321208D01*
X0419998Y0321178D01*
X0419836Y0321151D01*
X0419673Y0321129D01*
X0419510Y0321111D01*
X0419346Y0321097D01*
X0419182Y0321087D01*
X0419018Y0321081D01*
X0418854Y0321079D01*
X0418690Y0321081D01*
X0418526Y0321087D01*
X0418362Y0321097D01*
X0418198Y0321111D01*
X0418035Y0321129D01*
X0417872Y0321151D01*
X0417710Y0321178D01*
X0417548Y0321208D01*
X0417388Y0321242D01*
X0417228Y0321280D01*
X0417069Y0321321D01*
X0416911Y0321367D01*
X0416755Y0321417D01*
X0416599Y0321470D01*
X0416445Y0321527D01*
X0416293Y0321588D01*
X0416142Y0321653D01*
X0415992Y0321722D01*
X0415845Y0321794D01*
X0415699Y0321869D01*
X0415555Y0321949D01*
X0415413Y0322031D01*
X0415273Y0322117D01*
X0415136Y0322207D01*
X0415000Y0322300D01*
X0414867Y0322396D01*
X0414736Y0322496D01*
X0414608Y0322598D01*
X0414482Y0322704D01*
X0414359Y0322813D01*
X0414239Y0322925D01*
X0414121Y0323039D01*
X0414007Y0323157D01*
X0413895Y0323277D01*
X0413786Y0323400D01*
X0413680Y0323526D01*
X0413578Y0323654D01*
X0413478Y0323785D01*
X0413382Y0323918D01*
X0413289Y0324054D01*
X0413199Y0324191D01*
X0413113Y0324331D01*
X0413031Y0324473D01*
X0412951Y0324617D01*
X0412876Y0324763D01*
X0412804Y0324910D01*
X0412735Y0325060D01*
X0412670Y0325211D01*
X0412609Y0325363D01*
X0412552Y0325517D01*
X0412499Y0325673D01*
X0412449Y0325829D01*
X0412403Y0325987D01*
X0412362Y0326146D01*
X0412324Y0326306D01*
X0412290Y0326466D01*
X0412260Y0326628D01*
X0412233Y0326790D01*
X0412211Y0326953D01*
X0412193Y0327116D01*
X0412179Y0327280D01*
X0412169Y0327444D01*
X0412163Y0327608D01*
X0412161Y0327772D01*
X0405354Y0327772D02*
X0405358Y0328103D01*
X0405370Y0328434D01*
X0405391Y0328765D01*
X0405419Y0329095D01*
X0405456Y0329425D01*
X0405500Y0329753D01*
X0405553Y0330080D01*
X0405613Y0330406D01*
X0405682Y0330730D01*
X0405759Y0331052D01*
X0405843Y0331373D01*
X0405935Y0331691D01*
X0406035Y0332007D01*
X0406143Y0332320D01*
X0406259Y0332631D01*
X0406382Y0332938D01*
X0406512Y0333243D01*
X0406650Y0333544D01*
X0406795Y0333842D01*
X0406948Y0334136D01*
X0407108Y0334426D01*
X0407275Y0334712D01*
X0407448Y0334994D01*
X0407629Y0335272D01*
X0407817Y0335545D01*
X0408011Y0335814D01*
X0408211Y0336078D01*
X0408418Y0336336D01*
X0408632Y0336590D01*
X0408851Y0336838D01*
X0409077Y0337081D01*
X0409308Y0337318D01*
X0409545Y0337549D01*
X0409788Y0337775D01*
X0410036Y0337994D01*
X0410290Y0338208D01*
X0410548Y0338415D01*
X0410812Y0338615D01*
X0411081Y0338809D01*
X0411354Y0338997D01*
X0411632Y0339178D01*
X0411914Y0339351D01*
X0412200Y0339518D01*
X0412490Y0339678D01*
X0412784Y0339831D01*
X0413082Y0339976D01*
X0413383Y0340114D01*
X0413688Y0340244D01*
X0413995Y0340367D01*
X0414306Y0340483D01*
X0414619Y0340591D01*
X0414935Y0340691D01*
X0415253Y0340783D01*
X0415574Y0340867D01*
X0415896Y0340944D01*
X0416220Y0341013D01*
X0416546Y0341073D01*
X0416873Y0341126D01*
X0417201Y0341170D01*
X0417531Y0341207D01*
X0417861Y0341235D01*
X0418192Y0341256D01*
X0418523Y0341268D01*
X0418854Y0341272D01*
X0419185Y0341268D01*
X0419516Y0341256D01*
X0419847Y0341235D01*
X0420177Y0341207D01*
X0420507Y0341170D01*
X0420835Y0341126D01*
X0421162Y0341073D01*
X0421488Y0341013D01*
X0421812Y0340944D01*
X0422134Y0340867D01*
X0422455Y0340783D01*
X0422773Y0340691D01*
X0423089Y0340591D01*
X0423402Y0340483D01*
X0423713Y0340367D01*
X0424020Y0340244D01*
X0424325Y0340114D01*
X0424626Y0339976D01*
X0424924Y0339831D01*
X0425218Y0339678D01*
X0425508Y0339518D01*
X0425794Y0339351D01*
X0426076Y0339178D01*
X0426354Y0338997D01*
X0426627Y0338809D01*
X0426896Y0338615D01*
X0427160Y0338415D01*
X0427418Y0338208D01*
X0427672Y0337994D01*
X0427920Y0337775D01*
X0428163Y0337549D01*
X0428400Y0337318D01*
X0428631Y0337081D01*
X0428857Y0336838D01*
X0429076Y0336590D01*
X0429290Y0336336D01*
X0429497Y0336078D01*
X0429697Y0335814D01*
X0429891Y0335545D01*
X0430079Y0335272D01*
X0430260Y0334994D01*
X0430433Y0334712D01*
X0430600Y0334426D01*
X0430760Y0334136D01*
X0430913Y0333842D01*
X0431058Y0333544D01*
X0431196Y0333243D01*
X0431326Y0332938D01*
X0431449Y0332631D01*
X0431565Y0332320D01*
X0431673Y0332007D01*
X0431773Y0331691D01*
X0431865Y0331373D01*
X0431949Y0331052D01*
X0432026Y0330730D01*
X0432095Y0330406D01*
X0432155Y0330080D01*
X0432208Y0329753D01*
X0432252Y0329425D01*
X0432289Y0329095D01*
X0432317Y0328765D01*
X0432338Y0328434D01*
X0432350Y0328103D01*
X0432354Y0327772D01*
X0432350Y0327441D01*
X0432338Y0327110D01*
X0432317Y0326779D01*
X0432289Y0326449D01*
X0432252Y0326119D01*
X0432208Y0325791D01*
X0432155Y0325464D01*
X0432095Y0325138D01*
X0432026Y0324814D01*
X0431949Y0324492D01*
X0431865Y0324171D01*
X0431773Y0323853D01*
X0431673Y0323537D01*
X0431565Y0323224D01*
X0431449Y0322913D01*
X0431326Y0322606D01*
X0431196Y0322301D01*
X0431058Y0322000D01*
X0430913Y0321702D01*
X0430760Y0321408D01*
X0430600Y0321118D01*
X0430433Y0320832D01*
X0430260Y0320550D01*
X0430079Y0320272D01*
X0429891Y0319999D01*
X0429697Y0319730D01*
X0429497Y0319466D01*
X0429290Y0319208D01*
X0429076Y0318954D01*
X0428857Y0318706D01*
X0428631Y0318463D01*
X0428400Y0318226D01*
X0428163Y0317995D01*
X0427920Y0317769D01*
X0427672Y0317550D01*
X0427418Y0317336D01*
X0427160Y0317129D01*
X0426896Y0316929D01*
X0426627Y0316735D01*
X0426354Y0316547D01*
X0426076Y0316366D01*
X0425794Y0316193D01*
X0425508Y0316026D01*
X0425218Y0315866D01*
X0424924Y0315713D01*
X0424626Y0315568D01*
X0424325Y0315430D01*
X0424020Y0315300D01*
X0423713Y0315177D01*
X0423402Y0315061D01*
X0423089Y0314953D01*
X0422773Y0314853D01*
X0422455Y0314761D01*
X0422134Y0314677D01*
X0421812Y0314600D01*
X0421488Y0314531D01*
X0421162Y0314471D01*
X0420835Y0314418D01*
X0420507Y0314374D01*
X0420177Y0314337D01*
X0419847Y0314309D01*
X0419516Y0314288D01*
X0419185Y0314276D01*
X0418854Y0314272D01*
X0418523Y0314276D01*
X0418192Y0314288D01*
X0417861Y0314309D01*
X0417531Y0314337D01*
X0417201Y0314374D01*
X0416873Y0314418D01*
X0416546Y0314471D01*
X0416220Y0314531D01*
X0415896Y0314600D01*
X0415574Y0314677D01*
X0415253Y0314761D01*
X0414935Y0314853D01*
X0414619Y0314953D01*
X0414306Y0315061D01*
X0413995Y0315177D01*
X0413688Y0315300D01*
X0413383Y0315430D01*
X0413082Y0315568D01*
X0412784Y0315713D01*
X0412490Y0315866D01*
X0412200Y0316026D01*
X0411914Y0316193D01*
X0411632Y0316366D01*
X0411354Y0316547D01*
X0411081Y0316735D01*
X0410812Y0316929D01*
X0410548Y0317129D01*
X0410290Y0317336D01*
X0410036Y0317550D01*
X0409788Y0317769D01*
X0409545Y0317995D01*
X0409308Y0318226D01*
X0409077Y0318463D01*
X0408851Y0318706D01*
X0408632Y0318954D01*
X0408418Y0319208D01*
X0408211Y0319466D01*
X0408011Y0319730D01*
X0407817Y0319999D01*
X0407629Y0320272D01*
X0407448Y0320550D01*
X0407275Y0320832D01*
X0407108Y0321118D01*
X0406948Y0321408D01*
X0406795Y0321702D01*
X0406650Y0322000D01*
X0406512Y0322301D01*
X0406382Y0322606D01*
X0406259Y0322913D01*
X0406143Y0323224D01*
X0406035Y0323537D01*
X0405935Y0323853D01*
X0405843Y0324171D01*
X0405759Y0324492D01*
X0405682Y0324814D01*
X0405613Y0325138D01*
X0405553Y0325464D01*
X0405500Y0325791D01*
X0405456Y0326119D01*
X0405419Y0326449D01*
X0405391Y0326779D01*
X0405370Y0327110D01*
X0405358Y0327441D01*
X0405354Y0327772D01*
X0426263Y0117001D02*
X0426618Y0117001D01*
X0426263Y0117001D02*
X0426189Y0116999D01*
X0426114Y0116993D01*
X0426041Y0116983D01*
X0425967Y0116970D01*
X0425895Y0116953D01*
X0425824Y0116931D01*
X0425753Y0116907D01*
X0425685Y0116878D01*
X0425617Y0116846D01*
X0425552Y0116810D01*
X0425489Y0116772D01*
X0425427Y0116729D01*
X0425368Y0116684D01*
X0425311Y0116636D01*
X0425257Y0116585D01*
X0425206Y0116531D01*
X0425158Y0116474D01*
X0425113Y0116415D01*
X0425070Y0116353D01*
X0425032Y0116290D01*
X0424996Y0116225D01*
X0424964Y0116157D01*
X0424935Y0116089D01*
X0424911Y0116018D01*
X0424889Y0115947D01*
X0424872Y0115875D01*
X0424859Y0115801D01*
X0424849Y0115728D01*
X0424843Y0115653D01*
X0424841Y0115579D01*
X0424841Y0113445D01*
X0426618Y0113445D01*
X0426701Y0113447D01*
X0426784Y0113453D01*
X0426867Y0113463D01*
X0426950Y0113476D01*
X0427031Y0113494D01*
X0427112Y0113515D01*
X0427191Y0113540D01*
X0427269Y0113569D01*
X0427346Y0113601D01*
X0427421Y0113637D01*
X0427495Y0113676D01*
X0427566Y0113719D01*
X0427636Y0113765D01*
X0427703Y0113815D01*
X0427768Y0113867D01*
X0427830Y0113922D01*
X0427890Y0113981D01*
X0427947Y0114042D01*
X0428001Y0114105D01*
X0428052Y0114171D01*
X0428099Y0114240D01*
X0428144Y0114310D01*
X0428185Y0114383D01*
X0428222Y0114457D01*
X0428257Y0114533D01*
X0428287Y0114611D01*
X0428314Y0114689D01*
X0428337Y0114770D01*
X0428357Y0114851D01*
X0428372Y0114933D01*
X0428384Y0115015D01*
X0428392Y0115098D01*
X0428396Y0115181D01*
X0428396Y0115265D01*
X0428392Y0115348D01*
X0428384Y0115431D01*
X0428372Y0115513D01*
X0428357Y0115595D01*
X0428337Y0115676D01*
X0428314Y0115757D01*
X0428287Y0115835D01*
X0428257Y0115913D01*
X0428222Y0115989D01*
X0428185Y0116063D01*
X0428144Y0116136D01*
X0428099Y0116206D01*
X0428052Y0116275D01*
X0428001Y0116341D01*
X0427947Y0116404D01*
X0427890Y0116465D01*
X0427830Y0116524D01*
X0427768Y0116579D01*
X0427703Y0116631D01*
X0427636Y0116681D01*
X0427566Y0116727D01*
X0427495Y0116770D01*
X0427421Y0116809D01*
X0427346Y0116845D01*
X0427269Y0116877D01*
X0427191Y0116906D01*
X0427112Y0116931D01*
X0427031Y0116952D01*
X0426950Y0116970D01*
X0426867Y0116983D01*
X0426784Y0116993D01*
X0426701Y0116999D01*
X0426618Y0117001D01*
X0424841Y0113446D02*
X0424735Y0113448D01*
X0424628Y0113454D01*
X0424523Y0113464D01*
X0424417Y0113478D01*
X0424312Y0113496D01*
X0424208Y0113517D01*
X0424105Y0113543D01*
X0424003Y0113572D01*
X0423902Y0113606D01*
X0423802Y0113643D01*
X0423704Y0113683D01*
X0423607Y0113728D01*
X0423512Y0113776D01*
X0423419Y0113827D01*
X0423328Y0113882D01*
X0423239Y0113940D01*
X0423152Y0114002D01*
X0423068Y0114066D01*
X0422986Y0114134D01*
X0422907Y0114205D01*
X0422830Y0114279D01*
X0422756Y0114356D01*
X0422685Y0114435D01*
X0422617Y0114517D01*
X0422553Y0114601D01*
X0422491Y0114688D01*
X0422433Y0114777D01*
X0422378Y0114868D01*
X0422327Y0114961D01*
X0422279Y0115056D01*
X0422234Y0115153D01*
X0422194Y0115251D01*
X0422157Y0115351D01*
X0422123Y0115452D01*
X0422094Y0115554D01*
X0422068Y0115657D01*
X0422047Y0115761D01*
X0422029Y0115866D01*
X0422015Y0115972D01*
X0422005Y0116077D01*
X0421999Y0116184D01*
X0421997Y0116290D01*
X0421996Y0109069D02*
X0428396Y0109069D01*
X0428396Y0107291D02*
X0428396Y0110847D01*
X0423418Y0107291D02*
X0421996Y0109069D01*
X0425907Y0104638D02*
X0425907Y0100372D01*
X0421996Y0097718D02*
X0428396Y0095941D01*
X0427507Y0088542D02*
X0427380Y0088482D01*
X0427251Y0088426D01*
X0427121Y0088373D01*
X0426989Y0088323D01*
X0426856Y0088277D01*
X0426722Y0088235D01*
X0426587Y0088196D01*
X0426450Y0088160D01*
X0426313Y0088129D01*
X0426175Y0088101D01*
X0426037Y0088076D01*
X0425898Y0088056D01*
X0425758Y0088039D01*
X0425618Y0088026D01*
X0425477Y0088017D01*
X0425337Y0088011D01*
X0425196Y0088009D01*
X0425196Y0091564D02*
X0425055Y0091562D01*
X0424915Y0091556D01*
X0424774Y0091547D01*
X0424634Y0091534D01*
X0424494Y0091517D01*
X0424355Y0091497D01*
X0424217Y0091472D01*
X0424079Y0091444D01*
X0423942Y0091413D01*
X0423805Y0091377D01*
X0423670Y0091338D01*
X0423536Y0091296D01*
X0423403Y0091250D01*
X0423271Y0091200D01*
X0423141Y0091147D01*
X0423012Y0091091D01*
X0422885Y0091031D01*
X0423418Y0091209D02*
X0426974Y0088364D01*
X0428397Y0089787D02*
X0428395Y0089858D01*
X0428389Y0089929D01*
X0428380Y0089999D01*
X0428366Y0090069D01*
X0428349Y0090138D01*
X0428329Y0090205D01*
X0428304Y0090272D01*
X0428276Y0090337D01*
X0428245Y0090401D01*
X0428210Y0090463D01*
X0428172Y0090523D01*
X0428131Y0090580D01*
X0428087Y0090636D01*
X0428039Y0090689D01*
X0427989Y0090739D01*
X0427937Y0090787D01*
X0427882Y0090832D01*
X0427824Y0090873D01*
X0427764Y0090912D01*
X0427703Y0090947D01*
X0427639Y0090979D01*
X0427574Y0091007D01*
X0427508Y0091032D01*
X0428397Y0089787D02*
X0428395Y0089716D01*
X0428389Y0089645D01*
X0428380Y0089575D01*
X0428366Y0089505D01*
X0428349Y0089436D01*
X0428329Y0089369D01*
X0428304Y0089302D01*
X0428276Y0089237D01*
X0428245Y0089173D01*
X0428210Y0089111D01*
X0428172Y0089051D01*
X0428131Y0088993D01*
X0428087Y0088938D01*
X0428039Y0088885D01*
X0427989Y0088835D01*
X0427937Y0088787D01*
X0427882Y0088742D01*
X0427824Y0088701D01*
X0427764Y0088662D01*
X0427703Y0088627D01*
X0427639Y0088595D01*
X0427574Y0088567D01*
X0427508Y0088542D01*
X0427507Y0091031D02*
X0427380Y0091091D01*
X0427251Y0091147D01*
X0427121Y0091200D01*
X0426989Y0091250D01*
X0426856Y0091296D01*
X0426722Y0091338D01*
X0426587Y0091377D01*
X0426450Y0091413D01*
X0426313Y0091444D01*
X0426175Y0091472D01*
X0426037Y0091497D01*
X0425898Y0091517D01*
X0425758Y0091534D01*
X0425618Y0091547D01*
X0425477Y0091556D01*
X0425337Y0091562D01*
X0425196Y0091564D01*
X0425196Y0088009D02*
X0425055Y0088011D01*
X0424915Y0088017D01*
X0424774Y0088026D01*
X0424634Y0088039D01*
X0424494Y0088056D01*
X0424355Y0088076D01*
X0424217Y0088101D01*
X0424079Y0088129D01*
X0423942Y0088160D01*
X0423805Y0088196D01*
X0423670Y0088235D01*
X0423536Y0088277D01*
X0423403Y0088323D01*
X0423271Y0088373D01*
X0423141Y0088426D01*
X0423012Y0088482D01*
X0422885Y0088542D01*
X0422819Y0088567D01*
X0422754Y0088595D01*
X0422690Y0088627D01*
X0422629Y0088662D01*
X0422569Y0088701D01*
X0422511Y0088742D01*
X0422456Y0088787D01*
X0422404Y0088835D01*
X0422354Y0088885D01*
X0422306Y0088938D01*
X0422262Y0088993D01*
X0422221Y0089051D01*
X0422183Y0089111D01*
X0422148Y0089173D01*
X0422117Y0089237D01*
X0422089Y0089302D01*
X0422064Y0089369D01*
X0422044Y0089436D01*
X0422027Y0089505D01*
X0422013Y0089575D01*
X0422004Y0089645D01*
X0421998Y0089716D01*
X0421996Y0089787D01*
X0421998Y0089858D01*
X0422004Y0089929D01*
X0422013Y0089999D01*
X0422027Y0090069D01*
X0422044Y0090138D01*
X0422064Y0090205D01*
X0422089Y0090272D01*
X0422117Y0090337D01*
X0422148Y0090401D01*
X0422183Y0090463D01*
X0422221Y0090523D01*
X0422262Y0090581D01*
X0422306Y0090636D01*
X0422354Y0090689D01*
X0422404Y0090739D01*
X0422456Y0090787D01*
X0422511Y0090832D01*
X0422569Y0090873D01*
X0422629Y0090912D01*
X0422690Y0090947D01*
X0422754Y0090979D01*
X0422819Y0091007D01*
X0422885Y0091032D01*
X0422707Y0094163D02*
X0421996Y0094163D01*
X0421996Y0097718D01*
X0425907Y0085356D02*
X0425907Y0081089D01*
X0428396Y0078436D02*
X0428396Y0074880D01*
X0428396Y0076658D02*
X0421996Y0076658D01*
X0423418Y0074880D01*
X0424841Y0071748D02*
X0428396Y0068726D01*
X0428396Y0072282D01*
X0423419Y0068726D02*
X0423334Y0068755D01*
X0423251Y0068788D01*
X0423170Y0068825D01*
X0423090Y0068865D01*
X0423013Y0068908D01*
X0422937Y0068955D01*
X0422863Y0069005D01*
X0422791Y0069058D01*
X0422722Y0069114D01*
X0422655Y0069173D01*
X0422591Y0069235D01*
X0422530Y0069300D01*
X0422471Y0069367D01*
X0422416Y0069437D01*
X0422363Y0069509D01*
X0422314Y0069583D01*
X0422268Y0069660D01*
X0422226Y0069738D01*
X0422186Y0069818D01*
X0422151Y0069900D01*
X0422118Y0069983D01*
X0422090Y0070067D01*
X0422065Y0070153D01*
X0422044Y0070240D01*
X0422027Y0070327D01*
X0422013Y0070415D01*
X0422004Y0070504D01*
X0421998Y0070593D01*
X0421996Y0070682D01*
X0421998Y0070761D01*
X0422004Y0070839D01*
X0422013Y0070917D01*
X0422027Y0070994D01*
X0422044Y0071071D01*
X0422065Y0071146D01*
X0422090Y0071221D01*
X0422118Y0071294D01*
X0422150Y0071366D01*
X0422185Y0071436D01*
X0422224Y0071505D01*
X0422266Y0071571D01*
X0422311Y0071635D01*
X0422359Y0071697D01*
X0422410Y0071756D01*
X0422465Y0071813D01*
X0422522Y0071868D01*
X0422581Y0071919D01*
X0422643Y0071967D01*
X0422707Y0072012D01*
X0422773Y0072054D01*
X0422842Y0072093D01*
X0422912Y0072128D01*
X0422984Y0072160D01*
X0423057Y0072188D01*
X0423132Y0072213D01*
X0423207Y0072234D01*
X0423284Y0072251D01*
X0423361Y0072265D01*
X0423439Y0072274D01*
X0423517Y0072280D01*
X0423596Y0072282D01*
X0423678Y0072280D01*
X0423760Y0072274D01*
X0423841Y0072264D01*
X0423922Y0072251D01*
X0424002Y0072233D01*
X0424081Y0072212D01*
X0424159Y0072187D01*
X0424235Y0072159D01*
X0424311Y0072126D01*
X0424384Y0072091D01*
X0424456Y0072051D01*
X0424526Y0072009D01*
X0424594Y0071963D01*
X0424659Y0071914D01*
X0424722Y0071862D01*
X0424783Y0071806D01*
X0424841Y0071749D01*
X0427507Y0063105D02*
X0427380Y0063045D01*
X0427251Y0062989D01*
X0427121Y0062936D01*
X0426989Y0062886D01*
X0426856Y0062840D01*
X0426722Y0062798D01*
X0426587Y0062759D01*
X0426450Y0062723D01*
X0426313Y0062692D01*
X0426175Y0062664D01*
X0426037Y0062639D01*
X0425898Y0062619D01*
X0425758Y0062602D01*
X0425618Y0062589D01*
X0425477Y0062580D01*
X0425337Y0062574D01*
X0425196Y0062572D01*
X0425196Y0066128D02*
X0425055Y0066126D01*
X0424915Y0066120D01*
X0424774Y0066111D01*
X0424634Y0066098D01*
X0424494Y0066081D01*
X0424355Y0066061D01*
X0424217Y0066036D01*
X0424079Y0066008D01*
X0423942Y0065977D01*
X0423805Y0065941D01*
X0423670Y0065902D01*
X0423536Y0065860D01*
X0423403Y0065814D01*
X0423271Y0065764D01*
X0423141Y0065711D01*
X0423012Y0065655D01*
X0422885Y0065595D01*
X0423418Y0065772D02*
X0426974Y0062928D01*
X0428397Y0064350D02*
X0428395Y0064421D01*
X0428389Y0064492D01*
X0428380Y0064562D01*
X0428366Y0064632D01*
X0428349Y0064701D01*
X0428329Y0064768D01*
X0428304Y0064835D01*
X0428276Y0064900D01*
X0428245Y0064964D01*
X0428210Y0065026D01*
X0428172Y0065086D01*
X0428131Y0065143D01*
X0428087Y0065199D01*
X0428039Y0065252D01*
X0427989Y0065302D01*
X0427937Y0065350D01*
X0427882Y0065395D01*
X0427824Y0065436D01*
X0427764Y0065475D01*
X0427703Y0065510D01*
X0427639Y0065542D01*
X0427574Y0065570D01*
X0427508Y0065595D01*
X0428397Y0064350D02*
X0428395Y0064279D01*
X0428389Y0064208D01*
X0428380Y0064138D01*
X0428366Y0064068D01*
X0428349Y0063999D01*
X0428329Y0063932D01*
X0428304Y0063865D01*
X0428276Y0063800D01*
X0428245Y0063736D01*
X0428210Y0063674D01*
X0428172Y0063614D01*
X0428131Y0063556D01*
X0428087Y0063501D01*
X0428039Y0063448D01*
X0427989Y0063398D01*
X0427937Y0063350D01*
X0427882Y0063305D01*
X0427824Y0063264D01*
X0427764Y0063225D01*
X0427703Y0063190D01*
X0427639Y0063158D01*
X0427574Y0063130D01*
X0427508Y0063105D01*
X0427507Y0065595D02*
X0427380Y0065655D01*
X0427251Y0065711D01*
X0427121Y0065764D01*
X0426989Y0065814D01*
X0426856Y0065860D01*
X0426722Y0065902D01*
X0426587Y0065941D01*
X0426450Y0065977D01*
X0426313Y0066008D01*
X0426175Y0066036D01*
X0426037Y0066061D01*
X0425898Y0066081D01*
X0425758Y0066098D01*
X0425618Y0066111D01*
X0425477Y0066120D01*
X0425337Y0066126D01*
X0425196Y0066128D01*
X0425196Y0062572D02*
X0425055Y0062574D01*
X0424915Y0062580D01*
X0424774Y0062589D01*
X0424634Y0062602D01*
X0424494Y0062619D01*
X0424355Y0062639D01*
X0424217Y0062664D01*
X0424079Y0062692D01*
X0423942Y0062723D01*
X0423805Y0062759D01*
X0423670Y0062798D01*
X0423536Y0062840D01*
X0423403Y0062886D01*
X0423271Y0062936D01*
X0423141Y0062989D01*
X0423012Y0063045D01*
X0422885Y0063105D01*
X0421996Y0064350D02*
X0421998Y0064421D01*
X0422004Y0064492D01*
X0422013Y0064562D01*
X0422027Y0064632D01*
X0422044Y0064701D01*
X0422064Y0064768D01*
X0422089Y0064835D01*
X0422117Y0064900D01*
X0422148Y0064964D01*
X0422183Y0065026D01*
X0422221Y0065086D01*
X0422262Y0065144D01*
X0422306Y0065199D01*
X0422354Y0065252D01*
X0422404Y0065302D01*
X0422456Y0065350D01*
X0422511Y0065395D01*
X0422569Y0065436D01*
X0422629Y0065475D01*
X0422690Y0065510D01*
X0422754Y0065542D01*
X0422819Y0065570D01*
X0422885Y0065595D01*
X0421996Y0064350D02*
X0421998Y0064279D01*
X0422004Y0064208D01*
X0422013Y0064138D01*
X0422027Y0064068D01*
X0422044Y0063999D01*
X0422064Y0063932D01*
X0422089Y0063865D01*
X0422117Y0063800D01*
X0422148Y0063736D01*
X0422183Y0063674D01*
X0422221Y0063614D01*
X0422262Y0063556D01*
X0422306Y0063501D01*
X0422354Y0063448D01*
X0422404Y0063398D01*
X0422456Y0063350D01*
X0422511Y0063305D01*
X0422569Y0063264D01*
X0422629Y0063225D01*
X0422690Y0063190D01*
X0422754Y0063158D01*
X0422819Y0063130D01*
X0422885Y0063105D01*
X0424841Y0059440D02*
X0428396Y0056418D01*
X0428396Y0059974D01*
X0423419Y0056418D02*
X0423334Y0056447D01*
X0423251Y0056480D01*
X0423170Y0056517D01*
X0423090Y0056557D01*
X0423013Y0056600D01*
X0422937Y0056647D01*
X0422863Y0056697D01*
X0422791Y0056750D01*
X0422722Y0056806D01*
X0422655Y0056865D01*
X0422591Y0056927D01*
X0422530Y0056992D01*
X0422471Y0057059D01*
X0422416Y0057129D01*
X0422363Y0057201D01*
X0422314Y0057275D01*
X0422268Y0057352D01*
X0422226Y0057430D01*
X0422186Y0057510D01*
X0422151Y0057592D01*
X0422118Y0057675D01*
X0422090Y0057759D01*
X0422065Y0057845D01*
X0422044Y0057932D01*
X0422027Y0058019D01*
X0422013Y0058107D01*
X0422004Y0058196D01*
X0421998Y0058285D01*
X0421996Y0058374D01*
X0421998Y0058453D01*
X0422004Y0058531D01*
X0422013Y0058609D01*
X0422027Y0058686D01*
X0422044Y0058763D01*
X0422065Y0058838D01*
X0422090Y0058913D01*
X0422118Y0058986D01*
X0422150Y0059058D01*
X0422185Y0059128D01*
X0422224Y0059197D01*
X0422266Y0059263D01*
X0422311Y0059327D01*
X0422359Y0059389D01*
X0422410Y0059448D01*
X0422465Y0059505D01*
X0422522Y0059560D01*
X0422581Y0059611D01*
X0422643Y0059659D01*
X0422707Y0059704D01*
X0422773Y0059746D01*
X0422842Y0059785D01*
X0422912Y0059820D01*
X0422984Y0059852D01*
X0423057Y0059880D01*
X0423132Y0059905D01*
X0423207Y0059926D01*
X0423284Y0059943D01*
X0423361Y0059957D01*
X0423439Y0059966D01*
X0423517Y0059972D01*
X0423596Y0059974D01*
X0423678Y0059972D01*
X0423760Y0059966D01*
X0423841Y0059956D01*
X0423922Y0059943D01*
X0424002Y0059925D01*
X0424081Y0059904D01*
X0424159Y0059879D01*
X0424235Y0059851D01*
X0424311Y0059818D01*
X0424384Y0059783D01*
X0424456Y0059743D01*
X0424526Y0059701D01*
X0424594Y0059655D01*
X0424659Y0059606D01*
X0424722Y0059554D01*
X0424783Y0059498D01*
X0424841Y0059441D01*
X0412161Y0024622D02*
X0412163Y0024786D01*
X0412169Y0024950D01*
X0412179Y0025114D01*
X0412193Y0025278D01*
X0412211Y0025441D01*
X0412233Y0025604D01*
X0412260Y0025766D01*
X0412290Y0025928D01*
X0412324Y0026088D01*
X0412362Y0026248D01*
X0412403Y0026407D01*
X0412449Y0026565D01*
X0412499Y0026721D01*
X0412552Y0026877D01*
X0412609Y0027031D01*
X0412670Y0027183D01*
X0412735Y0027334D01*
X0412804Y0027484D01*
X0412876Y0027631D01*
X0412951Y0027777D01*
X0413031Y0027921D01*
X0413113Y0028063D01*
X0413199Y0028203D01*
X0413289Y0028340D01*
X0413382Y0028476D01*
X0413478Y0028609D01*
X0413578Y0028740D01*
X0413680Y0028868D01*
X0413786Y0028994D01*
X0413895Y0029117D01*
X0414007Y0029237D01*
X0414121Y0029355D01*
X0414239Y0029469D01*
X0414359Y0029581D01*
X0414482Y0029690D01*
X0414608Y0029796D01*
X0414736Y0029898D01*
X0414867Y0029998D01*
X0415000Y0030094D01*
X0415136Y0030187D01*
X0415273Y0030277D01*
X0415413Y0030363D01*
X0415555Y0030445D01*
X0415699Y0030525D01*
X0415845Y0030600D01*
X0415992Y0030672D01*
X0416142Y0030741D01*
X0416293Y0030806D01*
X0416445Y0030867D01*
X0416599Y0030924D01*
X0416755Y0030977D01*
X0416911Y0031027D01*
X0417069Y0031073D01*
X0417228Y0031114D01*
X0417388Y0031152D01*
X0417548Y0031186D01*
X0417710Y0031216D01*
X0417872Y0031243D01*
X0418035Y0031265D01*
X0418198Y0031283D01*
X0418362Y0031297D01*
X0418526Y0031307D01*
X0418690Y0031313D01*
X0418854Y0031315D01*
X0419018Y0031313D01*
X0419182Y0031307D01*
X0419346Y0031297D01*
X0419510Y0031283D01*
X0419673Y0031265D01*
X0419836Y0031243D01*
X0419998Y0031216D01*
X0420160Y0031186D01*
X0420320Y0031152D01*
X0420480Y0031114D01*
X0420639Y0031073D01*
X0420797Y0031027D01*
X0420953Y0030977D01*
X0421109Y0030924D01*
X0421263Y0030867D01*
X0421415Y0030806D01*
X0421566Y0030741D01*
X0421716Y0030672D01*
X0421863Y0030600D01*
X0422009Y0030525D01*
X0422153Y0030445D01*
X0422295Y0030363D01*
X0422435Y0030277D01*
X0422572Y0030187D01*
X0422708Y0030094D01*
X0422841Y0029998D01*
X0422972Y0029898D01*
X0423100Y0029796D01*
X0423226Y0029690D01*
X0423349Y0029581D01*
X0423469Y0029469D01*
X0423587Y0029355D01*
X0423701Y0029237D01*
X0423813Y0029117D01*
X0423922Y0028994D01*
X0424028Y0028868D01*
X0424130Y0028740D01*
X0424230Y0028609D01*
X0424326Y0028476D01*
X0424419Y0028340D01*
X0424509Y0028203D01*
X0424595Y0028063D01*
X0424677Y0027921D01*
X0424757Y0027777D01*
X0424832Y0027631D01*
X0424904Y0027484D01*
X0424973Y0027334D01*
X0425038Y0027183D01*
X0425099Y0027031D01*
X0425156Y0026877D01*
X0425209Y0026721D01*
X0425259Y0026565D01*
X0425305Y0026407D01*
X0425346Y0026248D01*
X0425384Y0026088D01*
X0425418Y0025928D01*
X0425448Y0025766D01*
X0425475Y0025604D01*
X0425497Y0025441D01*
X0425515Y0025278D01*
X0425529Y0025114D01*
X0425539Y0024950D01*
X0425545Y0024786D01*
X0425547Y0024622D01*
X0425545Y0024458D01*
X0425539Y0024294D01*
X0425529Y0024130D01*
X0425515Y0023966D01*
X0425497Y0023803D01*
X0425475Y0023640D01*
X0425448Y0023478D01*
X0425418Y0023316D01*
X0425384Y0023156D01*
X0425346Y0022996D01*
X0425305Y0022837D01*
X0425259Y0022679D01*
X0425209Y0022523D01*
X0425156Y0022367D01*
X0425099Y0022213D01*
X0425038Y0022061D01*
X0424973Y0021910D01*
X0424904Y0021760D01*
X0424832Y0021613D01*
X0424757Y0021467D01*
X0424677Y0021323D01*
X0424595Y0021181D01*
X0424509Y0021041D01*
X0424419Y0020904D01*
X0424326Y0020768D01*
X0424230Y0020635D01*
X0424130Y0020504D01*
X0424028Y0020376D01*
X0423922Y0020250D01*
X0423813Y0020127D01*
X0423701Y0020007D01*
X0423587Y0019889D01*
X0423469Y0019775D01*
X0423349Y0019663D01*
X0423226Y0019554D01*
X0423100Y0019448D01*
X0422972Y0019346D01*
X0422841Y0019246D01*
X0422708Y0019150D01*
X0422572Y0019057D01*
X0422435Y0018967D01*
X0422295Y0018881D01*
X0422153Y0018799D01*
X0422009Y0018719D01*
X0421863Y0018644D01*
X0421716Y0018572D01*
X0421566Y0018503D01*
X0421415Y0018438D01*
X0421263Y0018377D01*
X0421109Y0018320D01*
X0420953Y0018267D01*
X0420797Y0018217D01*
X0420639Y0018171D01*
X0420480Y0018130D01*
X0420320Y0018092D01*
X0420160Y0018058D01*
X0419998Y0018028D01*
X0419836Y0018001D01*
X0419673Y0017979D01*
X0419510Y0017961D01*
X0419346Y0017947D01*
X0419182Y0017937D01*
X0419018Y0017931D01*
X0418854Y0017929D01*
X0418690Y0017931D01*
X0418526Y0017937D01*
X0418362Y0017947D01*
X0418198Y0017961D01*
X0418035Y0017979D01*
X0417872Y0018001D01*
X0417710Y0018028D01*
X0417548Y0018058D01*
X0417388Y0018092D01*
X0417228Y0018130D01*
X0417069Y0018171D01*
X0416911Y0018217D01*
X0416755Y0018267D01*
X0416599Y0018320D01*
X0416445Y0018377D01*
X0416293Y0018438D01*
X0416142Y0018503D01*
X0415992Y0018572D01*
X0415845Y0018644D01*
X0415699Y0018719D01*
X0415555Y0018799D01*
X0415413Y0018881D01*
X0415273Y0018967D01*
X0415136Y0019057D01*
X0415000Y0019150D01*
X0414867Y0019246D01*
X0414736Y0019346D01*
X0414608Y0019448D01*
X0414482Y0019554D01*
X0414359Y0019663D01*
X0414239Y0019775D01*
X0414121Y0019889D01*
X0414007Y0020007D01*
X0413895Y0020127D01*
X0413786Y0020250D01*
X0413680Y0020376D01*
X0413578Y0020504D01*
X0413478Y0020635D01*
X0413382Y0020768D01*
X0413289Y0020904D01*
X0413199Y0021041D01*
X0413113Y0021181D01*
X0413031Y0021323D01*
X0412951Y0021467D01*
X0412876Y0021613D01*
X0412804Y0021760D01*
X0412735Y0021910D01*
X0412670Y0022061D01*
X0412609Y0022213D01*
X0412552Y0022367D01*
X0412499Y0022523D01*
X0412449Y0022679D01*
X0412403Y0022837D01*
X0412362Y0022996D01*
X0412324Y0023156D01*
X0412290Y0023316D01*
X0412260Y0023478D01*
X0412233Y0023640D01*
X0412211Y0023803D01*
X0412193Y0023966D01*
X0412179Y0024130D01*
X0412169Y0024294D01*
X0412163Y0024458D01*
X0412161Y0024622D01*
X0405354Y0024622D02*
X0405358Y0024953D01*
X0405370Y0025284D01*
X0405391Y0025615D01*
X0405419Y0025945D01*
X0405456Y0026275D01*
X0405500Y0026603D01*
X0405553Y0026930D01*
X0405613Y0027256D01*
X0405682Y0027580D01*
X0405759Y0027902D01*
X0405843Y0028223D01*
X0405935Y0028541D01*
X0406035Y0028857D01*
X0406143Y0029170D01*
X0406259Y0029481D01*
X0406382Y0029788D01*
X0406512Y0030093D01*
X0406650Y0030394D01*
X0406795Y0030692D01*
X0406948Y0030986D01*
X0407108Y0031276D01*
X0407275Y0031562D01*
X0407448Y0031844D01*
X0407629Y0032122D01*
X0407817Y0032395D01*
X0408011Y0032664D01*
X0408211Y0032928D01*
X0408418Y0033186D01*
X0408632Y0033440D01*
X0408851Y0033688D01*
X0409077Y0033931D01*
X0409308Y0034168D01*
X0409545Y0034399D01*
X0409788Y0034625D01*
X0410036Y0034844D01*
X0410290Y0035058D01*
X0410548Y0035265D01*
X0410812Y0035465D01*
X0411081Y0035659D01*
X0411354Y0035847D01*
X0411632Y0036028D01*
X0411914Y0036201D01*
X0412200Y0036368D01*
X0412490Y0036528D01*
X0412784Y0036681D01*
X0413082Y0036826D01*
X0413383Y0036964D01*
X0413688Y0037094D01*
X0413995Y0037217D01*
X0414306Y0037333D01*
X0414619Y0037441D01*
X0414935Y0037541D01*
X0415253Y0037633D01*
X0415574Y0037717D01*
X0415896Y0037794D01*
X0416220Y0037863D01*
X0416546Y0037923D01*
X0416873Y0037976D01*
X0417201Y0038020D01*
X0417531Y0038057D01*
X0417861Y0038085D01*
X0418192Y0038106D01*
X0418523Y0038118D01*
X0418854Y0038122D01*
X0419185Y0038118D01*
X0419516Y0038106D01*
X0419847Y0038085D01*
X0420177Y0038057D01*
X0420507Y0038020D01*
X0420835Y0037976D01*
X0421162Y0037923D01*
X0421488Y0037863D01*
X0421812Y0037794D01*
X0422134Y0037717D01*
X0422455Y0037633D01*
X0422773Y0037541D01*
X0423089Y0037441D01*
X0423402Y0037333D01*
X0423713Y0037217D01*
X0424020Y0037094D01*
X0424325Y0036964D01*
X0424626Y0036826D01*
X0424924Y0036681D01*
X0425218Y0036528D01*
X0425508Y0036368D01*
X0425794Y0036201D01*
X0426076Y0036028D01*
X0426354Y0035847D01*
X0426627Y0035659D01*
X0426896Y0035465D01*
X0427160Y0035265D01*
X0427418Y0035058D01*
X0427672Y0034844D01*
X0427920Y0034625D01*
X0428163Y0034399D01*
X0428400Y0034168D01*
X0428631Y0033931D01*
X0428857Y0033688D01*
X0429076Y0033440D01*
X0429290Y0033186D01*
X0429497Y0032928D01*
X0429697Y0032664D01*
X0429891Y0032395D01*
X0430079Y0032122D01*
X0430260Y0031844D01*
X0430433Y0031562D01*
X0430600Y0031276D01*
X0430760Y0030986D01*
X0430913Y0030692D01*
X0431058Y0030394D01*
X0431196Y0030093D01*
X0431326Y0029788D01*
X0431449Y0029481D01*
X0431565Y0029170D01*
X0431673Y0028857D01*
X0431773Y0028541D01*
X0431865Y0028223D01*
X0431949Y0027902D01*
X0432026Y0027580D01*
X0432095Y0027256D01*
X0432155Y0026930D01*
X0432208Y0026603D01*
X0432252Y0026275D01*
X0432289Y0025945D01*
X0432317Y0025615D01*
X0432338Y0025284D01*
X0432350Y0024953D01*
X0432354Y0024622D01*
X0432350Y0024291D01*
X0432338Y0023960D01*
X0432317Y0023629D01*
X0432289Y0023299D01*
X0432252Y0022969D01*
X0432208Y0022641D01*
X0432155Y0022314D01*
X0432095Y0021988D01*
X0432026Y0021664D01*
X0431949Y0021342D01*
X0431865Y0021021D01*
X0431773Y0020703D01*
X0431673Y0020387D01*
X0431565Y0020074D01*
X0431449Y0019763D01*
X0431326Y0019456D01*
X0431196Y0019151D01*
X0431058Y0018850D01*
X0430913Y0018552D01*
X0430760Y0018258D01*
X0430600Y0017968D01*
X0430433Y0017682D01*
X0430260Y0017400D01*
X0430079Y0017122D01*
X0429891Y0016849D01*
X0429697Y0016580D01*
X0429497Y0016316D01*
X0429290Y0016058D01*
X0429076Y0015804D01*
X0428857Y0015556D01*
X0428631Y0015313D01*
X0428400Y0015076D01*
X0428163Y0014845D01*
X0427920Y0014619D01*
X0427672Y0014400D01*
X0427418Y0014186D01*
X0427160Y0013979D01*
X0426896Y0013779D01*
X0426627Y0013585D01*
X0426354Y0013397D01*
X0426076Y0013216D01*
X0425794Y0013043D01*
X0425508Y0012876D01*
X0425218Y0012716D01*
X0424924Y0012563D01*
X0424626Y0012418D01*
X0424325Y0012280D01*
X0424020Y0012150D01*
X0423713Y0012027D01*
X0423402Y0011911D01*
X0423089Y0011803D01*
X0422773Y0011703D01*
X0422455Y0011611D01*
X0422134Y0011527D01*
X0421812Y0011450D01*
X0421488Y0011381D01*
X0421162Y0011321D01*
X0420835Y0011268D01*
X0420507Y0011224D01*
X0420177Y0011187D01*
X0419847Y0011159D01*
X0419516Y0011138D01*
X0419185Y0011126D01*
X0418854Y0011122D01*
X0418523Y0011126D01*
X0418192Y0011138D01*
X0417861Y0011159D01*
X0417531Y0011187D01*
X0417201Y0011224D01*
X0416873Y0011268D01*
X0416546Y0011321D01*
X0416220Y0011381D01*
X0415896Y0011450D01*
X0415574Y0011527D01*
X0415253Y0011611D01*
X0414935Y0011703D01*
X0414619Y0011803D01*
X0414306Y0011911D01*
X0413995Y0012027D01*
X0413688Y0012150D01*
X0413383Y0012280D01*
X0413082Y0012418D01*
X0412784Y0012563D01*
X0412490Y0012716D01*
X0412200Y0012876D01*
X0411914Y0013043D01*
X0411632Y0013216D01*
X0411354Y0013397D01*
X0411081Y0013585D01*
X0410812Y0013779D01*
X0410548Y0013979D01*
X0410290Y0014186D01*
X0410036Y0014400D01*
X0409788Y0014619D01*
X0409545Y0014845D01*
X0409308Y0015076D01*
X0409077Y0015313D01*
X0408851Y0015556D01*
X0408632Y0015804D01*
X0408418Y0016058D01*
X0408211Y0016316D01*
X0408011Y0016580D01*
X0407817Y0016849D01*
X0407629Y0017122D01*
X0407448Y0017400D01*
X0407275Y0017682D01*
X0407108Y0017968D01*
X0406948Y0018258D01*
X0406795Y0018552D01*
X0406650Y0018850D01*
X0406512Y0019151D01*
X0406382Y0019456D01*
X0406259Y0019763D01*
X0406143Y0020074D01*
X0406035Y0020387D01*
X0405935Y0020703D01*
X0405843Y0021021D01*
X0405759Y0021342D01*
X0405682Y0021664D01*
X0405613Y0021988D01*
X0405553Y0022314D01*
X0405500Y0022641D01*
X0405456Y0022969D01*
X0405419Y0023299D01*
X0405391Y0023629D01*
X0405370Y0023960D01*
X0405358Y0024291D01*
X0405354Y0024622D01*
X0080136Y0113710D02*
X0080136Y0114421D01*
X0078003Y0106255D02*
X0078001Y0106191D01*
X0077995Y0106126D01*
X0077986Y0106063D01*
X0077972Y0106000D01*
X0077955Y0105938D01*
X0077934Y0105877D01*
X0077909Y0105817D01*
X0077881Y0105759D01*
X0077849Y0105703D01*
X0077814Y0105649D01*
X0077776Y0105597D01*
X0077735Y0105547D01*
X0077690Y0105501D01*
X0077644Y0105456D01*
X0077594Y0105415D01*
X0077542Y0105377D01*
X0077488Y0105342D01*
X0077432Y0105310D01*
X0077374Y0105282D01*
X0077314Y0105257D01*
X0077253Y0105236D01*
X0077191Y0105219D01*
X0077128Y0105205D01*
X0077065Y0105196D01*
X0077000Y0105190D01*
X0076936Y0105188D01*
X0075158Y0095476D02*
X0075156Y0095559D01*
X0075150Y0095642D01*
X0075140Y0095725D01*
X0075127Y0095808D01*
X0075109Y0095889D01*
X0075088Y0095970D01*
X0075063Y0096049D01*
X0075034Y0096127D01*
X0075002Y0096204D01*
X0074966Y0096279D01*
X0074927Y0096353D01*
X0074884Y0096424D01*
X0074838Y0096494D01*
X0074788Y0096561D01*
X0074736Y0096626D01*
X0074681Y0096688D01*
X0074622Y0096748D01*
X0074561Y0096805D01*
X0074498Y0096859D01*
X0074432Y0096910D01*
X0074363Y0096957D01*
X0074293Y0097002D01*
X0074220Y0097043D01*
X0074146Y0097080D01*
X0074070Y0097115D01*
X0073992Y0097145D01*
X0073914Y0097172D01*
X0073833Y0097195D01*
X0073752Y0097215D01*
X0073670Y0097230D01*
X0073588Y0097242D01*
X0073505Y0097250D01*
X0073422Y0097254D01*
X0073338Y0097254D01*
X0073255Y0097250D01*
X0073172Y0097242D01*
X0073090Y0097230D01*
X0073008Y0097215D01*
X0072927Y0097195D01*
X0072846Y0097172D01*
X0072768Y0097145D01*
X0072690Y0097115D01*
X0072614Y0097080D01*
X0072540Y0097043D01*
X0072467Y0097002D01*
X0072397Y0096957D01*
X0072328Y0096910D01*
X0072262Y0096859D01*
X0072199Y0096805D01*
X0072138Y0096748D01*
X0072079Y0096688D01*
X0072024Y0096626D01*
X0071972Y0096561D01*
X0071922Y0096494D01*
X0071876Y0096424D01*
X0071833Y0096353D01*
X0071794Y0096279D01*
X0071758Y0096204D01*
X0071726Y0096127D01*
X0071697Y0096049D01*
X0071672Y0095970D01*
X0071651Y0095889D01*
X0071633Y0095808D01*
X0071620Y0095725D01*
X0071610Y0095642D01*
X0071604Y0095559D01*
X0071602Y0095476D01*
X0073578Y0327772D02*
X0073580Y0327936D01*
X0073586Y0328100D01*
X0073596Y0328264D01*
X0073610Y0328428D01*
X0073628Y0328591D01*
X0073650Y0328754D01*
X0073677Y0328916D01*
X0073707Y0329078D01*
X0073741Y0329238D01*
X0073779Y0329398D01*
X0073820Y0329557D01*
X0073866Y0329715D01*
X0073916Y0329871D01*
X0073969Y0330027D01*
X0074026Y0330181D01*
X0074087Y0330333D01*
X0074152Y0330484D01*
X0074221Y0330634D01*
X0074293Y0330781D01*
X0074368Y0330927D01*
X0074448Y0331071D01*
X0074530Y0331213D01*
X0074616Y0331353D01*
X0074706Y0331490D01*
X0074799Y0331626D01*
X0074895Y0331759D01*
X0074995Y0331890D01*
X0075097Y0332018D01*
X0075203Y0332144D01*
X0075312Y0332267D01*
X0075424Y0332387D01*
X0075538Y0332505D01*
X0075656Y0332619D01*
X0075776Y0332731D01*
X0075899Y0332840D01*
X0076025Y0332946D01*
X0076153Y0333048D01*
X0076284Y0333148D01*
X0076417Y0333244D01*
X0076553Y0333337D01*
X0076690Y0333427D01*
X0076830Y0333513D01*
X0076972Y0333595D01*
X0077116Y0333675D01*
X0077262Y0333750D01*
X0077409Y0333822D01*
X0077559Y0333891D01*
X0077710Y0333956D01*
X0077862Y0334017D01*
X0078016Y0334074D01*
X0078172Y0334127D01*
X0078328Y0334177D01*
X0078486Y0334223D01*
X0078645Y0334264D01*
X0078805Y0334302D01*
X0078965Y0334336D01*
X0079127Y0334366D01*
X0079289Y0334393D01*
X0079452Y0334415D01*
X0079615Y0334433D01*
X0079779Y0334447D01*
X0079943Y0334457D01*
X0080107Y0334463D01*
X0080271Y0334465D01*
X0080435Y0334463D01*
X0080599Y0334457D01*
X0080763Y0334447D01*
X0080927Y0334433D01*
X0081090Y0334415D01*
X0081253Y0334393D01*
X0081415Y0334366D01*
X0081577Y0334336D01*
X0081737Y0334302D01*
X0081897Y0334264D01*
X0082056Y0334223D01*
X0082214Y0334177D01*
X0082370Y0334127D01*
X0082526Y0334074D01*
X0082680Y0334017D01*
X0082832Y0333956D01*
X0082983Y0333891D01*
X0083133Y0333822D01*
X0083280Y0333750D01*
X0083426Y0333675D01*
X0083570Y0333595D01*
X0083712Y0333513D01*
X0083852Y0333427D01*
X0083989Y0333337D01*
X0084125Y0333244D01*
X0084258Y0333148D01*
X0084389Y0333048D01*
X0084517Y0332946D01*
X0084643Y0332840D01*
X0084766Y0332731D01*
X0084886Y0332619D01*
X0085004Y0332505D01*
X0085118Y0332387D01*
X0085230Y0332267D01*
X0085339Y0332144D01*
X0085445Y0332018D01*
X0085547Y0331890D01*
X0085647Y0331759D01*
X0085743Y0331626D01*
X0085836Y0331490D01*
X0085926Y0331353D01*
X0086012Y0331213D01*
X0086094Y0331071D01*
X0086174Y0330927D01*
X0086249Y0330781D01*
X0086321Y0330634D01*
X0086390Y0330484D01*
X0086455Y0330333D01*
X0086516Y0330181D01*
X0086573Y0330027D01*
X0086626Y0329871D01*
X0086676Y0329715D01*
X0086722Y0329557D01*
X0086763Y0329398D01*
X0086801Y0329238D01*
X0086835Y0329078D01*
X0086865Y0328916D01*
X0086892Y0328754D01*
X0086914Y0328591D01*
X0086932Y0328428D01*
X0086946Y0328264D01*
X0086956Y0328100D01*
X0086962Y0327936D01*
X0086964Y0327772D01*
X0086962Y0327608D01*
X0086956Y0327444D01*
X0086946Y0327280D01*
X0086932Y0327116D01*
X0086914Y0326953D01*
X0086892Y0326790D01*
X0086865Y0326628D01*
X0086835Y0326466D01*
X0086801Y0326306D01*
X0086763Y0326146D01*
X0086722Y0325987D01*
X0086676Y0325829D01*
X0086626Y0325673D01*
X0086573Y0325517D01*
X0086516Y0325363D01*
X0086455Y0325211D01*
X0086390Y0325060D01*
X0086321Y0324910D01*
X0086249Y0324763D01*
X0086174Y0324617D01*
X0086094Y0324473D01*
X0086012Y0324331D01*
X0085926Y0324191D01*
X0085836Y0324054D01*
X0085743Y0323918D01*
X0085647Y0323785D01*
X0085547Y0323654D01*
X0085445Y0323526D01*
X0085339Y0323400D01*
X0085230Y0323277D01*
X0085118Y0323157D01*
X0085004Y0323039D01*
X0084886Y0322925D01*
X0084766Y0322813D01*
X0084643Y0322704D01*
X0084517Y0322598D01*
X0084389Y0322496D01*
X0084258Y0322396D01*
X0084125Y0322300D01*
X0083989Y0322207D01*
X0083852Y0322117D01*
X0083712Y0322031D01*
X0083570Y0321949D01*
X0083426Y0321869D01*
X0083280Y0321794D01*
X0083133Y0321722D01*
X0082983Y0321653D01*
X0082832Y0321588D01*
X0082680Y0321527D01*
X0082526Y0321470D01*
X0082370Y0321417D01*
X0082214Y0321367D01*
X0082056Y0321321D01*
X0081897Y0321280D01*
X0081737Y0321242D01*
X0081577Y0321208D01*
X0081415Y0321178D01*
X0081253Y0321151D01*
X0081090Y0321129D01*
X0080927Y0321111D01*
X0080763Y0321097D01*
X0080599Y0321087D01*
X0080435Y0321081D01*
X0080271Y0321079D01*
X0080107Y0321081D01*
X0079943Y0321087D01*
X0079779Y0321097D01*
X0079615Y0321111D01*
X0079452Y0321129D01*
X0079289Y0321151D01*
X0079127Y0321178D01*
X0078965Y0321208D01*
X0078805Y0321242D01*
X0078645Y0321280D01*
X0078486Y0321321D01*
X0078328Y0321367D01*
X0078172Y0321417D01*
X0078016Y0321470D01*
X0077862Y0321527D01*
X0077710Y0321588D01*
X0077559Y0321653D01*
X0077409Y0321722D01*
X0077262Y0321794D01*
X0077116Y0321869D01*
X0076972Y0321949D01*
X0076830Y0322031D01*
X0076690Y0322117D01*
X0076553Y0322207D01*
X0076417Y0322300D01*
X0076284Y0322396D01*
X0076153Y0322496D01*
X0076025Y0322598D01*
X0075899Y0322704D01*
X0075776Y0322813D01*
X0075656Y0322925D01*
X0075538Y0323039D01*
X0075424Y0323157D01*
X0075312Y0323277D01*
X0075203Y0323400D01*
X0075097Y0323526D01*
X0074995Y0323654D01*
X0074895Y0323785D01*
X0074799Y0323918D01*
X0074706Y0324054D01*
X0074616Y0324191D01*
X0074530Y0324331D01*
X0074448Y0324473D01*
X0074368Y0324617D01*
X0074293Y0324763D01*
X0074221Y0324910D01*
X0074152Y0325060D01*
X0074087Y0325211D01*
X0074026Y0325363D01*
X0073969Y0325517D01*
X0073916Y0325673D01*
X0073866Y0325829D01*
X0073820Y0325987D01*
X0073779Y0326146D01*
X0073741Y0326306D01*
X0073707Y0326466D01*
X0073677Y0326628D01*
X0073650Y0326790D01*
X0073628Y0326953D01*
X0073610Y0327116D01*
X0073596Y0327280D01*
X0073586Y0327444D01*
X0073580Y0327608D01*
X0073578Y0327772D01*
X0066771Y0327772D02*
X0066775Y0328103D01*
X0066787Y0328434D01*
X0066808Y0328765D01*
X0066836Y0329095D01*
X0066873Y0329425D01*
X0066917Y0329753D01*
X0066970Y0330080D01*
X0067030Y0330406D01*
X0067099Y0330730D01*
X0067176Y0331052D01*
X0067260Y0331373D01*
X0067352Y0331691D01*
X0067452Y0332007D01*
X0067560Y0332320D01*
X0067676Y0332631D01*
X0067799Y0332938D01*
X0067929Y0333243D01*
X0068067Y0333544D01*
X0068212Y0333842D01*
X0068365Y0334136D01*
X0068525Y0334426D01*
X0068692Y0334712D01*
X0068865Y0334994D01*
X0069046Y0335272D01*
X0069234Y0335545D01*
X0069428Y0335814D01*
X0069628Y0336078D01*
X0069835Y0336336D01*
X0070049Y0336590D01*
X0070268Y0336838D01*
X0070494Y0337081D01*
X0070725Y0337318D01*
X0070962Y0337549D01*
X0071205Y0337775D01*
X0071453Y0337994D01*
X0071707Y0338208D01*
X0071965Y0338415D01*
X0072229Y0338615D01*
X0072498Y0338809D01*
X0072771Y0338997D01*
X0073049Y0339178D01*
X0073331Y0339351D01*
X0073617Y0339518D01*
X0073907Y0339678D01*
X0074201Y0339831D01*
X0074499Y0339976D01*
X0074800Y0340114D01*
X0075105Y0340244D01*
X0075412Y0340367D01*
X0075723Y0340483D01*
X0076036Y0340591D01*
X0076352Y0340691D01*
X0076670Y0340783D01*
X0076991Y0340867D01*
X0077313Y0340944D01*
X0077637Y0341013D01*
X0077963Y0341073D01*
X0078290Y0341126D01*
X0078618Y0341170D01*
X0078948Y0341207D01*
X0079278Y0341235D01*
X0079609Y0341256D01*
X0079940Y0341268D01*
X0080271Y0341272D01*
X0080602Y0341268D01*
X0080933Y0341256D01*
X0081264Y0341235D01*
X0081594Y0341207D01*
X0081924Y0341170D01*
X0082252Y0341126D01*
X0082579Y0341073D01*
X0082905Y0341013D01*
X0083229Y0340944D01*
X0083551Y0340867D01*
X0083872Y0340783D01*
X0084190Y0340691D01*
X0084506Y0340591D01*
X0084819Y0340483D01*
X0085130Y0340367D01*
X0085437Y0340244D01*
X0085742Y0340114D01*
X0086043Y0339976D01*
X0086341Y0339831D01*
X0086635Y0339678D01*
X0086925Y0339518D01*
X0087211Y0339351D01*
X0087493Y0339178D01*
X0087771Y0338997D01*
X0088044Y0338809D01*
X0088313Y0338615D01*
X0088577Y0338415D01*
X0088835Y0338208D01*
X0089089Y0337994D01*
X0089337Y0337775D01*
X0089580Y0337549D01*
X0089817Y0337318D01*
X0090048Y0337081D01*
X0090274Y0336838D01*
X0090493Y0336590D01*
X0090707Y0336336D01*
X0090914Y0336078D01*
X0091114Y0335814D01*
X0091308Y0335545D01*
X0091496Y0335272D01*
X0091677Y0334994D01*
X0091850Y0334712D01*
X0092017Y0334426D01*
X0092177Y0334136D01*
X0092330Y0333842D01*
X0092475Y0333544D01*
X0092613Y0333243D01*
X0092743Y0332938D01*
X0092866Y0332631D01*
X0092982Y0332320D01*
X0093090Y0332007D01*
X0093190Y0331691D01*
X0093282Y0331373D01*
X0093366Y0331052D01*
X0093443Y0330730D01*
X0093512Y0330406D01*
X0093572Y0330080D01*
X0093625Y0329753D01*
X0093669Y0329425D01*
X0093706Y0329095D01*
X0093734Y0328765D01*
X0093755Y0328434D01*
X0093767Y0328103D01*
X0093771Y0327772D01*
X0093767Y0327441D01*
X0093755Y0327110D01*
X0093734Y0326779D01*
X0093706Y0326449D01*
X0093669Y0326119D01*
X0093625Y0325791D01*
X0093572Y0325464D01*
X0093512Y0325138D01*
X0093443Y0324814D01*
X0093366Y0324492D01*
X0093282Y0324171D01*
X0093190Y0323853D01*
X0093090Y0323537D01*
X0092982Y0323224D01*
X0092866Y0322913D01*
X0092743Y0322606D01*
X0092613Y0322301D01*
X0092475Y0322000D01*
X0092330Y0321702D01*
X0092177Y0321408D01*
X0092017Y0321118D01*
X0091850Y0320832D01*
X0091677Y0320550D01*
X0091496Y0320272D01*
X0091308Y0319999D01*
X0091114Y0319730D01*
X0090914Y0319466D01*
X0090707Y0319208D01*
X0090493Y0318954D01*
X0090274Y0318706D01*
X0090048Y0318463D01*
X0089817Y0318226D01*
X0089580Y0317995D01*
X0089337Y0317769D01*
X0089089Y0317550D01*
X0088835Y0317336D01*
X0088577Y0317129D01*
X0088313Y0316929D01*
X0088044Y0316735D01*
X0087771Y0316547D01*
X0087493Y0316366D01*
X0087211Y0316193D01*
X0086925Y0316026D01*
X0086635Y0315866D01*
X0086341Y0315713D01*
X0086043Y0315568D01*
X0085742Y0315430D01*
X0085437Y0315300D01*
X0085130Y0315177D01*
X0084819Y0315061D01*
X0084506Y0314953D01*
X0084190Y0314853D01*
X0083872Y0314761D01*
X0083551Y0314677D01*
X0083229Y0314600D01*
X0082905Y0314531D01*
X0082579Y0314471D01*
X0082252Y0314418D01*
X0081924Y0314374D01*
X0081594Y0314337D01*
X0081264Y0314309D01*
X0080933Y0314288D01*
X0080602Y0314276D01*
X0080271Y0314272D01*
X0079940Y0314276D01*
X0079609Y0314288D01*
X0079278Y0314309D01*
X0078948Y0314337D01*
X0078618Y0314374D01*
X0078290Y0314418D01*
X0077963Y0314471D01*
X0077637Y0314531D01*
X0077313Y0314600D01*
X0076991Y0314677D01*
X0076670Y0314761D01*
X0076352Y0314853D01*
X0076036Y0314953D01*
X0075723Y0315061D01*
X0075412Y0315177D01*
X0075105Y0315300D01*
X0074800Y0315430D01*
X0074499Y0315568D01*
X0074201Y0315713D01*
X0073907Y0315866D01*
X0073617Y0316026D01*
X0073331Y0316193D01*
X0073049Y0316366D01*
X0072771Y0316547D01*
X0072498Y0316735D01*
X0072229Y0316929D01*
X0071965Y0317129D01*
X0071707Y0317336D01*
X0071453Y0317550D01*
X0071205Y0317769D01*
X0070962Y0317995D01*
X0070725Y0318226D01*
X0070494Y0318463D01*
X0070268Y0318706D01*
X0070049Y0318954D01*
X0069835Y0319208D01*
X0069628Y0319466D01*
X0069428Y0319730D01*
X0069234Y0319999D01*
X0069046Y0320272D01*
X0068865Y0320550D01*
X0068692Y0320832D01*
X0068525Y0321118D01*
X0068365Y0321408D01*
X0068212Y0321702D01*
X0068067Y0322000D01*
X0067929Y0322301D01*
X0067799Y0322606D01*
X0067676Y0322913D01*
X0067560Y0323224D01*
X0067452Y0323537D01*
X0067352Y0323853D01*
X0067260Y0324171D01*
X0067176Y0324492D01*
X0067099Y0324814D01*
X0067030Y0325138D01*
X0066970Y0325464D01*
X0066917Y0325791D01*
X0066873Y0326119D01*
X0066836Y0326449D01*
X0066808Y0326779D01*
X0066787Y0327110D01*
X0066775Y0327441D01*
X0066771Y0327772D01*
D12*
X0115669Y0048263D02*
X0115669Y0044796D01*
X0113936Y0046529D02*
X0117402Y0046529D01*
X0129684Y0046818D02*
X0131128Y0046818D01*
X0131128Y0046819D02*
X0131204Y0046821D01*
X0131279Y0046827D01*
X0131354Y0046837D01*
X0131428Y0046851D01*
X0131502Y0046868D01*
X0131574Y0046890D01*
X0131645Y0046915D01*
X0131715Y0046944D01*
X0131784Y0046976D01*
X0131850Y0047012D01*
X0131914Y0047052D01*
X0131977Y0047095D01*
X0132037Y0047141D01*
X0132094Y0047190D01*
X0132149Y0047242D01*
X0132201Y0047297D01*
X0132250Y0047354D01*
X0132296Y0047414D01*
X0132339Y0047477D01*
X0132379Y0047541D01*
X0132415Y0047607D01*
X0132447Y0047676D01*
X0132476Y0047746D01*
X0132501Y0047817D01*
X0132523Y0047889D01*
X0132540Y0047963D01*
X0132554Y0048037D01*
X0132564Y0048112D01*
X0132570Y0048187D01*
X0132572Y0048263D01*
X0132570Y0048339D01*
X0132564Y0048414D01*
X0132554Y0048489D01*
X0132540Y0048563D01*
X0132523Y0048637D01*
X0132501Y0048709D01*
X0132476Y0048780D01*
X0132447Y0048850D01*
X0132415Y0048919D01*
X0132379Y0048985D01*
X0132339Y0049049D01*
X0132296Y0049112D01*
X0132250Y0049172D01*
X0132201Y0049229D01*
X0132149Y0049284D01*
X0132094Y0049336D01*
X0132037Y0049385D01*
X0131977Y0049431D01*
X0131914Y0049474D01*
X0131850Y0049514D01*
X0131784Y0049550D01*
X0131715Y0049582D01*
X0131645Y0049611D01*
X0131574Y0049636D01*
X0131502Y0049658D01*
X0131428Y0049675D01*
X0131354Y0049689D01*
X0131279Y0049699D01*
X0131204Y0049705D01*
X0131128Y0049707D01*
X0129684Y0049707D01*
X0129684Y0044507D01*
X0135446Y0044507D02*
X0136601Y0047974D01*
X0137757Y0044507D01*
X0138912Y0049707D01*
X0141068Y0049707D02*
X0142512Y0049707D01*
X0142588Y0049705D01*
X0142663Y0049699D01*
X0142738Y0049689D01*
X0142812Y0049675D01*
X0142886Y0049658D01*
X0142958Y0049636D01*
X0143029Y0049611D01*
X0143099Y0049582D01*
X0143168Y0049550D01*
X0143234Y0049514D01*
X0143298Y0049474D01*
X0143361Y0049431D01*
X0143421Y0049385D01*
X0143478Y0049336D01*
X0143533Y0049284D01*
X0143585Y0049229D01*
X0143634Y0049172D01*
X0143680Y0049112D01*
X0143723Y0049049D01*
X0143763Y0048985D01*
X0143799Y0048919D01*
X0143831Y0048850D01*
X0143860Y0048780D01*
X0143885Y0048709D01*
X0143907Y0048637D01*
X0143924Y0048563D01*
X0143938Y0048489D01*
X0143948Y0048414D01*
X0143954Y0048339D01*
X0143956Y0048263D01*
X0143954Y0048187D01*
X0143948Y0048112D01*
X0143938Y0048037D01*
X0143924Y0047963D01*
X0143907Y0047889D01*
X0143885Y0047817D01*
X0143860Y0047746D01*
X0143831Y0047676D01*
X0143799Y0047607D01*
X0143763Y0047541D01*
X0143723Y0047477D01*
X0143680Y0047414D01*
X0143634Y0047354D01*
X0143585Y0047297D01*
X0143533Y0047242D01*
X0143478Y0047190D01*
X0143421Y0047141D01*
X0143361Y0047095D01*
X0143298Y0047052D01*
X0143234Y0047012D01*
X0143168Y0046976D01*
X0143099Y0046944D01*
X0143029Y0046915D01*
X0142958Y0046890D01*
X0142886Y0046868D01*
X0142812Y0046851D01*
X0142738Y0046837D01*
X0142663Y0046827D01*
X0142588Y0046821D01*
X0142512Y0046819D01*
X0142512Y0046818D02*
X0141068Y0046818D01*
X0142801Y0046818D02*
X0143956Y0044507D01*
X0141068Y0044507D02*
X0141068Y0049707D01*
X0134290Y0049707D02*
X0135446Y0044507D01*
X0147400Y0046529D02*
X0150867Y0046529D01*
X0214329Y0045663D02*
X0214329Y0048552D01*
X0214331Y0048619D01*
X0214337Y0048686D01*
X0214347Y0048753D01*
X0214360Y0048819D01*
X0214378Y0048884D01*
X0214399Y0048947D01*
X0214424Y0049010D01*
X0214452Y0049071D01*
X0214484Y0049130D01*
X0214519Y0049187D01*
X0214558Y0049242D01*
X0214599Y0049295D01*
X0214644Y0049345D01*
X0214692Y0049393D01*
X0214742Y0049438D01*
X0214795Y0049479D01*
X0214850Y0049518D01*
X0214907Y0049553D01*
X0214966Y0049585D01*
X0215027Y0049613D01*
X0215090Y0049638D01*
X0215153Y0049659D01*
X0215218Y0049677D01*
X0215284Y0049690D01*
X0215351Y0049700D01*
X0215418Y0049706D01*
X0215485Y0049708D01*
X0215485Y0049707D02*
X0216640Y0049707D01*
X0218711Y0049707D02*
X0218711Y0044507D01*
X0216640Y0044507D02*
X0215485Y0044507D01*
X0215418Y0044509D01*
X0215351Y0044515D01*
X0215284Y0044525D01*
X0215218Y0044538D01*
X0215153Y0044556D01*
X0215090Y0044577D01*
X0215027Y0044602D01*
X0214966Y0044630D01*
X0214907Y0044662D01*
X0214850Y0044697D01*
X0214795Y0044736D01*
X0214742Y0044777D01*
X0214692Y0044822D01*
X0214644Y0044870D01*
X0214599Y0044920D01*
X0214558Y0044973D01*
X0214519Y0045028D01*
X0214484Y0045085D01*
X0214452Y0045144D01*
X0214424Y0045205D01*
X0214399Y0045268D01*
X0214378Y0045331D01*
X0214360Y0045396D01*
X0214347Y0045462D01*
X0214337Y0045529D01*
X0214331Y0045596D01*
X0214329Y0045663D01*
X0218711Y0047396D02*
X0221600Y0047396D01*
X0221600Y0049707D02*
X0221600Y0044507D01*
X0223919Y0044507D02*
X0226808Y0044507D01*
X0225363Y0044507D02*
X0225363Y0049707D01*
X0223919Y0048552D01*
X0232046Y0046529D02*
X0235512Y0046529D01*
X0257636Y0046529D02*
X0261103Y0046529D01*
X0259370Y0044796D02*
X0259370Y0048263D01*
X0263542Y0048552D02*
X0263542Y0045663D01*
X0263541Y0045663D02*
X0263543Y0045596D01*
X0263549Y0045529D01*
X0263559Y0045462D01*
X0263572Y0045396D01*
X0263590Y0045331D01*
X0263611Y0045268D01*
X0263636Y0045205D01*
X0263664Y0045144D01*
X0263696Y0045085D01*
X0263731Y0045028D01*
X0263770Y0044973D01*
X0263811Y0044920D01*
X0263856Y0044870D01*
X0263904Y0044822D01*
X0263954Y0044777D01*
X0264007Y0044736D01*
X0264062Y0044697D01*
X0264119Y0044662D01*
X0264178Y0044630D01*
X0264239Y0044602D01*
X0264302Y0044577D01*
X0264365Y0044556D01*
X0264430Y0044538D01*
X0264496Y0044525D01*
X0264563Y0044515D01*
X0264630Y0044509D01*
X0264697Y0044507D01*
X0265853Y0044507D01*
X0267924Y0044507D02*
X0267924Y0049707D01*
X0265853Y0049707D02*
X0264697Y0049707D01*
X0264697Y0049708D02*
X0264630Y0049706D01*
X0264563Y0049700D01*
X0264496Y0049690D01*
X0264430Y0049677D01*
X0264365Y0049659D01*
X0264302Y0049638D01*
X0264239Y0049613D01*
X0264178Y0049585D01*
X0264119Y0049553D01*
X0264062Y0049518D01*
X0264007Y0049479D01*
X0263954Y0049438D01*
X0263904Y0049393D01*
X0263856Y0049345D01*
X0263811Y0049295D01*
X0263770Y0049242D01*
X0263731Y0049187D01*
X0263696Y0049130D01*
X0263664Y0049071D01*
X0263636Y0049010D01*
X0263611Y0048947D01*
X0263590Y0048884D01*
X0263572Y0048819D01*
X0263559Y0048753D01*
X0263549Y0048686D01*
X0263543Y0048619D01*
X0263541Y0048552D01*
X0267924Y0047396D02*
X0270813Y0047396D01*
X0270813Y0049707D02*
X0270813Y0044507D01*
X0273132Y0044507D02*
X0276021Y0044507D01*
X0273132Y0044507D02*
X0275587Y0047396D01*
X0274721Y0049707D02*
X0274640Y0049705D01*
X0274560Y0049699D01*
X0274480Y0049689D01*
X0274400Y0049676D01*
X0274321Y0049658D01*
X0274243Y0049637D01*
X0274166Y0049612D01*
X0274091Y0049584D01*
X0274017Y0049551D01*
X0273944Y0049515D01*
X0273874Y0049476D01*
X0273805Y0049433D01*
X0273739Y0049388D01*
X0273675Y0049339D01*
X0273613Y0049286D01*
X0273554Y0049231D01*
X0273497Y0049174D01*
X0273444Y0049113D01*
X0273393Y0049050D01*
X0273346Y0048985D01*
X0273302Y0048917D01*
X0273261Y0048847D01*
X0273223Y0048776D01*
X0273189Y0048703D01*
X0273159Y0048628D01*
X0273132Y0048552D01*
X0275587Y0047396D02*
X0275637Y0047446D01*
X0275684Y0047499D01*
X0275729Y0047553D01*
X0275770Y0047610D01*
X0275809Y0047669D01*
X0275845Y0047730D01*
X0275878Y0047793D01*
X0275907Y0047857D01*
X0275933Y0047923D01*
X0275956Y0047990D01*
X0275976Y0048057D01*
X0275991Y0048126D01*
X0276004Y0048196D01*
X0276013Y0048266D01*
X0276018Y0048336D01*
X0276020Y0048407D01*
X0276021Y0048407D02*
X0276019Y0048477D01*
X0276013Y0048548D01*
X0276004Y0048617D01*
X0275991Y0048686D01*
X0275974Y0048755D01*
X0275953Y0048822D01*
X0275929Y0048888D01*
X0275901Y0048953D01*
X0275870Y0049016D01*
X0275835Y0049077D01*
X0275797Y0049137D01*
X0275756Y0049194D01*
X0275712Y0049249D01*
X0275665Y0049301D01*
X0275615Y0049351D01*
X0275563Y0049398D01*
X0275508Y0049442D01*
X0275451Y0049483D01*
X0275391Y0049521D01*
X0275330Y0049556D01*
X0275267Y0049587D01*
X0275202Y0049615D01*
X0275136Y0049639D01*
X0275069Y0049660D01*
X0275000Y0049677D01*
X0274931Y0049690D01*
X0274862Y0049699D01*
X0274791Y0049705D01*
X0274721Y0049707D01*
X0281258Y0046529D02*
X0284725Y0046529D01*
X0306849Y0046529D02*
X0310316Y0046529D01*
X0308582Y0044796D02*
X0308582Y0048263D01*
X0312754Y0048552D02*
X0312754Y0045663D01*
X0312756Y0045596D01*
X0312762Y0045529D01*
X0312772Y0045462D01*
X0312785Y0045396D01*
X0312803Y0045331D01*
X0312824Y0045268D01*
X0312849Y0045205D01*
X0312877Y0045144D01*
X0312909Y0045085D01*
X0312944Y0045028D01*
X0312983Y0044973D01*
X0313024Y0044920D01*
X0313069Y0044870D01*
X0313117Y0044822D01*
X0313167Y0044777D01*
X0313220Y0044736D01*
X0313275Y0044697D01*
X0313332Y0044662D01*
X0313391Y0044630D01*
X0313452Y0044602D01*
X0313515Y0044577D01*
X0313578Y0044556D01*
X0313643Y0044538D01*
X0313709Y0044525D01*
X0313776Y0044515D01*
X0313843Y0044509D01*
X0313910Y0044507D01*
X0315066Y0044507D01*
X0317136Y0044507D02*
X0317136Y0049707D01*
X0315066Y0049707D02*
X0313910Y0049707D01*
X0313910Y0049708D02*
X0313843Y0049706D01*
X0313776Y0049700D01*
X0313709Y0049690D01*
X0313643Y0049677D01*
X0313578Y0049659D01*
X0313515Y0049638D01*
X0313452Y0049613D01*
X0313391Y0049585D01*
X0313332Y0049553D01*
X0313275Y0049518D01*
X0313220Y0049479D01*
X0313167Y0049438D01*
X0313117Y0049393D01*
X0313069Y0049345D01*
X0313024Y0049295D01*
X0312983Y0049242D01*
X0312944Y0049187D01*
X0312909Y0049130D01*
X0312877Y0049071D01*
X0312849Y0049010D01*
X0312824Y0048947D01*
X0312803Y0048884D01*
X0312785Y0048819D01*
X0312772Y0048753D01*
X0312762Y0048686D01*
X0312756Y0048619D01*
X0312754Y0048552D01*
X0317136Y0047396D02*
X0320025Y0047396D01*
X0320025Y0049707D02*
X0320025Y0044507D01*
X0322344Y0044507D02*
X0323789Y0044507D01*
X0323789Y0044508D02*
X0323865Y0044510D01*
X0323940Y0044516D01*
X0324015Y0044526D01*
X0324089Y0044540D01*
X0324163Y0044557D01*
X0324235Y0044579D01*
X0324306Y0044604D01*
X0324376Y0044633D01*
X0324445Y0044665D01*
X0324511Y0044701D01*
X0324575Y0044741D01*
X0324638Y0044784D01*
X0324698Y0044830D01*
X0324755Y0044879D01*
X0324810Y0044931D01*
X0324862Y0044986D01*
X0324911Y0045043D01*
X0324957Y0045103D01*
X0325000Y0045166D01*
X0325040Y0045230D01*
X0325076Y0045296D01*
X0325108Y0045365D01*
X0325137Y0045435D01*
X0325162Y0045506D01*
X0325184Y0045578D01*
X0325201Y0045652D01*
X0325215Y0045726D01*
X0325225Y0045801D01*
X0325231Y0045876D01*
X0325233Y0045952D01*
X0325231Y0046028D01*
X0325225Y0046103D01*
X0325215Y0046178D01*
X0325201Y0046252D01*
X0325184Y0046326D01*
X0325162Y0046398D01*
X0325137Y0046469D01*
X0325108Y0046539D01*
X0325076Y0046608D01*
X0325040Y0046674D01*
X0325000Y0046738D01*
X0324957Y0046801D01*
X0324911Y0046861D01*
X0324862Y0046918D01*
X0324810Y0046973D01*
X0324755Y0047025D01*
X0324698Y0047074D01*
X0324638Y0047120D01*
X0324575Y0047163D01*
X0324511Y0047203D01*
X0324445Y0047239D01*
X0324376Y0047271D01*
X0324306Y0047300D01*
X0324235Y0047325D01*
X0324163Y0047347D01*
X0324089Y0047364D01*
X0324015Y0047378D01*
X0323940Y0047388D01*
X0323865Y0047394D01*
X0323789Y0047396D01*
X0324078Y0047396D02*
X0322922Y0047396D01*
X0324078Y0047396D02*
X0324145Y0047398D01*
X0324212Y0047404D01*
X0324279Y0047414D01*
X0324345Y0047427D01*
X0324410Y0047445D01*
X0324473Y0047466D01*
X0324536Y0047491D01*
X0324597Y0047519D01*
X0324656Y0047551D01*
X0324713Y0047586D01*
X0324768Y0047625D01*
X0324821Y0047666D01*
X0324871Y0047711D01*
X0324919Y0047759D01*
X0324964Y0047809D01*
X0325005Y0047862D01*
X0325044Y0047917D01*
X0325079Y0047974D01*
X0325111Y0048033D01*
X0325139Y0048094D01*
X0325164Y0048157D01*
X0325185Y0048220D01*
X0325203Y0048285D01*
X0325216Y0048351D01*
X0325226Y0048418D01*
X0325232Y0048485D01*
X0325234Y0048552D01*
X0325232Y0048619D01*
X0325226Y0048686D01*
X0325216Y0048753D01*
X0325203Y0048819D01*
X0325185Y0048884D01*
X0325164Y0048947D01*
X0325139Y0049010D01*
X0325111Y0049071D01*
X0325079Y0049130D01*
X0325044Y0049187D01*
X0325005Y0049242D01*
X0324964Y0049295D01*
X0324919Y0049345D01*
X0324871Y0049393D01*
X0324821Y0049438D01*
X0324768Y0049479D01*
X0324713Y0049518D01*
X0324656Y0049553D01*
X0324597Y0049585D01*
X0324536Y0049613D01*
X0324473Y0049638D01*
X0324410Y0049659D01*
X0324345Y0049677D01*
X0324279Y0049690D01*
X0324212Y0049700D01*
X0324145Y0049706D01*
X0324078Y0049708D01*
X0324078Y0049707D02*
X0322344Y0049707D01*
X0358030Y0046529D02*
X0361497Y0046529D01*
X0359763Y0044796D02*
X0359763Y0048263D01*
X0377715Y0048552D02*
X0377715Y0045663D01*
X0377717Y0045596D01*
X0377723Y0045529D01*
X0377733Y0045462D01*
X0377746Y0045396D01*
X0377764Y0045331D01*
X0377785Y0045268D01*
X0377810Y0045205D01*
X0377838Y0045144D01*
X0377870Y0045085D01*
X0377905Y0045028D01*
X0377944Y0044973D01*
X0377985Y0044920D01*
X0378030Y0044870D01*
X0378078Y0044822D01*
X0378128Y0044777D01*
X0378181Y0044736D01*
X0378236Y0044697D01*
X0378293Y0044662D01*
X0378352Y0044630D01*
X0378413Y0044602D01*
X0378476Y0044577D01*
X0378539Y0044556D01*
X0378604Y0044538D01*
X0378670Y0044525D01*
X0378737Y0044515D01*
X0378804Y0044509D01*
X0378871Y0044507D01*
X0380026Y0044507D01*
X0382097Y0044507D02*
X0382097Y0049707D01*
X0380026Y0049707D02*
X0378871Y0049707D01*
X0378871Y0049708D02*
X0378804Y0049706D01*
X0378737Y0049700D01*
X0378670Y0049690D01*
X0378604Y0049677D01*
X0378539Y0049659D01*
X0378476Y0049638D01*
X0378413Y0049613D01*
X0378352Y0049585D01*
X0378293Y0049553D01*
X0378236Y0049518D01*
X0378181Y0049479D01*
X0378128Y0049438D01*
X0378078Y0049393D01*
X0378030Y0049345D01*
X0377985Y0049295D01*
X0377944Y0049242D01*
X0377905Y0049187D01*
X0377870Y0049130D01*
X0377838Y0049071D01*
X0377810Y0049010D01*
X0377785Y0048947D01*
X0377764Y0048884D01*
X0377746Y0048819D01*
X0377733Y0048753D01*
X0377723Y0048686D01*
X0377717Y0048619D01*
X0377715Y0048552D01*
X0382097Y0047396D02*
X0384986Y0047396D01*
X0384986Y0049707D02*
X0384986Y0044507D01*
X0387305Y0045663D02*
X0388460Y0049707D01*
X0389327Y0046818D02*
X0389327Y0044507D01*
X0390194Y0045663D02*
X0387305Y0045663D01*
X0395432Y0046529D02*
X0398898Y0046529D01*
X0407202Y0239389D02*
X0409757Y0239389D01*
X0409819Y0239391D01*
X0409880Y0239396D01*
X0409941Y0239406D01*
X0410002Y0239419D01*
X0410061Y0239435D01*
X0410119Y0239455D01*
X0410176Y0239479D01*
X0410232Y0239506D01*
X0410286Y0239536D01*
X0410338Y0239570D01*
X0410387Y0239606D01*
X0410435Y0239646D01*
X0410480Y0239688D01*
X0410522Y0239733D01*
X0410562Y0239781D01*
X0410598Y0239830D01*
X0410632Y0239882D01*
X0410662Y0239936D01*
X0410689Y0239992D01*
X0410713Y0240049D01*
X0410733Y0240107D01*
X0410749Y0240166D01*
X0410762Y0240227D01*
X0410772Y0240288D01*
X0410777Y0240349D01*
X0410779Y0240411D01*
X0410780Y0240411D02*
X0410780Y0241945D01*
X0408224Y0241945D01*
X0408224Y0241178D01*
X0407202Y0239389D02*
X0407140Y0239391D01*
X0407079Y0239396D01*
X0407018Y0239406D01*
X0406957Y0239419D01*
X0406898Y0239435D01*
X0406840Y0239455D01*
X0406783Y0239479D01*
X0406727Y0239506D01*
X0406673Y0239536D01*
X0406621Y0239570D01*
X0406572Y0239606D01*
X0406524Y0239646D01*
X0406479Y0239688D01*
X0406437Y0239733D01*
X0406398Y0239781D01*
X0406361Y0239830D01*
X0406327Y0239882D01*
X0406297Y0239936D01*
X0406270Y0239992D01*
X0406246Y0240049D01*
X0406226Y0240107D01*
X0406210Y0240166D01*
X0406197Y0240227D01*
X0406187Y0240288D01*
X0406182Y0240349D01*
X0406180Y0240411D01*
X0406180Y0241945D01*
X0406180Y0244189D02*
X0410780Y0246745D01*
X0406180Y0246745D01*
X0406180Y0248989D02*
X0406180Y0250267D01*
X0406179Y0250267D02*
X0406181Y0250336D01*
X0406186Y0250405D01*
X0406196Y0250474D01*
X0406209Y0250542D01*
X0406226Y0250609D01*
X0406246Y0250675D01*
X0406270Y0250740D01*
X0406297Y0250804D01*
X0406328Y0250866D01*
X0406362Y0250926D01*
X0406399Y0250984D01*
X0406440Y0251040D01*
X0406483Y0251094D01*
X0406529Y0251146D01*
X0406578Y0251195D01*
X0406630Y0251241D01*
X0406684Y0251284D01*
X0406740Y0251325D01*
X0406798Y0251362D01*
X0406858Y0251396D01*
X0406920Y0251427D01*
X0406984Y0251454D01*
X0407049Y0251478D01*
X0407115Y0251498D01*
X0407182Y0251515D01*
X0407250Y0251528D01*
X0407319Y0251538D01*
X0407388Y0251543D01*
X0407457Y0251545D01*
X0409502Y0251545D01*
X0409571Y0251543D01*
X0409640Y0251538D01*
X0409709Y0251528D01*
X0409777Y0251515D01*
X0409844Y0251498D01*
X0409910Y0251478D01*
X0409975Y0251454D01*
X0410039Y0251427D01*
X0410101Y0251396D01*
X0410161Y0251362D01*
X0410219Y0251325D01*
X0410275Y0251284D01*
X0410329Y0251241D01*
X0410381Y0251195D01*
X0410430Y0251146D01*
X0410476Y0251094D01*
X0410519Y0251040D01*
X0410560Y0250984D01*
X0410597Y0250926D01*
X0410631Y0250866D01*
X0410662Y0250804D01*
X0410689Y0250740D01*
X0410713Y0250675D01*
X0410733Y0250609D01*
X0410750Y0250542D01*
X0410763Y0250474D01*
X0410773Y0250405D01*
X0410778Y0250336D01*
X0410780Y0250267D01*
X0410780Y0248989D01*
X0406180Y0248989D01*
X0406180Y0244189D02*
X0410780Y0244189D01*
X0425865Y0257106D02*
X0425865Y0259150D01*
X0425865Y0260547D02*
X0425865Y0263102D01*
X0425865Y0261824D02*
X0430465Y0261824D01*
X0430465Y0264897D02*
X0430465Y0266174D01*
X0430465Y0264897D02*
X0425865Y0264897D01*
X0425865Y0266174D01*
X0425864Y0266174D02*
X0425866Y0266243D01*
X0425871Y0266312D01*
X0425881Y0266381D01*
X0425894Y0266449D01*
X0425911Y0266516D01*
X0425931Y0266582D01*
X0425955Y0266647D01*
X0425982Y0266711D01*
X0426013Y0266773D01*
X0426047Y0266833D01*
X0426084Y0266891D01*
X0426125Y0266947D01*
X0426168Y0267001D01*
X0426214Y0267053D01*
X0426263Y0267102D01*
X0426315Y0267148D01*
X0426369Y0267191D01*
X0426425Y0267232D01*
X0426483Y0267269D01*
X0426543Y0267303D01*
X0426605Y0267334D01*
X0426669Y0267361D01*
X0426734Y0267385D01*
X0426800Y0267405D01*
X0426867Y0267422D01*
X0426935Y0267435D01*
X0427004Y0267445D01*
X0427073Y0267450D01*
X0427142Y0267452D01*
X0429187Y0267452D01*
X0429256Y0267450D01*
X0429325Y0267445D01*
X0429394Y0267435D01*
X0429462Y0267422D01*
X0429529Y0267405D01*
X0429595Y0267385D01*
X0429660Y0267361D01*
X0429724Y0267334D01*
X0429786Y0267303D01*
X0429846Y0267269D01*
X0429904Y0267232D01*
X0429960Y0267191D01*
X0430014Y0267148D01*
X0430066Y0267102D01*
X0430115Y0267053D01*
X0430161Y0267001D01*
X0430204Y0266947D01*
X0430245Y0266891D01*
X0430282Y0266833D01*
X0430316Y0266773D01*
X0430347Y0266711D01*
X0430374Y0266647D01*
X0430398Y0266582D01*
X0430418Y0266516D01*
X0430435Y0266449D01*
X0430448Y0266381D01*
X0430458Y0266312D01*
X0430463Y0266243D01*
X0430465Y0266174D01*
X0430465Y0269413D02*
X0430465Y0270435D01*
X0430465Y0269924D02*
X0425865Y0269924D01*
X0425865Y0269413D02*
X0425865Y0270435D01*
X0427909Y0274419D02*
X0427862Y0274466D01*
X0427812Y0274510D01*
X0427760Y0274552D01*
X0427706Y0274591D01*
X0427650Y0274626D01*
X0427592Y0274659D01*
X0427532Y0274689D01*
X0427471Y0274715D01*
X0427408Y0274738D01*
X0427344Y0274757D01*
X0427280Y0274773D01*
X0427214Y0274786D01*
X0427148Y0274795D01*
X0427082Y0274800D01*
X0427015Y0274802D01*
X0427909Y0274419D02*
X0430465Y0272247D01*
X0430465Y0274802D01*
X0430465Y0276747D02*
X0430465Y0278024D01*
X0430463Y0278094D01*
X0430457Y0278165D01*
X0430448Y0278234D01*
X0430434Y0278303D01*
X0430417Y0278372D01*
X0430396Y0278439D01*
X0430371Y0278505D01*
X0430343Y0278569D01*
X0430311Y0278632D01*
X0430276Y0278693D01*
X0430237Y0278752D01*
X0430196Y0278809D01*
X0430151Y0278863D01*
X0430103Y0278915D01*
X0430053Y0278964D01*
X0429999Y0279011D01*
X0429944Y0279054D01*
X0429886Y0279094D01*
X0429826Y0279131D01*
X0429764Y0279164D01*
X0429700Y0279194D01*
X0429635Y0279221D01*
X0429569Y0279244D01*
X0429501Y0279263D01*
X0429432Y0279278D01*
X0429363Y0279290D01*
X0429293Y0279298D01*
X0429222Y0279302D01*
X0429152Y0279302D01*
X0429081Y0279298D01*
X0429011Y0279290D01*
X0428942Y0279278D01*
X0428873Y0279263D01*
X0428805Y0279244D01*
X0428739Y0279221D01*
X0428674Y0279194D01*
X0428610Y0279164D01*
X0428548Y0279131D01*
X0428488Y0279094D01*
X0428430Y0279054D01*
X0428375Y0279011D01*
X0428321Y0278964D01*
X0428271Y0278915D01*
X0428223Y0278863D01*
X0428178Y0278809D01*
X0428137Y0278752D01*
X0428098Y0278693D01*
X0428063Y0278632D01*
X0428031Y0278569D01*
X0428003Y0278505D01*
X0427978Y0278439D01*
X0427957Y0278372D01*
X0427940Y0278303D01*
X0427926Y0278234D01*
X0427917Y0278165D01*
X0427911Y0278094D01*
X0427909Y0278024D01*
X0427909Y0278280D02*
X0427909Y0277258D01*
X0427909Y0278280D02*
X0427907Y0278343D01*
X0427901Y0278406D01*
X0427892Y0278468D01*
X0427878Y0278529D01*
X0427861Y0278590D01*
X0427840Y0278649D01*
X0427815Y0278707D01*
X0427787Y0278764D01*
X0427756Y0278818D01*
X0427721Y0278870D01*
X0427683Y0278921D01*
X0427642Y0278969D01*
X0427598Y0279014D01*
X0427552Y0279056D01*
X0427503Y0279096D01*
X0427452Y0279132D01*
X0427398Y0279165D01*
X0427343Y0279195D01*
X0427285Y0279221D01*
X0427227Y0279244D01*
X0427167Y0279263D01*
X0427106Y0279278D01*
X0427044Y0279290D01*
X0426981Y0279298D01*
X0426918Y0279302D01*
X0426856Y0279302D01*
X0426793Y0279298D01*
X0426730Y0279290D01*
X0426668Y0279278D01*
X0426607Y0279263D01*
X0426547Y0279244D01*
X0426489Y0279221D01*
X0426431Y0279195D01*
X0426376Y0279165D01*
X0426322Y0279132D01*
X0426271Y0279096D01*
X0426222Y0279056D01*
X0426176Y0279014D01*
X0426132Y0278969D01*
X0426091Y0278921D01*
X0426053Y0278870D01*
X0426018Y0278818D01*
X0425987Y0278764D01*
X0425959Y0278707D01*
X0425934Y0278649D01*
X0425913Y0278590D01*
X0425896Y0278529D01*
X0425882Y0278468D01*
X0425873Y0278406D01*
X0425867Y0278343D01*
X0425865Y0278280D01*
X0425865Y0276747D01*
X0427015Y0274802D02*
X0426948Y0274800D01*
X0426881Y0274794D01*
X0426815Y0274785D01*
X0426750Y0274771D01*
X0426685Y0274754D01*
X0426622Y0274733D01*
X0426560Y0274708D01*
X0426499Y0274680D01*
X0426440Y0274648D01*
X0426383Y0274613D01*
X0426328Y0274574D01*
X0426276Y0274533D01*
X0426226Y0274488D01*
X0426179Y0274441D01*
X0426134Y0274391D01*
X0426093Y0274339D01*
X0426054Y0274284D01*
X0426019Y0274227D01*
X0425987Y0274168D01*
X0425959Y0274107D01*
X0425934Y0274045D01*
X0425913Y0273982D01*
X0425896Y0273917D01*
X0425882Y0273852D01*
X0425873Y0273786D01*
X0425867Y0273719D01*
X0425865Y0273652D01*
X0425867Y0273578D01*
X0425872Y0273504D01*
X0425882Y0273430D01*
X0425895Y0273357D01*
X0425911Y0273284D01*
X0425932Y0273213D01*
X0425956Y0273143D01*
X0425983Y0273074D01*
X0426014Y0273006D01*
X0426048Y0272940D01*
X0426085Y0272876D01*
X0426126Y0272814D01*
X0426170Y0272753D01*
X0426216Y0272696D01*
X0426266Y0272640D01*
X0426318Y0272587D01*
X0426373Y0272537D01*
X0426430Y0272490D01*
X0426490Y0272446D01*
X0426552Y0272404D01*
X0426615Y0272366D01*
X0426681Y0272331D01*
X0426748Y0272300D01*
X0426817Y0272272D01*
X0426887Y0272247D01*
X0430465Y0281247D02*
X0427909Y0283419D01*
X0425865Y0282652D02*
X0425867Y0282578D01*
X0425872Y0282504D01*
X0425882Y0282430D01*
X0425895Y0282357D01*
X0425911Y0282284D01*
X0425932Y0282213D01*
X0425956Y0282143D01*
X0425983Y0282074D01*
X0426014Y0282006D01*
X0426048Y0281940D01*
X0426085Y0281876D01*
X0426126Y0281814D01*
X0426170Y0281753D01*
X0426216Y0281696D01*
X0426266Y0281640D01*
X0426318Y0281587D01*
X0426373Y0281537D01*
X0426430Y0281490D01*
X0426490Y0281446D01*
X0426552Y0281404D01*
X0426615Y0281366D01*
X0426681Y0281331D01*
X0426748Y0281300D01*
X0426817Y0281272D01*
X0426887Y0281247D01*
X0427909Y0283419D02*
X0427862Y0283466D01*
X0427812Y0283510D01*
X0427760Y0283552D01*
X0427706Y0283591D01*
X0427650Y0283626D01*
X0427592Y0283659D01*
X0427532Y0283689D01*
X0427471Y0283715D01*
X0427408Y0283738D01*
X0427344Y0283757D01*
X0427280Y0283773D01*
X0427214Y0283786D01*
X0427148Y0283795D01*
X0427082Y0283800D01*
X0427015Y0283802D01*
X0426948Y0283800D01*
X0426881Y0283794D01*
X0426815Y0283785D01*
X0426750Y0283771D01*
X0426685Y0283754D01*
X0426622Y0283733D01*
X0426560Y0283708D01*
X0426499Y0283680D01*
X0426440Y0283648D01*
X0426383Y0283613D01*
X0426328Y0283574D01*
X0426276Y0283533D01*
X0426226Y0283488D01*
X0426179Y0283441D01*
X0426134Y0283391D01*
X0426093Y0283339D01*
X0426054Y0283284D01*
X0426019Y0283227D01*
X0425987Y0283168D01*
X0425959Y0283107D01*
X0425934Y0283045D01*
X0425913Y0282982D01*
X0425896Y0282917D01*
X0425882Y0282852D01*
X0425873Y0282786D01*
X0425867Y0282719D01*
X0425865Y0282652D01*
X0430465Y0283802D02*
X0430465Y0281247D01*
X0410780Y0280728D02*
X0406180Y0280728D01*
X0406180Y0282005D01*
X0406179Y0282005D02*
X0406181Y0282075D01*
X0406187Y0282146D01*
X0406196Y0282215D01*
X0406210Y0282284D01*
X0406227Y0282353D01*
X0406248Y0282420D01*
X0406273Y0282486D01*
X0406301Y0282550D01*
X0406333Y0282613D01*
X0406368Y0282674D01*
X0406407Y0282733D01*
X0406448Y0282790D01*
X0406493Y0282844D01*
X0406541Y0282896D01*
X0406591Y0282945D01*
X0406645Y0282992D01*
X0406700Y0283035D01*
X0406758Y0283075D01*
X0406818Y0283112D01*
X0406880Y0283145D01*
X0406944Y0283175D01*
X0407009Y0283202D01*
X0407075Y0283225D01*
X0407143Y0283244D01*
X0407212Y0283259D01*
X0407281Y0283271D01*
X0407351Y0283279D01*
X0407422Y0283283D01*
X0407492Y0283283D01*
X0407563Y0283279D01*
X0407633Y0283271D01*
X0407702Y0283259D01*
X0407771Y0283244D01*
X0407839Y0283225D01*
X0407905Y0283202D01*
X0407970Y0283175D01*
X0408034Y0283145D01*
X0408096Y0283112D01*
X0408156Y0283075D01*
X0408214Y0283035D01*
X0408269Y0282992D01*
X0408323Y0282945D01*
X0408373Y0282896D01*
X0408421Y0282844D01*
X0408466Y0282790D01*
X0408507Y0282733D01*
X0408546Y0282674D01*
X0408581Y0282613D01*
X0408613Y0282550D01*
X0408641Y0282486D01*
X0408666Y0282420D01*
X0408687Y0282353D01*
X0408704Y0282284D01*
X0408718Y0282215D01*
X0408727Y0282146D01*
X0408733Y0282075D01*
X0408735Y0282005D01*
X0408735Y0280728D01*
X0408735Y0282261D02*
X0410780Y0283283D01*
X0410780Y0284943D02*
X0406180Y0288010D01*
X0406180Y0284943D02*
X0410780Y0288010D01*
X0410780Y0277896D02*
X0406180Y0274829D01*
X0406180Y0273441D02*
X0406180Y0270885D01*
X0406180Y0272163D02*
X0410780Y0272163D01*
X0410780Y0274829D02*
X0406180Y0277896D01*
X0427909Y0259150D02*
X0427909Y0257106D01*
X0425865Y0257106D02*
X0430465Y0257106D01*
D13*
X0423657Y0250055D02*
X0413657Y0250055D01*
X0413657Y0240055D01*
X0423657Y0240055D01*
X0423657Y0250055D01*
X0423657Y0300055D01*
X0413657Y0300055D01*
X0413657Y0250055D01*
X0394050Y0252181D02*
X0394050Y0245882D01*
X0388539Y0245882D02*
X0388539Y0252181D01*
X0386176Y0252181D02*
X0386176Y0245882D01*
X0380665Y0245882D02*
X0380665Y0252181D01*
X0377121Y0237614D02*
X0375547Y0237614D01*
X0377121Y0237614D02*
X0377121Y0235646D01*
X0370035Y0235646D01*
X0370035Y0228953D01*
X0371610Y0228953D01*
X0375547Y0228953D02*
X0377121Y0228953D01*
X0377121Y0235646D01*
X0385783Y0238008D02*
X0388932Y0238008D01*
X0403106Y0225409D02*
X0403106Y0146669D01*
X0340113Y0146669D01*
X0340113Y0225409D01*
X0403106Y0225409D01*
X0371610Y0237614D02*
X0370035Y0237614D01*
X0370035Y0235646D01*
X0327121Y0245882D02*
X0327121Y0252181D01*
X0321610Y0252181D02*
X0321610Y0245882D01*
X0319247Y0245882D02*
X0319247Y0252181D01*
X0313736Y0252181D02*
X0313736Y0245882D01*
X0318854Y0238008D02*
X0322003Y0238008D01*
X0320428Y0225409D02*
X0320428Y0146669D01*
X0257436Y0146669D01*
X0257436Y0225409D01*
X0320428Y0225409D01*
X0304287Y0228953D02*
X0302712Y0228953D01*
X0304287Y0228953D02*
X0304287Y0235646D01*
X0297200Y0235646D01*
X0297200Y0228953D01*
X0298775Y0228953D01*
X0297200Y0235646D02*
X0297200Y0237614D01*
X0298775Y0237614D01*
X0302712Y0237614D02*
X0304287Y0237614D01*
X0304287Y0235646D01*
X0296806Y0243126D02*
X0296806Y0247063D01*
X0296806Y0243126D02*
X0286964Y0243126D01*
X0303499Y0256118D02*
X0309798Y0256118D01*
X0309798Y0261630D02*
X0303499Y0261630D01*
X0303499Y0263992D02*
X0309798Y0263992D01*
X0309798Y0269504D02*
X0303499Y0269504D01*
X0303499Y0271866D02*
X0309798Y0271866D01*
X0309798Y0277378D02*
X0303499Y0277378D01*
X0312476Y0307850D02*
X0312476Y0309425D01*
X0312476Y0307850D02*
X0340035Y0307850D01*
X0340035Y0309425D01*
X0340035Y0316512D02*
X0340035Y0324386D01*
X0340035Y0331472D02*
X0340035Y0333047D01*
X0312476Y0333047D01*
X0312476Y0331472D01*
X0312476Y0324386D02*
X0312476Y0316512D01*
X0320349Y0320449D02*
X0320351Y0320602D01*
X0320357Y0320756D01*
X0320367Y0320909D01*
X0320381Y0321061D01*
X0320399Y0321214D01*
X0320421Y0321365D01*
X0320446Y0321516D01*
X0320476Y0321667D01*
X0320510Y0321817D01*
X0320547Y0321965D01*
X0320588Y0322113D01*
X0320633Y0322259D01*
X0320682Y0322405D01*
X0320735Y0322549D01*
X0320791Y0322691D01*
X0320851Y0322832D01*
X0320915Y0322972D01*
X0320982Y0323110D01*
X0321053Y0323246D01*
X0321128Y0323380D01*
X0321205Y0323512D01*
X0321287Y0323642D01*
X0321371Y0323770D01*
X0321459Y0323896D01*
X0321550Y0324019D01*
X0321644Y0324140D01*
X0321742Y0324258D01*
X0321842Y0324374D01*
X0321946Y0324487D01*
X0322052Y0324598D01*
X0322161Y0324706D01*
X0322273Y0324811D01*
X0322387Y0324912D01*
X0322505Y0325011D01*
X0322624Y0325107D01*
X0322746Y0325200D01*
X0322871Y0325289D01*
X0322998Y0325376D01*
X0323127Y0325458D01*
X0323258Y0325538D01*
X0323391Y0325614D01*
X0323526Y0325687D01*
X0323663Y0325756D01*
X0323802Y0325821D01*
X0323942Y0325883D01*
X0324084Y0325941D01*
X0324227Y0325996D01*
X0324372Y0326047D01*
X0324518Y0326094D01*
X0324665Y0326137D01*
X0324813Y0326176D01*
X0324962Y0326212D01*
X0325112Y0326243D01*
X0325263Y0326271D01*
X0325414Y0326295D01*
X0325567Y0326315D01*
X0325719Y0326331D01*
X0325872Y0326343D01*
X0326025Y0326351D01*
X0326178Y0326355D01*
X0326332Y0326355D01*
X0326485Y0326351D01*
X0326638Y0326343D01*
X0326791Y0326331D01*
X0326943Y0326315D01*
X0327096Y0326295D01*
X0327247Y0326271D01*
X0327398Y0326243D01*
X0327548Y0326212D01*
X0327697Y0326176D01*
X0327845Y0326137D01*
X0327992Y0326094D01*
X0328138Y0326047D01*
X0328283Y0325996D01*
X0328426Y0325941D01*
X0328568Y0325883D01*
X0328708Y0325821D01*
X0328847Y0325756D01*
X0328984Y0325687D01*
X0329119Y0325614D01*
X0329252Y0325538D01*
X0329383Y0325458D01*
X0329512Y0325376D01*
X0329639Y0325289D01*
X0329764Y0325200D01*
X0329886Y0325107D01*
X0330005Y0325011D01*
X0330123Y0324912D01*
X0330237Y0324811D01*
X0330349Y0324706D01*
X0330458Y0324598D01*
X0330564Y0324487D01*
X0330668Y0324374D01*
X0330768Y0324258D01*
X0330866Y0324140D01*
X0330960Y0324019D01*
X0331051Y0323896D01*
X0331139Y0323770D01*
X0331223Y0323642D01*
X0331305Y0323512D01*
X0331382Y0323380D01*
X0331457Y0323246D01*
X0331528Y0323110D01*
X0331595Y0322972D01*
X0331659Y0322832D01*
X0331719Y0322691D01*
X0331775Y0322549D01*
X0331828Y0322405D01*
X0331877Y0322259D01*
X0331922Y0322113D01*
X0331963Y0321965D01*
X0332000Y0321817D01*
X0332034Y0321667D01*
X0332064Y0321516D01*
X0332089Y0321365D01*
X0332111Y0321214D01*
X0332129Y0321061D01*
X0332143Y0320909D01*
X0332153Y0320756D01*
X0332159Y0320602D01*
X0332161Y0320449D01*
X0332159Y0320296D01*
X0332153Y0320142D01*
X0332143Y0319989D01*
X0332129Y0319837D01*
X0332111Y0319684D01*
X0332089Y0319533D01*
X0332064Y0319382D01*
X0332034Y0319231D01*
X0332000Y0319081D01*
X0331963Y0318933D01*
X0331922Y0318785D01*
X0331877Y0318639D01*
X0331828Y0318493D01*
X0331775Y0318349D01*
X0331719Y0318207D01*
X0331659Y0318066D01*
X0331595Y0317926D01*
X0331528Y0317788D01*
X0331457Y0317652D01*
X0331382Y0317518D01*
X0331305Y0317386D01*
X0331223Y0317256D01*
X0331139Y0317128D01*
X0331051Y0317002D01*
X0330960Y0316879D01*
X0330866Y0316758D01*
X0330768Y0316640D01*
X0330668Y0316524D01*
X0330564Y0316411D01*
X0330458Y0316300D01*
X0330349Y0316192D01*
X0330237Y0316087D01*
X0330123Y0315986D01*
X0330005Y0315887D01*
X0329886Y0315791D01*
X0329764Y0315698D01*
X0329639Y0315609D01*
X0329512Y0315522D01*
X0329383Y0315440D01*
X0329252Y0315360D01*
X0329119Y0315284D01*
X0328984Y0315211D01*
X0328847Y0315142D01*
X0328708Y0315077D01*
X0328568Y0315015D01*
X0328426Y0314957D01*
X0328283Y0314902D01*
X0328138Y0314851D01*
X0327992Y0314804D01*
X0327845Y0314761D01*
X0327697Y0314722D01*
X0327548Y0314686D01*
X0327398Y0314655D01*
X0327247Y0314627D01*
X0327096Y0314603D01*
X0326943Y0314583D01*
X0326791Y0314567D01*
X0326638Y0314555D01*
X0326485Y0314547D01*
X0326332Y0314543D01*
X0326178Y0314543D01*
X0326025Y0314547D01*
X0325872Y0314555D01*
X0325719Y0314567D01*
X0325567Y0314583D01*
X0325414Y0314603D01*
X0325263Y0314627D01*
X0325112Y0314655D01*
X0324962Y0314686D01*
X0324813Y0314722D01*
X0324665Y0314761D01*
X0324518Y0314804D01*
X0324372Y0314851D01*
X0324227Y0314902D01*
X0324084Y0314957D01*
X0323942Y0315015D01*
X0323802Y0315077D01*
X0323663Y0315142D01*
X0323526Y0315211D01*
X0323391Y0315284D01*
X0323258Y0315360D01*
X0323127Y0315440D01*
X0322998Y0315522D01*
X0322871Y0315609D01*
X0322746Y0315698D01*
X0322624Y0315791D01*
X0322505Y0315887D01*
X0322387Y0315986D01*
X0322273Y0316087D01*
X0322161Y0316192D01*
X0322052Y0316300D01*
X0321946Y0316411D01*
X0321842Y0316524D01*
X0321742Y0316640D01*
X0321644Y0316758D01*
X0321550Y0316879D01*
X0321459Y0317002D01*
X0321371Y0317128D01*
X0321287Y0317256D01*
X0321205Y0317386D01*
X0321128Y0317518D01*
X0321053Y0317652D01*
X0320982Y0317788D01*
X0320915Y0317926D01*
X0320851Y0318066D01*
X0320791Y0318207D01*
X0320735Y0318349D01*
X0320682Y0318493D01*
X0320633Y0318639D01*
X0320588Y0318785D01*
X0320547Y0318933D01*
X0320510Y0319081D01*
X0320476Y0319231D01*
X0320446Y0319382D01*
X0320421Y0319533D01*
X0320399Y0319684D01*
X0320381Y0319837D01*
X0320367Y0319989D01*
X0320357Y0320142D01*
X0320351Y0320296D01*
X0320349Y0320449D01*
X0296806Y0310055D02*
X0296806Y0341551D01*
X0229877Y0341551D01*
X0229877Y0310055D01*
X0214129Y0308874D02*
X0214129Y0307299D01*
X0186570Y0307299D01*
X0186570Y0308874D01*
X0186570Y0315961D02*
X0186570Y0323835D01*
X0186570Y0330921D02*
X0186570Y0332496D01*
X0214129Y0332496D01*
X0214129Y0330921D01*
X0214129Y0323835D02*
X0214129Y0315961D01*
X0194444Y0319898D02*
X0194446Y0320051D01*
X0194452Y0320205D01*
X0194462Y0320358D01*
X0194476Y0320510D01*
X0194494Y0320663D01*
X0194516Y0320814D01*
X0194541Y0320965D01*
X0194571Y0321116D01*
X0194605Y0321266D01*
X0194642Y0321414D01*
X0194683Y0321562D01*
X0194728Y0321708D01*
X0194777Y0321854D01*
X0194830Y0321998D01*
X0194886Y0322140D01*
X0194946Y0322281D01*
X0195010Y0322421D01*
X0195077Y0322559D01*
X0195148Y0322695D01*
X0195223Y0322829D01*
X0195300Y0322961D01*
X0195382Y0323091D01*
X0195466Y0323219D01*
X0195554Y0323345D01*
X0195645Y0323468D01*
X0195739Y0323589D01*
X0195837Y0323707D01*
X0195937Y0323823D01*
X0196041Y0323936D01*
X0196147Y0324047D01*
X0196256Y0324155D01*
X0196368Y0324260D01*
X0196482Y0324361D01*
X0196600Y0324460D01*
X0196719Y0324556D01*
X0196841Y0324649D01*
X0196966Y0324738D01*
X0197093Y0324825D01*
X0197222Y0324907D01*
X0197353Y0324987D01*
X0197486Y0325063D01*
X0197621Y0325136D01*
X0197758Y0325205D01*
X0197897Y0325270D01*
X0198037Y0325332D01*
X0198179Y0325390D01*
X0198322Y0325445D01*
X0198467Y0325496D01*
X0198613Y0325543D01*
X0198760Y0325586D01*
X0198908Y0325625D01*
X0199057Y0325661D01*
X0199207Y0325692D01*
X0199358Y0325720D01*
X0199509Y0325744D01*
X0199662Y0325764D01*
X0199814Y0325780D01*
X0199967Y0325792D01*
X0200120Y0325800D01*
X0200273Y0325804D01*
X0200427Y0325804D01*
X0200580Y0325800D01*
X0200733Y0325792D01*
X0200886Y0325780D01*
X0201038Y0325764D01*
X0201191Y0325744D01*
X0201342Y0325720D01*
X0201493Y0325692D01*
X0201643Y0325661D01*
X0201792Y0325625D01*
X0201940Y0325586D01*
X0202087Y0325543D01*
X0202233Y0325496D01*
X0202378Y0325445D01*
X0202521Y0325390D01*
X0202663Y0325332D01*
X0202803Y0325270D01*
X0202942Y0325205D01*
X0203079Y0325136D01*
X0203214Y0325063D01*
X0203347Y0324987D01*
X0203478Y0324907D01*
X0203607Y0324825D01*
X0203734Y0324738D01*
X0203859Y0324649D01*
X0203981Y0324556D01*
X0204100Y0324460D01*
X0204218Y0324361D01*
X0204332Y0324260D01*
X0204444Y0324155D01*
X0204553Y0324047D01*
X0204659Y0323936D01*
X0204763Y0323823D01*
X0204863Y0323707D01*
X0204961Y0323589D01*
X0205055Y0323468D01*
X0205146Y0323345D01*
X0205234Y0323219D01*
X0205318Y0323091D01*
X0205400Y0322961D01*
X0205477Y0322829D01*
X0205552Y0322695D01*
X0205623Y0322559D01*
X0205690Y0322421D01*
X0205754Y0322281D01*
X0205814Y0322140D01*
X0205870Y0321998D01*
X0205923Y0321854D01*
X0205972Y0321708D01*
X0206017Y0321562D01*
X0206058Y0321414D01*
X0206095Y0321266D01*
X0206129Y0321116D01*
X0206159Y0320965D01*
X0206184Y0320814D01*
X0206206Y0320663D01*
X0206224Y0320510D01*
X0206238Y0320358D01*
X0206248Y0320205D01*
X0206254Y0320051D01*
X0206256Y0319898D01*
X0206254Y0319745D01*
X0206248Y0319591D01*
X0206238Y0319438D01*
X0206224Y0319286D01*
X0206206Y0319133D01*
X0206184Y0318982D01*
X0206159Y0318831D01*
X0206129Y0318680D01*
X0206095Y0318530D01*
X0206058Y0318382D01*
X0206017Y0318234D01*
X0205972Y0318088D01*
X0205923Y0317942D01*
X0205870Y0317798D01*
X0205814Y0317656D01*
X0205754Y0317515D01*
X0205690Y0317375D01*
X0205623Y0317237D01*
X0205552Y0317101D01*
X0205477Y0316967D01*
X0205400Y0316835D01*
X0205318Y0316705D01*
X0205234Y0316577D01*
X0205146Y0316451D01*
X0205055Y0316328D01*
X0204961Y0316207D01*
X0204863Y0316089D01*
X0204763Y0315973D01*
X0204659Y0315860D01*
X0204553Y0315749D01*
X0204444Y0315641D01*
X0204332Y0315536D01*
X0204218Y0315435D01*
X0204100Y0315336D01*
X0203981Y0315240D01*
X0203859Y0315147D01*
X0203734Y0315058D01*
X0203607Y0314971D01*
X0203478Y0314889D01*
X0203347Y0314809D01*
X0203214Y0314733D01*
X0203079Y0314660D01*
X0202942Y0314591D01*
X0202803Y0314526D01*
X0202663Y0314464D01*
X0202521Y0314406D01*
X0202378Y0314351D01*
X0202233Y0314300D01*
X0202087Y0314253D01*
X0201940Y0314210D01*
X0201792Y0314171D01*
X0201643Y0314135D01*
X0201493Y0314104D01*
X0201342Y0314076D01*
X0201191Y0314052D01*
X0201038Y0314032D01*
X0200886Y0314016D01*
X0200733Y0314004D01*
X0200580Y0313996D01*
X0200427Y0313992D01*
X0200273Y0313992D01*
X0200120Y0313996D01*
X0199967Y0314004D01*
X0199814Y0314016D01*
X0199662Y0314032D01*
X0199509Y0314052D01*
X0199358Y0314076D01*
X0199207Y0314104D01*
X0199057Y0314135D01*
X0198908Y0314171D01*
X0198760Y0314210D01*
X0198613Y0314253D01*
X0198467Y0314300D01*
X0198322Y0314351D01*
X0198179Y0314406D01*
X0198037Y0314464D01*
X0197897Y0314526D01*
X0197758Y0314591D01*
X0197621Y0314660D01*
X0197486Y0314733D01*
X0197353Y0314809D01*
X0197222Y0314889D01*
X0197093Y0314971D01*
X0196966Y0315058D01*
X0196841Y0315147D01*
X0196719Y0315240D01*
X0196600Y0315336D01*
X0196482Y0315435D01*
X0196368Y0315536D01*
X0196256Y0315641D01*
X0196147Y0315749D01*
X0196041Y0315860D01*
X0195937Y0315973D01*
X0195837Y0316089D01*
X0195739Y0316207D01*
X0195645Y0316328D01*
X0195554Y0316451D01*
X0195466Y0316577D01*
X0195382Y0316705D01*
X0195300Y0316835D01*
X0195223Y0316967D01*
X0195148Y0317101D01*
X0195077Y0317237D01*
X0195010Y0317375D01*
X0194946Y0317515D01*
X0194886Y0317656D01*
X0194830Y0317798D01*
X0194777Y0317942D01*
X0194728Y0318088D01*
X0194683Y0318234D01*
X0194642Y0318382D01*
X0194605Y0318530D01*
X0194571Y0318680D01*
X0194541Y0318831D01*
X0194516Y0318982D01*
X0194494Y0319133D01*
X0194476Y0319286D01*
X0194462Y0319438D01*
X0194452Y0319591D01*
X0194446Y0319745D01*
X0194444Y0319898D01*
X0205074Y0293126D02*
X0211373Y0293126D01*
X0216885Y0293126D02*
X0223184Y0293126D01*
X0223184Y0287614D02*
X0216885Y0287614D01*
X0211373Y0287614D02*
X0205074Y0287614D01*
X0210980Y0258087D02*
X0210980Y0251787D01*
X0209011Y0252181D02*
X0209011Y0245882D01*
X0203499Y0245882D02*
X0203499Y0252181D01*
X0201137Y0252181D02*
X0201137Y0245882D01*
X0195625Y0245882D02*
X0195625Y0252181D01*
X0192082Y0237614D02*
X0190507Y0237614D01*
X0192082Y0237614D02*
X0192082Y0235646D01*
X0184995Y0235646D01*
X0184995Y0228953D01*
X0186570Y0228953D01*
X0190507Y0228953D02*
X0192082Y0228953D01*
X0192082Y0235646D01*
X0186570Y0237614D02*
X0184995Y0237614D01*
X0184995Y0235646D01*
X0174759Y0225409D02*
X0237751Y0225409D01*
X0237751Y0146669D01*
X0174759Y0146669D01*
X0174759Y0225409D01*
X0156649Y0238008D02*
X0153499Y0238008D01*
X0146806Y0237614D02*
X0146806Y0235646D01*
X0139720Y0235646D01*
X0139720Y0228953D01*
X0141295Y0228953D01*
X0145232Y0228953D02*
X0146806Y0228953D01*
X0146806Y0235646D01*
X0146806Y0237614D02*
X0145232Y0237614D01*
X0141295Y0237614D02*
X0139720Y0237614D01*
X0139720Y0235646D01*
X0148381Y0245882D02*
X0148381Y0252181D01*
X0153893Y0252181D02*
X0153893Y0245882D01*
X0156255Y0245882D02*
X0156255Y0252181D01*
X0161767Y0252181D02*
X0161767Y0245882D01*
X0155074Y0225409D02*
X0155074Y0146669D01*
X0092082Y0146669D01*
X0092082Y0225409D01*
X0155074Y0225409D01*
X0200743Y0238008D02*
X0203893Y0238008D01*
X0217279Y0251787D02*
X0217279Y0258087D01*
X0218854Y0258087D02*
X0218854Y0251787D01*
X0225153Y0251787D02*
X0225153Y0258087D01*
X0229877Y0247063D02*
X0229877Y0243126D01*
X0239720Y0243126D01*
X0144444Y0279346D02*
X0144444Y0285646D01*
X0138145Y0285646D02*
X0138145Y0279346D01*
X0120822Y0279346D02*
X0120822Y0285646D01*
X0114523Y0285646D02*
X0114523Y0279346D01*
X0111373Y0276984D02*
X0111373Y0284071D01*
X0104287Y0284071D02*
X0104287Y0276984D01*
X0130271Y0319110D02*
X0136570Y0319110D01*
X0136570Y0324622D02*
X0130271Y0324622D01*
X0130271Y0327378D02*
X0136570Y0327378D01*
X0134208Y0328559D02*
X0134208Y0330921D01*
X0134208Y0329740D02*
X0133027Y0328559D01*
X0134208Y0329740D02*
X0133027Y0330921D01*
X0130271Y0332102D02*
X0136570Y0332102D01*
X0129484Y0142732D02*
X0145232Y0142732D01*
X0145232Y0052181D01*
X0129484Y0052181D01*
X0117673Y0052181D02*
X0101924Y0052181D01*
X0101924Y0142732D01*
X0117673Y0142732D01*
X0184602Y0142732D02*
X0200350Y0142732D01*
X0212161Y0142732D02*
X0227909Y0142732D01*
X0227909Y0052181D01*
X0212161Y0052181D01*
X0210507Y0048963D02*
X0210507Y0044896D01*
X0208474Y0046929D02*
X0212540Y0046929D01*
X0200350Y0052181D02*
X0184602Y0052181D01*
X0184602Y0142732D01*
X0267279Y0142732D02*
X0283027Y0142732D01*
X0294838Y0142732D02*
X0310586Y0142732D01*
X0310586Y0052181D01*
X0294838Y0052181D01*
X0294838Y0042339D02*
X0294838Y0010843D01*
X0247594Y0010843D01*
X0247594Y0042339D01*
X0294838Y0042339D01*
X0296806Y0042339D02*
X0296806Y0010843D01*
X0344050Y0010843D01*
X0344050Y0042339D01*
X0296806Y0042339D01*
X0283027Y0052181D02*
X0267279Y0052181D01*
X0267279Y0142732D01*
X0349956Y0142732D02*
X0365704Y0142732D01*
X0377515Y0142732D02*
X0393263Y0142732D01*
X0393263Y0052181D01*
X0377515Y0052181D01*
X0365704Y0052181D02*
X0349956Y0052181D01*
X0349956Y0142732D01*
X0334588Y0046929D02*
X0330521Y0046929D01*
X0346019Y0042339D02*
X0346019Y0010843D01*
X0393263Y0010843D01*
X0393263Y0042339D01*
X0346019Y0042339D01*
X0353893Y0030528D02*
X0353893Y0018717D01*
X0365704Y0018717D01*
X0365704Y0030528D01*
X0353893Y0030528D01*
X0316491Y0030528D02*
X0316491Y0018717D01*
X0304680Y0018717D01*
X0304680Y0030528D01*
X0316491Y0030528D01*
X0267279Y0030528D02*
X0267279Y0018717D01*
X0255468Y0018717D01*
X0255468Y0030528D01*
X0267279Y0030528D01*
X0245625Y0042339D02*
X0245625Y0010843D01*
X0198381Y0010843D01*
X0198381Y0042339D01*
X0245625Y0042339D01*
X0218066Y0030528D02*
X0218066Y0018717D01*
X0206255Y0018717D01*
X0206255Y0030528D01*
X0218066Y0030528D01*
X0192082Y0021079D02*
X0192082Y0019110D01*
X0192082Y0010449D02*
X0192082Y0009661D01*
X0184208Y0026591D02*
X0183421Y0026591D01*
X0170035Y0026591D02*
X0169247Y0026591D01*
X0161373Y0021079D02*
X0161373Y0019110D01*
X0161373Y0010449D02*
X0161373Y0009661D01*
X0153106Y0010843D02*
X0105861Y0010843D01*
X0105861Y0042339D01*
X0153106Y0042339D01*
X0153106Y0010843D01*
X0125547Y0018717D02*
X0113736Y0018717D01*
X0113736Y0030528D01*
X0125547Y0030528D01*
X0125547Y0018717D01*
D14*
X0149169Y0232496D02*
X0149169Y0237614D01*
X0149169Y0232496D02*
X0152712Y0232496D01*
X0157436Y0232496D02*
X0160980Y0232496D01*
X0160980Y0237614D01*
X0196413Y0237614D02*
X0196413Y0232496D01*
X0199956Y0232496D01*
X0204680Y0232496D02*
X0208224Y0232496D01*
X0208224Y0237614D01*
X0314523Y0237614D02*
X0314523Y0232496D01*
X0318066Y0232496D01*
X0322791Y0232496D02*
X0326334Y0232496D01*
X0326334Y0237614D01*
X0381452Y0237614D02*
X0381452Y0232496D01*
X0384995Y0232496D01*
X0389720Y0232496D02*
X0393263Y0232496D01*
X0393263Y0237614D01*
M02*
