G75*
%MOIN*%
%OFA0B0*%
%FSLAX25Y25*%
%IPPOS*%
%LPD*%
%AMOC8*
5,1,8,0,0,1.08239X$1,22.5*
%
%ADD10C,0.00000*%
%ADD11C,0.10400*%
%ADD12C,0.08274*%
%ADD13R,0.07400X0.07400*%
%ADD14C,0.07400*%
%ADD15C,0.23400*%
D10*
X0064523Y0024622D02*
X0064523Y0327772D01*
X0064503Y0328129D01*
X0064492Y0328486D01*
X0064490Y0328844D01*
X0064497Y0329201D01*
X0064512Y0329559D01*
X0064535Y0329915D01*
X0064568Y0330271D01*
X0064609Y0330627D01*
X0064658Y0330981D01*
X0064716Y0331334D01*
X0064783Y0331685D01*
X0064858Y0332035D01*
X0064941Y0332382D01*
X0065033Y0332728D01*
X0065133Y0333071D01*
X0065242Y0333412D01*
X0065358Y0333750D01*
X0065483Y0334085D01*
X0065616Y0334417D01*
X0065757Y0334746D01*
X0065905Y0335071D01*
X0066062Y0335392D01*
X0066226Y0335710D01*
X0066398Y0336024D01*
X0066577Y0336333D01*
X0066764Y0336638D01*
X0066958Y0336938D01*
X0067159Y0337234D01*
X0067368Y0337524D01*
X0067583Y0337810D01*
X0067805Y0338090D01*
X0068034Y0338365D01*
X0068270Y0338634D01*
X0068512Y0338897D01*
X0068760Y0339154D01*
X0069014Y0339406D01*
X0069274Y0339651D01*
X0069541Y0339890D01*
X0069813Y0340122D01*
X0070090Y0340348D01*
X0070373Y0340566D01*
X0070661Y0340778D01*
X0070954Y0340983D01*
X0071252Y0341181D01*
X0071554Y0341372D01*
X0071861Y0341555D01*
X0072173Y0341731D01*
X0072488Y0341899D01*
X0072808Y0342059D01*
X0073131Y0342212D01*
X0073458Y0342357D01*
X0073788Y0342493D01*
X0074122Y0342622D01*
X0074459Y0342743D01*
X0074798Y0342856D01*
X0075140Y0342960D01*
X0075484Y0343056D01*
X0075831Y0343144D01*
X0076180Y0343223D01*
X0076530Y0343294D01*
X0076882Y0343356D01*
X0077236Y0343410D01*
X0077591Y0343455D01*
X0077946Y0343492D01*
X0078303Y0343520D01*
X0078302Y0343520D02*
X0416885Y0343520D01*
X0416885Y0343519D02*
X0417296Y0343538D01*
X0417707Y0343547D01*
X0418118Y0343546D01*
X0418530Y0343535D01*
X0418940Y0343514D01*
X0419351Y0343482D01*
X0419760Y0343441D01*
X0420168Y0343390D01*
X0420575Y0343328D01*
X0420980Y0343257D01*
X0421383Y0343175D01*
X0421784Y0343084D01*
X0422183Y0342983D01*
X0422579Y0342873D01*
X0422973Y0342752D01*
X0423363Y0342622D01*
X0423750Y0342482D01*
X0424133Y0342333D01*
X0424513Y0342175D01*
X0424888Y0342007D01*
X0425260Y0341830D01*
X0425627Y0341645D01*
X0425989Y0341450D01*
X0426346Y0341246D01*
X0426699Y0341034D01*
X0427046Y0340813D01*
X0427387Y0340583D01*
X0427723Y0340345D01*
X0428053Y0340100D01*
X0428376Y0339846D01*
X0428694Y0339584D01*
X0429004Y0339314D01*
X0429308Y0339037D01*
X0429606Y0338753D01*
X0429896Y0338461D01*
X0430179Y0338163D01*
X0430454Y0337857D01*
X0430722Y0337545D01*
X0430982Y0337226D01*
X0431234Y0336901D01*
X0431479Y0336570D01*
X0431715Y0336233D01*
X0431942Y0335891D01*
X0432161Y0335542D01*
X0432372Y0335189D01*
X0432574Y0334831D01*
X0432767Y0334467D01*
X0432951Y0334099D01*
X0433126Y0333727D01*
X0433291Y0333351D01*
X0433448Y0332970D01*
X0433595Y0332586D01*
X0433732Y0332198D01*
X0433860Y0331807D01*
X0433979Y0331413D01*
X0434088Y0331017D01*
X0434186Y0330617D01*
X0434276Y0330216D01*
X0434355Y0329812D01*
X0434424Y0329407D01*
X0434483Y0328999D01*
X0434533Y0328591D01*
X0434572Y0328182D01*
X0434601Y0327771D01*
X0434602Y0327772D02*
X0434602Y0024622D01*
X0434597Y0024241D01*
X0434584Y0023861D01*
X0434561Y0023481D01*
X0434528Y0023102D01*
X0434487Y0022724D01*
X0434437Y0022347D01*
X0434377Y0021971D01*
X0434309Y0021596D01*
X0434231Y0021224D01*
X0434144Y0020853D01*
X0434049Y0020485D01*
X0433944Y0020119D01*
X0433831Y0019756D01*
X0433709Y0019395D01*
X0433579Y0019038D01*
X0433439Y0018684D01*
X0433292Y0018333D01*
X0433135Y0017986D01*
X0432971Y0017643D01*
X0432798Y0017304D01*
X0432617Y0016969D01*
X0432428Y0016638D01*
X0432231Y0016313D01*
X0432027Y0015992D01*
X0431814Y0015676D01*
X0431594Y0015366D01*
X0431367Y0015060D01*
X0431132Y0014761D01*
X0430890Y0014467D01*
X0430642Y0014179D01*
X0430386Y0013897D01*
X0430123Y0013622D01*
X0429854Y0013353D01*
X0429579Y0013090D01*
X0429297Y0012834D01*
X0429009Y0012586D01*
X0428715Y0012344D01*
X0428416Y0012109D01*
X0428110Y0011882D01*
X0427800Y0011662D01*
X0427484Y0011449D01*
X0427163Y0011245D01*
X0426838Y0011048D01*
X0426507Y0010859D01*
X0426172Y0010678D01*
X0425833Y0010505D01*
X0425490Y0010341D01*
X0425143Y0010184D01*
X0424792Y0010037D01*
X0424438Y0009897D01*
X0424081Y0009767D01*
X0423720Y0009645D01*
X0423357Y0009532D01*
X0422991Y0009427D01*
X0422623Y0009332D01*
X0422252Y0009245D01*
X0421880Y0009167D01*
X0421505Y0009099D01*
X0421129Y0009039D01*
X0420752Y0008989D01*
X0420374Y0008948D01*
X0419995Y0008915D01*
X0419615Y0008892D01*
X0419235Y0008879D01*
X0418854Y0008874D01*
X0080271Y0008874D01*
X0079890Y0008879D01*
X0079510Y0008892D01*
X0079130Y0008915D01*
X0078751Y0008948D01*
X0078373Y0008989D01*
X0077996Y0009039D01*
X0077620Y0009099D01*
X0077245Y0009167D01*
X0076873Y0009245D01*
X0076502Y0009332D01*
X0076134Y0009427D01*
X0075768Y0009532D01*
X0075405Y0009645D01*
X0075044Y0009767D01*
X0074687Y0009897D01*
X0074333Y0010037D01*
X0073982Y0010184D01*
X0073635Y0010341D01*
X0073292Y0010505D01*
X0072953Y0010678D01*
X0072618Y0010859D01*
X0072287Y0011048D01*
X0071962Y0011245D01*
X0071641Y0011449D01*
X0071325Y0011662D01*
X0071015Y0011882D01*
X0070709Y0012109D01*
X0070410Y0012344D01*
X0070116Y0012586D01*
X0069828Y0012834D01*
X0069546Y0013090D01*
X0069271Y0013353D01*
X0069002Y0013622D01*
X0068739Y0013897D01*
X0068483Y0014179D01*
X0068235Y0014467D01*
X0067993Y0014761D01*
X0067758Y0015060D01*
X0067531Y0015366D01*
X0067311Y0015676D01*
X0067098Y0015992D01*
X0066894Y0016313D01*
X0066697Y0016638D01*
X0066508Y0016969D01*
X0066327Y0017304D01*
X0066154Y0017643D01*
X0065990Y0017986D01*
X0065833Y0018333D01*
X0065686Y0018684D01*
X0065546Y0019038D01*
X0065416Y0019395D01*
X0065294Y0019756D01*
X0065181Y0020119D01*
X0065076Y0020485D01*
X0064981Y0020853D01*
X0064894Y0021224D01*
X0064816Y0021596D01*
X0064748Y0021971D01*
X0064688Y0022347D01*
X0064638Y0022724D01*
X0064597Y0023102D01*
X0064564Y0023481D01*
X0064541Y0023861D01*
X0064528Y0024241D01*
X0064523Y0024622D01*
D11*
X0123578Y0052457D03*
X0206255Y0052457D03*
X0288932Y0052457D03*
X0371610Y0052457D03*
X0371610Y0142457D03*
X0288932Y0142457D03*
X0206255Y0142457D03*
X0123578Y0142457D03*
D12*
X0123578Y0153953D03*
X0099956Y0161827D03*
X0147200Y0161827D03*
X0182633Y0161827D03*
X0206255Y0153953D03*
X0229877Y0161827D03*
X0265310Y0161827D03*
X0288932Y0153953D03*
X0312554Y0161827D03*
X0347987Y0161827D03*
X0371610Y0153953D03*
X0395232Y0161827D03*
X0395232Y0209858D03*
X0347987Y0209858D03*
X0312554Y0209858D03*
X0265310Y0209858D03*
X0229877Y0209858D03*
X0182633Y0209858D03*
X0147200Y0209858D03*
X0099956Y0209858D03*
X0119641Y0024622D03*
X0139641Y0024622D03*
X0212161Y0024622D03*
X0232161Y0024622D03*
X0261373Y0024622D03*
X0281373Y0024622D03*
X0310586Y0024622D03*
X0330586Y0024622D03*
X0359798Y0024622D03*
X0379798Y0024622D03*
D13*
X0418657Y0245055D03*
D14*
X0418657Y0255055D03*
X0418657Y0265055D03*
X0418657Y0275055D03*
X0418657Y0285055D03*
X0418657Y0295055D03*
D15*
X0418854Y0327772D03*
X0080271Y0327772D03*
X0080271Y0024622D03*
X0418854Y0024622D03*
M02*
