G75*
%MOIN*%
%OFA0B0*%
%FSLAX25Y25*%
%IPPOS*%
%LPD*%
%AMOC8*
5,1,8,0,0,1.08239X$1,22.5*
%
%ADD10C,0.00000*%
%ADD11C,0.00984*%
%ADD12C,0.00787*%
%ADD13C,0.00689*%
%ADD14R,0.01575X0.05315*%
%ADD15R,0.08268X0.06299*%
%ADD16R,0.07087X0.07480*%
%ADD17R,0.07480X0.07480*%
%ADD18C,0.00551*%
D10*
X0064523Y0024622D02*
X0064523Y0327772D01*
X0064503Y0328129D01*
X0064492Y0328486D01*
X0064490Y0328844D01*
X0064497Y0329201D01*
X0064512Y0329559D01*
X0064535Y0329915D01*
X0064568Y0330271D01*
X0064609Y0330627D01*
X0064658Y0330981D01*
X0064716Y0331334D01*
X0064783Y0331685D01*
X0064858Y0332035D01*
X0064941Y0332382D01*
X0065033Y0332728D01*
X0065133Y0333071D01*
X0065242Y0333412D01*
X0065358Y0333750D01*
X0065483Y0334085D01*
X0065616Y0334417D01*
X0065757Y0334746D01*
X0065905Y0335071D01*
X0066062Y0335392D01*
X0066226Y0335710D01*
X0066398Y0336024D01*
X0066577Y0336333D01*
X0066764Y0336638D01*
X0066958Y0336938D01*
X0067159Y0337234D01*
X0067368Y0337524D01*
X0067583Y0337810D01*
X0067805Y0338090D01*
X0068034Y0338365D01*
X0068270Y0338634D01*
X0068512Y0338897D01*
X0068760Y0339154D01*
X0069014Y0339406D01*
X0069274Y0339651D01*
X0069541Y0339890D01*
X0069813Y0340122D01*
X0070090Y0340348D01*
X0070373Y0340566D01*
X0070661Y0340778D01*
X0070954Y0340983D01*
X0071252Y0341181D01*
X0071554Y0341372D01*
X0071861Y0341555D01*
X0072173Y0341731D01*
X0072488Y0341899D01*
X0072808Y0342059D01*
X0073131Y0342212D01*
X0073458Y0342357D01*
X0073788Y0342493D01*
X0074122Y0342622D01*
X0074459Y0342743D01*
X0074798Y0342856D01*
X0075140Y0342960D01*
X0075484Y0343056D01*
X0075831Y0343144D01*
X0076180Y0343223D01*
X0076530Y0343294D01*
X0076882Y0343356D01*
X0077236Y0343410D01*
X0077591Y0343455D01*
X0077946Y0343492D01*
X0078303Y0343520D01*
X0078302Y0343520D02*
X0416885Y0343520D01*
X0416885Y0343519D02*
X0417296Y0343538D01*
X0417707Y0343547D01*
X0418118Y0343546D01*
X0418530Y0343535D01*
X0418940Y0343514D01*
X0419351Y0343482D01*
X0419760Y0343441D01*
X0420168Y0343390D01*
X0420575Y0343328D01*
X0420980Y0343257D01*
X0421383Y0343175D01*
X0421784Y0343084D01*
X0422183Y0342983D01*
X0422579Y0342873D01*
X0422973Y0342752D01*
X0423363Y0342622D01*
X0423750Y0342482D01*
X0424133Y0342333D01*
X0424513Y0342175D01*
X0424888Y0342007D01*
X0425260Y0341830D01*
X0425627Y0341645D01*
X0425989Y0341450D01*
X0426346Y0341246D01*
X0426699Y0341034D01*
X0427046Y0340813D01*
X0427387Y0340583D01*
X0427723Y0340345D01*
X0428053Y0340100D01*
X0428376Y0339846D01*
X0428694Y0339584D01*
X0429004Y0339314D01*
X0429308Y0339037D01*
X0429606Y0338753D01*
X0429896Y0338461D01*
X0430179Y0338163D01*
X0430454Y0337857D01*
X0430722Y0337545D01*
X0430982Y0337226D01*
X0431234Y0336901D01*
X0431479Y0336570D01*
X0431715Y0336233D01*
X0431942Y0335891D01*
X0432161Y0335542D01*
X0432372Y0335189D01*
X0432574Y0334831D01*
X0432767Y0334467D01*
X0432951Y0334099D01*
X0433126Y0333727D01*
X0433291Y0333351D01*
X0433448Y0332970D01*
X0433595Y0332586D01*
X0433732Y0332198D01*
X0433860Y0331807D01*
X0433979Y0331413D01*
X0434088Y0331017D01*
X0434186Y0330617D01*
X0434276Y0330216D01*
X0434355Y0329812D01*
X0434424Y0329407D01*
X0434483Y0328999D01*
X0434533Y0328591D01*
X0434572Y0328182D01*
X0434601Y0327771D01*
X0434602Y0327772D02*
X0434602Y0024622D01*
X0434597Y0024241D01*
X0434584Y0023861D01*
X0434561Y0023481D01*
X0434528Y0023102D01*
X0434487Y0022724D01*
X0434437Y0022347D01*
X0434377Y0021971D01*
X0434309Y0021596D01*
X0434231Y0021224D01*
X0434144Y0020853D01*
X0434049Y0020485D01*
X0433944Y0020119D01*
X0433831Y0019756D01*
X0433709Y0019395D01*
X0433579Y0019038D01*
X0433439Y0018684D01*
X0433292Y0018333D01*
X0433135Y0017986D01*
X0432971Y0017643D01*
X0432798Y0017304D01*
X0432617Y0016969D01*
X0432428Y0016638D01*
X0432231Y0016313D01*
X0432027Y0015992D01*
X0431814Y0015676D01*
X0431594Y0015366D01*
X0431367Y0015060D01*
X0431132Y0014761D01*
X0430890Y0014467D01*
X0430642Y0014179D01*
X0430386Y0013897D01*
X0430123Y0013622D01*
X0429854Y0013353D01*
X0429579Y0013090D01*
X0429297Y0012834D01*
X0429009Y0012586D01*
X0428715Y0012344D01*
X0428416Y0012109D01*
X0428110Y0011882D01*
X0427800Y0011662D01*
X0427484Y0011449D01*
X0427163Y0011245D01*
X0426838Y0011048D01*
X0426507Y0010859D01*
X0426172Y0010678D01*
X0425833Y0010505D01*
X0425490Y0010341D01*
X0425143Y0010184D01*
X0424792Y0010037D01*
X0424438Y0009897D01*
X0424081Y0009767D01*
X0423720Y0009645D01*
X0423357Y0009532D01*
X0422991Y0009427D01*
X0422623Y0009332D01*
X0422252Y0009245D01*
X0421880Y0009167D01*
X0421505Y0009099D01*
X0421129Y0009039D01*
X0420752Y0008989D01*
X0420374Y0008948D01*
X0419995Y0008915D01*
X0419615Y0008892D01*
X0419235Y0008879D01*
X0418854Y0008874D01*
X0080271Y0008874D01*
X0079890Y0008879D01*
X0079510Y0008892D01*
X0079130Y0008915D01*
X0078751Y0008948D01*
X0078373Y0008989D01*
X0077996Y0009039D01*
X0077620Y0009099D01*
X0077245Y0009167D01*
X0076873Y0009245D01*
X0076502Y0009332D01*
X0076134Y0009427D01*
X0075768Y0009532D01*
X0075405Y0009645D01*
X0075044Y0009767D01*
X0074687Y0009897D01*
X0074333Y0010037D01*
X0073982Y0010184D01*
X0073635Y0010341D01*
X0073292Y0010505D01*
X0072953Y0010678D01*
X0072618Y0010859D01*
X0072287Y0011048D01*
X0071962Y0011245D01*
X0071641Y0011449D01*
X0071325Y0011662D01*
X0071015Y0011882D01*
X0070709Y0012109D01*
X0070410Y0012344D01*
X0070116Y0012586D01*
X0069828Y0012834D01*
X0069546Y0013090D01*
X0069271Y0013353D01*
X0069002Y0013622D01*
X0068739Y0013897D01*
X0068483Y0014179D01*
X0068235Y0014467D01*
X0067993Y0014761D01*
X0067758Y0015060D01*
X0067531Y0015366D01*
X0067311Y0015676D01*
X0067098Y0015992D01*
X0066894Y0016313D01*
X0066697Y0016638D01*
X0066508Y0016969D01*
X0066327Y0017304D01*
X0066154Y0017643D01*
X0065990Y0017986D01*
X0065833Y0018333D01*
X0065686Y0018684D01*
X0065546Y0019038D01*
X0065416Y0019395D01*
X0065294Y0019756D01*
X0065181Y0020119D01*
X0065076Y0020485D01*
X0064981Y0020853D01*
X0064894Y0021224D01*
X0064816Y0021596D01*
X0064748Y0021971D01*
X0064688Y0022347D01*
X0064638Y0022724D01*
X0064597Y0023102D01*
X0064564Y0023481D01*
X0064541Y0023861D01*
X0064528Y0024241D01*
X0064523Y0024622D01*
D11*
X0133716Y0244209D02*
X0133716Y0247161D01*
X0137062Y0247161D01*
X0137062Y0244209D01*
X0133716Y0244209D01*
X0133716Y0245144D02*
X0137062Y0245144D01*
X0137062Y0246079D02*
X0133716Y0246079D01*
X0133716Y0247014D02*
X0137062Y0247014D01*
X0133716Y0250902D02*
X0133716Y0253854D01*
X0137062Y0253854D01*
X0137062Y0250902D01*
X0133716Y0250902D01*
X0133716Y0251837D02*
X0137062Y0251837D01*
X0137062Y0252772D02*
X0133716Y0252772D01*
X0133716Y0253707D02*
X0137062Y0253707D01*
X0141590Y0253854D02*
X0141590Y0250902D01*
X0141590Y0253854D02*
X0144936Y0253854D01*
X0144936Y0250902D01*
X0141590Y0250902D01*
X0141590Y0251837D02*
X0144936Y0251837D01*
X0144936Y0252772D02*
X0141590Y0252772D01*
X0141590Y0253707D02*
X0144936Y0253707D01*
X0141590Y0247161D02*
X0141590Y0244209D01*
X0141590Y0247161D02*
X0144936Y0247161D01*
X0144936Y0244209D01*
X0141590Y0244209D01*
X0141590Y0245144D02*
X0144936Y0245144D01*
X0144936Y0246079D02*
X0141590Y0246079D01*
X0141590Y0247014D02*
X0144936Y0247014D01*
X0139622Y0277674D02*
X0139622Y0280626D01*
X0142968Y0280626D01*
X0142968Y0277674D01*
X0139622Y0277674D01*
X0139622Y0278609D02*
X0142968Y0278609D01*
X0142968Y0279544D02*
X0139622Y0279544D01*
X0139622Y0280479D02*
X0142968Y0280479D01*
X0139622Y0284367D02*
X0139622Y0287319D01*
X0142968Y0287319D01*
X0142968Y0284367D01*
X0139622Y0284367D01*
X0139622Y0285302D02*
X0142968Y0285302D01*
X0142968Y0286237D02*
X0139622Y0286237D01*
X0139622Y0287172D02*
X0142968Y0287172D01*
X0116000Y0287319D02*
X0116000Y0284367D01*
X0116000Y0287319D02*
X0119346Y0287319D01*
X0119346Y0284367D01*
X0116000Y0284367D01*
X0116000Y0285302D02*
X0119346Y0285302D01*
X0119346Y0286237D02*
X0116000Y0286237D01*
X0116000Y0287172D02*
X0119346Y0287172D01*
X0116000Y0280626D02*
X0116000Y0277674D01*
X0116000Y0280626D02*
X0119346Y0280626D01*
X0119346Y0277674D01*
X0116000Y0277674D01*
X0116000Y0278609D02*
X0119346Y0278609D01*
X0119346Y0279544D02*
X0116000Y0279544D01*
X0116000Y0280479D02*
X0119346Y0280479D01*
X0104779Y0276098D02*
X0104779Y0273146D01*
X0104779Y0276098D02*
X0110881Y0276098D01*
X0110881Y0273146D01*
X0104779Y0273146D01*
X0104779Y0274081D02*
X0110881Y0274081D01*
X0110881Y0275016D02*
X0104779Y0275016D01*
X0104779Y0275951D02*
X0110881Y0275951D01*
X0104779Y0284957D02*
X0104779Y0287909D01*
X0110881Y0287909D01*
X0110881Y0284957D01*
X0104779Y0284957D01*
X0104779Y0285892D02*
X0110881Y0285892D01*
X0110881Y0286827D02*
X0104779Y0286827D01*
X0104779Y0287762D02*
X0110881Y0287762D01*
X0128598Y0320193D02*
X0131550Y0320193D01*
X0128598Y0320193D02*
X0128598Y0323539D01*
X0131550Y0323539D01*
X0131550Y0320193D01*
X0131550Y0321128D02*
X0128598Y0321128D01*
X0128598Y0322063D02*
X0131550Y0322063D01*
X0131550Y0322998D02*
X0128598Y0322998D01*
X0135291Y0320193D02*
X0138243Y0320193D01*
X0135291Y0320193D02*
X0135291Y0323539D01*
X0138243Y0323539D01*
X0138243Y0320193D01*
X0138243Y0321128D02*
X0135291Y0321128D01*
X0135291Y0322063D02*
X0138243Y0322063D01*
X0138243Y0322998D02*
X0135291Y0322998D01*
X0186669Y0329248D02*
X0192771Y0329248D01*
X0192771Y0326296D01*
X0186669Y0326296D01*
X0186669Y0329248D01*
X0186669Y0327231D02*
X0192771Y0327231D01*
X0192771Y0328166D02*
X0186669Y0328166D01*
X0186669Y0329101D02*
X0192771Y0329101D01*
X0192771Y0313500D02*
X0186669Y0313500D01*
X0192771Y0313500D02*
X0192771Y0310548D01*
X0186669Y0310548D01*
X0186669Y0313500D01*
X0186669Y0311483D02*
X0192771Y0311483D01*
X0192771Y0312418D02*
X0186669Y0312418D01*
X0186669Y0313353D02*
X0192771Y0313353D01*
X0207929Y0313500D02*
X0214031Y0313500D01*
X0214031Y0310548D01*
X0207929Y0310548D01*
X0207929Y0313500D01*
X0207929Y0311483D02*
X0214031Y0311483D01*
X0214031Y0312418D02*
X0207929Y0312418D01*
X0207929Y0313353D02*
X0214031Y0313353D01*
X0214031Y0329248D02*
X0207929Y0329248D01*
X0214031Y0329248D02*
X0214031Y0326296D01*
X0207929Y0326296D01*
X0207929Y0329248D01*
X0207929Y0327231D02*
X0214031Y0327231D01*
X0214031Y0328166D02*
X0207929Y0328166D01*
X0207929Y0329101D02*
X0214031Y0329101D01*
X0228401Y0304642D02*
X0235291Y0304642D01*
X0228401Y0304642D02*
X0228401Y0307594D01*
X0235291Y0307594D01*
X0235291Y0304642D01*
X0235291Y0305577D02*
X0228401Y0305577D01*
X0228401Y0306512D02*
X0235291Y0306512D01*
X0235291Y0307447D02*
X0228401Y0307447D01*
X0228401Y0296768D02*
X0235291Y0296768D01*
X0228401Y0296768D02*
X0228401Y0299720D01*
X0235291Y0299720D01*
X0235291Y0296768D01*
X0235291Y0297703D02*
X0228401Y0297703D01*
X0228401Y0298638D02*
X0235291Y0298638D01*
X0235291Y0299573D02*
X0228401Y0299573D01*
X0228401Y0288894D02*
X0235291Y0288894D01*
X0228401Y0288894D02*
X0228401Y0291846D01*
X0235291Y0291846D01*
X0235291Y0288894D01*
X0235291Y0289829D02*
X0228401Y0289829D01*
X0228401Y0290764D02*
X0235291Y0290764D01*
X0235291Y0291699D02*
X0228401Y0291699D01*
X0224857Y0292043D02*
X0221905Y0292043D01*
X0224857Y0292043D02*
X0224857Y0288697D01*
X0221905Y0288697D01*
X0221905Y0292043D01*
X0221905Y0289632D02*
X0224857Y0289632D01*
X0224857Y0290567D02*
X0221905Y0290567D01*
X0221905Y0291502D02*
X0224857Y0291502D01*
X0218164Y0292043D02*
X0215212Y0292043D01*
X0218164Y0292043D02*
X0218164Y0288697D01*
X0215212Y0288697D01*
X0215212Y0292043D01*
X0215212Y0289632D02*
X0218164Y0289632D01*
X0218164Y0290567D02*
X0215212Y0290567D01*
X0215212Y0291502D02*
X0218164Y0291502D01*
X0213046Y0288697D02*
X0210094Y0288697D01*
X0210094Y0292043D01*
X0213046Y0292043D01*
X0213046Y0288697D01*
X0213046Y0289632D02*
X0210094Y0289632D01*
X0210094Y0290567D02*
X0213046Y0290567D01*
X0213046Y0291502D02*
X0210094Y0291502D01*
X0206353Y0288697D02*
X0203401Y0288697D01*
X0203401Y0292043D01*
X0206353Y0292043D01*
X0206353Y0288697D01*
X0206353Y0289632D02*
X0203401Y0289632D01*
X0203401Y0290567D02*
X0206353Y0290567D01*
X0206353Y0291502D02*
X0203401Y0291502D01*
X0228401Y0281020D02*
X0235291Y0281020D01*
X0228401Y0281020D02*
X0228401Y0283972D01*
X0235291Y0283972D01*
X0235291Y0281020D01*
X0235291Y0281955D02*
X0228401Y0281955D01*
X0228401Y0282890D02*
X0235291Y0282890D01*
X0235291Y0283825D02*
X0228401Y0283825D01*
X0228401Y0273146D02*
X0235291Y0273146D01*
X0228401Y0273146D02*
X0228401Y0276098D01*
X0235291Y0276098D01*
X0235291Y0273146D01*
X0235291Y0274081D02*
X0228401Y0274081D01*
X0228401Y0275016D02*
X0235291Y0275016D01*
X0235291Y0275951D02*
X0228401Y0275951D01*
X0228401Y0265272D02*
X0235291Y0265272D01*
X0228401Y0265272D02*
X0228401Y0268224D01*
X0235291Y0268224D01*
X0235291Y0265272D01*
X0235291Y0266207D02*
X0228401Y0266207D01*
X0228401Y0267142D02*
X0235291Y0267142D01*
X0235291Y0268077D02*
X0228401Y0268077D01*
X0228401Y0257398D02*
X0235291Y0257398D01*
X0228401Y0257398D02*
X0228401Y0260350D01*
X0235291Y0260350D01*
X0235291Y0257398D01*
X0235291Y0258333D02*
X0228401Y0258333D01*
X0228401Y0259268D02*
X0235291Y0259268D01*
X0235291Y0260203D02*
X0228401Y0260203D01*
X0223676Y0259759D02*
X0223676Y0256807D01*
X0220330Y0256807D01*
X0220330Y0259759D01*
X0223676Y0259759D01*
X0223676Y0257742D02*
X0220330Y0257742D01*
X0220330Y0258677D02*
X0223676Y0258677D01*
X0223676Y0259612D02*
X0220330Y0259612D01*
X0215802Y0259759D02*
X0215802Y0256807D01*
X0212456Y0256807D01*
X0212456Y0259759D01*
X0215802Y0259759D01*
X0215802Y0257742D02*
X0212456Y0257742D01*
X0212456Y0258677D02*
X0215802Y0258677D01*
X0215802Y0259612D02*
X0212456Y0259612D01*
X0215802Y0253067D02*
X0215802Y0250115D01*
X0212456Y0250115D01*
X0212456Y0253067D01*
X0215802Y0253067D01*
X0215802Y0251050D02*
X0212456Y0251050D01*
X0212456Y0251985D02*
X0215802Y0251985D01*
X0215802Y0252920D02*
X0212456Y0252920D01*
X0204582Y0253854D02*
X0204582Y0250902D01*
X0204582Y0253854D02*
X0207928Y0253854D01*
X0207928Y0250902D01*
X0204582Y0250902D01*
X0204582Y0251837D02*
X0207928Y0251837D01*
X0207928Y0252772D02*
X0204582Y0252772D01*
X0204582Y0253707D02*
X0207928Y0253707D01*
X0204582Y0247161D02*
X0204582Y0244209D01*
X0204582Y0247161D02*
X0207928Y0247161D01*
X0207928Y0244209D01*
X0204582Y0244209D01*
X0204582Y0245144D02*
X0207928Y0245144D01*
X0207928Y0246079D02*
X0204582Y0246079D01*
X0204582Y0247014D02*
X0207928Y0247014D01*
X0196708Y0247161D02*
X0196708Y0244209D01*
X0196708Y0247161D02*
X0200054Y0247161D01*
X0200054Y0244209D01*
X0196708Y0244209D01*
X0196708Y0245144D02*
X0200054Y0245144D01*
X0200054Y0246079D02*
X0196708Y0246079D01*
X0196708Y0247014D02*
X0200054Y0247014D01*
X0196708Y0250902D02*
X0196708Y0253854D01*
X0200054Y0253854D01*
X0200054Y0250902D01*
X0196708Y0250902D01*
X0196708Y0251837D02*
X0200054Y0251837D01*
X0200054Y0252772D02*
X0196708Y0252772D01*
X0196708Y0253707D02*
X0200054Y0253707D01*
X0223676Y0253067D02*
X0223676Y0250115D01*
X0220330Y0250115D01*
X0220330Y0253067D01*
X0223676Y0253067D01*
X0223676Y0251050D02*
X0220330Y0251050D01*
X0220330Y0251985D02*
X0223676Y0251985D01*
X0223676Y0252920D02*
X0220330Y0252920D01*
X0228401Y0249524D02*
X0235291Y0249524D01*
X0228401Y0249524D02*
X0228401Y0252476D01*
X0235291Y0252476D01*
X0235291Y0249524D01*
X0235291Y0250459D02*
X0228401Y0250459D01*
X0228401Y0251394D02*
X0235291Y0251394D01*
X0235291Y0252329D02*
X0228401Y0252329D01*
X0242181Y0241649D02*
X0245133Y0241649D01*
X0242181Y0241649D02*
X0242181Y0248539D01*
X0245133Y0248539D01*
X0245133Y0241649D01*
X0245133Y0242584D02*
X0242181Y0242584D01*
X0242181Y0243519D02*
X0245133Y0243519D01*
X0245133Y0244454D02*
X0242181Y0244454D01*
X0242181Y0245389D02*
X0245133Y0245389D01*
X0245133Y0246324D02*
X0242181Y0246324D01*
X0242181Y0247259D02*
X0245133Y0247259D01*
X0245133Y0248194D02*
X0242181Y0248194D01*
X0250055Y0241649D02*
X0253007Y0241649D01*
X0250055Y0241649D02*
X0250055Y0248539D01*
X0253007Y0248539D01*
X0253007Y0241649D01*
X0253007Y0242584D02*
X0250055Y0242584D01*
X0250055Y0243519D02*
X0253007Y0243519D01*
X0253007Y0244454D02*
X0250055Y0244454D01*
X0250055Y0245389D02*
X0253007Y0245389D01*
X0253007Y0246324D02*
X0250055Y0246324D01*
X0250055Y0247259D02*
X0253007Y0247259D01*
X0253007Y0248194D02*
X0250055Y0248194D01*
X0257929Y0241649D02*
X0260881Y0241649D01*
X0257929Y0241649D02*
X0257929Y0248539D01*
X0260881Y0248539D01*
X0260881Y0241649D01*
X0260881Y0242584D02*
X0257929Y0242584D01*
X0257929Y0243519D02*
X0260881Y0243519D01*
X0260881Y0244454D02*
X0257929Y0244454D01*
X0257929Y0245389D02*
X0260881Y0245389D01*
X0260881Y0246324D02*
X0257929Y0246324D01*
X0257929Y0247259D02*
X0260881Y0247259D01*
X0260881Y0248194D02*
X0257929Y0248194D01*
X0265803Y0241649D02*
X0268755Y0241649D01*
X0265803Y0241649D02*
X0265803Y0248539D01*
X0268755Y0248539D01*
X0268755Y0241649D01*
X0268755Y0242584D02*
X0265803Y0242584D01*
X0265803Y0243519D02*
X0268755Y0243519D01*
X0268755Y0244454D02*
X0265803Y0244454D01*
X0265803Y0245389D02*
X0268755Y0245389D01*
X0268755Y0246324D02*
X0265803Y0246324D01*
X0265803Y0247259D02*
X0268755Y0247259D01*
X0268755Y0248194D02*
X0265803Y0248194D01*
X0273677Y0241649D02*
X0276629Y0241649D01*
X0273677Y0241649D02*
X0273677Y0248539D01*
X0276629Y0248539D01*
X0276629Y0241649D01*
X0276629Y0242584D02*
X0273677Y0242584D01*
X0273677Y0243519D02*
X0276629Y0243519D01*
X0276629Y0244454D02*
X0273677Y0244454D01*
X0273677Y0245389D02*
X0276629Y0245389D01*
X0276629Y0246324D02*
X0273677Y0246324D01*
X0273677Y0247259D02*
X0276629Y0247259D01*
X0276629Y0248194D02*
X0273677Y0248194D01*
X0281551Y0241649D02*
X0284503Y0241649D01*
X0281551Y0241649D02*
X0281551Y0248539D01*
X0284503Y0248539D01*
X0284503Y0241649D01*
X0284503Y0242584D02*
X0281551Y0242584D01*
X0281551Y0243519D02*
X0284503Y0243519D01*
X0284503Y0244454D02*
X0281551Y0244454D01*
X0281551Y0245389D02*
X0284503Y0245389D01*
X0284503Y0246324D02*
X0281551Y0246324D01*
X0281551Y0247259D02*
X0284503Y0247259D01*
X0284503Y0248194D02*
X0281551Y0248194D01*
X0291393Y0249524D02*
X0298283Y0249524D01*
X0291393Y0249524D02*
X0291393Y0252476D01*
X0298283Y0252476D01*
X0298283Y0249524D01*
X0298283Y0250459D02*
X0291393Y0250459D01*
X0291393Y0251394D02*
X0298283Y0251394D01*
X0298283Y0252329D02*
X0291393Y0252329D01*
X0291393Y0257398D02*
X0298283Y0257398D01*
X0291393Y0257398D02*
X0291393Y0260350D01*
X0298283Y0260350D01*
X0298283Y0257398D01*
X0298283Y0258333D02*
X0291393Y0258333D01*
X0291393Y0259268D02*
X0298283Y0259268D01*
X0298283Y0260203D02*
X0291393Y0260203D01*
X0291393Y0265272D02*
X0298283Y0265272D01*
X0291393Y0265272D02*
X0291393Y0268224D01*
X0298283Y0268224D01*
X0298283Y0265272D01*
X0298283Y0266207D02*
X0291393Y0266207D01*
X0291393Y0267142D02*
X0298283Y0267142D01*
X0298283Y0268077D02*
X0291393Y0268077D01*
X0291393Y0273146D02*
X0298283Y0273146D01*
X0291393Y0273146D02*
X0291393Y0276098D01*
X0298283Y0276098D01*
X0298283Y0273146D01*
X0298283Y0274081D02*
X0291393Y0274081D01*
X0291393Y0275016D02*
X0298283Y0275016D01*
X0298283Y0275951D02*
X0291393Y0275951D01*
X0291393Y0281020D02*
X0298283Y0281020D01*
X0291393Y0281020D02*
X0291393Y0283972D01*
X0298283Y0283972D01*
X0298283Y0281020D01*
X0298283Y0281955D02*
X0291393Y0281955D01*
X0291393Y0282890D02*
X0298283Y0282890D01*
X0298283Y0283825D02*
X0291393Y0283825D01*
X0291393Y0288894D02*
X0298283Y0288894D01*
X0291393Y0288894D02*
X0291393Y0291846D01*
X0298283Y0291846D01*
X0298283Y0288894D01*
X0298283Y0289829D02*
X0291393Y0289829D01*
X0291393Y0290764D02*
X0298283Y0290764D01*
X0298283Y0291699D02*
X0291393Y0291699D01*
X0291393Y0296768D02*
X0298283Y0296768D01*
X0291393Y0296768D02*
X0291393Y0299720D01*
X0298283Y0299720D01*
X0298283Y0296768D01*
X0298283Y0297703D02*
X0291393Y0297703D01*
X0291393Y0298638D02*
X0298283Y0298638D01*
X0298283Y0299573D02*
X0291393Y0299573D01*
X0291393Y0304642D02*
X0298283Y0304642D01*
X0291393Y0304642D02*
X0291393Y0307594D01*
X0298283Y0307594D01*
X0298283Y0304642D01*
X0298283Y0305577D02*
X0291393Y0305577D01*
X0291393Y0306512D02*
X0298283Y0306512D01*
X0298283Y0307447D02*
X0291393Y0307447D01*
X0312574Y0314051D02*
X0318676Y0314051D01*
X0318676Y0311099D01*
X0312574Y0311099D01*
X0312574Y0314051D01*
X0312574Y0312034D02*
X0318676Y0312034D01*
X0318676Y0312969D02*
X0312574Y0312969D01*
X0312574Y0313904D02*
X0318676Y0313904D01*
X0318676Y0329799D02*
X0312574Y0329799D01*
X0318676Y0329799D02*
X0318676Y0326847D01*
X0312574Y0326847D01*
X0312574Y0329799D01*
X0312574Y0327782D02*
X0318676Y0327782D01*
X0318676Y0328717D02*
X0312574Y0328717D01*
X0312574Y0329652D02*
X0318676Y0329652D01*
X0333834Y0329799D02*
X0339936Y0329799D01*
X0339936Y0326847D01*
X0333834Y0326847D01*
X0333834Y0329799D01*
X0333834Y0327782D02*
X0339936Y0327782D01*
X0339936Y0328717D02*
X0333834Y0328717D01*
X0333834Y0329652D02*
X0339936Y0329652D01*
X0339936Y0314051D02*
X0333834Y0314051D01*
X0339936Y0314051D02*
X0339936Y0311099D01*
X0333834Y0311099D01*
X0333834Y0314051D01*
X0333834Y0312034D02*
X0339936Y0312034D01*
X0339936Y0312969D02*
X0333834Y0312969D01*
X0333834Y0313904D02*
X0339936Y0313904D01*
X0311471Y0272949D02*
X0308519Y0272949D01*
X0308519Y0276295D01*
X0311471Y0276295D01*
X0311471Y0272949D01*
X0311471Y0273884D02*
X0308519Y0273884D01*
X0308519Y0274819D02*
X0311471Y0274819D01*
X0311471Y0275754D02*
X0308519Y0275754D01*
X0304778Y0272949D02*
X0301826Y0272949D01*
X0301826Y0276295D01*
X0304778Y0276295D01*
X0304778Y0272949D01*
X0304778Y0273884D02*
X0301826Y0273884D01*
X0301826Y0274819D02*
X0304778Y0274819D01*
X0304778Y0275754D02*
X0301826Y0275754D01*
X0301826Y0265075D02*
X0304778Y0265075D01*
X0301826Y0265075D02*
X0301826Y0268421D01*
X0304778Y0268421D01*
X0304778Y0265075D01*
X0304778Y0266010D02*
X0301826Y0266010D01*
X0301826Y0266945D02*
X0304778Y0266945D01*
X0304778Y0267880D02*
X0301826Y0267880D01*
X0308519Y0265075D02*
X0311471Y0265075D01*
X0308519Y0265075D02*
X0308519Y0268421D01*
X0311471Y0268421D01*
X0311471Y0265075D01*
X0311471Y0266010D02*
X0308519Y0266010D01*
X0308519Y0266945D02*
X0311471Y0266945D01*
X0311471Y0267880D02*
X0308519Y0267880D01*
X0308519Y0260547D02*
X0311471Y0260547D01*
X0311471Y0257201D01*
X0308519Y0257201D01*
X0308519Y0260547D01*
X0308519Y0258136D02*
X0311471Y0258136D01*
X0311471Y0259071D02*
X0308519Y0259071D01*
X0308519Y0260006D02*
X0311471Y0260006D01*
X0308913Y0253854D02*
X0308913Y0250902D01*
X0308913Y0253854D02*
X0312259Y0253854D01*
X0312259Y0250902D01*
X0308913Y0250902D01*
X0308913Y0251837D02*
X0312259Y0251837D01*
X0312259Y0252772D02*
X0308913Y0252772D01*
X0308913Y0253707D02*
X0312259Y0253707D01*
X0316787Y0253854D02*
X0316787Y0250902D01*
X0316787Y0253854D02*
X0320133Y0253854D01*
X0320133Y0250902D01*
X0316787Y0250902D01*
X0316787Y0251837D02*
X0320133Y0251837D01*
X0320133Y0252772D02*
X0316787Y0252772D01*
X0316787Y0253707D02*
X0320133Y0253707D01*
X0316787Y0247161D02*
X0316787Y0244209D01*
X0316787Y0247161D02*
X0320133Y0247161D01*
X0320133Y0244209D01*
X0316787Y0244209D01*
X0316787Y0245144D02*
X0320133Y0245144D01*
X0320133Y0246079D02*
X0316787Y0246079D01*
X0316787Y0247014D02*
X0320133Y0247014D01*
X0308913Y0247161D02*
X0308913Y0244209D01*
X0308913Y0247161D02*
X0312259Y0247161D01*
X0312259Y0244209D01*
X0308913Y0244209D01*
X0308913Y0245144D02*
X0312259Y0245144D01*
X0312259Y0246079D02*
X0308913Y0246079D01*
X0308913Y0247014D02*
X0312259Y0247014D01*
X0304778Y0260547D02*
X0301826Y0260547D01*
X0304778Y0260547D02*
X0304778Y0257201D01*
X0301826Y0257201D01*
X0301826Y0260547D01*
X0301826Y0258136D02*
X0304778Y0258136D01*
X0304778Y0259071D02*
X0301826Y0259071D01*
X0301826Y0260006D02*
X0304778Y0260006D01*
X0381748Y0253854D02*
X0381748Y0250902D01*
X0381748Y0253854D02*
X0385094Y0253854D01*
X0385094Y0250902D01*
X0381748Y0250902D01*
X0381748Y0251837D02*
X0385094Y0251837D01*
X0385094Y0252772D02*
X0381748Y0252772D01*
X0381748Y0253707D02*
X0385094Y0253707D01*
X0389622Y0253854D02*
X0389622Y0250902D01*
X0389622Y0253854D02*
X0392968Y0253854D01*
X0392968Y0250902D01*
X0389622Y0250902D01*
X0389622Y0251837D02*
X0392968Y0251837D01*
X0392968Y0252772D02*
X0389622Y0252772D01*
X0389622Y0253707D02*
X0392968Y0253707D01*
X0389622Y0247161D02*
X0389622Y0244209D01*
X0389622Y0247161D02*
X0392968Y0247161D01*
X0392968Y0244209D01*
X0389622Y0244209D01*
X0389622Y0245144D02*
X0392968Y0245144D01*
X0392968Y0246079D02*
X0389622Y0246079D01*
X0389622Y0247014D02*
X0392968Y0247014D01*
X0381748Y0247161D02*
X0381748Y0244209D01*
X0381748Y0247161D02*
X0385094Y0247161D01*
X0385094Y0244209D01*
X0381748Y0244209D01*
X0381748Y0245144D02*
X0385094Y0245144D01*
X0385094Y0246079D02*
X0381748Y0246079D01*
X0381748Y0247014D02*
X0385094Y0247014D01*
D12*
X0384799Y0240961D02*
X0382435Y0240961D01*
X0384799Y0240961D02*
X0384799Y0238205D01*
X0382435Y0238205D01*
X0382435Y0240961D01*
X0382435Y0238953D02*
X0384799Y0238953D01*
X0384799Y0239701D02*
X0382435Y0239701D01*
X0382435Y0240449D02*
X0384799Y0240449D01*
X0389916Y0240961D02*
X0392280Y0240961D01*
X0392280Y0238205D01*
X0389916Y0238205D01*
X0389916Y0240961D01*
X0389916Y0238953D02*
X0392280Y0238953D01*
X0392280Y0239701D02*
X0389916Y0239701D01*
X0389916Y0240449D02*
X0392280Y0240449D01*
X0388540Y0232299D02*
X0386176Y0232299D01*
X0388540Y0232299D02*
X0388540Y0229543D01*
X0386176Y0229543D01*
X0386176Y0232299D01*
X0386176Y0230291D02*
X0388540Y0230291D01*
X0388540Y0231039D02*
X0386176Y0231039D01*
X0386176Y0231787D02*
X0388540Y0231787D01*
X0319445Y0240961D02*
X0317081Y0240961D01*
X0319445Y0240961D02*
X0319445Y0238205D01*
X0317081Y0238205D01*
X0317081Y0240961D01*
X0317081Y0238953D02*
X0319445Y0238953D01*
X0319445Y0239701D02*
X0317081Y0239701D01*
X0317081Y0240449D02*
X0319445Y0240449D01*
X0311965Y0240961D02*
X0309601Y0240961D01*
X0311965Y0240961D02*
X0311965Y0238205D01*
X0309601Y0238205D01*
X0309601Y0240961D01*
X0309601Y0238953D02*
X0311965Y0238953D01*
X0311965Y0239701D02*
X0309601Y0239701D01*
X0309601Y0240449D02*
X0311965Y0240449D01*
X0313341Y0232299D02*
X0315705Y0232299D01*
X0315705Y0229543D01*
X0313341Y0229543D01*
X0313341Y0232299D01*
X0313341Y0230291D02*
X0315705Y0230291D01*
X0315705Y0231039D02*
X0313341Y0231039D01*
X0313341Y0231787D02*
X0315705Y0231787D01*
X0207240Y0240961D02*
X0204876Y0240961D01*
X0207240Y0240961D02*
X0207240Y0238205D01*
X0204876Y0238205D01*
X0204876Y0240961D01*
X0204876Y0238953D02*
X0207240Y0238953D01*
X0207240Y0239701D02*
X0204876Y0239701D01*
X0204876Y0240449D02*
X0207240Y0240449D01*
X0199760Y0240961D02*
X0197396Y0240961D01*
X0199760Y0240961D02*
X0199760Y0238205D01*
X0197396Y0238205D01*
X0197396Y0240961D01*
X0197396Y0238953D02*
X0199760Y0238953D01*
X0199760Y0239701D02*
X0197396Y0239701D01*
X0197396Y0240449D02*
X0199760Y0240449D01*
X0201136Y0232299D02*
X0203500Y0232299D01*
X0203500Y0229543D01*
X0201136Y0229543D01*
X0201136Y0232299D01*
X0201136Y0230291D02*
X0203500Y0230291D01*
X0203500Y0231039D02*
X0201136Y0231039D01*
X0201136Y0231787D02*
X0203500Y0231787D01*
X0144248Y0240961D02*
X0141884Y0240961D01*
X0144248Y0240961D02*
X0144248Y0238205D01*
X0141884Y0238205D01*
X0141884Y0240961D01*
X0141884Y0238953D02*
X0144248Y0238953D01*
X0144248Y0239701D02*
X0141884Y0239701D01*
X0141884Y0240449D02*
X0144248Y0240449D01*
X0136768Y0240961D02*
X0134404Y0240961D01*
X0136768Y0240961D02*
X0136768Y0238205D01*
X0134404Y0238205D01*
X0134404Y0240961D01*
X0134404Y0238953D02*
X0136768Y0238953D01*
X0136768Y0239701D02*
X0134404Y0239701D01*
X0134404Y0240449D02*
X0136768Y0240449D01*
X0138144Y0232299D02*
X0140508Y0232299D01*
X0140508Y0229543D01*
X0138144Y0229543D01*
X0138144Y0232299D01*
X0138144Y0230291D02*
X0140508Y0230291D01*
X0140508Y0231039D02*
X0138144Y0231039D01*
X0138144Y0231787D02*
X0140508Y0231787D01*
X0137555Y0328558D02*
X0135191Y0328558D01*
X0135191Y0330922D01*
X0137555Y0330922D01*
X0137555Y0328558D01*
X0137555Y0329306D02*
X0135191Y0329306D01*
X0135191Y0330054D02*
X0137555Y0330054D01*
X0137555Y0330802D02*
X0135191Y0330802D01*
X0131650Y0328558D02*
X0129286Y0328558D01*
X0129286Y0330922D01*
X0131650Y0330922D01*
X0131650Y0328558D01*
X0131650Y0329306D02*
X0129286Y0329306D01*
X0129286Y0330054D02*
X0131650Y0330054D01*
X0131650Y0330802D02*
X0129286Y0330802D01*
D13*
X0122741Y0287270D02*
X0122741Y0285202D01*
X0122741Y0287270D02*
X0125989Y0287270D01*
X0125989Y0285202D01*
X0122741Y0285202D01*
X0122741Y0285857D02*
X0125989Y0285857D01*
X0125989Y0286512D02*
X0122741Y0286512D01*
X0122741Y0287167D02*
X0125989Y0287167D01*
X0122741Y0283530D02*
X0122741Y0281462D01*
X0122741Y0283530D02*
X0125989Y0283530D01*
X0125989Y0281462D01*
X0122741Y0281462D01*
X0122741Y0282117D02*
X0125989Y0282117D01*
X0125989Y0282772D02*
X0122741Y0282772D01*
X0122741Y0283427D02*
X0125989Y0283427D01*
X0122741Y0279790D02*
X0122741Y0277722D01*
X0122741Y0279790D02*
X0125989Y0279790D01*
X0125989Y0277722D01*
X0122741Y0277722D01*
X0122741Y0278377D02*
X0125989Y0278377D01*
X0125989Y0279032D02*
X0122741Y0279032D01*
X0122741Y0279687D02*
X0125989Y0279687D01*
X0132584Y0279790D02*
X0132584Y0277722D01*
X0132584Y0279790D02*
X0135832Y0279790D01*
X0135832Y0277722D01*
X0132584Y0277722D01*
X0132584Y0278377D02*
X0135832Y0278377D01*
X0135832Y0279032D02*
X0132584Y0279032D01*
X0132584Y0279687D02*
X0135832Y0279687D01*
X0132584Y0285202D02*
X0132584Y0287270D01*
X0135832Y0287270D01*
X0135832Y0285202D01*
X0132584Y0285202D01*
X0132584Y0285857D02*
X0135832Y0285857D01*
X0135832Y0286512D02*
X0132584Y0286512D01*
X0132584Y0287167D02*
X0135832Y0287167D01*
D14*
X0171610Y0025311D03*
X0174169Y0025311D03*
X0176728Y0025311D03*
X0179287Y0025311D03*
X0181846Y0025311D03*
D15*
X0188932Y0024819D03*
X0164523Y0024819D03*
D16*
X0161767Y0014780D03*
X0191688Y0014780D03*
D17*
X0181452Y0014780D03*
X0172003Y0014780D03*
D18*
X0187476Y0227653D02*
X0187476Y0229307D01*
X0189602Y0229307D01*
X0189602Y0227653D01*
X0187476Y0227653D01*
X0187476Y0228176D02*
X0189602Y0228176D01*
X0189602Y0228699D02*
X0187476Y0228699D01*
X0187476Y0229222D02*
X0189602Y0229222D01*
X0187476Y0237260D02*
X0187476Y0238914D01*
X0189602Y0238914D01*
X0189602Y0237260D01*
X0187476Y0237260D01*
X0187476Y0237783D02*
X0189602Y0237783D01*
X0189602Y0238306D02*
X0187476Y0238306D01*
X0187476Y0238829D02*
X0189602Y0238829D01*
X0124484Y0238914D02*
X0124484Y0237260D01*
X0124484Y0238914D02*
X0126610Y0238914D01*
X0126610Y0237260D01*
X0124484Y0237260D01*
X0124484Y0237783D02*
X0126610Y0237783D01*
X0126610Y0238306D02*
X0124484Y0238306D01*
X0124484Y0238829D02*
X0126610Y0238829D01*
X0124484Y0229307D02*
X0124484Y0227653D01*
X0124484Y0229307D02*
X0126610Y0229307D01*
X0126610Y0227653D01*
X0124484Y0227653D01*
X0124484Y0228176D02*
X0126610Y0228176D01*
X0126610Y0228699D02*
X0124484Y0228699D01*
X0124484Y0229222D02*
X0126610Y0229222D01*
X0299680Y0229307D02*
X0299680Y0227653D01*
X0299680Y0229307D02*
X0301806Y0229307D01*
X0301806Y0227653D01*
X0299680Y0227653D01*
X0299680Y0228176D02*
X0301806Y0228176D01*
X0301806Y0228699D02*
X0299680Y0228699D01*
X0299680Y0229222D02*
X0301806Y0229222D01*
X0299680Y0237260D02*
X0299680Y0238914D01*
X0301806Y0238914D01*
X0301806Y0237260D01*
X0299680Y0237260D01*
X0299680Y0237783D02*
X0301806Y0237783D01*
X0301806Y0238306D02*
X0299680Y0238306D01*
X0299680Y0238829D02*
X0301806Y0238829D01*
X0372515Y0238914D02*
X0372515Y0237260D01*
X0372515Y0238914D02*
X0374641Y0238914D01*
X0374641Y0237260D01*
X0372515Y0237260D01*
X0372515Y0237783D02*
X0374641Y0237783D01*
X0374641Y0238306D02*
X0372515Y0238306D01*
X0372515Y0238829D02*
X0374641Y0238829D01*
X0372515Y0229307D02*
X0372515Y0227653D01*
X0372515Y0229307D02*
X0374641Y0229307D01*
X0374641Y0227653D01*
X0372515Y0227653D01*
X0372515Y0228176D02*
X0374641Y0228176D01*
X0374641Y0228699D02*
X0372515Y0228699D01*
X0372515Y0229222D02*
X0374641Y0229222D01*
M02*
