G75*
%MOIN*%
%OFA0B0*%
%FSLAX25Y25*%
%IPPOS*%
%LPD*%
%AMOC8*
5,1,8,0,0,1.08239X$1,22.5*
%
%ADD10C,0.00000*%
%ADD11C,0.00984*%
%ADD12C,0.00787*%
%ADD13C,0.10000*%
%ADD14C,0.07874*%
%ADD15C,0.00689*%
%ADD16R,0.01575X0.05315*%
%ADD17R,0.08268X0.06299*%
%ADD18R,0.07087X0.07480*%
%ADD19R,0.07480X0.07480*%
%ADD20R,0.07000X0.07000*%
%ADD21C,0.07000*%
%ADD22C,0.23000*%
%ADD23C,0.00551*%
%ADD24C,0.01000*%
%ADD25C,0.02400*%
%ADD26C,0.01600*%
%ADD27C,0.02000*%
%ADD28C,0.04724*%
%ADD29C,0.02381*%
%ADD30C,0.11811*%
%ADD31C,0.00400*%
D10*
X0064523Y0024622D02*
X0064523Y0327772D01*
X0064503Y0328129D01*
X0064492Y0328486D01*
X0064490Y0328844D01*
X0064497Y0329201D01*
X0064512Y0329559D01*
X0064535Y0329915D01*
X0064568Y0330271D01*
X0064609Y0330627D01*
X0064658Y0330981D01*
X0064716Y0331334D01*
X0064783Y0331685D01*
X0064858Y0332035D01*
X0064941Y0332382D01*
X0065033Y0332728D01*
X0065133Y0333071D01*
X0065242Y0333412D01*
X0065358Y0333750D01*
X0065483Y0334085D01*
X0065616Y0334417D01*
X0065757Y0334746D01*
X0065905Y0335071D01*
X0066062Y0335392D01*
X0066226Y0335710D01*
X0066398Y0336024D01*
X0066577Y0336333D01*
X0066764Y0336638D01*
X0066958Y0336938D01*
X0067159Y0337234D01*
X0067368Y0337524D01*
X0067583Y0337810D01*
X0067805Y0338090D01*
X0068034Y0338365D01*
X0068270Y0338634D01*
X0068512Y0338897D01*
X0068760Y0339154D01*
X0069014Y0339406D01*
X0069274Y0339651D01*
X0069541Y0339890D01*
X0069813Y0340122D01*
X0070090Y0340348D01*
X0070373Y0340566D01*
X0070661Y0340778D01*
X0070954Y0340983D01*
X0071252Y0341181D01*
X0071554Y0341372D01*
X0071861Y0341555D01*
X0072173Y0341731D01*
X0072488Y0341899D01*
X0072808Y0342059D01*
X0073131Y0342212D01*
X0073458Y0342357D01*
X0073788Y0342493D01*
X0074122Y0342622D01*
X0074459Y0342743D01*
X0074798Y0342856D01*
X0075140Y0342960D01*
X0075484Y0343056D01*
X0075831Y0343144D01*
X0076180Y0343223D01*
X0076530Y0343294D01*
X0076882Y0343356D01*
X0077236Y0343410D01*
X0077591Y0343455D01*
X0077946Y0343492D01*
X0078303Y0343520D01*
X0078302Y0343520D02*
X0416885Y0343520D01*
X0416885Y0343519D02*
X0417296Y0343538D01*
X0417707Y0343547D01*
X0418118Y0343546D01*
X0418530Y0343535D01*
X0418940Y0343514D01*
X0419351Y0343482D01*
X0419760Y0343441D01*
X0420168Y0343390D01*
X0420575Y0343328D01*
X0420980Y0343257D01*
X0421383Y0343175D01*
X0421784Y0343084D01*
X0422183Y0342983D01*
X0422579Y0342873D01*
X0422973Y0342752D01*
X0423363Y0342622D01*
X0423750Y0342482D01*
X0424133Y0342333D01*
X0424513Y0342175D01*
X0424888Y0342007D01*
X0425260Y0341830D01*
X0425627Y0341645D01*
X0425989Y0341450D01*
X0426346Y0341246D01*
X0426699Y0341034D01*
X0427046Y0340813D01*
X0427387Y0340583D01*
X0427723Y0340345D01*
X0428053Y0340100D01*
X0428376Y0339846D01*
X0428694Y0339584D01*
X0429004Y0339314D01*
X0429308Y0339037D01*
X0429606Y0338753D01*
X0429896Y0338461D01*
X0430179Y0338163D01*
X0430454Y0337857D01*
X0430722Y0337545D01*
X0430982Y0337226D01*
X0431234Y0336901D01*
X0431479Y0336570D01*
X0431715Y0336233D01*
X0431942Y0335891D01*
X0432161Y0335542D01*
X0432372Y0335189D01*
X0432574Y0334831D01*
X0432767Y0334467D01*
X0432951Y0334099D01*
X0433126Y0333727D01*
X0433291Y0333351D01*
X0433448Y0332970D01*
X0433595Y0332586D01*
X0433732Y0332198D01*
X0433860Y0331807D01*
X0433979Y0331413D01*
X0434088Y0331017D01*
X0434186Y0330617D01*
X0434276Y0330216D01*
X0434355Y0329812D01*
X0434424Y0329407D01*
X0434483Y0328999D01*
X0434533Y0328591D01*
X0434572Y0328182D01*
X0434601Y0327771D01*
X0434602Y0327772D02*
X0434602Y0024622D01*
X0434597Y0024241D01*
X0434584Y0023861D01*
X0434561Y0023481D01*
X0434528Y0023102D01*
X0434487Y0022724D01*
X0434437Y0022347D01*
X0434377Y0021971D01*
X0434309Y0021596D01*
X0434231Y0021224D01*
X0434144Y0020853D01*
X0434049Y0020485D01*
X0433944Y0020119D01*
X0433831Y0019756D01*
X0433709Y0019395D01*
X0433579Y0019038D01*
X0433439Y0018684D01*
X0433292Y0018333D01*
X0433135Y0017986D01*
X0432971Y0017643D01*
X0432798Y0017304D01*
X0432617Y0016969D01*
X0432428Y0016638D01*
X0432231Y0016313D01*
X0432027Y0015992D01*
X0431814Y0015676D01*
X0431594Y0015366D01*
X0431367Y0015060D01*
X0431132Y0014761D01*
X0430890Y0014467D01*
X0430642Y0014179D01*
X0430386Y0013897D01*
X0430123Y0013622D01*
X0429854Y0013353D01*
X0429579Y0013090D01*
X0429297Y0012834D01*
X0429009Y0012586D01*
X0428715Y0012344D01*
X0428416Y0012109D01*
X0428110Y0011882D01*
X0427800Y0011662D01*
X0427484Y0011449D01*
X0427163Y0011245D01*
X0426838Y0011048D01*
X0426507Y0010859D01*
X0426172Y0010678D01*
X0425833Y0010505D01*
X0425490Y0010341D01*
X0425143Y0010184D01*
X0424792Y0010037D01*
X0424438Y0009897D01*
X0424081Y0009767D01*
X0423720Y0009645D01*
X0423357Y0009532D01*
X0422991Y0009427D01*
X0422623Y0009332D01*
X0422252Y0009245D01*
X0421880Y0009167D01*
X0421505Y0009099D01*
X0421129Y0009039D01*
X0420752Y0008989D01*
X0420374Y0008948D01*
X0419995Y0008915D01*
X0419615Y0008892D01*
X0419235Y0008879D01*
X0418854Y0008874D01*
X0080271Y0008874D01*
X0079890Y0008879D01*
X0079510Y0008892D01*
X0079130Y0008915D01*
X0078751Y0008948D01*
X0078373Y0008989D01*
X0077996Y0009039D01*
X0077620Y0009099D01*
X0077245Y0009167D01*
X0076873Y0009245D01*
X0076502Y0009332D01*
X0076134Y0009427D01*
X0075768Y0009532D01*
X0075405Y0009645D01*
X0075044Y0009767D01*
X0074687Y0009897D01*
X0074333Y0010037D01*
X0073982Y0010184D01*
X0073635Y0010341D01*
X0073292Y0010505D01*
X0072953Y0010678D01*
X0072618Y0010859D01*
X0072287Y0011048D01*
X0071962Y0011245D01*
X0071641Y0011449D01*
X0071325Y0011662D01*
X0071015Y0011882D01*
X0070709Y0012109D01*
X0070410Y0012344D01*
X0070116Y0012586D01*
X0069828Y0012834D01*
X0069546Y0013090D01*
X0069271Y0013353D01*
X0069002Y0013622D01*
X0068739Y0013897D01*
X0068483Y0014179D01*
X0068235Y0014467D01*
X0067993Y0014761D01*
X0067758Y0015060D01*
X0067531Y0015366D01*
X0067311Y0015676D01*
X0067098Y0015992D01*
X0066894Y0016313D01*
X0066697Y0016638D01*
X0066508Y0016969D01*
X0066327Y0017304D01*
X0066154Y0017643D01*
X0065990Y0017986D01*
X0065833Y0018333D01*
X0065686Y0018684D01*
X0065546Y0019038D01*
X0065416Y0019395D01*
X0065294Y0019756D01*
X0065181Y0020119D01*
X0065076Y0020485D01*
X0064981Y0020853D01*
X0064894Y0021224D01*
X0064816Y0021596D01*
X0064748Y0021971D01*
X0064688Y0022347D01*
X0064638Y0022724D01*
X0064597Y0023102D01*
X0064564Y0023481D01*
X0064541Y0023861D01*
X0064528Y0024241D01*
X0064523Y0024622D01*
D11*
X0133716Y0244209D02*
X0133716Y0247161D01*
X0137062Y0247161D01*
X0137062Y0244209D01*
X0133716Y0244209D01*
X0133716Y0245144D02*
X0137062Y0245144D01*
X0137062Y0246079D02*
X0133716Y0246079D01*
X0133716Y0247014D02*
X0137062Y0247014D01*
X0133716Y0250902D02*
X0133716Y0253854D01*
X0137062Y0253854D01*
X0137062Y0250902D01*
X0133716Y0250902D01*
X0133716Y0251837D02*
X0137062Y0251837D01*
X0137062Y0252772D02*
X0133716Y0252772D01*
X0133716Y0253707D02*
X0137062Y0253707D01*
X0141590Y0253854D02*
X0141590Y0250902D01*
X0141590Y0253854D02*
X0144936Y0253854D01*
X0144936Y0250902D01*
X0141590Y0250902D01*
X0141590Y0251837D02*
X0144936Y0251837D01*
X0144936Y0252772D02*
X0141590Y0252772D01*
X0141590Y0253707D02*
X0144936Y0253707D01*
X0141590Y0247161D02*
X0141590Y0244209D01*
X0141590Y0247161D02*
X0144936Y0247161D01*
X0144936Y0244209D01*
X0141590Y0244209D01*
X0141590Y0245144D02*
X0144936Y0245144D01*
X0144936Y0246079D02*
X0141590Y0246079D01*
X0141590Y0247014D02*
X0144936Y0247014D01*
X0139622Y0277674D02*
X0139622Y0280626D01*
X0142968Y0280626D01*
X0142968Y0277674D01*
X0139622Y0277674D01*
X0139622Y0278609D02*
X0142968Y0278609D01*
X0142968Y0279544D02*
X0139622Y0279544D01*
X0139622Y0280479D02*
X0142968Y0280479D01*
X0139622Y0284367D02*
X0139622Y0287319D01*
X0142968Y0287319D01*
X0142968Y0284367D01*
X0139622Y0284367D01*
X0139622Y0285302D02*
X0142968Y0285302D01*
X0142968Y0286237D02*
X0139622Y0286237D01*
X0139622Y0287172D02*
X0142968Y0287172D01*
X0116000Y0287319D02*
X0116000Y0284367D01*
X0116000Y0287319D02*
X0119346Y0287319D01*
X0119346Y0284367D01*
X0116000Y0284367D01*
X0116000Y0285302D02*
X0119346Y0285302D01*
X0119346Y0286237D02*
X0116000Y0286237D01*
X0116000Y0287172D02*
X0119346Y0287172D01*
X0116000Y0280626D02*
X0116000Y0277674D01*
X0116000Y0280626D02*
X0119346Y0280626D01*
X0119346Y0277674D01*
X0116000Y0277674D01*
X0116000Y0278609D02*
X0119346Y0278609D01*
X0119346Y0279544D02*
X0116000Y0279544D01*
X0116000Y0280479D02*
X0119346Y0280479D01*
X0104779Y0276098D02*
X0104779Y0273146D01*
X0104779Y0276098D02*
X0110881Y0276098D01*
X0110881Y0273146D01*
X0104779Y0273146D01*
X0104779Y0274081D02*
X0110881Y0274081D01*
X0110881Y0275016D02*
X0104779Y0275016D01*
X0104779Y0275951D02*
X0110881Y0275951D01*
X0104779Y0284957D02*
X0104779Y0287909D01*
X0110881Y0287909D01*
X0110881Y0284957D01*
X0104779Y0284957D01*
X0104779Y0285892D02*
X0110881Y0285892D01*
X0110881Y0286827D02*
X0104779Y0286827D01*
X0104779Y0287762D02*
X0110881Y0287762D01*
X0128598Y0320193D02*
X0131550Y0320193D01*
X0128598Y0320193D02*
X0128598Y0323539D01*
X0131550Y0323539D01*
X0131550Y0320193D01*
X0131550Y0321128D02*
X0128598Y0321128D01*
X0128598Y0322063D02*
X0131550Y0322063D01*
X0131550Y0322998D02*
X0128598Y0322998D01*
X0135291Y0320193D02*
X0138243Y0320193D01*
X0135291Y0320193D02*
X0135291Y0323539D01*
X0138243Y0323539D01*
X0138243Y0320193D01*
X0138243Y0321128D02*
X0135291Y0321128D01*
X0135291Y0322063D02*
X0138243Y0322063D01*
X0138243Y0322998D02*
X0135291Y0322998D01*
X0186669Y0329248D02*
X0192771Y0329248D01*
X0192771Y0326296D01*
X0186669Y0326296D01*
X0186669Y0329248D01*
X0186669Y0327231D02*
X0192771Y0327231D01*
X0192771Y0328166D02*
X0186669Y0328166D01*
X0186669Y0329101D02*
X0192771Y0329101D01*
X0192771Y0313500D02*
X0186669Y0313500D01*
X0192771Y0313500D02*
X0192771Y0310548D01*
X0186669Y0310548D01*
X0186669Y0313500D01*
X0186669Y0311483D02*
X0192771Y0311483D01*
X0192771Y0312418D02*
X0186669Y0312418D01*
X0186669Y0313353D02*
X0192771Y0313353D01*
X0207929Y0313500D02*
X0214031Y0313500D01*
X0214031Y0310548D01*
X0207929Y0310548D01*
X0207929Y0313500D01*
X0207929Y0311483D02*
X0214031Y0311483D01*
X0214031Y0312418D02*
X0207929Y0312418D01*
X0207929Y0313353D02*
X0214031Y0313353D01*
X0214031Y0329248D02*
X0207929Y0329248D01*
X0214031Y0329248D02*
X0214031Y0326296D01*
X0207929Y0326296D01*
X0207929Y0329248D01*
X0207929Y0327231D02*
X0214031Y0327231D01*
X0214031Y0328166D02*
X0207929Y0328166D01*
X0207929Y0329101D02*
X0214031Y0329101D01*
X0228401Y0304642D02*
X0235291Y0304642D01*
X0228401Y0304642D02*
X0228401Y0307594D01*
X0235291Y0307594D01*
X0235291Y0304642D01*
X0235291Y0305577D02*
X0228401Y0305577D01*
X0228401Y0306512D02*
X0235291Y0306512D01*
X0235291Y0307447D02*
X0228401Y0307447D01*
X0228401Y0296768D02*
X0235291Y0296768D01*
X0228401Y0296768D02*
X0228401Y0299720D01*
X0235291Y0299720D01*
X0235291Y0296768D01*
X0235291Y0297703D02*
X0228401Y0297703D01*
X0228401Y0298638D02*
X0235291Y0298638D01*
X0235291Y0299573D02*
X0228401Y0299573D01*
X0228401Y0288894D02*
X0235291Y0288894D01*
X0228401Y0288894D02*
X0228401Y0291846D01*
X0235291Y0291846D01*
X0235291Y0288894D01*
X0235291Y0289829D02*
X0228401Y0289829D01*
X0228401Y0290764D02*
X0235291Y0290764D01*
X0235291Y0291699D02*
X0228401Y0291699D01*
X0224857Y0292043D02*
X0221905Y0292043D01*
X0224857Y0292043D02*
X0224857Y0288697D01*
X0221905Y0288697D01*
X0221905Y0292043D01*
X0221905Y0289632D02*
X0224857Y0289632D01*
X0224857Y0290567D02*
X0221905Y0290567D01*
X0221905Y0291502D02*
X0224857Y0291502D01*
X0218164Y0292043D02*
X0215212Y0292043D01*
X0218164Y0292043D02*
X0218164Y0288697D01*
X0215212Y0288697D01*
X0215212Y0292043D01*
X0215212Y0289632D02*
X0218164Y0289632D01*
X0218164Y0290567D02*
X0215212Y0290567D01*
X0215212Y0291502D02*
X0218164Y0291502D01*
X0213046Y0288697D02*
X0210094Y0288697D01*
X0210094Y0292043D01*
X0213046Y0292043D01*
X0213046Y0288697D01*
X0213046Y0289632D02*
X0210094Y0289632D01*
X0210094Y0290567D02*
X0213046Y0290567D01*
X0213046Y0291502D02*
X0210094Y0291502D01*
X0206353Y0288697D02*
X0203401Y0288697D01*
X0203401Y0292043D01*
X0206353Y0292043D01*
X0206353Y0288697D01*
X0206353Y0289632D02*
X0203401Y0289632D01*
X0203401Y0290567D02*
X0206353Y0290567D01*
X0206353Y0291502D02*
X0203401Y0291502D01*
X0228401Y0281020D02*
X0235291Y0281020D01*
X0228401Y0281020D02*
X0228401Y0283972D01*
X0235291Y0283972D01*
X0235291Y0281020D01*
X0235291Y0281955D02*
X0228401Y0281955D01*
X0228401Y0282890D02*
X0235291Y0282890D01*
X0235291Y0283825D02*
X0228401Y0283825D01*
X0228401Y0273146D02*
X0235291Y0273146D01*
X0228401Y0273146D02*
X0228401Y0276098D01*
X0235291Y0276098D01*
X0235291Y0273146D01*
X0235291Y0274081D02*
X0228401Y0274081D01*
X0228401Y0275016D02*
X0235291Y0275016D01*
X0235291Y0275951D02*
X0228401Y0275951D01*
X0228401Y0265272D02*
X0235291Y0265272D01*
X0228401Y0265272D02*
X0228401Y0268224D01*
X0235291Y0268224D01*
X0235291Y0265272D01*
X0235291Y0266207D02*
X0228401Y0266207D01*
X0228401Y0267142D02*
X0235291Y0267142D01*
X0235291Y0268077D02*
X0228401Y0268077D01*
X0228401Y0257398D02*
X0235291Y0257398D01*
X0228401Y0257398D02*
X0228401Y0260350D01*
X0235291Y0260350D01*
X0235291Y0257398D01*
X0235291Y0258333D02*
X0228401Y0258333D01*
X0228401Y0259268D02*
X0235291Y0259268D01*
X0235291Y0260203D02*
X0228401Y0260203D01*
X0223676Y0259759D02*
X0223676Y0256807D01*
X0220330Y0256807D01*
X0220330Y0259759D01*
X0223676Y0259759D01*
X0223676Y0257742D02*
X0220330Y0257742D01*
X0220330Y0258677D02*
X0223676Y0258677D01*
X0223676Y0259612D02*
X0220330Y0259612D01*
X0215802Y0259759D02*
X0215802Y0256807D01*
X0212456Y0256807D01*
X0212456Y0259759D01*
X0215802Y0259759D01*
X0215802Y0257742D02*
X0212456Y0257742D01*
X0212456Y0258677D02*
X0215802Y0258677D01*
X0215802Y0259612D02*
X0212456Y0259612D01*
X0215802Y0253067D02*
X0215802Y0250115D01*
X0212456Y0250115D01*
X0212456Y0253067D01*
X0215802Y0253067D01*
X0215802Y0251050D02*
X0212456Y0251050D01*
X0212456Y0251985D02*
X0215802Y0251985D01*
X0215802Y0252920D02*
X0212456Y0252920D01*
X0204582Y0253854D02*
X0204582Y0250902D01*
X0204582Y0253854D02*
X0207928Y0253854D01*
X0207928Y0250902D01*
X0204582Y0250902D01*
X0204582Y0251837D02*
X0207928Y0251837D01*
X0207928Y0252772D02*
X0204582Y0252772D01*
X0204582Y0253707D02*
X0207928Y0253707D01*
X0204582Y0247161D02*
X0204582Y0244209D01*
X0204582Y0247161D02*
X0207928Y0247161D01*
X0207928Y0244209D01*
X0204582Y0244209D01*
X0204582Y0245144D02*
X0207928Y0245144D01*
X0207928Y0246079D02*
X0204582Y0246079D01*
X0204582Y0247014D02*
X0207928Y0247014D01*
X0196708Y0247161D02*
X0196708Y0244209D01*
X0196708Y0247161D02*
X0200054Y0247161D01*
X0200054Y0244209D01*
X0196708Y0244209D01*
X0196708Y0245144D02*
X0200054Y0245144D01*
X0200054Y0246079D02*
X0196708Y0246079D01*
X0196708Y0247014D02*
X0200054Y0247014D01*
X0196708Y0250902D02*
X0196708Y0253854D01*
X0200054Y0253854D01*
X0200054Y0250902D01*
X0196708Y0250902D01*
X0196708Y0251837D02*
X0200054Y0251837D01*
X0200054Y0252772D02*
X0196708Y0252772D01*
X0196708Y0253707D02*
X0200054Y0253707D01*
X0223676Y0253067D02*
X0223676Y0250115D01*
X0220330Y0250115D01*
X0220330Y0253067D01*
X0223676Y0253067D01*
X0223676Y0251050D02*
X0220330Y0251050D01*
X0220330Y0251985D02*
X0223676Y0251985D01*
X0223676Y0252920D02*
X0220330Y0252920D01*
X0228401Y0249524D02*
X0235291Y0249524D01*
X0228401Y0249524D02*
X0228401Y0252476D01*
X0235291Y0252476D01*
X0235291Y0249524D01*
X0235291Y0250459D02*
X0228401Y0250459D01*
X0228401Y0251394D02*
X0235291Y0251394D01*
X0235291Y0252329D02*
X0228401Y0252329D01*
X0242181Y0241649D02*
X0245133Y0241649D01*
X0242181Y0241649D02*
X0242181Y0248539D01*
X0245133Y0248539D01*
X0245133Y0241649D01*
X0245133Y0242584D02*
X0242181Y0242584D01*
X0242181Y0243519D02*
X0245133Y0243519D01*
X0245133Y0244454D02*
X0242181Y0244454D01*
X0242181Y0245389D02*
X0245133Y0245389D01*
X0245133Y0246324D02*
X0242181Y0246324D01*
X0242181Y0247259D02*
X0245133Y0247259D01*
X0245133Y0248194D02*
X0242181Y0248194D01*
X0250055Y0241649D02*
X0253007Y0241649D01*
X0250055Y0241649D02*
X0250055Y0248539D01*
X0253007Y0248539D01*
X0253007Y0241649D01*
X0253007Y0242584D02*
X0250055Y0242584D01*
X0250055Y0243519D02*
X0253007Y0243519D01*
X0253007Y0244454D02*
X0250055Y0244454D01*
X0250055Y0245389D02*
X0253007Y0245389D01*
X0253007Y0246324D02*
X0250055Y0246324D01*
X0250055Y0247259D02*
X0253007Y0247259D01*
X0253007Y0248194D02*
X0250055Y0248194D01*
X0257929Y0241649D02*
X0260881Y0241649D01*
X0257929Y0241649D02*
X0257929Y0248539D01*
X0260881Y0248539D01*
X0260881Y0241649D01*
X0260881Y0242584D02*
X0257929Y0242584D01*
X0257929Y0243519D02*
X0260881Y0243519D01*
X0260881Y0244454D02*
X0257929Y0244454D01*
X0257929Y0245389D02*
X0260881Y0245389D01*
X0260881Y0246324D02*
X0257929Y0246324D01*
X0257929Y0247259D02*
X0260881Y0247259D01*
X0260881Y0248194D02*
X0257929Y0248194D01*
X0265803Y0241649D02*
X0268755Y0241649D01*
X0265803Y0241649D02*
X0265803Y0248539D01*
X0268755Y0248539D01*
X0268755Y0241649D01*
X0268755Y0242584D02*
X0265803Y0242584D01*
X0265803Y0243519D02*
X0268755Y0243519D01*
X0268755Y0244454D02*
X0265803Y0244454D01*
X0265803Y0245389D02*
X0268755Y0245389D01*
X0268755Y0246324D02*
X0265803Y0246324D01*
X0265803Y0247259D02*
X0268755Y0247259D01*
X0268755Y0248194D02*
X0265803Y0248194D01*
X0273677Y0241649D02*
X0276629Y0241649D01*
X0273677Y0241649D02*
X0273677Y0248539D01*
X0276629Y0248539D01*
X0276629Y0241649D01*
X0276629Y0242584D02*
X0273677Y0242584D01*
X0273677Y0243519D02*
X0276629Y0243519D01*
X0276629Y0244454D02*
X0273677Y0244454D01*
X0273677Y0245389D02*
X0276629Y0245389D01*
X0276629Y0246324D02*
X0273677Y0246324D01*
X0273677Y0247259D02*
X0276629Y0247259D01*
X0276629Y0248194D02*
X0273677Y0248194D01*
X0281551Y0241649D02*
X0284503Y0241649D01*
X0281551Y0241649D02*
X0281551Y0248539D01*
X0284503Y0248539D01*
X0284503Y0241649D01*
X0284503Y0242584D02*
X0281551Y0242584D01*
X0281551Y0243519D02*
X0284503Y0243519D01*
X0284503Y0244454D02*
X0281551Y0244454D01*
X0281551Y0245389D02*
X0284503Y0245389D01*
X0284503Y0246324D02*
X0281551Y0246324D01*
X0281551Y0247259D02*
X0284503Y0247259D01*
X0284503Y0248194D02*
X0281551Y0248194D01*
X0291393Y0249524D02*
X0298283Y0249524D01*
X0291393Y0249524D02*
X0291393Y0252476D01*
X0298283Y0252476D01*
X0298283Y0249524D01*
X0298283Y0250459D02*
X0291393Y0250459D01*
X0291393Y0251394D02*
X0298283Y0251394D01*
X0298283Y0252329D02*
X0291393Y0252329D01*
X0291393Y0257398D02*
X0298283Y0257398D01*
X0291393Y0257398D02*
X0291393Y0260350D01*
X0298283Y0260350D01*
X0298283Y0257398D01*
X0298283Y0258333D02*
X0291393Y0258333D01*
X0291393Y0259268D02*
X0298283Y0259268D01*
X0298283Y0260203D02*
X0291393Y0260203D01*
X0291393Y0265272D02*
X0298283Y0265272D01*
X0291393Y0265272D02*
X0291393Y0268224D01*
X0298283Y0268224D01*
X0298283Y0265272D01*
X0298283Y0266207D02*
X0291393Y0266207D01*
X0291393Y0267142D02*
X0298283Y0267142D01*
X0298283Y0268077D02*
X0291393Y0268077D01*
X0291393Y0273146D02*
X0298283Y0273146D01*
X0291393Y0273146D02*
X0291393Y0276098D01*
X0298283Y0276098D01*
X0298283Y0273146D01*
X0298283Y0274081D02*
X0291393Y0274081D01*
X0291393Y0275016D02*
X0298283Y0275016D01*
X0298283Y0275951D02*
X0291393Y0275951D01*
X0291393Y0281020D02*
X0298283Y0281020D01*
X0291393Y0281020D02*
X0291393Y0283972D01*
X0298283Y0283972D01*
X0298283Y0281020D01*
X0298283Y0281955D02*
X0291393Y0281955D01*
X0291393Y0282890D02*
X0298283Y0282890D01*
X0298283Y0283825D02*
X0291393Y0283825D01*
X0291393Y0288894D02*
X0298283Y0288894D01*
X0291393Y0288894D02*
X0291393Y0291846D01*
X0298283Y0291846D01*
X0298283Y0288894D01*
X0298283Y0289829D02*
X0291393Y0289829D01*
X0291393Y0290764D02*
X0298283Y0290764D01*
X0298283Y0291699D02*
X0291393Y0291699D01*
X0291393Y0296768D02*
X0298283Y0296768D01*
X0291393Y0296768D02*
X0291393Y0299720D01*
X0298283Y0299720D01*
X0298283Y0296768D01*
X0298283Y0297703D02*
X0291393Y0297703D01*
X0291393Y0298638D02*
X0298283Y0298638D01*
X0298283Y0299573D02*
X0291393Y0299573D01*
X0291393Y0304642D02*
X0298283Y0304642D01*
X0291393Y0304642D02*
X0291393Y0307594D01*
X0298283Y0307594D01*
X0298283Y0304642D01*
X0298283Y0305577D02*
X0291393Y0305577D01*
X0291393Y0306512D02*
X0298283Y0306512D01*
X0298283Y0307447D02*
X0291393Y0307447D01*
X0312574Y0314051D02*
X0318676Y0314051D01*
X0318676Y0311099D01*
X0312574Y0311099D01*
X0312574Y0314051D01*
X0312574Y0312034D02*
X0318676Y0312034D01*
X0318676Y0312969D02*
X0312574Y0312969D01*
X0312574Y0313904D02*
X0318676Y0313904D01*
X0318676Y0329799D02*
X0312574Y0329799D01*
X0318676Y0329799D02*
X0318676Y0326847D01*
X0312574Y0326847D01*
X0312574Y0329799D01*
X0312574Y0327782D02*
X0318676Y0327782D01*
X0318676Y0328717D02*
X0312574Y0328717D01*
X0312574Y0329652D02*
X0318676Y0329652D01*
X0333834Y0329799D02*
X0339936Y0329799D01*
X0339936Y0326847D01*
X0333834Y0326847D01*
X0333834Y0329799D01*
X0333834Y0327782D02*
X0339936Y0327782D01*
X0339936Y0328717D02*
X0333834Y0328717D01*
X0333834Y0329652D02*
X0339936Y0329652D01*
X0339936Y0314051D02*
X0333834Y0314051D01*
X0339936Y0314051D02*
X0339936Y0311099D01*
X0333834Y0311099D01*
X0333834Y0314051D01*
X0333834Y0312034D02*
X0339936Y0312034D01*
X0339936Y0312969D02*
X0333834Y0312969D01*
X0333834Y0313904D02*
X0339936Y0313904D01*
X0311471Y0272949D02*
X0308519Y0272949D01*
X0308519Y0276295D01*
X0311471Y0276295D01*
X0311471Y0272949D01*
X0311471Y0273884D02*
X0308519Y0273884D01*
X0308519Y0274819D02*
X0311471Y0274819D01*
X0311471Y0275754D02*
X0308519Y0275754D01*
X0304778Y0272949D02*
X0301826Y0272949D01*
X0301826Y0276295D01*
X0304778Y0276295D01*
X0304778Y0272949D01*
X0304778Y0273884D02*
X0301826Y0273884D01*
X0301826Y0274819D02*
X0304778Y0274819D01*
X0304778Y0275754D02*
X0301826Y0275754D01*
X0301826Y0265075D02*
X0304778Y0265075D01*
X0301826Y0265075D02*
X0301826Y0268421D01*
X0304778Y0268421D01*
X0304778Y0265075D01*
X0304778Y0266010D02*
X0301826Y0266010D01*
X0301826Y0266945D02*
X0304778Y0266945D01*
X0304778Y0267880D02*
X0301826Y0267880D01*
X0308519Y0265075D02*
X0311471Y0265075D01*
X0308519Y0265075D02*
X0308519Y0268421D01*
X0311471Y0268421D01*
X0311471Y0265075D01*
X0311471Y0266010D02*
X0308519Y0266010D01*
X0308519Y0266945D02*
X0311471Y0266945D01*
X0311471Y0267880D02*
X0308519Y0267880D01*
X0308519Y0260547D02*
X0311471Y0260547D01*
X0311471Y0257201D01*
X0308519Y0257201D01*
X0308519Y0260547D01*
X0308519Y0258136D02*
X0311471Y0258136D01*
X0311471Y0259071D02*
X0308519Y0259071D01*
X0308519Y0260006D02*
X0311471Y0260006D01*
X0308913Y0253854D02*
X0308913Y0250902D01*
X0308913Y0253854D02*
X0312259Y0253854D01*
X0312259Y0250902D01*
X0308913Y0250902D01*
X0308913Y0251837D02*
X0312259Y0251837D01*
X0312259Y0252772D02*
X0308913Y0252772D01*
X0308913Y0253707D02*
X0312259Y0253707D01*
X0316787Y0253854D02*
X0316787Y0250902D01*
X0316787Y0253854D02*
X0320133Y0253854D01*
X0320133Y0250902D01*
X0316787Y0250902D01*
X0316787Y0251837D02*
X0320133Y0251837D01*
X0320133Y0252772D02*
X0316787Y0252772D01*
X0316787Y0253707D02*
X0320133Y0253707D01*
X0316787Y0247161D02*
X0316787Y0244209D01*
X0316787Y0247161D02*
X0320133Y0247161D01*
X0320133Y0244209D01*
X0316787Y0244209D01*
X0316787Y0245144D02*
X0320133Y0245144D01*
X0320133Y0246079D02*
X0316787Y0246079D01*
X0316787Y0247014D02*
X0320133Y0247014D01*
X0308913Y0247161D02*
X0308913Y0244209D01*
X0308913Y0247161D02*
X0312259Y0247161D01*
X0312259Y0244209D01*
X0308913Y0244209D01*
X0308913Y0245144D02*
X0312259Y0245144D01*
X0312259Y0246079D02*
X0308913Y0246079D01*
X0308913Y0247014D02*
X0312259Y0247014D01*
X0304778Y0260547D02*
X0301826Y0260547D01*
X0304778Y0260547D02*
X0304778Y0257201D01*
X0301826Y0257201D01*
X0301826Y0260547D01*
X0301826Y0258136D02*
X0304778Y0258136D01*
X0304778Y0259071D02*
X0301826Y0259071D01*
X0301826Y0260006D02*
X0304778Y0260006D01*
X0381748Y0253854D02*
X0381748Y0250902D01*
X0381748Y0253854D02*
X0385094Y0253854D01*
X0385094Y0250902D01*
X0381748Y0250902D01*
X0381748Y0251837D02*
X0385094Y0251837D01*
X0385094Y0252772D02*
X0381748Y0252772D01*
X0381748Y0253707D02*
X0385094Y0253707D01*
X0389622Y0253854D02*
X0389622Y0250902D01*
X0389622Y0253854D02*
X0392968Y0253854D01*
X0392968Y0250902D01*
X0389622Y0250902D01*
X0389622Y0251837D02*
X0392968Y0251837D01*
X0392968Y0252772D02*
X0389622Y0252772D01*
X0389622Y0253707D02*
X0392968Y0253707D01*
X0389622Y0247161D02*
X0389622Y0244209D01*
X0389622Y0247161D02*
X0392968Y0247161D01*
X0392968Y0244209D01*
X0389622Y0244209D01*
X0389622Y0245144D02*
X0392968Y0245144D01*
X0392968Y0246079D02*
X0389622Y0246079D01*
X0389622Y0247014D02*
X0392968Y0247014D01*
X0381748Y0247161D02*
X0381748Y0244209D01*
X0381748Y0247161D02*
X0385094Y0247161D01*
X0385094Y0244209D01*
X0381748Y0244209D01*
X0381748Y0245144D02*
X0385094Y0245144D01*
X0385094Y0246079D02*
X0381748Y0246079D01*
X0381748Y0247014D02*
X0385094Y0247014D01*
D12*
X0384799Y0240961D02*
X0382435Y0240961D01*
X0384799Y0240961D02*
X0384799Y0238205D01*
X0382435Y0238205D01*
X0382435Y0240961D01*
X0382435Y0238953D02*
X0384799Y0238953D01*
X0384799Y0239701D02*
X0382435Y0239701D01*
X0382435Y0240449D02*
X0384799Y0240449D01*
X0389916Y0240961D02*
X0392280Y0240961D01*
X0392280Y0238205D01*
X0389916Y0238205D01*
X0389916Y0240961D01*
X0389916Y0238953D02*
X0392280Y0238953D01*
X0392280Y0239701D02*
X0389916Y0239701D01*
X0389916Y0240449D02*
X0392280Y0240449D01*
X0388540Y0232299D02*
X0386176Y0232299D01*
X0388540Y0232299D02*
X0388540Y0229543D01*
X0386176Y0229543D01*
X0386176Y0232299D01*
X0386176Y0230291D02*
X0388540Y0230291D01*
X0388540Y0231039D02*
X0386176Y0231039D01*
X0386176Y0231787D02*
X0388540Y0231787D01*
X0319445Y0240961D02*
X0317081Y0240961D01*
X0319445Y0240961D02*
X0319445Y0238205D01*
X0317081Y0238205D01*
X0317081Y0240961D01*
X0317081Y0238953D02*
X0319445Y0238953D01*
X0319445Y0239701D02*
X0317081Y0239701D01*
X0317081Y0240449D02*
X0319445Y0240449D01*
X0311965Y0240961D02*
X0309601Y0240961D01*
X0311965Y0240961D02*
X0311965Y0238205D01*
X0309601Y0238205D01*
X0309601Y0240961D01*
X0309601Y0238953D02*
X0311965Y0238953D01*
X0311965Y0239701D02*
X0309601Y0239701D01*
X0309601Y0240449D02*
X0311965Y0240449D01*
X0313341Y0232299D02*
X0315705Y0232299D01*
X0315705Y0229543D01*
X0313341Y0229543D01*
X0313341Y0232299D01*
X0313341Y0230291D02*
X0315705Y0230291D01*
X0315705Y0231039D02*
X0313341Y0231039D01*
X0313341Y0231787D02*
X0315705Y0231787D01*
X0207240Y0240961D02*
X0204876Y0240961D01*
X0207240Y0240961D02*
X0207240Y0238205D01*
X0204876Y0238205D01*
X0204876Y0240961D01*
X0204876Y0238953D02*
X0207240Y0238953D01*
X0207240Y0239701D02*
X0204876Y0239701D01*
X0204876Y0240449D02*
X0207240Y0240449D01*
X0199760Y0240961D02*
X0197396Y0240961D01*
X0199760Y0240961D02*
X0199760Y0238205D01*
X0197396Y0238205D01*
X0197396Y0240961D01*
X0197396Y0238953D02*
X0199760Y0238953D01*
X0199760Y0239701D02*
X0197396Y0239701D01*
X0197396Y0240449D02*
X0199760Y0240449D01*
X0201136Y0232299D02*
X0203500Y0232299D01*
X0203500Y0229543D01*
X0201136Y0229543D01*
X0201136Y0232299D01*
X0201136Y0230291D02*
X0203500Y0230291D01*
X0203500Y0231039D02*
X0201136Y0231039D01*
X0201136Y0231787D02*
X0203500Y0231787D01*
X0144248Y0240961D02*
X0141884Y0240961D01*
X0144248Y0240961D02*
X0144248Y0238205D01*
X0141884Y0238205D01*
X0141884Y0240961D01*
X0141884Y0238953D02*
X0144248Y0238953D01*
X0144248Y0239701D02*
X0141884Y0239701D01*
X0141884Y0240449D02*
X0144248Y0240449D01*
X0136768Y0240961D02*
X0134404Y0240961D01*
X0136768Y0240961D02*
X0136768Y0238205D01*
X0134404Y0238205D01*
X0134404Y0240961D01*
X0134404Y0238953D02*
X0136768Y0238953D01*
X0136768Y0239701D02*
X0134404Y0239701D01*
X0134404Y0240449D02*
X0136768Y0240449D01*
X0138144Y0232299D02*
X0140508Y0232299D01*
X0140508Y0229543D01*
X0138144Y0229543D01*
X0138144Y0232299D01*
X0138144Y0230291D02*
X0140508Y0230291D01*
X0140508Y0231039D02*
X0138144Y0231039D01*
X0138144Y0231787D02*
X0140508Y0231787D01*
X0137555Y0328558D02*
X0135191Y0328558D01*
X0135191Y0330922D01*
X0137555Y0330922D01*
X0137555Y0328558D01*
X0137555Y0329306D02*
X0135191Y0329306D01*
X0135191Y0330054D02*
X0137555Y0330054D01*
X0137555Y0330802D02*
X0135191Y0330802D01*
X0131650Y0328558D02*
X0129286Y0328558D01*
X0129286Y0330922D01*
X0131650Y0330922D01*
X0131650Y0328558D01*
X0131650Y0329306D02*
X0129286Y0329306D01*
X0129286Y0330054D02*
X0131650Y0330054D01*
X0131650Y0330802D02*
X0129286Y0330802D01*
D13*
X0123578Y0142457D03*
X0206255Y0142457D03*
X0288932Y0142457D03*
X0371610Y0142457D03*
X0371610Y0052457D03*
X0288932Y0052457D03*
X0206255Y0052457D03*
X0123578Y0052457D03*
D14*
X0119641Y0024622D03*
X0139641Y0024622D03*
X0212161Y0024622D03*
X0232161Y0024622D03*
X0261373Y0024622D03*
X0281373Y0024622D03*
X0310586Y0024622D03*
X0330586Y0024622D03*
X0359798Y0024622D03*
X0379798Y0024622D03*
X0371610Y0153953D03*
X0347987Y0161827D03*
X0312554Y0161827D03*
X0288932Y0153953D03*
X0265310Y0161827D03*
X0229877Y0161827D03*
X0206255Y0153953D03*
X0182633Y0161827D03*
X0147200Y0161827D03*
X0123578Y0153953D03*
X0099956Y0161827D03*
X0099956Y0209858D03*
X0147200Y0209858D03*
X0182633Y0209858D03*
X0229877Y0209858D03*
X0265310Y0209858D03*
X0312554Y0209858D03*
X0347987Y0209858D03*
X0395232Y0209858D03*
X0395232Y0161827D03*
D15*
X0132584Y0277722D02*
X0132584Y0279790D01*
X0135832Y0279790D01*
X0135832Y0277722D01*
X0132584Y0277722D01*
X0132584Y0278377D02*
X0135832Y0278377D01*
X0135832Y0279032D02*
X0132584Y0279032D01*
X0132584Y0279687D02*
X0135832Y0279687D01*
X0132584Y0285202D02*
X0132584Y0287270D01*
X0135832Y0287270D01*
X0135832Y0285202D01*
X0132584Y0285202D01*
X0132584Y0285857D02*
X0135832Y0285857D01*
X0135832Y0286512D02*
X0132584Y0286512D01*
X0132584Y0287167D02*
X0135832Y0287167D01*
X0122741Y0287270D02*
X0122741Y0285202D01*
X0122741Y0287270D02*
X0125989Y0287270D01*
X0125989Y0285202D01*
X0122741Y0285202D01*
X0122741Y0285857D02*
X0125989Y0285857D01*
X0125989Y0286512D02*
X0122741Y0286512D01*
X0122741Y0287167D02*
X0125989Y0287167D01*
X0122741Y0283530D02*
X0122741Y0281462D01*
X0122741Y0283530D02*
X0125989Y0283530D01*
X0125989Y0281462D01*
X0122741Y0281462D01*
X0122741Y0282117D02*
X0125989Y0282117D01*
X0125989Y0282772D02*
X0122741Y0282772D01*
X0122741Y0283427D02*
X0125989Y0283427D01*
X0122741Y0279790D02*
X0122741Y0277722D01*
X0122741Y0279790D02*
X0125989Y0279790D01*
X0125989Y0277722D01*
X0122741Y0277722D01*
X0122741Y0278377D02*
X0125989Y0278377D01*
X0125989Y0279032D02*
X0122741Y0279032D01*
X0122741Y0279687D02*
X0125989Y0279687D01*
D16*
X0171610Y0025311D03*
X0174169Y0025311D03*
X0176728Y0025311D03*
X0179287Y0025311D03*
X0181846Y0025311D03*
D17*
X0188932Y0024819D03*
X0164523Y0024819D03*
D18*
X0161767Y0014780D03*
X0191688Y0014780D03*
D19*
X0181452Y0014780D03*
X0172003Y0014780D03*
D20*
X0418657Y0245055D03*
D21*
X0418657Y0255055D03*
X0418657Y0265055D03*
X0418657Y0275055D03*
X0418657Y0285055D03*
X0418657Y0295055D03*
D22*
X0418854Y0327772D03*
X0080271Y0327772D03*
X0080271Y0024622D03*
X0418854Y0024622D03*
D23*
X0372515Y0227653D02*
X0372515Y0229307D01*
X0374641Y0229307D01*
X0374641Y0227653D01*
X0372515Y0227653D01*
X0372515Y0228176D02*
X0374641Y0228176D01*
X0374641Y0228699D02*
X0372515Y0228699D01*
X0372515Y0229222D02*
X0374641Y0229222D01*
X0372515Y0237260D02*
X0372515Y0238914D01*
X0374641Y0238914D01*
X0374641Y0237260D01*
X0372515Y0237260D01*
X0372515Y0237783D02*
X0374641Y0237783D01*
X0374641Y0238306D02*
X0372515Y0238306D01*
X0372515Y0238829D02*
X0374641Y0238829D01*
X0299680Y0238914D02*
X0299680Y0237260D01*
X0299680Y0238914D02*
X0301806Y0238914D01*
X0301806Y0237260D01*
X0299680Y0237260D01*
X0299680Y0237783D02*
X0301806Y0237783D01*
X0301806Y0238306D02*
X0299680Y0238306D01*
X0299680Y0238829D02*
X0301806Y0238829D01*
X0299680Y0229307D02*
X0299680Y0227653D01*
X0299680Y0229307D02*
X0301806Y0229307D01*
X0301806Y0227653D01*
X0299680Y0227653D01*
X0299680Y0228176D02*
X0301806Y0228176D01*
X0301806Y0228699D02*
X0299680Y0228699D01*
X0299680Y0229222D02*
X0301806Y0229222D01*
X0187476Y0229307D02*
X0187476Y0227653D01*
X0187476Y0229307D02*
X0189602Y0229307D01*
X0189602Y0227653D01*
X0187476Y0227653D01*
X0187476Y0228176D02*
X0189602Y0228176D01*
X0189602Y0228699D02*
X0187476Y0228699D01*
X0187476Y0229222D02*
X0189602Y0229222D01*
X0187476Y0237260D02*
X0187476Y0238914D01*
X0189602Y0238914D01*
X0189602Y0237260D01*
X0187476Y0237260D01*
X0187476Y0237783D02*
X0189602Y0237783D01*
X0189602Y0238306D02*
X0187476Y0238306D01*
X0187476Y0238829D02*
X0189602Y0238829D01*
X0124484Y0238914D02*
X0124484Y0237260D01*
X0124484Y0238914D02*
X0126610Y0238914D01*
X0126610Y0237260D01*
X0124484Y0237260D01*
X0124484Y0237783D02*
X0126610Y0237783D01*
X0126610Y0238306D02*
X0124484Y0238306D01*
X0124484Y0238829D02*
X0126610Y0238829D01*
X0124484Y0229307D02*
X0124484Y0227653D01*
X0124484Y0229307D02*
X0126610Y0229307D01*
X0126610Y0227653D01*
X0124484Y0227653D01*
X0124484Y0228176D02*
X0126610Y0228176D01*
X0126610Y0228699D02*
X0124484Y0228699D01*
X0124484Y0229222D02*
X0126610Y0229222D01*
D24*
X0135586Y0239583D02*
X0135389Y0239780D01*
X0135389Y0245685D01*
X0135389Y0252378D02*
X0143263Y0252378D01*
X0187948Y0252378D01*
X0196413Y0260843D01*
X0198381Y0252378D02*
X0206255Y0252378D01*
X0206255Y0254937D01*
X0204287Y0256906D01*
X0212161Y0264780D02*
X0225940Y0264780D01*
X0231846Y0258874D01*
X0231846Y0266748D02*
X0227909Y0266748D01*
X0225940Y0268717D01*
X0204287Y0268717D01*
X0212456Y0286728D02*
X0178991Y0286728D01*
X0204877Y0290370D02*
X0204877Y0294898D01*
X0210980Y0301000D01*
X0210980Y0312024D01*
X0218066Y0312024D01*
X0222842Y0307248D01*
X0222842Y0307131D01*
X0223855Y0306118D01*
X0231846Y0306118D01*
X0231846Y0290370D02*
X0223381Y0290370D01*
X0216688Y0290370D02*
X0214129Y0287811D01*
X0213834Y0288106D01*
X0212456Y0286728D01*
X0213834Y0288106D02*
X0211570Y0290370D01*
X0210980Y0312024D02*
X0189720Y0312024D01*
X0136767Y0321866D02*
X0136373Y0322260D01*
X0136373Y0329740D01*
X0130468Y0329740D02*
X0130468Y0326787D01*
X0132124Y0325131D01*
X0132210Y0325131D01*
X0133698Y0323643D01*
X0133698Y0319533D01*
X0134208Y0319024D01*
X0134208Y0286236D01*
X0143263Y0245685D02*
X0143263Y0239780D01*
X0143066Y0239583D01*
X0198381Y0239780D02*
X0198381Y0245685D01*
X0198381Y0239780D02*
X0198578Y0239583D01*
X0206058Y0239583D02*
X0206058Y0245488D01*
X0206255Y0245685D01*
X0294838Y0258874D02*
X0303302Y0258874D01*
X0303302Y0266748D02*
X0294838Y0266748D01*
X0294838Y0274622D02*
X0303302Y0274622D01*
X0303302Y0277181D01*
X0315625Y0289504D01*
X0315625Y0312024D01*
X0316176Y0312575D01*
X0336885Y0312575D01*
X0315625Y0312575D02*
X0315625Y0312024D01*
X0308617Y0307792D02*
X0308617Y0317635D01*
X0310733Y0319751D01*
X0373961Y0319751D01*
X0418657Y0275055D01*
X0418657Y0285055D02*
X0410920Y0285055D01*
X0374108Y0321866D01*
X0310586Y0321866D01*
X0306649Y0317929D01*
X0306649Y0308087D01*
X0304680Y0306118D01*
X0294838Y0306118D01*
X0294838Y0298244D02*
X0299069Y0298244D01*
X0308617Y0307792D01*
X0300743Y0290370D02*
X0294838Y0290370D01*
X0300743Y0290370D02*
X0302712Y0288402D01*
X0300743Y0282496D02*
X0294838Y0282496D01*
X0316491Y0280528D02*
X0318460Y0278559D01*
X0318460Y0252378D01*
X0310586Y0252378D01*
X0318263Y0245488D02*
X0318460Y0245685D01*
X0318263Y0245488D02*
X0318263Y0239583D01*
X0318460Y0284465D02*
X0351334Y0284465D01*
X0383421Y0252378D01*
X0391295Y0252378D01*
X0391295Y0245685D02*
X0391295Y0239780D01*
X0391098Y0239583D01*
D25*
X0386255Y0228480D02*
X0387358Y0227378D01*
X0386255Y0228480D02*
X0373578Y0228480D01*
X0370743Y0235252D02*
X0338145Y0235252D01*
X0303499Y0235252D01*
X0301924Y0235252D02*
X0297909Y0235252D01*
X0300743Y0238087D01*
X0297909Y0235252D02*
X0255468Y0235252D01*
X0191295Y0235252D01*
X0189720Y0235252D02*
X0185704Y0235252D01*
X0188539Y0238087D01*
X0185704Y0235252D02*
X0172791Y0235252D01*
X0128302Y0235252D01*
X0126728Y0235252D02*
X0122712Y0235252D01*
X0125547Y0238087D01*
X0122712Y0235252D02*
X0084208Y0235252D01*
X0084208Y0251000D01*
X0107830Y0274622D01*
X0107830Y0286433D02*
X0117082Y0286433D01*
X0117279Y0286236D01*
X0124365Y0286236D01*
X0127712Y0286236D01*
X0129484Y0284465D01*
X0129484Y0280528D01*
X0127712Y0278756D01*
X0124365Y0278756D01*
X0117673Y0285843D02*
X0117279Y0286236D01*
X0134208Y0286236D02*
X0140901Y0286236D01*
X0141295Y0285843D01*
X0138224Y0228480D02*
X0125547Y0228480D01*
X0138224Y0228480D02*
X0139326Y0227378D01*
X0188539Y0228480D02*
X0201216Y0228480D01*
X0202318Y0227378D01*
X0214129Y0251591D02*
X0222003Y0251591D01*
X0224562Y0252378D01*
X0225940Y0251000D01*
X0231846Y0251000D01*
X0300743Y0228480D02*
X0311452Y0228480D01*
X0311767Y0228165D01*
X0370743Y0235252D02*
X0373578Y0238087D01*
X0168854Y0032496D02*
X0159011Y0032496D01*
X0153106Y0026591D01*
X0153106Y0020685D01*
X0151137Y0018717D01*
X0171610Y0025311D02*
X0171610Y0029740D01*
X0168854Y0032496D01*
D26*
X0170576Y0034450D02*
X0192001Y0034450D01*
X0193599Y0032852D02*
X0172175Y0032852D01*
X0171058Y0033969D02*
X0170326Y0034700D01*
X0169371Y0035096D01*
X0158494Y0035096D01*
X0157538Y0034700D01*
X0151633Y0028795D01*
X0150901Y0028063D01*
X0150506Y0027108D01*
X0150506Y0022479D01*
X0150389Y0022479D01*
X0149006Y0021906D01*
X0147948Y0020848D01*
X0147375Y0019465D01*
X0147375Y0017968D01*
X0147948Y0016585D01*
X0149006Y0015527D01*
X0150389Y0014954D01*
X0151885Y0014954D01*
X0153268Y0015527D01*
X0154327Y0016585D01*
X0154899Y0017968D01*
X0154899Y0018802D01*
X0155310Y0019212D01*
X0155706Y0020168D01*
X0155706Y0025514D01*
X0160088Y0029896D01*
X0167777Y0029896D01*
X0168304Y0029368D01*
X0159809Y0029368D01*
X0158989Y0028548D01*
X0158989Y0021089D01*
X0159809Y0020269D01*
X0169237Y0020269D01*
X0170057Y0021089D01*
X0170057Y0021439D01*
X0170242Y0021254D01*
X0179913Y0021254D01*
X0179953Y0021213D01*
X0180364Y0020976D01*
X0180821Y0020854D01*
X0181846Y0020854D01*
X0182870Y0020854D01*
X0183328Y0020976D01*
X0183444Y0021043D01*
X0184219Y0020269D01*
X0193646Y0020269D01*
X0194466Y0021089D01*
X0194466Y0028548D01*
X0193646Y0029368D01*
X0184219Y0029368D01*
X0183999Y0029149D01*
X0183738Y0029409D01*
X0183328Y0029646D01*
X0182870Y0029768D01*
X0181846Y0029768D01*
X0181846Y0025311D01*
X0181846Y0020854D01*
X0181846Y0025311D01*
X0181846Y0025311D01*
X0181846Y0025311D01*
X0181846Y0029346D01*
X0178696Y0032496D01*
X0180364Y0029646D02*
X0179953Y0029409D01*
X0179913Y0029368D01*
X0174210Y0029368D01*
X0174210Y0030257D01*
X0173814Y0031213D01*
X0171058Y0033969D01*
X0173773Y0031253D02*
X0195198Y0031253D01*
X0196797Y0029655D02*
X0183295Y0029655D01*
X0181846Y0029655D02*
X0181846Y0029655D01*
X0181846Y0029768D02*
X0180821Y0029768D01*
X0180364Y0029646D01*
X0180397Y0029655D02*
X0174210Y0029655D01*
X0168018Y0029655D02*
X0159847Y0029655D01*
X0158989Y0028056D02*
X0158248Y0028056D01*
X0158989Y0026458D02*
X0156650Y0026458D01*
X0155706Y0024859D02*
X0158989Y0024859D01*
X0158989Y0023261D02*
X0155706Y0023261D01*
X0155706Y0021662D02*
X0158989Y0021662D01*
X0157644Y0019920D02*
X0156824Y0019100D01*
X0156824Y0010674D01*
X0129484Y0010674D01*
X0129484Y0045151D01*
X0181300Y0045151D01*
X0208022Y0018429D01*
X0210708Y0017317D01*
X0213614Y0017317D01*
X0216299Y0018429D01*
X0218354Y0020484D01*
X0219466Y0023169D01*
X0219466Y0026075D01*
X0218354Y0028760D01*
X0194933Y0052181D01*
X0198950Y0052181D01*
X0198950Y0051004D01*
X0200062Y0048318D01*
X0202117Y0046263D01*
X0204802Y0045151D01*
X0230513Y0045151D01*
X0257235Y0018429D01*
X0259920Y0017317D01*
X0262826Y0017317D01*
X0265512Y0018429D01*
X0267567Y0020484D01*
X0268679Y0023169D01*
X0268679Y0026075D01*
X0267567Y0028760D01*
X0244146Y0052181D01*
X0281627Y0052181D01*
X0281627Y0051004D01*
X0282739Y0048318D01*
X0303280Y0027777D01*
X0303280Y0023169D01*
X0304393Y0020484D01*
X0306448Y0018429D01*
X0309133Y0017317D01*
X0312039Y0017317D01*
X0314724Y0018429D01*
X0316779Y0020484D01*
X0317891Y0023169D01*
X0317891Y0032256D01*
X0316779Y0034941D01*
X0314724Y0036996D01*
X0299539Y0052181D01*
X0361002Y0052181D01*
X0355660Y0046839D01*
X0353605Y0044784D01*
X0352493Y0042099D01*
X0352493Y0023169D01*
X0353605Y0020484D01*
X0355660Y0018429D01*
X0358345Y0017317D01*
X0361252Y0017317D01*
X0363937Y0018429D01*
X0365992Y0020484D01*
X0367104Y0023169D01*
X0367104Y0037620D01*
X0377803Y0048318D01*
X0378915Y0051004D01*
X0378915Y0052181D01*
X0432802Y0052181D01*
X0432802Y0024622D01*
X0432682Y0022801D01*
X0431740Y0019284D01*
X0429919Y0016131D01*
X0427345Y0013556D01*
X0424191Y0011736D01*
X0420674Y0010793D01*
X0418854Y0010674D01*
X0196632Y0010674D01*
X0196632Y0019100D01*
X0195811Y0019920D01*
X0187565Y0019920D01*
X0186745Y0019100D01*
X0186745Y0010674D01*
X0186592Y0010674D01*
X0186592Y0019100D01*
X0185772Y0019920D01*
X0177132Y0019920D01*
X0176728Y0019515D01*
X0176323Y0019920D01*
X0167683Y0019920D01*
X0166863Y0019100D01*
X0166863Y0010674D01*
X0166710Y0010674D01*
X0166710Y0019100D01*
X0165890Y0019920D01*
X0157644Y0019920D01*
X0156824Y0018465D02*
X0154899Y0018465D01*
X0154443Y0016867D02*
X0156824Y0016867D01*
X0156824Y0015268D02*
X0152643Y0015268D01*
X0149631Y0015268D02*
X0129484Y0015268D01*
X0129484Y0013670D02*
X0156824Y0013670D01*
X0156824Y0012071D02*
X0129484Y0012071D01*
X0127284Y0012071D02*
X0083272Y0012071D01*
X0081969Y0011722D02*
X0085250Y0012601D01*
X0088192Y0014299D01*
X0090594Y0016701D01*
X0092292Y0019643D01*
X0093171Y0022924D01*
X0093171Y0026320D01*
X0092292Y0029601D01*
X0090594Y0032543D01*
X0088192Y0034945D01*
X0085250Y0036643D01*
X0081969Y0037522D01*
X0078573Y0037522D01*
X0075292Y0036643D01*
X0072350Y0034945D01*
X0069948Y0032543D01*
X0068250Y0029601D01*
X0067371Y0026320D01*
X0067371Y0022924D01*
X0068250Y0019643D01*
X0069948Y0016701D01*
X0072350Y0014299D01*
X0075292Y0012601D01*
X0078573Y0011722D01*
X0081969Y0011722D01*
X0080271Y0010674D02*
X0078450Y0010793D01*
X0074933Y0011736D01*
X0071780Y0013556D01*
X0069205Y0016131D01*
X0067385Y0019284D01*
X0066442Y0022801D01*
X0066323Y0024622D01*
X0066323Y0233052D01*
X0081087Y0233052D01*
X0082077Y0232063D01*
X0083460Y0231490D01*
X0084956Y0231490D01*
X0086339Y0232063D01*
X0086929Y0232652D01*
X0127245Y0232652D01*
X0127515Y0232764D01*
X0127785Y0232652D01*
X0136351Y0232652D01*
X0136351Y0231080D01*
X0125029Y0231080D01*
X0124794Y0230983D01*
X0123789Y0230983D01*
X0122808Y0230001D01*
X0122808Y0226959D01*
X0123789Y0225978D01*
X0124794Y0225978D01*
X0125029Y0225880D01*
X0137126Y0225880D01*
X0137126Y0168790D01*
X0142204Y0163712D01*
X0141863Y0162888D01*
X0141863Y0160765D01*
X0142676Y0158804D01*
X0144177Y0157302D01*
X0146138Y0156490D01*
X0148262Y0156490D01*
X0150223Y0157302D01*
X0151725Y0158804D01*
X0152537Y0160765D01*
X0152537Y0162888D01*
X0151725Y0164850D01*
X0150223Y0166351D01*
X0148262Y0167164D01*
X0146138Y0167164D01*
X0145315Y0166823D01*
X0141526Y0170612D01*
X0141526Y0225901D01*
X0141530Y0225905D01*
X0141926Y0226861D01*
X0141926Y0227895D01*
X0141771Y0228270D01*
X0142301Y0228800D01*
X0142301Y0232652D01*
X0170591Y0232652D01*
X0170591Y0170758D01*
X0171879Y0169469D01*
X0177637Y0163712D01*
X0177296Y0162888D01*
X0177296Y0160765D01*
X0178109Y0158804D01*
X0179610Y0157302D01*
X0181572Y0156490D01*
X0183695Y0156490D01*
X0185656Y0157302D01*
X0187158Y0158804D01*
X0187970Y0160765D01*
X0187970Y0162888D01*
X0187158Y0164850D01*
X0185656Y0166351D01*
X0183695Y0167164D01*
X0181572Y0167164D01*
X0180748Y0166823D01*
X0174991Y0172581D01*
X0174991Y0232652D01*
X0190237Y0232652D01*
X0190507Y0232764D01*
X0190777Y0232652D01*
X0199343Y0232652D01*
X0199343Y0231080D01*
X0188021Y0231080D01*
X0187786Y0230983D01*
X0186782Y0230983D01*
X0185800Y0230001D01*
X0185800Y0226959D01*
X0186782Y0225978D01*
X0187786Y0225978D01*
X0188021Y0225880D01*
X0200118Y0225880D01*
X0200118Y0188475D01*
X0224881Y0163712D01*
X0224540Y0162888D01*
X0224540Y0160765D01*
X0225353Y0158804D01*
X0226854Y0157302D01*
X0228816Y0156490D01*
X0230939Y0156490D01*
X0232900Y0157302D01*
X0234402Y0158804D01*
X0235214Y0160765D01*
X0235214Y0162888D01*
X0234402Y0164850D01*
X0232900Y0166351D01*
X0230939Y0167164D01*
X0228816Y0167164D01*
X0227992Y0166823D01*
X0204518Y0190297D01*
X0204518Y0225901D01*
X0204522Y0225905D01*
X0204918Y0226861D01*
X0204918Y0227895D01*
X0204763Y0228270D01*
X0205293Y0228800D01*
X0205293Y0232652D01*
X0253268Y0232652D01*
X0253268Y0170758D01*
X0254557Y0169469D01*
X0260314Y0163712D01*
X0259973Y0162888D01*
X0259973Y0160765D01*
X0260786Y0158804D01*
X0262287Y0157302D01*
X0264249Y0156490D01*
X0266372Y0156490D01*
X0268333Y0157302D01*
X0269835Y0158804D01*
X0270647Y0160765D01*
X0270647Y0162888D01*
X0269835Y0164850D01*
X0268333Y0166351D01*
X0266372Y0167164D01*
X0264249Y0167164D01*
X0263426Y0166823D01*
X0257668Y0172581D01*
X0257668Y0232652D01*
X0302442Y0232652D01*
X0302712Y0232764D01*
X0302982Y0232652D01*
X0311548Y0232652D01*
X0311548Y0231080D01*
X0300226Y0231080D01*
X0299990Y0230983D01*
X0298986Y0230983D01*
X0298005Y0230001D01*
X0298005Y0226959D01*
X0298986Y0225978D01*
X0299990Y0225978D01*
X0300226Y0225880D01*
X0306371Y0225880D01*
X0303769Y0223279D01*
X0302480Y0221990D01*
X0302480Y0168790D01*
X0303769Y0167501D01*
X0307558Y0163712D01*
X0307217Y0162888D01*
X0307217Y0160765D01*
X0308030Y0158804D01*
X0309531Y0157302D01*
X0311493Y0156490D01*
X0313616Y0156490D01*
X0315578Y0157302D01*
X0317079Y0158804D01*
X0317891Y0160765D01*
X0317891Y0162888D01*
X0317079Y0164850D01*
X0315578Y0166351D01*
X0313616Y0167164D01*
X0311493Y0167164D01*
X0310670Y0166823D01*
X0306880Y0170612D01*
X0306880Y0220167D01*
X0312278Y0225565D01*
X0312284Y0225565D01*
X0313240Y0225961D01*
X0313971Y0226693D01*
X0314367Y0227648D01*
X0314367Y0227654D01*
X0314463Y0227750D01*
X0316447Y0227750D01*
X0317498Y0228800D01*
X0317498Y0232652D01*
X0335945Y0232652D01*
X0335945Y0170758D01*
X0337234Y0169469D01*
X0342991Y0163712D01*
X0342650Y0162888D01*
X0342650Y0160765D01*
X0343463Y0158804D01*
X0344964Y0157302D01*
X0346926Y0156490D01*
X0349049Y0156490D01*
X0351011Y0157302D01*
X0352512Y0158804D01*
X0353324Y0160765D01*
X0353324Y0162888D01*
X0352512Y0164850D01*
X0351011Y0166351D01*
X0349049Y0167164D01*
X0346926Y0167164D01*
X0346103Y0166823D01*
X0340345Y0172581D01*
X0340345Y0232652D01*
X0371261Y0232652D01*
X0372216Y0233048D01*
X0372220Y0233052D01*
X0384393Y0233052D01*
X0384383Y0233042D01*
X0384383Y0231080D01*
X0373061Y0231080D01*
X0372825Y0230983D01*
X0371821Y0230983D01*
X0370839Y0230001D01*
X0370839Y0226959D01*
X0371821Y0225978D01*
X0372825Y0225978D01*
X0373061Y0225880D01*
X0385158Y0225880D01*
X0385158Y0168790D01*
X0386446Y0167501D01*
X0390236Y0163712D01*
X0389895Y0162888D01*
X0389895Y0160765D01*
X0390707Y0158804D01*
X0392208Y0157302D01*
X0394170Y0156490D01*
X0396293Y0156490D01*
X0398255Y0157302D01*
X0399756Y0158804D01*
X0400569Y0160765D01*
X0400569Y0162888D01*
X0399756Y0164850D01*
X0398255Y0166351D01*
X0396293Y0167164D01*
X0394170Y0167164D01*
X0393347Y0166823D01*
X0389558Y0170612D01*
X0389558Y0225901D01*
X0389562Y0225905D01*
X0389958Y0226861D01*
X0389958Y0227895D01*
X0389802Y0228270D01*
X0390332Y0228800D01*
X0390332Y0233042D01*
X0390323Y0233052D01*
X0432802Y0233052D01*
X0432802Y0054381D01*
X0378720Y0054381D01*
X0377803Y0056595D01*
X0375748Y0058650D01*
X0373063Y0059762D01*
X0370156Y0059762D01*
X0367471Y0058650D01*
X0363202Y0054381D01*
X0297340Y0054381D01*
X0293071Y0058650D01*
X0290386Y0059762D01*
X0287479Y0059762D01*
X0284794Y0058650D01*
X0282739Y0056595D01*
X0281822Y0054381D01*
X0241946Y0054381D01*
X0237677Y0058650D01*
X0234992Y0059762D01*
X0204802Y0059762D01*
X0202117Y0058650D01*
X0200062Y0056595D01*
X0199145Y0054381D01*
X0192733Y0054381D01*
X0188464Y0058650D01*
X0185779Y0059762D01*
X0122125Y0059762D01*
X0119440Y0058650D01*
X0117385Y0056595D01*
X0116273Y0053910D01*
X0116273Y0051004D01*
X0117385Y0048318D01*
X0119440Y0046263D01*
X0122125Y0045151D01*
X0127284Y0045151D01*
X0127284Y0010674D01*
X0080271Y0010674D01*
X0077270Y0012071D02*
X0074353Y0012071D01*
X0073441Y0013670D02*
X0071667Y0013670D01*
X0071382Y0015268D02*
X0070068Y0015268D01*
X0069853Y0016867D02*
X0068781Y0016867D01*
X0068930Y0018465D02*
X0067858Y0018465D01*
X0068137Y0020064D02*
X0067176Y0020064D01*
X0066748Y0021662D02*
X0067709Y0021662D01*
X0067371Y0023261D02*
X0066412Y0023261D01*
X0066323Y0024859D02*
X0067371Y0024859D01*
X0067408Y0026458D02*
X0066323Y0026458D01*
X0066323Y0028056D02*
X0067836Y0028056D01*
X0068281Y0029655D02*
X0066323Y0029655D01*
X0066323Y0031253D02*
X0069204Y0031253D01*
X0070257Y0032852D02*
X0066323Y0032852D01*
X0066323Y0034450D02*
X0071856Y0034450D01*
X0074263Y0036049D02*
X0066323Y0036049D01*
X0066323Y0037647D02*
X0127284Y0037647D01*
X0127284Y0036049D02*
X0086279Y0036049D01*
X0088686Y0034450D02*
X0127284Y0034450D01*
X0127284Y0032852D02*
X0090285Y0032852D01*
X0091338Y0031253D02*
X0127284Y0031253D01*
X0127284Y0029655D02*
X0122401Y0029655D01*
X0122648Y0029529D02*
X0121843Y0029939D01*
X0120984Y0030218D01*
X0120121Y0030355D01*
X0120121Y0025102D01*
X0125374Y0025102D01*
X0125237Y0025965D01*
X0124958Y0026824D01*
X0124548Y0027629D01*
X0124017Y0028359D01*
X0123378Y0028998D01*
X0122648Y0029529D01*
X0124237Y0028056D02*
X0127284Y0028056D01*
X0127284Y0026458D02*
X0125077Y0026458D01*
X0125374Y0024142D02*
X0120121Y0024142D01*
X0120121Y0025102D01*
X0119161Y0025102D01*
X0119161Y0030355D01*
X0118298Y0030218D01*
X0117439Y0029939D01*
X0116634Y0029529D01*
X0115904Y0028998D01*
X0115265Y0028359D01*
X0114734Y0027629D01*
X0114324Y0026824D01*
X0114045Y0025965D01*
X0113908Y0025102D01*
X0119161Y0025102D01*
X0119161Y0024142D01*
X0120121Y0024142D01*
X0120121Y0018889D01*
X0120984Y0019026D01*
X0121843Y0019305D01*
X0122648Y0019715D01*
X0123378Y0020246D01*
X0124017Y0020885D01*
X0124548Y0021615D01*
X0124958Y0022420D01*
X0125237Y0023279D01*
X0125374Y0024142D01*
X0125231Y0023261D02*
X0127284Y0023261D01*
X0127284Y0024859D02*
X0120121Y0024859D01*
X0119161Y0024859D02*
X0093171Y0024859D01*
X0093171Y0023261D02*
X0114051Y0023261D01*
X0114045Y0023279D02*
X0114324Y0022420D01*
X0114734Y0021615D01*
X0115265Y0020885D01*
X0115904Y0020246D01*
X0116634Y0019715D01*
X0117439Y0019305D01*
X0118298Y0019026D01*
X0119161Y0018889D01*
X0119161Y0024142D01*
X0113908Y0024142D01*
X0114045Y0023279D01*
X0114710Y0021662D02*
X0092833Y0021662D01*
X0092405Y0020064D02*
X0116155Y0020064D01*
X0119161Y0020064D02*
X0120121Y0020064D01*
X0120121Y0021662D02*
X0119161Y0021662D01*
X0119161Y0023261D02*
X0120121Y0023261D01*
X0120121Y0026458D02*
X0119161Y0026458D01*
X0119161Y0028056D02*
X0120121Y0028056D01*
X0120121Y0029655D02*
X0119161Y0029655D01*
X0116881Y0029655D02*
X0092261Y0029655D01*
X0092706Y0028056D02*
X0115045Y0028056D01*
X0114205Y0026458D02*
X0093134Y0026458D01*
X0091612Y0018465D02*
X0127284Y0018465D01*
X0127284Y0016867D02*
X0090689Y0016867D01*
X0089160Y0015268D02*
X0127284Y0015268D01*
X0127284Y0013670D02*
X0087101Y0013670D01*
X0066323Y0039246D02*
X0127284Y0039246D01*
X0127284Y0040844D02*
X0066323Y0040844D01*
X0066323Y0042443D02*
X0127284Y0042443D01*
X0127284Y0044041D02*
X0066323Y0044041D01*
X0066323Y0045640D02*
X0120945Y0045640D01*
X0118465Y0047238D02*
X0066323Y0047238D01*
X0066323Y0048837D02*
X0117170Y0048837D01*
X0116508Y0050435D02*
X0066323Y0050435D01*
X0066323Y0052034D02*
X0116273Y0052034D01*
X0116273Y0053632D02*
X0066323Y0053632D01*
X0066323Y0055231D02*
X0116820Y0055231D01*
X0117619Y0056829D02*
X0066323Y0056829D01*
X0066323Y0058428D02*
X0119218Y0058428D01*
X0129484Y0044041D02*
X0182410Y0044041D01*
X0184008Y0042443D02*
X0129484Y0042443D01*
X0129484Y0040844D02*
X0185607Y0040844D01*
X0187205Y0039246D02*
X0129484Y0039246D01*
X0129484Y0037647D02*
X0188804Y0037647D01*
X0190402Y0036049D02*
X0129484Y0036049D01*
X0129484Y0034450D02*
X0157288Y0034450D01*
X0155690Y0032852D02*
X0129484Y0032852D01*
X0129484Y0031253D02*
X0154091Y0031253D01*
X0152493Y0029655D02*
X0142401Y0029655D01*
X0142648Y0029529D02*
X0141843Y0029939D01*
X0140984Y0030218D01*
X0140121Y0030355D01*
X0140121Y0025102D01*
X0145374Y0025102D01*
X0145237Y0025965D01*
X0144958Y0026824D01*
X0144548Y0027629D01*
X0144017Y0028359D01*
X0143378Y0028998D01*
X0142648Y0029529D01*
X0144237Y0028056D02*
X0150898Y0028056D01*
X0151633Y0028795D02*
X0151633Y0028795D01*
X0150506Y0026458D02*
X0145077Y0026458D01*
X0145374Y0024142D02*
X0140121Y0024142D01*
X0140121Y0025102D01*
X0139161Y0025102D01*
X0139161Y0030355D01*
X0138298Y0030218D01*
X0137439Y0029939D01*
X0136634Y0029529D01*
X0135904Y0028998D01*
X0135265Y0028359D01*
X0134734Y0027629D01*
X0134324Y0026824D01*
X0134045Y0025965D01*
X0133908Y0025102D01*
X0139161Y0025102D01*
X0139161Y0024142D01*
X0140121Y0024142D01*
X0140121Y0018889D01*
X0140984Y0019026D01*
X0141843Y0019305D01*
X0142648Y0019715D01*
X0143378Y0020246D01*
X0144017Y0020885D01*
X0144548Y0021615D01*
X0144958Y0022420D01*
X0145237Y0023279D01*
X0145374Y0024142D01*
X0145231Y0023261D02*
X0150506Y0023261D01*
X0150506Y0024859D02*
X0140121Y0024859D01*
X0139161Y0024859D02*
X0129484Y0024859D01*
X0129484Y0023261D02*
X0134051Y0023261D01*
X0134045Y0023279D02*
X0134324Y0022420D01*
X0134734Y0021615D01*
X0135265Y0020885D01*
X0135904Y0020246D01*
X0136634Y0019715D01*
X0137439Y0019305D01*
X0138298Y0019026D01*
X0139161Y0018889D01*
X0139161Y0024142D01*
X0133908Y0024142D01*
X0134045Y0023279D01*
X0134710Y0021662D02*
X0129484Y0021662D01*
X0129484Y0020064D02*
X0136155Y0020064D01*
X0139161Y0020064D02*
X0140121Y0020064D01*
X0140121Y0021662D02*
X0139161Y0021662D01*
X0139161Y0023261D02*
X0140121Y0023261D01*
X0140121Y0026458D02*
X0139161Y0026458D01*
X0139161Y0028056D02*
X0140121Y0028056D01*
X0140121Y0029655D02*
X0139161Y0029655D01*
X0136881Y0029655D02*
X0129484Y0029655D01*
X0129484Y0028056D02*
X0135045Y0028056D01*
X0134205Y0026458D02*
X0129484Y0026458D01*
X0127284Y0021662D02*
X0124572Y0021662D01*
X0123127Y0020064D02*
X0127284Y0020064D01*
X0129484Y0018465D02*
X0147375Y0018465D01*
X0147623Y0020064D02*
X0143127Y0020064D01*
X0144572Y0021662D02*
X0148762Y0021662D01*
X0147831Y0016867D02*
X0129484Y0016867D01*
X0155662Y0020064D02*
X0206388Y0020064D01*
X0207986Y0018465D02*
X0196632Y0018465D01*
X0196632Y0016867D02*
X0408040Y0016867D01*
X0408158Y0016690D02*
X0408987Y0015680D01*
X0409911Y0014756D01*
X0410921Y0013927D01*
X0412008Y0013200D01*
X0413160Y0012584D01*
X0414368Y0012084D01*
X0415618Y0011705D01*
X0416900Y0011450D01*
X0418054Y0011336D01*
X0418054Y0023822D01*
X0419654Y0023822D01*
X0419654Y0025422D01*
X0432139Y0025422D01*
X0432026Y0026576D01*
X0431771Y0027858D01*
X0431391Y0029108D01*
X0430891Y0030315D01*
X0430275Y0031468D01*
X0429549Y0032554D01*
X0428720Y0033565D01*
X0427796Y0034489D01*
X0426786Y0035318D01*
X0425699Y0036044D01*
X0424547Y0036660D01*
X0423340Y0037160D01*
X0422089Y0037539D01*
X0420807Y0037794D01*
X0419654Y0037908D01*
X0419654Y0025422D01*
X0418054Y0025422D01*
X0418054Y0037908D01*
X0416900Y0037794D01*
X0415618Y0037539D01*
X0414368Y0037160D01*
X0413160Y0036660D01*
X0412008Y0036044D01*
X0410921Y0035318D01*
X0409911Y0034489D01*
X0408987Y0033565D01*
X0408158Y0032554D01*
X0407432Y0031468D01*
X0406816Y0030315D01*
X0406316Y0029108D01*
X0405937Y0027858D01*
X0405682Y0026576D01*
X0405568Y0025422D01*
X0418054Y0025422D01*
X0418054Y0023822D01*
X0405568Y0023822D01*
X0405682Y0022668D01*
X0405937Y0021387D01*
X0406316Y0020136D01*
X0406816Y0018929D01*
X0407432Y0017776D01*
X0408158Y0016690D01*
X0409399Y0015268D02*
X0196632Y0015268D01*
X0196632Y0013670D02*
X0411306Y0013670D01*
X0414412Y0012071D02*
X0196632Y0012071D01*
X0194466Y0021662D02*
X0204789Y0021662D01*
X0203191Y0023261D02*
X0194466Y0023261D01*
X0194466Y0024859D02*
X0201592Y0024859D01*
X0199994Y0026458D02*
X0194466Y0026458D01*
X0194466Y0028056D02*
X0198395Y0028056D01*
X0209467Y0037647D02*
X0238017Y0037647D01*
X0239615Y0036049D02*
X0211066Y0036049D01*
X0212664Y0034450D02*
X0241214Y0034450D01*
X0242812Y0032852D02*
X0214263Y0032852D01*
X0215861Y0031253D02*
X0244411Y0031253D01*
X0246009Y0029655D02*
X0234920Y0029655D01*
X0235168Y0029529D02*
X0234363Y0029939D01*
X0233504Y0030218D01*
X0232640Y0030355D01*
X0232640Y0025102D01*
X0231681Y0025102D01*
X0231681Y0030355D01*
X0230817Y0030218D01*
X0229958Y0029939D01*
X0229154Y0029529D01*
X0228423Y0028998D01*
X0227785Y0028359D01*
X0227254Y0027629D01*
X0226844Y0026824D01*
X0226565Y0025965D01*
X0226428Y0025102D01*
X0231681Y0025102D01*
X0231681Y0024142D01*
X0232640Y0024142D01*
X0232640Y0018889D01*
X0233504Y0019026D01*
X0234363Y0019305D01*
X0235168Y0019715D01*
X0235898Y0020246D01*
X0236537Y0020885D01*
X0237067Y0021615D01*
X0237477Y0022420D01*
X0237756Y0023279D01*
X0237893Y0024142D01*
X0232640Y0024142D01*
X0232640Y0025102D01*
X0237893Y0025102D01*
X0237756Y0025965D01*
X0237477Y0026824D01*
X0237067Y0027629D01*
X0236537Y0028359D01*
X0235898Y0028998D01*
X0235168Y0029529D01*
X0236757Y0028056D02*
X0247608Y0028056D01*
X0249206Y0026458D02*
X0237597Y0026458D01*
X0237751Y0023261D02*
X0252403Y0023261D01*
X0250805Y0024859D02*
X0232640Y0024859D01*
X0231681Y0024859D02*
X0219466Y0024859D01*
X0219466Y0023261D02*
X0226571Y0023261D01*
X0226565Y0023279D02*
X0226844Y0022420D01*
X0227254Y0021615D01*
X0227785Y0020885D01*
X0228423Y0020246D01*
X0229154Y0019715D01*
X0229958Y0019305D01*
X0230817Y0019026D01*
X0231681Y0018889D01*
X0231681Y0024142D01*
X0226428Y0024142D01*
X0226565Y0023279D01*
X0227230Y0021662D02*
X0218842Y0021662D01*
X0217934Y0020064D02*
X0228674Y0020064D01*
X0231681Y0020064D02*
X0232640Y0020064D01*
X0232640Y0021662D02*
X0231681Y0021662D01*
X0231681Y0023261D02*
X0232640Y0023261D01*
X0232640Y0026458D02*
X0231681Y0026458D01*
X0231681Y0028056D02*
X0232640Y0028056D01*
X0232640Y0029655D02*
X0231681Y0029655D01*
X0229401Y0029655D02*
X0217460Y0029655D01*
X0218646Y0028056D02*
X0227564Y0028056D01*
X0226725Y0026458D02*
X0219308Y0026458D01*
X0216335Y0018465D02*
X0257199Y0018465D01*
X0255600Y0020064D02*
X0235647Y0020064D01*
X0237091Y0021662D02*
X0254002Y0021662D01*
X0265548Y0018465D02*
X0306411Y0018465D01*
X0304813Y0020064D02*
X0284859Y0020064D01*
X0285111Y0020246D02*
X0285749Y0020885D01*
X0286280Y0021615D01*
X0286690Y0022420D01*
X0286969Y0023279D01*
X0287106Y0024142D01*
X0281853Y0024142D01*
X0281853Y0018889D01*
X0282717Y0019026D01*
X0283576Y0019305D01*
X0284380Y0019715D01*
X0285111Y0020246D01*
X0286304Y0021662D02*
X0303905Y0021662D01*
X0303280Y0023261D02*
X0286963Y0023261D01*
X0287106Y0025102D02*
X0286969Y0025965D01*
X0286690Y0026824D01*
X0286280Y0027629D01*
X0285749Y0028359D01*
X0285111Y0028998D01*
X0284380Y0029529D01*
X0283576Y0029939D01*
X0282717Y0030218D01*
X0281853Y0030355D01*
X0281853Y0025102D01*
X0280894Y0025102D01*
X0280894Y0030355D01*
X0280030Y0030218D01*
X0279171Y0029939D01*
X0278366Y0029529D01*
X0277636Y0028998D01*
X0276997Y0028359D01*
X0276467Y0027629D01*
X0276057Y0026824D01*
X0275778Y0025965D01*
X0275641Y0025102D01*
X0280894Y0025102D01*
X0280894Y0024142D01*
X0281853Y0024142D01*
X0281853Y0025102D01*
X0287106Y0025102D01*
X0286809Y0026458D02*
X0303280Y0026458D01*
X0303280Y0024859D02*
X0281853Y0024859D01*
X0280894Y0024859D02*
X0268679Y0024859D01*
X0268679Y0023261D02*
X0275783Y0023261D01*
X0275778Y0023279D02*
X0276057Y0022420D01*
X0276467Y0021615D01*
X0276997Y0020885D01*
X0277636Y0020246D01*
X0278366Y0019715D01*
X0279171Y0019305D01*
X0280030Y0019026D01*
X0280894Y0018889D01*
X0280894Y0024142D01*
X0275641Y0024142D01*
X0275778Y0023279D01*
X0276443Y0021662D02*
X0268055Y0021662D01*
X0267146Y0020064D02*
X0277887Y0020064D01*
X0280894Y0020064D02*
X0281853Y0020064D01*
X0281853Y0021662D02*
X0280894Y0021662D01*
X0280894Y0023261D02*
X0281853Y0023261D01*
X0281853Y0026458D02*
X0280894Y0026458D01*
X0280894Y0028056D02*
X0281853Y0028056D01*
X0281853Y0029655D02*
X0280894Y0029655D01*
X0278614Y0029655D02*
X0266672Y0029655D01*
X0267858Y0028056D02*
X0276777Y0028056D01*
X0275937Y0026458D02*
X0268520Y0026458D01*
X0265074Y0031253D02*
X0299804Y0031253D01*
X0298206Y0032852D02*
X0263475Y0032852D01*
X0261877Y0034450D02*
X0296607Y0034450D01*
X0295009Y0036049D02*
X0260278Y0036049D01*
X0258680Y0037647D02*
X0293410Y0037647D01*
X0291812Y0039246D02*
X0257081Y0039246D01*
X0255483Y0040844D02*
X0290213Y0040844D01*
X0288615Y0042443D02*
X0253884Y0042443D01*
X0252286Y0044041D02*
X0287016Y0044041D01*
X0285418Y0045640D02*
X0250687Y0045640D01*
X0249089Y0047238D02*
X0283819Y0047238D01*
X0282524Y0048837D02*
X0247490Y0048837D01*
X0245892Y0050435D02*
X0281862Y0050435D01*
X0281627Y0052034D02*
X0244293Y0052034D01*
X0241096Y0055231D02*
X0282174Y0055231D01*
X0282973Y0056829D02*
X0239498Y0056829D01*
X0237899Y0058428D02*
X0284572Y0058428D01*
X0293293Y0058428D02*
X0367249Y0058428D01*
X0365651Y0056829D02*
X0294891Y0056829D01*
X0296490Y0055231D02*
X0364052Y0055231D01*
X0360855Y0052034D02*
X0299687Y0052034D01*
X0301285Y0050435D02*
X0359257Y0050435D01*
X0357658Y0048837D02*
X0302884Y0048837D01*
X0304482Y0047238D02*
X0356060Y0047238D01*
X0354461Y0045640D02*
X0306081Y0045640D01*
X0307679Y0044041D02*
X0353298Y0044041D01*
X0352635Y0042443D02*
X0309278Y0042443D01*
X0310876Y0040844D02*
X0352493Y0040844D01*
X0352493Y0039246D02*
X0312475Y0039246D01*
X0314073Y0037647D02*
X0352493Y0037647D01*
X0352493Y0036049D02*
X0315672Y0036049D01*
X0314724Y0036996D02*
X0314724Y0036996D01*
X0316983Y0034450D02*
X0352493Y0034450D01*
X0352493Y0032852D02*
X0317645Y0032852D01*
X0317891Y0031253D02*
X0352493Y0031253D01*
X0352493Y0029655D02*
X0333346Y0029655D01*
X0333593Y0029529D02*
X0332788Y0029939D01*
X0331929Y0030218D01*
X0331065Y0030355D01*
X0331065Y0025102D01*
X0330106Y0025102D01*
X0330106Y0030355D01*
X0329242Y0030218D01*
X0328384Y0029939D01*
X0327579Y0029529D01*
X0326848Y0028998D01*
X0326210Y0028359D01*
X0325679Y0027629D01*
X0325269Y0026824D01*
X0324990Y0025965D01*
X0324853Y0025102D01*
X0330106Y0025102D01*
X0330106Y0024142D01*
X0331065Y0024142D01*
X0331065Y0018889D01*
X0331929Y0019026D01*
X0332788Y0019305D01*
X0333593Y0019715D01*
X0334323Y0020246D01*
X0334962Y0020885D01*
X0335493Y0021615D01*
X0335903Y0022420D01*
X0336182Y0023279D01*
X0336318Y0024142D01*
X0331066Y0024142D01*
X0331066Y0025102D01*
X0336318Y0025102D01*
X0336182Y0025965D01*
X0335903Y0026824D01*
X0335493Y0027629D01*
X0334962Y0028359D01*
X0334323Y0028998D01*
X0333593Y0029529D01*
X0335182Y0028056D02*
X0352493Y0028056D01*
X0352493Y0026458D02*
X0336022Y0026458D01*
X0336176Y0023261D02*
X0352493Y0023261D01*
X0352493Y0024859D02*
X0331066Y0024859D01*
X0330106Y0024859D02*
X0317891Y0024859D01*
X0317891Y0023261D02*
X0324996Y0023261D01*
X0324990Y0023279D02*
X0325269Y0022420D01*
X0325679Y0021615D01*
X0326210Y0020885D01*
X0326848Y0020246D01*
X0327579Y0019715D01*
X0328384Y0019305D01*
X0329242Y0019026D01*
X0330106Y0018889D01*
X0330106Y0024142D01*
X0324853Y0024142D01*
X0324990Y0023279D01*
X0325655Y0021662D02*
X0317267Y0021662D01*
X0316359Y0020064D02*
X0327100Y0020064D01*
X0330106Y0020064D02*
X0331065Y0020064D01*
X0331065Y0021662D02*
X0330106Y0021662D01*
X0330106Y0023261D02*
X0331065Y0023261D01*
X0331065Y0026458D02*
X0330106Y0026458D01*
X0330106Y0028056D02*
X0331065Y0028056D01*
X0331065Y0029655D02*
X0330106Y0029655D01*
X0327826Y0029655D02*
X0317891Y0029655D01*
X0317891Y0028056D02*
X0325990Y0028056D01*
X0325150Y0026458D02*
X0317891Y0026458D01*
X0314760Y0018465D02*
X0355624Y0018465D01*
X0354025Y0020064D02*
X0334072Y0020064D01*
X0335517Y0021662D02*
X0353117Y0021662D01*
X0363973Y0018465D02*
X0407064Y0018465D01*
X0406346Y0020064D02*
X0383285Y0020064D01*
X0383536Y0020246D02*
X0384174Y0020885D01*
X0384705Y0021615D01*
X0385115Y0022420D01*
X0385394Y0023279D01*
X0385531Y0024142D01*
X0380278Y0024142D01*
X0380278Y0018889D01*
X0381142Y0019026D01*
X0382001Y0019305D01*
X0382805Y0019715D01*
X0383536Y0020246D01*
X0384729Y0021662D02*
X0405882Y0021662D01*
X0405623Y0023261D02*
X0385388Y0023261D01*
X0385531Y0025102D02*
X0385394Y0025965D01*
X0385115Y0026824D01*
X0384705Y0027629D01*
X0384174Y0028359D01*
X0383536Y0028998D01*
X0382805Y0029529D01*
X0382001Y0029939D01*
X0381142Y0030218D01*
X0380278Y0030355D01*
X0380278Y0025102D01*
X0379319Y0025102D01*
X0379319Y0030355D01*
X0378455Y0030218D01*
X0377596Y0029939D01*
X0376792Y0029529D01*
X0376061Y0028998D01*
X0375423Y0028359D01*
X0374892Y0027629D01*
X0374482Y0026824D01*
X0374203Y0025965D01*
X0374066Y0025102D01*
X0379319Y0025102D01*
X0379319Y0024142D01*
X0380278Y0024142D01*
X0380278Y0025102D01*
X0385531Y0025102D01*
X0385234Y0026458D02*
X0405670Y0026458D01*
X0405997Y0028056D02*
X0384395Y0028056D01*
X0382558Y0029655D02*
X0406542Y0029655D01*
X0407317Y0031253D02*
X0367104Y0031253D01*
X0367104Y0029655D02*
X0377039Y0029655D01*
X0379319Y0029655D02*
X0380278Y0029655D01*
X0380278Y0028056D02*
X0379319Y0028056D01*
X0379319Y0026458D02*
X0380278Y0026458D01*
X0380278Y0024859D02*
X0418054Y0024859D01*
X0418054Y0023261D02*
X0419654Y0023261D01*
X0419654Y0023822D02*
X0419654Y0011336D01*
X0420807Y0011450D01*
X0422089Y0011705D01*
X0423340Y0012084D01*
X0424547Y0012584D01*
X0425699Y0013200D01*
X0426786Y0013927D01*
X0427796Y0014756D01*
X0428720Y0015680D01*
X0429549Y0016690D01*
X0430275Y0017776D01*
X0430891Y0018929D01*
X0431391Y0020136D01*
X0431771Y0021387D01*
X0432026Y0022668D01*
X0432139Y0023822D01*
X0419654Y0023822D01*
X0419654Y0024859D02*
X0432802Y0024859D01*
X0432802Y0026458D02*
X0432037Y0026458D01*
X0431710Y0028056D02*
X0432802Y0028056D01*
X0432802Y0029655D02*
X0431165Y0029655D01*
X0430390Y0031253D02*
X0432802Y0031253D01*
X0432802Y0032852D02*
X0429305Y0032852D01*
X0427834Y0034450D02*
X0432802Y0034450D01*
X0432802Y0036049D02*
X0425690Y0036049D01*
X0421545Y0037647D02*
X0432802Y0037647D01*
X0432802Y0039246D02*
X0368730Y0039246D01*
X0370329Y0040844D02*
X0432802Y0040844D01*
X0432802Y0042443D02*
X0371927Y0042443D01*
X0373526Y0044041D02*
X0432802Y0044041D01*
X0432802Y0045640D02*
X0375124Y0045640D01*
X0376723Y0047238D02*
X0432802Y0047238D01*
X0432802Y0048837D02*
X0378018Y0048837D01*
X0378680Y0050435D02*
X0432802Y0050435D01*
X0432802Y0052034D02*
X0378915Y0052034D01*
X0378368Y0055231D02*
X0432802Y0055231D01*
X0432802Y0056829D02*
X0377568Y0056829D01*
X0375970Y0058428D02*
X0432802Y0058428D01*
X0432802Y0060026D02*
X0066323Y0060026D01*
X0066323Y0061625D02*
X0432802Y0061625D01*
X0432802Y0063223D02*
X0066323Y0063223D01*
X0066323Y0064822D02*
X0432802Y0064822D01*
X0432802Y0066420D02*
X0066323Y0066420D01*
X0066323Y0068019D02*
X0432802Y0068019D01*
X0432802Y0069617D02*
X0066323Y0069617D01*
X0066323Y0071216D02*
X0432802Y0071216D01*
X0432802Y0072814D02*
X0066323Y0072814D01*
X0066323Y0074413D02*
X0432802Y0074413D01*
X0432802Y0076011D02*
X0066323Y0076011D01*
X0066323Y0077610D02*
X0432802Y0077610D01*
X0432802Y0079209D02*
X0066323Y0079209D01*
X0066323Y0080807D02*
X0432802Y0080807D01*
X0432802Y0082406D02*
X0066323Y0082406D01*
X0066323Y0084004D02*
X0432802Y0084004D01*
X0432802Y0085603D02*
X0066323Y0085603D01*
X0066323Y0087201D02*
X0432802Y0087201D01*
X0432802Y0088800D02*
X0066323Y0088800D01*
X0066323Y0090398D02*
X0432802Y0090398D01*
X0432802Y0091997D02*
X0066323Y0091997D01*
X0066323Y0093595D02*
X0432802Y0093595D01*
X0432802Y0095194D02*
X0066323Y0095194D01*
X0066323Y0096792D02*
X0432802Y0096792D01*
X0432802Y0098391D02*
X0066323Y0098391D01*
X0066323Y0099989D02*
X0432802Y0099989D01*
X0432802Y0101588D02*
X0066323Y0101588D01*
X0066323Y0103186D02*
X0432802Y0103186D01*
X0432802Y0104785D02*
X0066323Y0104785D01*
X0066323Y0106383D02*
X0432802Y0106383D01*
X0432802Y0107982D02*
X0066323Y0107982D01*
X0066323Y0109580D02*
X0432802Y0109580D01*
X0432802Y0111179D02*
X0066323Y0111179D01*
X0066323Y0112777D02*
X0432802Y0112777D01*
X0432802Y0114376D02*
X0066323Y0114376D01*
X0066323Y0115974D02*
X0432802Y0115974D01*
X0432802Y0117573D02*
X0066323Y0117573D01*
X0066323Y0119171D02*
X0432802Y0119171D01*
X0432802Y0120770D02*
X0066323Y0120770D01*
X0066323Y0122368D02*
X0432802Y0122368D01*
X0432802Y0123967D02*
X0066323Y0123967D01*
X0066323Y0125565D02*
X0432802Y0125565D01*
X0432802Y0127164D02*
X0066323Y0127164D01*
X0066323Y0128762D02*
X0432802Y0128762D01*
X0432802Y0130361D02*
X0066323Y0130361D01*
X0066323Y0131959D02*
X0432802Y0131959D01*
X0432802Y0133558D02*
X0066323Y0133558D01*
X0066323Y0135156D02*
X0122112Y0135156D01*
X0122125Y0135151D02*
X0125031Y0135151D01*
X0127716Y0136263D01*
X0129771Y0138318D01*
X0130884Y0141004D01*
X0130884Y0155406D01*
X0129771Y0158091D01*
X0127716Y0160146D01*
X0125031Y0161258D01*
X0122125Y0161258D01*
X0119440Y0160146D01*
X0117385Y0158091D01*
X0116273Y0155406D01*
X0116273Y0141004D01*
X0117385Y0138318D01*
X0119440Y0136263D01*
X0122125Y0135151D01*
X0125044Y0135156D02*
X0204789Y0135156D01*
X0204802Y0135151D02*
X0207708Y0135151D01*
X0210393Y0136263D01*
X0212448Y0138318D01*
X0213561Y0141004D01*
X0213561Y0155406D01*
X0212448Y0158091D01*
X0210393Y0160146D01*
X0207708Y0161258D01*
X0204802Y0161258D01*
X0202117Y0160146D01*
X0200062Y0158091D01*
X0198950Y0155406D01*
X0198950Y0141004D01*
X0200062Y0138318D01*
X0202117Y0136263D01*
X0204802Y0135151D01*
X0207721Y0135156D02*
X0287467Y0135156D01*
X0287479Y0135151D02*
X0290386Y0135151D01*
X0293071Y0136263D01*
X0295126Y0138318D01*
X0296238Y0141004D01*
X0296238Y0155406D01*
X0295126Y0158091D01*
X0293071Y0160146D01*
X0290386Y0161258D01*
X0287479Y0161258D01*
X0284794Y0160146D01*
X0282739Y0158091D01*
X0281627Y0155406D01*
X0281627Y0141004D01*
X0282739Y0138318D01*
X0284794Y0136263D01*
X0287479Y0135151D01*
X0290398Y0135156D02*
X0370144Y0135156D01*
X0370156Y0135151D02*
X0373063Y0135151D01*
X0375748Y0136263D01*
X0377803Y0138318D01*
X0378915Y0141004D01*
X0378915Y0155406D01*
X0377803Y0158091D01*
X0375748Y0160146D01*
X0373063Y0161258D01*
X0370156Y0161258D01*
X0367471Y0160146D01*
X0365416Y0158091D01*
X0364304Y0155406D01*
X0364304Y0141004D01*
X0365416Y0138318D01*
X0367471Y0136263D01*
X0370156Y0135151D01*
X0373075Y0135156D02*
X0432802Y0135156D01*
X0432802Y0136755D02*
X0376239Y0136755D01*
X0377817Y0138353D02*
X0432802Y0138353D01*
X0432802Y0139952D02*
X0378479Y0139952D01*
X0378915Y0141550D02*
X0432802Y0141550D01*
X0432802Y0143149D02*
X0378915Y0143149D01*
X0378915Y0144747D02*
X0432802Y0144747D01*
X0432802Y0146346D02*
X0378915Y0146346D01*
X0378915Y0147945D02*
X0432802Y0147945D01*
X0432802Y0149543D02*
X0378915Y0149543D01*
X0378915Y0151142D02*
X0432802Y0151142D01*
X0432802Y0152740D02*
X0378915Y0152740D01*
X0378915Y0154339D02*
X0432802Y0154339D01*
X0432802Y0155937D02*
X0378695Y0155937D01*
X0378033Y0157536D02*
X0391975Y0157536D01*
X0390570Y0159134D02*
X0376760Y0159134D01*
X0374332Y0160733D02*
X0389908Y0160733D01*
X0389895Y0162331D02*
X0353324Y0162331D01*
X0353311Y0160733D02*
X0368887Y0160733D01*
X0366459Y0159134D02*
X0352649Y0159134D01*
X0351244Y0157536D02*
X0365186Y0157536D01*
X0364524Y0155937D02*
X0296018Y0155937D01*
X0296238Y0154339D02*
X0364304Y0154339D01*
X0364304Y0152740D02*
X0296238Y0152740D01*
X0296238Y0151142D02*
X0364304Y0151142D01*
X0364304Y0149543D02*
X0296238Y0149543D01*
X0296238Y0147945D02*
X0364304Y0147945D01*
X0364304Y0146346D02*
X0296238Y0146346D01*
X0296238Y0144747D02*
X0364304Y0144747D01*
X0364304Y0143149D02*
X0296238Y0143149D01*
X0296238Y0141550D02*
X0364304Y0141550D01*
X0364740Y0139952D02*
X0295802Y0139952D01*
X0295140Y0138353D02*
X0365402Y0138353D01*
X0366980Y0136755D02*
X0293562Y0136755D01*
X0284303Y0136755D02*
X0210885Y0136755D01*
X0212463Y0138353D02*
X0282725Y0138353D01*
X0282062Y0139952D02*
X0213125Y0139952D01*
X0213561Y0141550D02*
X0281627Y0141550D01*
X0281627Y0143149D02*
X0213561Y0143149D01*
X0213561Y0144747D02*
X0281627Y0144747D01*
X0281627Y0146346D02*
X0213561Y0146346D01*
X0213561Y0147945D02*
X0281627Y0147945D01*
X0281627Y0149543D02*
X0213561Y0149543D01*
X0213561Y0151142D02*
X0281627Y0151142D01*
X0281627Y0152740D02*
X0213561Y0152740D01*
X0213561Y0154339D02*
X0281627Y0154339D01*
X0281847Y0155937D02*
X0213341Y0155937D01*
X0212679Y0157536D02*
X0226621Y0157536D01*
X0225216Y0159134D02*
X0211405Y0159134D01*
X0208977Y0160733D02*
X0224554Y0160733D01*
X0224540Y0162331D02*
X0187970Y0162331D01*
X0187957Y0160733D02*
X0203533Y0160733D01*
X0201105Y0159134D02*
X0187295Y0159134D01*
X0185890Y0157536D02*
X0199832Y0157536D01*
X0199170Y0155937D02*
X0130664Y0155937D01*
X0130884Y0154339D02*
X0198950Y0154339D01*
X0198950Y0152740D02*
X0130884Y0152740D01*
X0130884Y0151142D02*
X0198950Y0151142D01*
X0198950Y0149543D02*
X0130884Y0149543D01*
X0130884Y0147945D02*
X0198950Y0147945D01*
X0198950Y0146346D02*
X0130884Y0146346D01*
X0130884Y0144747D02*
X0198950Y0144747D01*
X0198950Y0143149D02*
X0130884Y0143149D01*
X0130884Y0141550D02*
X0198950Y0141550D01*
X0199385Y0139952D02*
X0130448Y0139952D01*
X0129786Y0138353D02*
X0200047Y0138353D01*
X0201625Y0136755D02*
X0128208Y0136755D01*
X0118948Y0136755D02*
X0066323Y0136755D01*
X0066323Y0138353D02*
X0117370Y0138353D01*
X0116708Y0139952D02*
X0066323Y0139952D01*
X0066323Y0141550D02*
X0116273Y0141550D01*
X0116273Y0143149D02*
X0066323Y0143149D01*
X0066323Y0144747D02*
X0116273Y0144747D01*
X0116273Y0146346D02*
X0066323Y0146346D01*
X0066323Y0147945D02*
X0116273Y0147945D01*
X0116273Y0149543D02*
X0066323Y0149543D01*
X0066323Y0151142D02*
X0116273Y0151142D01*
X0116273Y0152740D02*
X0066323Y0152740D01*
X0066323Y0154339D02*
X0116273Y0154339D01*
X0116493Y0155937D02*
X0066323Y0155937D01*
X0066323Y0157536D02*
X0096700Y0157536D01*
X0096933Y0157302D02*
X0098894Y0156490D01*
X0101018Y0156490D01*
X0102979Y0157302D01*
X0104480Y0158804D01*
X0105293Y0160765D01*
X0105293Y0162888D01*
X0104480Y0164850D01*
X0102979Y0166351D01*
X0101018Y0167164D01*
X0098894Y0167164D01*
X0096933Y0166351D01*
X0095431Y0164850D01*
X0095091Y0164027D01*
X0087613Y0164027D01*
X0087397Y0164548D01*
X0086339Y0165607D01*
X0084956Y0166180D01*
X0083460Y0166180D01*
X0082077Y0165607D01*
X0081019Y0164548D01*
X0080446Y0163166D01*
X0080446Y0161669D01*
X0081019Y0160286D01*
X0082077Y0159228D01*
X0083460Y0158655D01*
X0084956Y0158655D01*
X0086339Y0159228D01*
X0086738Y0159627D01*
X0095091Y0159627D01*
X0095431Y0158804D01*
X0096933Y0157302D01*
X0095295Y0159134D02*
X0086113Y0159134D01*
X0084798Y0161827D02*
X0084208Y0162417D01*
X0084798Y0161827D02*
X0099956Y0161827D01*
X0104862Y0163930D02*
X0141986Y0163930D01*
X0141863Y0162331D02*
X0105293Y0162331D01*
X0105279Y0160733D02*
X0120856Y0160733D01*
X0118428Y0159134D02*
X0104617Y0159134D01*
X0103212Y0157536D02*
X0117155Y0157536D01*
X0126300Y0160733D02*
X0141877Y0160733D01*
X0142539Y0159134D02*
X0128728Y0159134D01*
X0130001Y0157536D02*
X0143944Y0157536D01*
X0150457Y0157536D02*
X0179377Y0157536D01*
X0177972Y0159134D02*
X0151861Y0159134D01*
X0152524Y0160733D02*
X0177310Y0160733D01*
X0177296Y0162331D02*
X0152537Y0162331D01*
X0152106Y0163930D02*
X0177419Y0163930D01*
X0175821Y0165528D02*
X0151046Y0165528D01*
X0148351Y0167127D02*
X0174222Y0167127D01*
X0172623Y0168725D02*
X0143413Y0168725D01*
X0145011Y0167127D02*
X0146049Y0167127D01*
X0141814Y0170324D02*
X0171025Y0170324D01*
X0170591Y0171922D02*
X0141526Y0171922D01*
X0141526Y0173521D02*
X0170591Y0173521D01*
X0170591Y0175119D02*
X0141526Y0175119D01*
X0141526Y0176718D02*
X0170591Y0176718D01*
X0170591Y0178316D02*
X0141526Y0178316D01*
X0141526Y0179915D02*
X0170591Y0179915D01*
X0170591Y0181513D02*
X0141526Y0181513D01*
X0141526Y0183112D02*
X0170591Y0183112D01*
X0170591Y0184710D02*
X0141526Y0184710D01*
X0141526Y0186309D02*
X0170591Y0186309D01*
X0170591Y0187907D02*
X0141526Y0187907D01*
X0141526Y0189506D02*
X0170591Y0189506D01*
X0170591Y0191104D02*
X0141526Y0191104D01*
X0141526Y0192703D02*
X0170591Y0192703D01*
X0170591Y0194301D02*
X0141526Y0194301D01*
X0141526Y0195900D02*
X0170591Y0195900D01*
X0170591Y0197498D02*
X0141526Y0197498D01*
X0141526Y0199097D02*
X0170591Y0199097D01*
X0170591Y0200695D02*
X0141526Y0200695D01*
X0141526Y0202294D02*
X0170591Y0202294D01*
X0170591Y0203892D02*
X0141526Y0203892D01*
X0141526Y0205491D02*
X0144020Y0205491D01*
X0144177Y0205334D02*
X0146138Y0204521D01*
X0148262Y0204521D01*
X0150223Y0205334D01*
X0151725Y0206835D01*
X0152537Y0208797D01*
X0152537Y0210920D01*
X0151725Y0212881D01*
X0150223Y0214383D01*
X0148262Y0215195D01*
X0146138Y0215195D01*
X0144177Y0214383D01*
X0142676Y0212881D01*
X0141863Y0210920D01*
X0141863Y0208797D01*
X0142676Y0206835D01*
X0144177Y0205334D01*
X0142570Y0207089D02*
X0141526Y0207089D01*
X0141526Y0208688D02*
X0141908Y0208688D01*
X0141863Y0210286D02*
X0141526Y0210286D01*
X0141526Y0211885D02*
X0142263Y0211885D01*
X0141526Y0213483D02*
X0143278Y0213483D01*
X0141526Y0215082D02*
X0145865Y0215082D01*
X0148535Y0215082D02*
X0170591Y0215082D01*
X0170591Y0216680D02*
X0141526Y0216680D01*
X0141526Y0218279D02*
X0170591Y0218279D01*
X0170591Y0219878D02*
X0141526Y0219878D01*
X0141526Y0221476D02*
X0170591Y0221476D01*
X0170591Y0223075D02*
X0141526Y0223075D01*
X0141526Y0224673D02*
X0170591Y0224673D01*
X0170591Y0226272D02*
X0141682Y0226272D01*
X0141926Y0227870D02*
X0170591Y0227870D01*
X0170591Y0229469D02*
X0142301Y0229469D01*
X0142301Y0231067D02*
X0170591Y0231067D01*
X0174991Y0231067D02*
X0187990Y0231067D01*
X0185800Y0229469D02*
X0174991Y0229469D01*
X0174991Y0227870D02*
X0185800Y0227870D01*
X0186488Y0226272D02*
X0174991Y0226272D01*
X0174991Y0224673D02*
X0200118Y0224673D01*
X0200118Y0223075D02*
X0174991Y0223075D01*
X0174991Y0221476D02*
X0200118Y0221476D01*
X0200118Y0219878D02*
X0174991Y0219878D01*
X0174991Y0218279D02*
X0200118Y0218279D01*
X0200118Y0216680D02*
X0174991Y0216680D01*
X0174991Y0215082D02*
X0200118Y0215082D01*
X0200118Y0213483D02*
X0174991Y0213483D01*
X0174991Y0211885D02*
X0200118Y0211885D01*
X0200118Y0210286D02*
X0174991Y0210286D01*
X0174991Y0208688D02*
X0200118Y0208688D01*
X0200118Y0207089D02*
X0174991Y0207089D01*
X0174991Y0205491D02*
X0200118Y0205491D01*
X0200118Y0203892D02*
X0174991Y0203892D01*
X0174991Y0202294D02*
X0200118Y0202294D01*
X0200118Y0200695D02*
X0174991Y0200695D01*
X0174991Y0199097D02*
X0200118Y0199097D01*
X0200118Y0197498D02*
X0174991Y0197498D01*
X0174991Y0195900D02*
X0200118Y0195900D01*
X0200118Y0194301D02*
X0174991Y0194301D01*
X0174991Y0192703D02*
X0200118Y0192703D01*
X0200118Y0191104D02*
X0174991Y0191104D01*
X0174991Y0189506D02*
X0200118Y0189506D01*
X0200685Y0187907D02*
X0174991Y0187907D01*
X0174991Y0186309D02*
X0202284Y0186309D01*
X0203882Y0184710D02*
X0174991Y0184710D01*
X0174991Y0183112D02*
X0205481Y0183112D01*
X0207079Y0181513D02*
X0174991Y0181513D01*
X0174991Y0179915D02*
X0208678Y0179915D01*
X0210277Y0178316D02*
X0174991Y0178316D01*
X0174991Y0176718D02*
X0211875Y0176718D01*
X0213474Y0175119D02*
X0174991Y0175119D01*
X0174991Y0173521D02*
X0215072Y0173521D01*
X0216671Y0171922D02*
X0175649Y0171922D01*
X0177248Y0170324D02*
X0218269Y0170324D01*
X0219868Y0168725D02*
X0178846Y0168725D01*
X0180445Y0167127D02*
X0181482Y0167127D01*
X0183784Y0167127D02*
X0221466Y0167127D01*
X0223065Y0165528D02*
X0186479Y0165528D01*
X0187539Y0163930D02*
X0224663Y0163930D01*
X0227689Y0167127D02*
X0228726Y0167127D01*
X0231028Y0167127D02*
X0256899Y0167127D01*
X0255301Y0168725D02*
X0226090Y0168725D01*
X0224492Y0170324D02*
X0253702Y0170324D01*
X0253268Y0171922D02*
X0222893Y0171922D01*
X0221295Y0173521D02*
X0253268Y0173521D01*
X0253268Y0175119D02*
X0219696Y0175119D01*
X0218098Y0176718D02*
X0253268Y0176718D01*
X0253268Y0178316D02*
X0216499Y0178316D01*
X0214901Y0179915D02*
X0253268Y0179915D01*
X0253268Y0181513D02*
X0213302Y0181513D01*
X0211704Y0183112D02*
X0253268Y0183112D01*
X0253268Y0184710D02*
X0210105Y0184710D01*
X0208506Y0186309D02*
X0253268Y0186309D01*
X0253268Y0187907D02*
X0206908Y0187907D01*
X0205309Y0189506D02*
X0253268Y0189506D01*
X0253268Y0191104D02*
X0204518Y0191104D01*
X0204518Y0192703D02*
X0253268Y0192703D01*
X0253268Y0194301D02*
X0204518Y0194301D01*
X0204518Y0195900D02*
X0253268Y0195900D01*
X0253268Y0197498D02*
X0204518Y0197498D01*
X0204518Y0199097D02*
X0253268Y0199097D01*
X0253268Y0200695D02*
X0204518Y0200695D01*
X0204518Y0202294D02*
X0253268Y0202294D01*
X0253268Y0203892D02*
X0204518Y0203892D01*
X0204518Y0205491D02*
X0226697Y0205491D01*
X0226854Y0205334D02*
X0228816Y0204521D01*
X0230939Y0204521D01*
X0232900Y0205334D01*
X0234402Y0206835D01*
X0235214Y0208797D01*
X0235214Y0210920D01*
X0234402Y0212881D01*
X0232900Y0214383D01*
X0230939Y0215195D01*
X0228816Y0215195D01*
X0226854Y0214383D01*
X0225353Y0212881D01*
X0224540Y0210920D01*
X0224540Y0208797D01*
X0225353Y0206835D01*
X0226854Y0205334D01*
X0225247Y0207089D02*
X0204518Y0207089D01*
X0204518Y0208688D02*
X0224585Y0208688D01*
X0224540Y0210286D02*
X0204518Y0210286D01*
X0204518Y0211885D02*
X0224940Y0211885D01*
X0225955Y0213483D02*
X0204518Y0213483D01*
X0204518Y0215082D02*
X0228542Y0215082D01*
X0231212Y0215082D02*
X0253268Y0215082D01*
X0253268Y0216680D02*
X0204518Y0216680D01*
X0204518Y0218279D02*
X0253268Y0218279D01*
X0253268Y0219878D02*
X0204518Y0219878D01*
X0204518Y0221476D02*
X0253268Y0221476D01*
X0253268Y0223075D02*
X0204518Y0223075D01*
X0204518Y0224673D02*
X0253268Y0224673D01*
X0253268Y0226272D02*
X0204674Y0226272D01*
X0204918Y0227870D02*
X0253268Y0227870D01*
X0253268Y0229469D02*
X0205293Y0229469D01*
X0205293Y0231067D02*
X0253268Y0231067D01*
X0257668Y0231067D02*
X0300194Y0231067D01*
X0298005Y0229469D02*
X0257668Y0229469D01*
X0257668Y0227870D02*
X0298005Y0227870D01*
X0298693Y0226272D02*
X0257668Y0226272D01*
X0257668Y0224673D02*
X0305163Y0224673D01*
X0303565Y0223075D02*
X0257668Y0223075D01*
X0257668Y0221476D02*
X0302480Y0221476D01*
X0302480Y0219878D02*
X0257668Y0219878D01*
X0257668Y0218279D02*
X0302480Y0218279D01*
X0302480Y0216680D02*
X0257668Y0216680D01*
X0257668Y0215082D02*
X0302480Y0215082D01*
X0302480Y0213483D02*
X0257668Y0213483D01*
X0257668Y0211885D02*
X0302480Y0211885D01*
X0302480Y0210286D02*
X0257668Y0210286D01*
X0257668Y0208688D02*
X0302480Y0208688D01*
X0302480Y0207089D02*
X0257668Y0207089D01*
X0257668Y0205491D02*
X0302480Y0205491D01*
X0302480Y0203892D02*
X0257668Y0203892D01*
X0257668Y0202294D02*
X0302480Y0202294D01*
X0302480Y0200695D02*
X0257668Y0200695D01*
X0257668Y0199097D02*
X0302480Y0199097D01*
X0302480Y0197498D02*
X0257668Y0197498D01*
X0257668Y0195900D02*
X0302480Y0195900D01*
X0302480Y0194301D02*
X0257668Y0194301D01*
X0257668Y0192703D02*
X0302480Y0192703D01*
X0302480Y0191104D02*
X0257668Y0191104D01*
X0257668Y0189506D02*
X0302480Y0189506D01*
X0302480Y0187907D02*
X0257668Y0187907D01*
X0257668Y0186309D02*
X0302480Y0186309D01*
X0302480Y0184710D02*
X0257668Y0184710D01*
X0257668Y0183112D02*
X0302480Y0183112D01*
X0302480Y0181513D02*
X0257668Y0181513D01*
X0257668Y0179915D02*
X0302480Y0179915D01*
X0302480Y0178316D02*
X0257668Y0178316D01*
X0257668Y0176718D02*
X0302480Y0176718D01*
X0302480Y0175119D02*
X0257668Y0175119D01*
X0257668Y0173521D02*
X0302480Y0173521D01*
X0302480Y0171922D02*
X0258326Y0171922D01*
X0259925Y0170324D02*
X0302480Y0170324D01*
X0302545Y0168725D02*
X0261523Y0168725D01*
X0263122Y0167127D02*
X0264159Y0167127D01*
X0266462Y0167127D02*
X0304143Y0167127D01*
X0305742Y0165528D02*
X0269157Y0165528D01*
X0270216Y0163930D02*
X0307340Y0163930D01*
X0307217Y0162331D02*
X0270647Y0162331D01*
X0270634Y0160733D02*
X0286210Y0160733D01*
X0283782Y0159134D02*
X0269972Y0159134D01*
X0268567Y0157536D02*
X0282509Y0157536D01*
X0291655Y0160733D02*
X0307231Y0160733D01*
X0307893Y0159134D02*
X0294083Y0159134D01*
X0295356Y0157536D02*
X0309298Y0157536D01*
X0312554Y0161827D02*
X0304680Y0169701D01*
X0304680Y0221079D01*
X0311767Y0228165D01*
X0314523Y0230921D01*
X0317498Y0231067D02*
X0335945Y0231067D01*
X0335945Y0229469D02*
X0317498Y0229469D01*
X0316567Y0227870D02*
X0335945Y0227870D01*
X0335945Y0226272D02*
X0313550Y0226272D01*
X0311386Y0224673D02*
X0335945Y0224673D01*
X0335945Y0223075D02*
X0309787Y0223075D01*
X0308189Y0221476D02*
X0335945Y0221476D01*
X0335945Y0219878D02*
X0306880Y0219878D01*
X0306880Y0218279D02*
X0335945Y0218279D01*
X0335945Y0216680D02*
X0306880Y0216680D01*
X0306880Y0215082D02*
X0311219Y0215082D01*
X0311493Y0215195D02*
X0309531Y0214383D01*
X0308030Y0212881D01*
X0307217Y0210920D01*
X0307217Y0208797D01*
X0308030Y0206835D01*
X0309531Y0205334D01*
X0311493Y0204521D01*
X0313616Y0204521D01*
X0315578Y0205334D01*
X0317079Y0206835D01*
X0317891Y0208797D01*
X0317891Y0210920D01*
X0317079Y0212881D01*
X0315578Y0214383D01*
X0313616Y0215195D01*
X0311493Y0215195D01*
X0313890Y0215082D02*
X0335945Y0215082D01*
X0335945Y0213483D02*
X0316477Y0213483D01*
X0317492Y0211885D02*
X0335945Y0211885D01*
X0335945Y0210286D02*
X0317891Y0210286D01*
X0317846Y0208688D02*
X0335945Y0208688D01*
X0335945Y0207089D02*
X0317184Y0207089D01*
X0315735Y0205491D02*
X0335945Y0205491D01*
X0335945Y0203892D02*
X0306880Y0203892D01*
X0306880Y0202294D02*
X0335945Y0202294D01*
X0335945Y0200695D02*
X0306880Y0200695D01*
X0306880Y0199097D02*
X0335945Y0199097D01*
X0335945Y0197498D02*
X0306880Y0197498D01*
X0306880Y0195900D02*
X0335945Y0195900D01*
X0335945Y0194301D02*
X0306880Y0194301D01*
X0306880Y0192703D02*
X0335945Y0192703D01*
X0335945Y0191104D02*
X0306880Y0191104D01*
X0306880Y0189506D02*
X0335945Y0189506D01*
X0335945Y0187907D02*
X0306880Y0187907D01*
X0306880Y0186309D02*
X0335945Y0186309D01*
X0335945Y0184710D02*
X0306880Y0184710D01*
X0306880Y0183112D02*
X0335945Y0183112D01*
X0335945Y0181513D02*
X0306880Y0181513D01*
X0306880Y0179915D02*
X0335945Y0179915D01*
X0335945Y0178316D02*
X0306880Y0178316D01*
X0306880Y0176718D02*
X0335945Y0176718D01*
X0335945Y0175119D02*
X0306880Y0175119D01*
X0306880Y0173521D02*
X0335945Y0173521D01*
X0335945Y0171922D02*
X0306880Y0171922D01*
X0307169Y0170324D02*
X0336379Y0170324D01*
X0338145Y0171669D02*
X0338145Y0235252D01*
X0340345Y0231067D02*
X0373029Y0231067D01*
X0371293Y0232666D02*
X0384383Y0232666D01*
X0386964Y0230528D02*
X0387358Y0230921D01*
X0387358Y0227378D01*
X0387358Y0169701D01*
X0395232Y0161827D01*
X0400137Y0163930D02*
X0432802Y0163930D01*
X0432802Y0165528D02*
X0399078Y0165528D01*
X0396383Y0167127D02*
X0432802Y0167127D01*
X0432802Y0168725D02*
X0391444Y0168725D01*
X0389846Y0170324D02*
X0432802Y0170324D01*
X0432802Y0171922D02*
X0389558Y0171922D01*
X0389558Y0173521D02*
X0432802Y0173521D01*
X0432802Y0175119D02*
X0389558Y0175119D01*
X0389558Y0176718D02*
X0432802Y0176718D01*
X0432802Y0178316D02*
X0389558Y0178316D01*
X0389558Y0179915D02*
X0432802Y0179915D01*
X0432802Y0181513D02*
X0389558Y0181513D01*
X0389558Y0183112D02*
X0432802Y0183112D01*
X0432802Y0184710D02*
X0389558Y0184710D01*
X0389558Y0186309D02*
X0432802Y0186309D01*
X0432802Y0187907D02*
X0389558Y0187907D01*
X0389558Y0189506D02*
X0432802Y0189506D01*
X0432802Y0191104D02*
X0389558Y0191104D01*
X0389558Y0192703D02*
X0432802Y0192703D01*
X0432802Y0194301D02*
X0389558Y0194301D01*
X0389558Y0195900D02*
X0432802Y0195900D01*
X0432802Y0197498D02*
X0389558Y0197498D01*
X0389558Y0199097D02*
X0432802Y0199097D01*
X0432802Y0200695D02*
X0389558Y0200695D01*
X0389558Y0202294D02*
X0432802Y0202294D01*
X0432802Y0203892D02*
X0389558Y0203892D01*
X0389558Y0205491D02*
X0392051Y0205491D01*
X0392208Y0205334D02*
X0394170Y0204521D01*
X0396293Y0204521D01*
X0398255Y0205334D01*
X0399756Y0206835D01*
X0400569Y0208797D01*
X0400569Y0210920D01*
X0399756Y0212881D01*
X0398255Y0214383D01*
X0396293Y0215195D01*
X0394170Y0215195D01*
X0392208Y0214383D01*
X0390707Y0212881D01*
X0389895Y0210920D01*
X0389895Y0208797D01*
X0390707Y0206835D01*
X0392208Y0205334D01*
X0390602Y0207089D02*
X0389558Y0207089D01*
X0389558Y0208688D02*
X0389940Y0208688D01*
X0389895Y0210286D02*
X0389558Y0210286D01*
X0389558Y0211885D02*
X0390294Y0211885D01*
X0389558Y0213483D02*
X0391309Y0213483D01*
X0389558Y0215082D02*
X0393896Y0215082D01*
X0396567Y0215082D02*
X0432802Y0215082D01*
X0432802Y0216680D02*
X0389558Y0216680D01*
X0389558Y0218279D02*
X0432802Y0218279D01*
X0432802Y0219878D02*
X0389558Y0219878D01*
X0389558Y0221476D02*
X0432802Y0221476D01*
X0432802Y0223075D02*
X0389558Y0223075D01*
X0389558Y0224673D02*
X0432802Y0224673D01*
X0432802Y0226272D02*
X0389713Y0226272D01*
X0389958Y0227870D02*
X0432802Y0227870D01*
X0432802Y0229469D02*
X0390332Y0229469D01*
X0390332Y0231067D02*
X0432802Y0231067D01*
X0432802Y0232666D02*
X0390332Y0232666D01*
X0389174Y0236411D02*
X0393022Y0236411D01*
X0394073Y0237462D01*
X0394073Y0241704D01*
X0393460Y0242317D01*
X0393752Y0242317D01*
X0394860Y0243425D01*
X0394860Y0247945D01*
X0393774Y0249031D01*
X0394860Y0250118D01*
X0394860Y0254638D01*
X0393752Y0255746D01*
X0388838Y0255746D01*
X0387729Y0254638D01*
X0387729Y0254278D01*
X0386986Y0254278D01*
X0386986Y0254638D01*
X0385878Y0255746D01*
X0382739Y0255746D01*
X0352121Y0286365D01*
X0320223Y0286365D01*
X0319927Y0286661D01*
X0318975Y0287055D01*
X0317945Y0287055D01*
X0316992Y0286661D01*
X0316264Y0285932D01*
X0315869Y0284980D01*
X0315869Y0283949D01*
X0316214Y0283118D01*
X0315976Y0283118D01*
X0315024Y0282724D01*
X0314295Y0281995D01*
X0313901Y0281043D01*
X0313901Y0280012D01*
X0314295Y0279060D01*
X0315024Y0278331D01*
X0315976Y0277937D01*
X0316395Y0277937D01*
X0316560Y0277772D01*
X0316560Y0255746D01*
X0316003Y0255746D01*
X0314895Y0254638D01*
X0314895Y0254278D01*
X0314151Y0254278D01*
X0314151Y0254638D01*
X0313151Y0255638D01*
X0313252Y0255740D01*
X0313503Y0256115D01*
X0313676Y0256532D01*
X0313764Y0256975D01*
X0313764Y0258690D01*
X0310180Y0258690D01*
X0310180Y0259058D01*
X0313764Y0259058D01*
X0313764Y0260773D01*
X0313676Y0261216D01*
X0313503Y0261633D01*
X0313252Y0262008D01*
X0312933Y0262328D01*
X0312557Y0262578D01*
X0312140Y0262751D01*
X0311697Y0262839D01*
X0310180Y0262839D01*
X0310180Y0259058D01*
X0309811Y0259058D01*
X0309811Y0262839D01*
X0308293Y0262839D01*
X0307850Y0262751D01*
X0307433Y0262578D01*
X0307058Y0262328D01*
X0306739Y0262008D01*
X0306488Y0261633D01*
X0306453Y0261549D01*
X0305563Y0262439D01*
X0301042Y0262439D01*
X0299956Y0261353D01*
X0299066Y0262243D01*
X0290609Y0262243D01*
X0289501Y0261134D01*
X0289501Y0256614D01*
X0290609Y0255506D01*
X0299066Y0255506D01*
X0299956Y0256395D01*
X0301042Y0255309D01*
X0305563Y0255309D01*
X0306453Y0256199D01*
X0306488Y0256115D01*
X0306739Y0255740D01*
X0307058Y0255420D01*
X0307433Y0255170D01*
X0307517Y0255135D01*
X0307021Y0254638D01*
X0307021Y0250118D01*
X0307911Y0249227D01*
X0307827Y0249193D01*
X0307452Y0248942D01*
X0307132Y0248623D01*
X0306881Y0248247D01*
X0306709Y0247830D01*
X0306621Y0247387D01*
X0306621Y0245869D01*
X0310402Y0245869D01*
X0310402Y0245501D01*
X0306621Y0245501D01*
X0306621Y0243983D01*
X0306709Y0243540D01*
X0306881Y0243123D01*
X0307132Y0242748D01*
X0307452Y0242428D01*
X0307787Y0242204D01*
X0307557Y0241807D01*
X0307408Y0241249D01*
X0307408Y0239583D01*
X0310783Y0239583D01*
X0314158Y0239583D01*
X0314158Y0241249D01*
X0314008Y0241807D01*
X0313719Y0242308D01*
X0313647Y0242380D01*
X0313720Y0242428D01*
X0314040Y0242748D01*
X0314290Y0243123D01*
X0314463Y0243540D01*
X0314551Y0243983D01*
X0314551Y0245501D01*
X0310770Y0245501D01*
X0310770Y0245869D01*
X0314551Y0245869D01*
X0314551Y0247387D01*
X0314463Y0247830D01*
X0314290Y0248247D01*
X0314040Y0248623D01*
X0313720Y0248942D01*
X0313345Y0249193D01*
X0313261Y0249227D01*
X0314151Y0250118D01*
X0314151Y0250478D01*
X0314895Y0250478D01*
X0314895Y0250118D01*
X0315981Y0249031D01*
X0314895Y0247945D01*
X0314895Y0243425D01*
X0315952Y0242367D01*
X0315288Y0241704D01*
X0315288Y0237852D01*
X0314140Y0237852D01*
X0314158Y0237916D01*
X0314158Y0239583D01*
X0310783Y0239583D01*
X0310783Y0239583D01*
X0310783Y0239583D01*
X0307408Y0239583D01*
X0307408Y0237916D01*
X0307425Y0237852D01*
X0303482Y0237852D01*
X0303482Y0239607D01*
X0302500Y0240589D01*
X0301496Y0240589D01*
X0301261Y0240687D01*
X0300226Y0240687D01*
X0299990Y0240589D01*
X0298986Y0240589D01*
X0298005Y0239607D01*
X0298005Y0239025D01*
X0296832Y0237852D01*
X0209033Y0237852D01*
X0209033Y0241704D01*
X0208420Y0242317D01*
X0208712Y0242317D01*
X0209821Y0243425D01*
X0209821Y0247945D01*
X0208734Y0249031D01*
X0209821Y0250118D01*
X0209821Y0252505D01*
X0210564Y0251762D01*
X0210564Y0249330D01*
X0211672Y0248222D01*
X0216586Y0248222D01*
X0217355Y0248991D01*
X0218778Y0248991D01*
X0219546Y0248222D01*
X0224460Y0248222D01*
X0224868Y0248630D01*
X0225423Y0248400D01*
X0226849Y0248400D01*
X0227617Y0247631D01*
X0236074Y0247631D01*
X0237183Y0248740D01*
X0237183Y0248800D01*
X0240288Y0248800D01*
X0240288Y0240866D01*
X0241397Y0239757D01*
X0245917Y0239757D01*
X0247025Y0240866D01*
X0247025Y0249323D01*
X0246058Y0250290D01*
X0264253Y0268485D01*
X0289501Y0268485D01*
X0289501Y0264488D01*
X0290609Y0263380D01*
X0299066Y0263380D01*
X0299956Y0264269D01*
X0301042Y0263183D01*
X0305563Y0263183D01*
X0306649Y0264269D01*
X0307735Y0263183D01*
X0312255Y0263183D01*
X0313364Y0264291D01*
X0313364Y0269205D01*
X0312255Y0270313D01*
X0309541Y0270313D01*
X0309170Y0270685D01*
X0309541Y0271057D01*
X0312255Y0271057D01*
X0313364Y0272165D01*
X0313364Y0277079D01*
X0312255Y0278187D01*
X0307735Y0278187D01*
X0306649Y0277101D01*
X0306279Y0277471D01*
X0316412Y0287604D01*
X0317525Y0288717D01*
X0317525Y0309206D01*
X0319460Y0309206D01*
X0320569Y0310315D01*
X0320569Y0310675D01*
X0331942Y0310675D01*
X0331942Y0310315D01*
X0333050Y0309206D01*
X0340720Y0309206D01*
X0341828Y0310315D01*
X0341828Y0314835D01*
X0340720Y0315943D01*
X0333050Y0315943D01*
X0331942Y0314835D01*
X0331942Y0314475D01*
X0320569Y0314475D01*
X0320569Y0314835D01*
X0319460Y0315943D01*
X0311790Y0315943D01*
X0310682Y0314835D01*
X0310682Y0310315D01*
X0311790Y0309206D01*
X0313725Y0309206D01*
X0313725Y0290291D01*
X0301622Y0278187D01*
X0301042Y0278187D01*
X0299956Y0277101D01*
X0299066Y0277991D01*
X0290609Y0277991D01*
X0289501Y0276882D01*
X0289501Y0272885D01*
X0262431Y0272885D01*
X0261142Y0271596D01*
X0242745Y0253200D01*
X0237183Y0253200D01*
X0237183Y0253260D01*
X0236074Y0254368D01*
X0227617Y0254368D01*
X0226933Y0253684D01*
X0226487Y0254130D01*
X0226236Y0254434D01*
X0226124Y0254493D01*
X0226035Y0254582D01*
X0225670Y0254733D01*
X0225322Y0254918D01*
X0225196Y0254930D01*
X0225079Y0254978D01*
X0225065Y0254978D01*
X0225138Y0255027D01*
X0225457Y0255346D01*
X0225708Y0255721D01*
X0225880Y0256138D01*
X0225969Y0256581D01*
X0225969Y0258099D01*
X0222188Y0258099D01*
X0222188Y0258468D01*
X0225969Y0258468D01*
X0225969Y0259986D01*
X0225880Y0260428D01*
X0225708Y0260846D01*
X0225457Y0261221D01*
X0225138Y0261540D01*
X0224762Y0261791D01*
X0224345Y0261964D01*
X0223902Y0262052D01*
X0222187Y0262052D01*
X0222187Y0258468D01*
X0221819Y0258468D01*
X0221819Y0262052D01*
X0220104Y0262052D01*
X0219661Y0261964D01*
X0219244Y0261791D01*
X0218869Y0261540D01*
X0218550Y0261221D01*
X0218299Y0260846D01*
X0218126Y0260428D01*
X0218066Y0260128D01*
X0218006Y0260428D01*
X0217834Y0260846D01*
X0217583Y0261221D01*
X0217264Y0261540D01*
X0216888Y0261791D01*
X0216471Y0261964D01*
X0216028Y0262052D01*
X0214313Y0262052D01*
X0214313Y0258468D01*
X0213945Y0258468D01*
X0213945Y0262052D01*
X0212230Y0262052D01*
X0211787Y0261964D01*
X0211370Y0261791D01*
X0210995Y0261540D01*
X0210676Y0261221D01*
X0210425Y0260846D01*
X0210252Y0260428D01*
X0210164Y0259986D01*
X0210164Y0258950D01*
X0184285Y0284828D01*
X0213243Y0284828D01*
X0214326Y0285911D01*
X0214916Y0285911D01*
X0215810Y0286805D01*
X0218948Y0286805D01*
X0220035Y0287891D01*
X0221121Y0286805D01*
X0225641Y0286805D01*
X0226728Y0287891D01*
X0227617Y0287002D01*
X0236074Y0287002D01*
X0237183Y0288110D01*
X0237183Y0292630D01*
X0236074Y0293739D01*
X0227617Y0293739D01*
X0226728Y0292849D01*
X0225641Y0293935D01*
X0221121Y0293935D01*
X0220035Y0292849D01*
X0218948Y0293935D01*
X0214428Y0293935D01*
X0214129Y0293636D01*
X0213830Y0293935D01*
X0209310Y0293935D01*
X0208224Y0292849D01*
X0207137Y0293935D01*
X0206777Y0293935D01*
X0206777Y0294111D01*
X0212880Y0300213D01*
X0212880Y0308655D01*
X0214815Y0308655D01*
X0215923Y0309763D01*
X0215923Y0310124D01*
X0217279Y0310124D01*
X0220942Y0306461D01*
X0220942Y0306344D01*
X0221955Y0305331D01*
X0223068Y0304218D01*
X0226509Y0304218D01*
X0226509Y0303858D01*
X0227617Y0302750D01*
X0236074Y0302750D01*
X0237183Y0303858D01*
X0237183Y0306539D01*
X0289501Y0306539D01*
X0289501Y0303858D01*
X0290609Y0302750D01*
X0299066Y0302750D01*
X0300175Y0303858D01*
X0300175Y0304218D01*
X0302356Y0304218D01*
X0299409Y0301271D01*
X0299066Y0301613D01*
X0290609Y0301613D01*
X0289501Y0300504D01*
X0289501Y0295984D01*
X0290609Y0294876D01*
X0299066Y0294876D01*
X0300175Y0295984D01*
X0300175Y0296663D01*
X0309404Y0305892D01*
X0310517Y0307005D01*
X0310517Y0316848D01*
X0311520Y0317851D01*
X0373174Y0317851D01*
X0414119Y0276905D01*
X0413757Y0276030D01*
X0413757Y0274080D01*
X0414503Y0272279D01*
X0415881Y0270901D01*
X0417682Y0270155D01*
X0419631Y0270155D01*
X0421432Y0270901D01*
X0422811Y0272279D01*
X0423557Y0274080D01*
X0423557Y0276030D01*
X0422811Y0277831D01*
X0421432Y0279209D01*
X0419631Y0279955D01*
X0417682Y0279955D01*
X0416806Y0279592D01*
X0413244Y0283155D01*
X0414140Y0283155D01*
X0414503Y0282279D01*
X0415881Y0280901D01*
X0417682Y0280155D01*
X0419631Y0280155D01*
X0421432Y0280901D01*
X0422811Y0282279D01*
X0423557Y0284080D01*
X0423557Y0286030D01*
X0422811Y0287831D01*
X0421432Y0289209D01*
X0419631Y0289955D01*
X0417682Y0289955D01*
X0415881Y0289209D01*
X0414503Y0287831D01*
X0414140Y0286955D01*
X0411707Y0286955D01*
X0374895Y0323766D01*
X0309799Y0323766D01*
X0308686Y0322653D01*
X0304749Y0318716D01*
X0304749Y0308874D01*
X0304142Y0308266D01*
X0304142Y0341720D01*
X0416201Y0341720D01*
X0416247Y0341679D01*
X0416938Y0341720D01*
X0417454Y0341720D01*
X0418948Y0341710D01*
X0422773Y0340922D01*
X0426264Y0339171D01*
X0429184Y0336576D01*
X0431332Y0333315D01*
X0432562Y0329608D01*
X0432802Y0327691D01*
X0432802Y0235252D01*
X0374420Y0235252D01*
X0374753Y0235584D01*
X0375335Y0235584D01*
X0376317Y0236566D01*
X0376317Y0239607D01*
X0375335Y0240589D01*
X0374331Y0240589D01*
X0374095Y0240687D01*
X0373061Y0240687D01*
X0372825Y0240589D01*
X0371821Y0240589D01*
X0370839Y0239607D01*
X0370839Y0239025D01*
X0369666Y0237852D01*
X0321238Y0237852D01*
X0321238Y0241704D01*
X0320625Y0242317D01*
X0320917Y0242317D01*
X0322025Y0243425D01*
X0322025Y0247945D01*
X0320939Y0249031D01*
X0322025Y0250118D01*
X0322025Y0254638D01*
X0320917Y0255746D01*
X0320360Y0255746D01*
X0320360Y0279346D01*
X0319082Y0280624D01*
X0319082Y0281043D01*
X0318738Y0281874D01*
X0318975Y0281874D01*
X0319927Y0282268D01*
X0320223Y0282565D01*
X0350547Y0282565D01*
X0379855Y0253256D01*
X0379855Y0250118D01*
X0380746Y0249227D01*
X0380662Y0249193D01*
X0380286Y0248942D01*
X0379967Y0248623D01*
X0379716Y0248247D01*
X0379543Y0247830D01*
X0379455Y0247387D01*
X0379455Y0245869D01*
X0383236Y0245869D01*
X0383236Y0245501D01*
X0379455Y0245501D01*
X0379455Y0243983D01*
X0379543Y0243540D01*
X0379716Y0243123D01*
X0379967Y0242748D01*
X0380286Y0242428D01*
X0380621Y0242204D01*
X0380392Y0241807D01*
X0380243Y0241249D01*
X0380243Y0239583D01*
X0383617Y0239583D01*
X0383617Y0239583D01*
X0380243Y0239583D01*
X0380243Y0237916D01*
X0380392Y0237358D01*
X0380681Y0236858D01*
X0381089Y0236449D01*
X0381590Y0236161D01*
X0382147Y0236011D01*
X0383617Y0236011D01*
X0383617Y0239583D01*
X0383617Y0239583D01*
X0383618Y0239583D02*
X0386992Y0239583D01*
X0386992Y0241249D01*
X0386843Y0241807D01*
X0386554Y0242308D01*
X0386482Y0242380D01*
X0386555Y0242428D01*
X0386874Y0242748D01*
X0387125Y0243123D01*
X0387298Y0243540D01*
X0387386Y0243983D01*
X0387386Y0245501D01*
X0383605Y0245501D01*
X0383605Y0245869D01*
X0387386Y0245869D01*
X0387386Y0247387D01*
X0387298Y0247830D01*
X0387125Y0248247D01*
X0386874Y0248623D01*
X0386555Y0248942D01*
X0386180Y0249193D01*
X0386096Y0249227D01*
X0386986Y0250118D01*
X0386986Y0250478D01*
X0387729Y0250478D01*
X0387729Y0250118D01*
X0388816Y0249031D01*
X0387729Y0247945D01*
X0387729Y0243425D01*
X0388787Y0242367D01*
X0388123Y0241704D01*
X0388123Y0237462D01*
X0389174Y0236411D01*
X0388124Y0237461D02*
X0386870Y0237461D01*
X0386843Y0237358D02*
X0386992Y0237916D01*
X0386992Y0239583D01*
X0383618Y0239583D01*
X0383618Y0239583D01*
X0383617Y0239583D02*
X0383617Y0236011D01*
X0385087Y0236011D01*
X0385645Y0236161D01*
X0386145Y0236449D01*
X0386554Y0236858D01*
X0386843Y0237358D01*
X0386992Y0239060D02*
X0388123Y0239060D01*
X0388123Y0240658D02*
X0386992Y0240658D01*
X0386583Y0242257D02*
X0388676Y0242257D01*
X0387729Y0243855D02*
X0387360Y0243855D01*
X0387386Y0245454D02*
X0387729Y0245454D01*
X0387729Y0247052D02*
X0387386Y0247052D01*
X0386846Y0248651D02*
X0388435Y0248651D01*
X0387729Y0250249D02*
X0386986Y0250249D01*
X0386579Y0255045D02*
X0388136Y0255045D01*
X0394453Y0255045D02*
X0413757Y0255045D01*
X0413757Y0254080D02*
X0414503Y0252279D01*
X0415881Y0250901D01*
X0417199Y0250355D01*
X0414920Y0250355D01*
X0414462Y0250232D01*
X0414052Y0249995D01*
X0413716Y0249660D01*
X0413479Y0249250D01*
X0413357Y0248792D01*
X0413357Y0245239D01*
X0418472Y0245239D01*
X0418472Y0244871D01*
X0413357Y0244871D01*
X0413357Y0241318D01*
X0413479Y0240860D01*
X0413716Y0240450D01*
X0414052Y0240115D01*
X0414462Y0239878D01*
X0414920Y0239755D01*
X0418472Y0239755D01*
X0418472Y0244871D01*
X0418841Y0244871D01*
X0418841Y0245239D01*
X0423957Y0245239D01*
X0423957Y0248792D01*
X0423834Y0249250D01*
X0423597Y0249660D01*
X0423262Y0249995D01*
X0422852Y0250232D01*
X0422394Y0250355D01*
X0420114Y0250355D01*
X0421432Y0250901D01*
X0422811Y0252279D01*
X0423557Y0254080D01*
X0423557Y0256030D01*
X0422811Y0257831D01*
X0421432Y0259209D01*
X0419631Y0259955D01*
X0417682Y0259955D01*
X0415881Y0259209D01*
X0414503Y0257831D01*
X0413757Y0256030D01*
X0413757Y0254080D01*
X0414019Y0253446D02*
X0394860Y0253446D01*
X0394860Y0251848D02*
X0414934Y0251848D01*
X0414525Y0250249D02*
X0394860Y0250249D01*
X0394154Y0248651D02*
X0413357Y0248651D01*
X0413357Y0247052D02*
X0394860Y0247052D01*
X0394860Y0245454D02*
X0413357Y0245454D01*
X0413357Y0243855D02*
X0394860Y0243855D01*
X0393519Y0242257D02*
X0413357Y0242257D01*
X0413596Y0240658D02*
X0394073Y0240658D01*
X0394073Y0239060D02*
X0432802Y0239060D01*
X0432802Y0240658D02*
X0423717Y0240658D01*
X0423834Y0240860D02*
X0423957Y0241318D01*
X0423957Y0244871D01*
X0418841Y0244871D01*
X0418841Y0239755D01*
X0422394Y0239755D01*
X0422852Y0239878D01*
X0423262Y0240115D01*
X0423597Y0240450D01*
X0423834Y0240860D01*
X0423957Y0242257D02*
X0432802Y0242257D01*
X0432802Y0243855D02*
X0423957Y0243855D01*
X0423957Y0245454D02*
X0432802Y0245454D01*
X0432802Y0247052D02*
X0423957Y0247052D01*
X0423957Y0248651D02*
X0432802Y0248651D01*
X0432802Y0250249D02*
X0422789Y0250249D01*
X0422379Y0251848D02*
X0432802Y0251848D01*
X0432802Y0253446D02*
X0423294Y0253446D01*
X0423557Y0255045D02*
X0432802Y0255045D01*
X0432802Y0256643D02*
X0423303Y0256643D01*
X0422400Y0258242D02*
X0432802Y0258242D01*
X0432802Y0259840D02*
X0419909Y0259840D01*
X0419631Y0260155D02*
X0421432Y0260901D01*
X0422811Y0262279D01*
X0423557Y0264080D01*
X0423557Y0266030D01*
X0422811Y0267831D01*
X0421432Y0269209D01*
X0419631Y0269955D01*
X0417682Y0269955D01*
X0415881Y0269209D01*
X0414503Y0267831D01*
X0413757Y0266030D01*
X0413757Y0264080D01*
X0414503Y0262279D01*
X0415881Y0260901D01*
X0417682Y0260155D01*
X0419631Y0260155D01*
X0417405Y0259840D02*
X0378645Y0259840D01*
X0380244Y0258242D02*
X0414914Y0258242D01*
X0414011Y0256643D02*
X0381842Y0256643D01*
X0379665Y0253446D02*
X0322025Y0253446D01*
X0322025Y0251848D02*
X0379855Y0251848D01*
X0379855Y0250249D02*
X0322025Y0250249D01*
X0321320Y0248651D02*
X0379995Y0248651D01*
X0379455Y0247052D02*
X0322025Y0247052D01*
X0322025Y0245454D02*
X0379455Y0245454D01*
X0379481Y0243855D02*
X0322025Y0243855D01*
X0320685Y0242257D02*
X0380543Y0242257D01*
X0380243Y0240658D02*
X0374164Y0240658D01*
X0372992Y0240658D02*
X0321238Y0240658D01*
X0321238Y0239060D02*
X0370839Y0239060D01*
X0376317Y0239060D02*
X0380243Y0239060D01*
X0380364Y0237461D02*
X0376317Y0237461D01*
X0375613Y0235863D02*
X0432802Y0235863D01*
X0432802Y0237461D02*
X0394072Y0237461D01*
X0383617Y0237461D02*
X0383617Y0237461D01*
X0383617Y0239060D02*
X0383617Y0239060D01*
X0370839Y0229469D02*
X0340345Y0229469D01*
X0340345Y0227870D02*
X0370839Y0227870D01*
X0371527Y0226272D02*
X0340345Y0226272D01*
X0340345Y0224673D02*
X0385158Y0224673D01*
X0385158Y0223075D02*
X0340345Y0223075D01*
X0340345Y0221476D02*
X0385158Y0221476D01*
X0385158Y0219878D02*
X0340345Y0219878D01*
X0340345Y0218279D02*
X0385158Y0218279D01*
X0385158Y0216680D02*
X0340345Y0216680D01*
X0340345Y0215082D02*
X0385158Y0215082D01*
X0385158Y0213483D02*
X0340345Y0213483D01*
X0340345Y0211885D02*
X0385158Y0211885D01*
X0385158Y0210286D02*
X0340345Y0210286D01*
X0340345Y0208688D02*
X0385158Y0208688D01*
X0385158Y0207089D02*
X0340345Y0207089D01*
X0340345Y0205491D02*
X0385158Y0205491D01*
X0385158Y0203892D02*
X0340345Y0203892D01*
X0340345Y0202294D02*
X0385158Y0202294D01*
X0385158Y0200695D02*
X0340345Y0200695D01*
X0340345Y0199097D02*
X0385158Y0199097D01*
X0385158Y0197498D02*
X0340345Y0197498D01*
X0340345Y0195900D02*
X0385158Y0195900D01*
X0385158Y0194301D02*
X0340345Y0194301D01*
X0340345Y0192703D02*
X0385158Y0192703D01*
X0385158Y0191104D02*
X0340345Y0191104D01*
X0340345Y0189506D02*
X0385158Y0189506D01*
X0385158Y0187907D02*
X0340345Y0187907D01*
X0340345Y0186309D02*
X0385158Y0186309D01*
X0385158Y0184710D02*
X0340345Y0184710D01*
X0340345Y0183112D02*
X0385158Y0183112D01*
X0385158Y0181513D02*
X0340345Y0181513D01*
X0340345Y0179915D02*
X0385158Y0179915D01*
X0385158Y0178316D02*
X0340345Y0178316D01*
X0340345Y0176718D02*
X0385158Y0176718D01*
X0385158Y0175119D02*
X0340345Y0175119D01*
X0340345Y0173521D02*
X0385158Y0173521D01*
X0385158Y0171922D02*
X0341003Y0171922D01*
X0342602Y0170324D02*
X0385158Y0170324D01*
X0385222Y0168725D02*
X0344200Y0168725D01*
X0345799Y0167127D02*
X0346836Y0167127D01*
X0349139Y0167127D02*
X0386820Y0167127D01*
X0388419Y0165528D02*
X0351834Y0165528D01*
X0352893Y0163930D02*
X0390017Y0163930D01*
X0393043Y0167127D02*
X0394080Y0167127D01*
X0400569Y0162331D02*
X0432802Y0162331D01*
X0432802Y0160733D02*
X0400555Y0160733D01*
X0399893Y0159134D02*
X0432802Y0159134D01*
X0432802Y0157536D02*
X0398488Y0157536D01*
X0347987Y0161827D02*
X0338145Y0171669D01*
X0337978Y0168725D02*
X0308767Y0168725D01*
X0310366Y0167127D02*
X0311403Y0167127D01*
X0313706Y0167127D02*
X0339576Y0167127D01*
X0341175Y0165528D02*
X0316401Y0165528D01*
X0317460Y0163930D02*
X0342773Y0163930D01*
X0342650Y0162331D02*
X0317891Y0162331D01*
X0317878Y0160733D02*
X0342664Y0160733D01*
X0343326Y0159134D02*
X0317216Y0159134D01*
X0315811Y0157536D02*
X0344731Y0157536D01*
X0309374Y0205491D02*
X0306880Y0205491D01*
X0306880Y0207089D02*
X0307925Y0207089D01*
X0307262Y0208688D02*
X0306880Y0208688D01*
X0306880Y0210286D02*
X0307217Y0210286D01*
X0306880Y0211885D02*
X0307617Y0211885D01*
X0306880Y0213483D02*
X0308632Y0213483D01*
X0302949Y0232666D02*
X0302475Y0232666D01*
X0303482Y0239060D02*
X0307408Y0239060D01*
X0307408Y0240658D02*
X0301329Y0240658D01*
X0300158Y0240658D02*
X0286188Y0240658D01*
X0286395Y0240866D02*
X0285287Y0239757D01*
X0280767Y0239757D01*
X0279658Y0240866D01*
X0279658Y0249323D01*
X0280767Y0250431D01*
X0285287Y0250431D01*
X0286395Y0249323D01*
X0286395Y0240866D01*
X0286395Y0242257D02*
X0307708Y0242257D01*
X0306646Y0243855D02*
X0286395Y0243855D01*
X0286395Y0245454D02*
X0306621Y0245454D01*
X0306621Y0247052D02*
X0286395Y0247052D01*
X0286395Y0248651D02*
X0289274Y0248651D01*
X0289189Y0248855D02*
X0289362Y0248438D01*
X0289613Y0248062D01*
X0289932Y0247743D01*
X0290307Y0247492D01*
X0290724Y0247320D01*
X0291167Y0247231D01*
X0294654Y0247231D01*
X0294654Y0250816D01*
X0295022Y0250816D01*
X0295022Y0251184D01*
X0300575Y0251184D01*
X0300575Y0252702D01*
X0300487Y0253145D01*
X0300314Y0253562D01*
X0300063Y0253938D01*
X0299744Y0254257D01*
X0299368Y0254508D01*
X0298951Y0254680D01*
X0298509Y0254768D01*
X0295022Y0254768D01*
X0295022Y0251184D01*
X0294654Y0251184D01*
X0294654Y0250816D01*
X0289101Y0250816D01*
X0289101Y0249298D01*
X0289189Y0248855D01*
X0289101Y0250249D02*
X0285469Y0250249D01*
X0289101Y0251184D02*
X0294654Y0251184D01*
X0294654Y0254768D01*
X0291167Y0254768D01*
X0290724Y0254680D01*
X0290307Y0254508D01*
X0289932Y0254257D01*
X0289613Y0253938D01*
X0289362Y0253562D01*
X0289189Y0253145D01*
X0289101Y0252702D01*
X0289101Y0251184D01*
X0289101Y0251848D02*
X0247616Y0251848D01*
X0249088Y0250249D02*
X0246099Y0250249D01*
X0247025Y0248651D02*
X0248162Y0248651D01*
X0248162Y0249323D02*
X0248162Y0240866D01*
X0249271Y0239757D01*
X0253791Y0239757D01*
X0254899Y0240866D01*
X0254899Y0249323D01*
X0253791Y0250431D01*
X0249271Y0250431D01*
X0248162Y0249323D01*
X0248162Y0247052D02*
X0247025Y0247052D01*
X0247025Y0245454D02*
X0248162Y0245454D01*
X0248162Y0243855D02*
X0247025Y0243855D01*
X0247025Y0242257D02*
X0248162Y0242257D01*
X0248370Y0240658D02*
X0246818Y0240658D01*
X0240496Y0240658D02*
X0209033Y0240658D01*
X0209033Y0239060D02*
X0298005Y0239060D01*
X0298509Y0247231D02*
X0295022Y0247231D01*
X0295022Y0250816D01*
X0300575Y0250816D01*
X0300575Y0249298D01*
X0300487Y0248855D01*
X0300314Y0248438D01*
X0300063Y0248062D01*
X0299744Y0247743D01*
X0299368Y0247492D01*
X0298951Y0247320D01*
X0298509Y0247231D01*
X0300402Y0248651D02*
X0307160Y0248651D01*
X0307021Y0250249D02*
X0300575Y0250249D01*
X0300575Y0251848D02*
X0307021Y0251848D01*
X0307021Y0253446D02*
X0300362Y0253446D01*
X0295022Y0253446D02*
X0294654Y0253446D01*
X0294654Y0251848D02*
X0295022Y0251848D01*
X0295022Y0250249D02*
X0294654Y0250249D01*
X0294654Y0248651D02*
X0295022Y0248651D01*
X0289314Y0253446D02*
X0249214Y0253446D01*
X0250813Y0255045D02*
X0307427Y0255045D01*
X0309811Y0259840D02*
X0310180Y0259840D01*
X0310180Y0261439D02*
X0309811Y0261439D01*
X0313583Y0261439D02*
X0316560Y0261439D01*
X0316560Y0263037D02*
X0258805Y0263037D01*
X0257207Y0261439D02*
X0289806Y0261439D01*
X0289501Y0259840D02*
X0255608Y0259840D01*
X0254010Y0258242D02*
X0289501Y0258242D01*
X0289501Y0256643D02*
X0252411Y0256643D01*
X0249386Y0259840D02*
X0237183Y0259840D01*
X0237183Y0261134D02*
X0236074Y0262243D01*
X0231164Y0262243D01*
X0230027Y0263380D01*
X0236074Y0263380D01*
X0237183Y0264488D01*
X0237183Y0269008D01*
X0236074Y0270117D01*
X0227617Y0270117D01*
X0227422Y0269922D01*
X0226727Y0270617D01*
X0206050Y0270617D01*
X0205754Y0270913D01*
X0204802Y0271307D01*
X0203771Y0271307D01*
X0202819Y0270913D01*
X0202091Y0270184D01*
X0201696Y0269232D01*
X0201696Y0268201D01*
X0202091Y0267249D01*
X0202819Y0266520D01*
X0203771Y0266126D01*
X0204802Y0266126D01*
X0205754Y0266520D01*
X0206050Y0266817D01*
X0210534Y0266817D01*
X0209965Y0266247D01*
X0209570Y0265295D01*
X0209570Y0264264D01*
X0209965Y0263312D01*
X0210693Y0262583D01*
X0211645Y0262189D01*
X0212676Y0262189D01*
X0213628Y0262583D01*
X0213924Y0262880D01*
X0225153Y0262880D01*
X0226704Y0261329D01*
X0226509Y0261134D01*
X0226509Y0256614D01*
X0227617Y0255506D01*
X0236074Y0255506D01*
X0237183Y0256614D01*
X0237183Y0261134D01*
X0236878Y0261439D02*
X0250984Y0261439D01*
X0252583Y0263037D02*
X0230369Y0263037D01*
X0226594Y0261439D02*
X0225239Y0261439D01*
X0225969Y0259840D02*
X0226509Y0259840D01*
X0226509Y0258242D02*
X0222188Y0258242D01*
X0221819Y0258242D02*
X0214314Y0258242D01*
X0214314Y0258099D02*
X0214314Y0258468D01*
X0221819Y0258468D01*
X0221819Y0258099D01*
X0218038Y0258099D01*
X0214314Y0258099D01*
X0214313Y0259840D02*
X0213945Y0259840D01*
X0213945Y0261439D02*
X0214313Y0261439D01*
X0217365Y0261439D02*
X0218767Y0261439D01*
X0221819Y0261439D02*
X0222187Y0261439D01*
X0222187Y0259840D02*
X0221819Y0259840D01*
X0225969Y0256643D02*
X0226509Y0256643D01*
X0225156Y0255045D02*
X0244590Y0255045D01*
X0242992Y0253446D02*
X0236997Y0253446D01*
X0237183Y0256643D02*
X0246189Y0256643D01*
X0247787Y0258242D02*
X0237183Y0258242D01*
X0237183Y0264636D02*
X0254181Y0264636D01*
X0255780Y0266234D02*
X0237183Y0266234D01*
X0237183Y0267833D02*
X0257378Y0267833D01*
X0258977Y0269431D02*
X0236760Y0269431D01*
X0236074Y0271254D02*
X0237183Y0272362D01*
X0237183Y0276882D01*
X0236074Y0277991D01*
X0227617Y0277991D01*
X0226509Y0276882D01*
X0226509Y0272362D01*
X0227617Y0271254D01*
X0236074Y0271254D01*
X0237183Y0272628D02*
X0262174Y0272628D01*
X0260575Y0271030D02*
X0205471Y0271030D01*
X0203102Y0271030D02*
X0198084Y0271030D01*
X0196485Y0272628D02*
X0226509Y0272628D01*
X0226509Y0274227D02*
X0194887Y0274227D01*
X0193288Y0275825D02*
X0226509Y0275825D01*
X0227050Y0277424D02*
X0191690Y0277424D01*
X0190091Y0279022D02*
X0302457Y0279022D01*
X0302211Y0280300D02*
X0302940Y0281029D01*
X0303334Y0281981D01*
X0303334Y0283011D01*
X0302940Y0283963D01*
X0302211Y0284692D01*
X0301259Y0285087D01*
X0300228Y0285087D01*
X0299957Y0284974D01*
X0299066Y0285865D01*
X0290609Y0285865D01*
X0289501Y0284756D01*
X0289501Y0280236D01*
X0290609Y0279128D01*
X0299066Y0279128D01*
X0299957Y0280018D01*
X0300228Y0279906D01*
X0301259Y0279906D01*
X0302211Y0280300D01*
X0302532Y0280621D02*
X0304055Y0280621D01*
X0303334Y0282219D02*
X0305654Y0282219D01*
X0307252Y0283818D02*
X0303000Y0283818D01*
X0303227Y0285811D02*
X0304179Y0286205D01*
X0304908Y0286934D01*
X0305302Y0287886D01*
X0305302Y0288917D01*
X0304908Y0289869D01*
X0304179Y0290598D01*
X0303227Y0290992D01*
X0302808Y0290992D01*
X0301530Y0292270D01*
X0300175Y0292270D01*
X0300175Y0292630D01*
X0299066Y0293739D01*
X0290609Y0293739D01*
X0289501Y0292630D01*
X0289501Y0288110D01*
X0290609Y0287002D01*
X0299066Y0287002D01*
X0300121Y0288056D01*
X0300121Y0287886D01*
X0300516Y0286934D01*
X0301244Y0286205D01*
X0302197Y0285811D01*
X0303227Y0285811D01*
X0304942Y0287015D02*
X0310449Y0287015D01*
X0308851Y0285416D02*
X0299515Y0285416D01*
X0299080Y0287015D02*
X0300482Y0287015D01*
X0301990Y0291811D02*
X0313725Y0291811D01*
X0313725Y0293409D02*
X0299396Y0293409D01*
X0299198Y0295008D02*
X0313725Y0295008D01*
X0313725Y0296606D02*
X0300175Y0296606D01*
X0301717Y0298205D02*
X0313725Y0298205D01*
X0313725Y0299803D02*
X0303315Y0299803D01*
X0304914Y0301402D02*
X0313725Y0301402D01*
X0313725Y0303000D02*
X0306512Y0303000D01*
X0308111Y0304599D02*
X0313725Y0304599D01*
X0313725Y0306197D02*
X0309709Y0306197D01*
X0310517Y0307796D02*
X0313725Y0307796D01*
X0311602Y0309394D02*
X0310517Y0309394D01*
X0310517Y0310993D02*
X0310682Y0310993D01*
X0310682Y0312591D02*
X0310517Y0312591D01*
X0310517Y0314190D02*
X0310682Y0314190D01*
X0310517Y0315788D02*
X0311635Y0315788D01*
X0311056Y0317387D02*
X0373638Y0317387D01*
X0375237Y0315788D02*
X0340875Y0315788D01*
X0341828Y0314190D02*
X0376835Y0314190D01*
X0378434Y0312591D02*
X0341828Y0312591D01*
X0341828Y0310993D02*
X0380032Y0310993D01*
X0381631Y0309394D02*
X0340908Y0309394D01*
X0332862Y0309394D02*
X0319648Y0309394D01*
X0317525Y0307796D02*
X0383229Y0307796D01*
X0384828Y0306197D02*
X0317525Y0306197D01*
X0317525Y0304599D02*
X0386426Y0304599D01*
X0388025Y0303000D02*
X0317525Y0303000D01*
X0317525Y0301402D02*
X0389623Y0301402D01*
X0391222Y0299803D02*
X0317525Y0299803D01*
X0317525Y0298205D02*
X0392820Y0298205D01*
X0394419Y0296606D02*
X0317525Y0296606D01*
X0317525Y0295008D02*
X0396017Y0295008D01*
X0397616Y0293409D02*
X0317525Y0293409D01*
X0317525Y0291811D02*
X0399214Y0291811D01*
X0400813Y0290212D02*
X0317525Y0290212D01*
X0317422Y0288613D02*
X0402411Y0288613D01*
X0404010Y0287015D02*
X0319072Y0287015D01*
X0317848Y0287015D02*
X0315823Y0287015D01*
X0316050Y0285416D02*
X0314225Y0285416D01*
X0312626Y0283818D02*
X0315924Y0283818D01*
X0314520Y0282219D02*
X0311028Y0282219D01*
X0309429Y0280621D02*
X0313901Y0280621D01*
X0314333Y0279022D02*
X0307831Y0279022D01*
X0306972Y0277424D02*
X0306326Y0277424D01*
X0309995Y0274622D02*
X0306058Y0270685D01*
X0263342Y0270685D01*
X0243657Y0251000D01*
X0231846Y0251000D01*
X0237094Y0248651D02*
X0240288Y0248651D01*
X0240288Y0247052D02*
X0209821Y0247052D01*
X0209821Y0245454D02*
X0240288Y0245454D01*
X0240288Y0243855D02*
X0209821Y0243855D01*
X0208480Y0242257D02*
X0240288Y0242257D01*
X0254692Y0240658D02*
X0256244Y0240658D01*
X0256036Y0240866D02*
X0257145Y0239757D01*
X0261665Y0239757D01*
X0262773Y0240866D01*
X0262773Y0249323D01*
X0261665Y0250431D01*
X0257145Y0250431D01*
X0256036Y0249323D01*
X0256036Y0240866D01*
X0256036Y0242257D02*
X0254899Y0242257D01*
X0254899Y0243855D02*
X0256036Y0243855D01*
X0256036Y0245454D02*
X0254899Y0245454D01*
X0254899Y0247052D02*
X0256036Y0247052D01*
X0256036Y0248651D02*
X0254899Y0248651D01*
X0253973Y0250249D02*
X0256962Y0250249D01*
X0261847Y0250249D02*
X0264836Y0250249D01*
X0265019Y0250431D02*
X0263910Y0249323D01*
X0263910Y0240866D01*
X0265019Y0239757D01*
X0269539Y0239757D01*
X0270647Y0240866D01*
X0270647Y0249323D01*
X0269539Y0250431D01*
X0265019Y0250431D01*
X0263910Y0248651D02*
X0262773Y0248651D01*
X0262773Y0247052D02*
X0263910Y0247052D01*
X0263910Y0245454D02*
X0262773Y0245454D01*
X0262773Y0243855D02*
X0263910Y0243855D01*
X0263910Y0242257D02*
X0262773Y0242257D01*
X0262566Y0240658D02*
X0264118Y0240658D01*
X0270440Y0240658D02*
X0271992Y0240658D01*
X0271784Y0240866D02*
X0272893Y0239757D01*
X0277413Y0239757D01*
X0278521Y0240866D01*
X0278521Y0249323D01*
X0277413Y0250431D01*
X0272893Y0250431D01*
X0271784Y0249323D01*
X0271784Y0240866D01*
X0271784Y0242257D02*
X0270647Y0242257D01*
X0270647Y0243855D02*
X0271784Y0243855D01*
X0271784Y0245454D02*
X0270647Y0245454D01*
X0270647Y0247052D02*
X0271784Y0247052D01*
X0271784Y0248651D02*
X0270647Y0248651D01*
X0269721Y0250249D02*
X0272710Y0250249D01*
X0277595Y0250249D02*
X0280584Y0250249D01*
X0279658Y0248651D02*
X0278521Y0248651D01*
X0278521Y0247052D02*
X0279658Y0247052D01*
X0279658Y0245454D02*
X0278521Y0245454D01*
X0278521Y0243855D02*
X0279658Y0243855D01*
X0279658Y0242257D02*
X0278521Y0242257D01*
X0278314Y0240658D02*
X0279866Y0240658D01*
X0255468Y0235252D02*
X0255468Y0171669D01*
X0265310Y0161827D01*
X0259973Y0162331D02*
X0235214Y0162331D01*
X0235201Y0160733D02*
X0259987Y0160733D01*
X0260649Y0159134D02*
X0234539Y0159134D01*
X0233134Y0157536D02*
X0262054Y0157536D01*
X0260096Y0163930D02*
X0234783Y0163930D01*
X0233724Y0165528D02*
X0258498Y0165528D01*
X0229877Y0161827D02*
X0202318Y0189386D01*
X0202318Y0227378D01*
X0202318Y0230921D01*
X0201924Y0230528D01*
X0201936Y0237852D02*
X0201953Y0237916D01*
X0201953Y0239583D01*
X0201953Y0241249D01*
X0201803Y0241807D01*
X0201515Y0242308D01*
X0201443Y0242380D01*
X0201516Y0242428D01*
X0201835Y0242748D01*
X0202086Y0243123D01*
X0202258Y0243540D01*
X0202347Y0243983D01*
X0202347Y0245501D01*
X0198566Y0245501D01*
X0198566Y0245869D01*
X0202347Y0245869D01*
X0202347Y0247387D01*
X0202258Y0247830D01*
X0202086Y0248247D01*
X0201835Y0248623D01*
X0201516Y0248942D01*
X0201140Y0249193D01*
X0201056Y0249227D01*
X0201947Y0250118D01*
X0201947Y0250478D01*
X0202690Y0250478D01*
X0202690Y0250118D01*
X0203776Y0249031D01*
X0202690Y0247945D01*
X0202690Y0243425D01*
X0203747Y0242367D01*
X0203084Y0241704D01*
X0203084Y0237852D01*
X0201936Y0237852D01*
X0201953Y0239060D02*
X0203084Y0239060D01*
X0201953Y0239583D02*
X0198578Y0239583D01*
X0198578Y0239583D01*
X0195203Y0239583D01*
X0195203Y0241249D01*
X0195353Y0241807D01*
X0195582Y0242204D01*
X0195247Y0242428D01*
X0194928Y0242748D01*
X0194677Y0243123D01*
X0194504Y0243540D01*
X0194416Y0243983D01*
X0194416Y0245501D01*
X0198197Y0245501D01*
X0198197Y0245869D01*
X0194416Y0245869D01*
X0194416Y0247387D01*
X0194504Y0247830D01*
X0194677Y0248247D01*
X0194928Y0248623D01*
X0195247Y0248942D01*
X0195622Y0249193D01*
X0195706Y0249227D01*
X0194816Y0250118D01*
X0194816Y0254638D01*
X0195924Y0255746D01*
X0200838Y0255746D01*
X0201947Y0254638D01*
X0201947Y0254278D01*
X0202690Y0254278D01*
X0202690Y0254638D01*
X0202790Y0254738D01*
X0202091Y0255438D01*
X0201696Y0256390D01*
X0201696Y0257421D01*
X0202091Y0258373D01*
X0202819Y0259102D01*
X0203105Y0259220D01*
X0177997Y0284328D01*
X0144860Y0284328D01*
X0144860Y0283582D01*
X0143970Y0282692D01*
X0144054Y0282657D01*
X0144429Y0282406D01*
X0144748Y0282087D01*
X0144999Y0281712D01*
X0145172Y0281295D01*
X0145260Y0280852D01*
X0145260Y0279334D01*
X0141479Y0279334D01*
X0141479Y0278965D01*
X0141479Y0275381D01*
X0143194Y0275381D01*
X0143636Y0275469D01*
X0144054Y0275642D01*
X0144429Y0275893D01*
X0144748Y0276212D01*
X0144999Y0276587D01*
X0145172Y0277005D01*
X0145260Y0277447D01*
X0145260Y0278965D01*
X0141479Y0278965D01*
X0141110Y0278965D01*
X0141110Y0275381D01*
X0139396Y0275381D01*
X0138953Y0275469D01*
X0138536Y0275642D01*
X0138160Y0275893D01*
X0137841Y0276212D01*
X0137590Y0276587D01*
X0137465Y0276889D01*
X0136555Y0275978D01*
X0131861Y0275978D01*
X0130839Y0277000D01*
X0130839Y0278207D01*
X0129916Y0277283D01*
X0129185Y0276552D01*
X0128229Y0276156D01*
X0126890Y0276156D01*
X0126712Y0275978D01*
X0122019Y0275978D01*
X0121386Y0276610D01*
X0121377Y0276587D01*
X0121126Y0276212D01*
X0120807Y0275893D01*
X0120431Y0275642D01*
X0120014Y0275469D01*
X0119571Y0275381D01*
X0117857Y0275381D01*
X0117857Y0278965D01*
X0117488Y0278965D01*
X0117488Y0275381D01*
X0115774Y0275381D01*
X0115331Y0275469D01*
X0114914Y0275642D01*
X0114538Y0275893D01*
X0114219Y0276212D01*
X0113968Y0276587D01*
X0113795Y0277005D01*
X0113707Y0277447D01*
X0113707Y0278965D01*
X0117488Y0278965D01*
X0117488Y0279334D01*
X0113707Y0279334D01*
X0113707Y0280852D01*
X0113795Y0281295D01*
X0113968Y0281712D01*
X0114219Y0282087D01*
X0114538Y0282406D01*
X0114914Y0282657D01*
X0114998Y0282692D01*
X0114107Y0283582D01*
X0114107Y0283833D01*
X0112433Y0283833D01*
X0111665Y0283065D01*
X0103995Y0283065D01*
X0102887Y0284173D01*
X0102887Y0288693D01*
X0103995Y0289802D01*
X0111665Y0289802D01*
X0112433Y0289033D01*
X0115038Y0289033D01*
X0115216Y0289211D01*
X0120129Y0289211D01*
X0120504Y0288836D01*
X0121841Y0288836D01*
X0122019Y0289014D01*
X0126712Y0289014D01*
X0126890Y0288836D01*
X0128229Y0288836D01*
X0129185Y0288440D01*
X0130839Y0286786D01*
X0130839Y0287992D01*
X0131861Y0289014D01*
X0132308Y0289014D01*
X0132308Y0318026D01*
X0132219Y0317989D01*
X0131776Y0317901D01*
X0130258Y0317901D01*
X0130258Y0321682D01*
X0129890Y0321682D01*
X0129890Y0317901D01*
X0128372Y0317901D01*
X0127929Y0317989D01*
X0127512Y0318162D01*
X0127137Y0318413D01*
X0126817Y0318732D01*
X0126566Y0319107D01*
X0126394Y0319524D01*
X0126306Y0319967D01*
X0126306Y0321682D01*
X0129890Y0321682D01*
X0129890Y0322050D01*
X0126306Y0322050D01*
X0126306Y0323765D01*
X0126394Y0324208D01*
X0126566Y0324625D01*
X0126817Y0325001D01*
X0127137Y0325320D01*
X0127512Y0325571D01*
X0127929Y0325743D01*
X0128372Y0325831D01*
X0128737Y0325831D01*
X0128568Y0326000D01*
X0128568Y0326765D01*
X0128544Y0326765D01*
X0127493Y0327816D01*
X0127493Y0331664D01*
X0128544Y0332715D01*
X0132392Y0332715D01*
X0133421Y0331686D01*
X0134449Y0332715D01*
X0138297Y0332715D01*
X0139348Y0331664D01*
X0139348Y0327816D01*
X0138297Y0326765D01*
X0138273Y0326765D01*
X0138273Y0325431D01*
X0139027Y0325431D01*
X0140135Y0324323D01*
X0140135Y0319409D01*
X0139027Y0318301D01*
X0136108Y0318301D01*
X0136108Y0289014D01*
X0136555Y0289014D01*
X0136733Y0288836D01*
X0138463Y0288836D01*
X0138838Y0289211D01*
X0143752Y0289211D01*
X0143834Y0289128D01*
X0179469Y0289128D01*
X0180351Y0288763D01*
X0180486Y0288628D01*
X0201509Y0288628D01*
X0201509Y0292827D01*
X0202617Y0293935D01*
X0202977Y0293935D01*
X0202977Y0295685D01*
X0209080Y0301787D01*
X0209080Y0308655D01*
X0207145Y0308655D01*
X0206036Y0309763D01*
X0206036Y0310124D01*
X0194663Y0310124D01*
X0194663Y0309763D01*
X0193555Y0308655D01*
X0185885Y0308655D01*
X0184776Y0309763D01*
X0184776Y0314284D01*
X0185885Y0315392D01*
X0193555Y0315392D01*
X0194663Y0314284D01*
X0194663Y0313924D01*
X0206036Y0313924D01*
X0206036Y0314284D01*
X0207145Y0315392D01*
X0214815Y0315392D01*
X0215923Y0314284D01*
X0215923Y0313924D01*
X0218853Y0313924D01*
X0222542Y0310235D01*
X0222542Y0341720D01*
X0078392Y0341720D01*
X0076737Y0341500D01*
X0073525Y0340406D01*
X0070707Y0338518D01*
X0068472Y0335964D01*
X0066975Y0332920D01*
X0066317Y0329591D01*
X0066318Y0328522D01*
X0066323Y0328517D01*
X0066323Y0327832D01*
X0066369Y0327147D01*
X0066323Y0327095D01*
X0066323Y0235252D01*
X0080446Y0235252D01*
X0080446Y0236000D01*
X0081019Y0237383D01*
X0081608Y0237973D01*
X0081608Y0251517D01*
X0082004Y0252473D01*
X0102887Y0273356D01*
X0102887Y0276882D01*
X0103995Y0277991D01*
X0111665Y0277991D01*
X0112773Y0276882D01*
X0112773Y0272362D01*
X0111665Y0271254D01*
X0108138Y0271254D01*
X0086808Y0249923D01*
X0086808Y0237973D01*
X0086928Y0237852D01*
X0121635Y0237852D01*
X0122808Y0239025D01*
X0122808Y0239607D01*
X0123789Y0240589D01*
X0124794Y0240589D01*
X0125029Y0240687D01*
X0126064Y0240687D01*
X0126299Y0240589D01*
X0127304Y0240589D01*
X0128285Y0239607D01*
X0128285Y0237852D01*
X0132228Y0237852D01*
X0132211Y0237916D01*
X0132211Y0239583D01*
X0135586Y0239583D01*
X0138961Y0239583D01*
X0138961Y0241249D01*
X0138811Y0241807D01*
X0138522Y0242308D01*
X0138450Y0242380D01*
X0138523Y0242428D01*
X0138843Y0242748D01*
X0139094Y0243123D01*
X0139266Y0243540D01*
X0139354Y0243983D01*
X0139354Y0245501D01*
X0135573Y0245501D01*
X0135573Y0245869D01*
X0139354Y0245869D01*
X0139354Y0247387D01*
X0139266Y0247830D01*
X0139094Y0248247D01*
X0138843Y0248623D01*
X0138523Y0248942D01*
X0138148Y0249193D01*
X0138064Y0249227D01*
X0138954Y0250118D01*
X0138954Y0250478D01*
X0139698Y0250478D01*
X0139698Y0250118D01*
X0140784Y0249031D01*
X0139698Y0247945D01*
X0139698Y0243425D01*
X0140755Y0242367D01*
X0140091Y0241704D01*
X0140091Y0237852D01*
X0138944Y0237852D01*
X0138961Y0237916D01*
X0138961Y0239583D01*
X0135586Y0239583D01*
X0135586Y0239583D01*
X0135586Y0239583D01*
X0132211Y0239583D01*
X0132211Y0241249D01*
X0132361Y0241807D01*
X0132590Y0242204D01*
X0132255Y0242428D01*
X0131935Y0242748D01*
X0131685Y0243123D01*
X0131512Y0243540D01*
X0131424Y0243983D01*
X0131424Y0245501D01*
X0135205Y0245501D01*
X0135205Y0245869D01*
X0131424Y0245869D01*
X0131424Y0247387D01*
X0131512Y0247830D01*
X0131685Y0248247D01*
X0131935Y0248623D01*
X0132255Y0248942D01*
X0132630Y0249193D01*
X0132714Y0249227D01*
X0131824Y0250118D01*
X0131824Y0254638D01*
X0132932Y0255746D01*
X0137846Y0255746D01*
X0138954Y0254638D01*
X0138954Y0254278D01*
X0139698Y0254278D01*
X0139698Y0254638D01*
X0140806Y0255746D01*
X0145720Y0255746D01*
X0146828Y0254638D01*
X0146828Y0254278D01*
X0187161Y0254278D01*
X0193822Y0260939D01*
X0193822Y0261358D01*
X0194217Y0262310D01*
X0194945Y0263039D01*
X0195897Y0263433D01*
X0196928Y0263433D01*
X0197880Y0263039D01*
X0198609Y0262310D01*
X0199003Y0261358D01*
X0199003Y0260327D01*
X0198609Y0259375D01*
X0197880Y0258646D01*
X0196928Y0258252D01*
X0196509Y0258252D01*
X0189848Y0251591D01*
X0188735Y0250478D01*
X0146828Y0250478D01*
X0146828Y0250118D01*
X0145742Y0249031D01*
X0146828Y0247945D01*
X0146828Y0243425D01*
X0145720Y0242317D01*
X0145428Y0242317D01*
X0146041Y0241704D01*
X0146041Y0237852D01*
X0184627Y0237852D01*
X0185800Y0239025D01*
X0185800Y0239607D01*
X0186782Y0240589D01*
X0187786Y0240589D01*
X0188021Y0240687D01*
X0189056Y0240687D01*
X0189292Y0240589D01*
X0190296Y0240589D01*
X0191277Y0239607D01*
X0191277Y0237852D01*
X0195220Y0237852D01*
X0195203Y0237916D01*
X0195203Y0239583D01*
X0198578Y0239583D01*
X0201953Y0239583D01*
X0201953Y0240658D02*
X0203084Y0240658D01*
X0203637Y0242257D02*
X0201544Y0242257D01*
X0202321Y0243855D02*
X0202690Y0243855D01*
X0202690Y0245454D02*
X0202347Y0245454D01*
X0202347Y0247052D02*
X0202690Y0247052D01*
X0203395Y0248651D02*
X0201807Y0248651D01*
X0201947Y0250249D02*
X0202690Y0250249D01*
X0202484Y0255045D02*
X0201540Y0255045D01*
X0201696Y0256643D02*
X0194900Y0256643D01*
X0195223Y0255045D02*
X0193302Y0255045D01*
X0194816Y0253446D02*
X0191703Y0253446D01*
X0190105Y0251848D02*
X0194816Y0251848D01*
X0194816Y0250249D02*
X0146828Y0250249D01*
X0146123Y0248651D02*
X0194956Y0248651D01*
X0194416Y0247052D02*
X0146828Y0247052D01*
X0146828Y0245454D02*
X0194416Y0245454D01*
X0194441Y0243855D02*
X0146828Y0243855D01*
X0145488Y0242257D02*
X0195504Y0242257D01*
X0195203Y0240658D02*
X0189125Y0240658D01*
X0187953Y0240658D02*
X0146041Y0240658D01*
X0146041Y0239060D02*
X0185800Y0239060D01*
X0191277Y0239060D02*
X0195203Y0239060D01*
X0198578Y0239583D02*
X0198578Y0239583D01*
X0190744Y0232666D02*
X0190270Y0232666D01*
X0172791Y0235252D02*
X0172791Y0171669D01*
X0182633Y0161827D01*
X0147200Y0161827D02*
X0139326Y0169701D01*
X0139326Y0227378D01*
X0139326Y0230921D01*
X0138932Y0230528D01*
X0137126Y0224673D02*
X0066323Y0224673D01*
X0066323Y0223075D02*
X0137126Y0223075D01*
X0137126Y0221476D02*
X0066323Y0221476D01*
X0066323Y0219878D02*
X0137126Y0219878D01*
X0137126Y0218279D02*
X0066323Y0218279D01*
X0066323Y0216680D02*
X0137126Y0216680D01*
X0137126Y0215082D02*
X0066323Y0215082D01*
X0066323Y0213483D02*
X0137126Y0213483D01*
X0137126Y0211885D02*
X0066323Y0211885D01*
X0066323Y0210286D02*
X0137126Y0210286D01*
X0137126Y0208688D02*
X0066323Y0208688D01*
X0066323Y0207089D02*
X0137126Y0207089D01*
X0137126Y0205491D02*
X0066323Y0205491D01*
X0066323Y0203892D02*
X0137126Y0203892D01*
X0137126Y0202294D02*
X0066323Y0202294D01*
X0066323Y0200695D02*
X0137126Y0200695D01*
X0137126Y0199097D02*
X0066323Y0199097D01*
X0066323Y0197498D02*
X0137126Y0197498D01*
X0137126Y0195900D02*
X0066323Y0195900D01*
X0066323Y0194301D02*
X0137126Y0194301D01*
X0137126Y0192703D02*
X0066323Y0192703D01*
X0066323Y0191104D02*
X0137126Y0191104D01*
X0137126Y0189506D02*
X0066323Y0189506D01*
X0066323Y0187907D02*
X0137126Y0187907D01*
X0137126Y0186309D02*
X0066323Y0186309D01*
X0066323Y0184710D02*
X0137126Y0184710D01*
X0137126Y0183112D02*
X0066323Y0183112D01*
X0066323Y0181513D02*
X0137126Y0181513D01*
X0137126Y0179915D02*
X0066323Y0179915D01*
X0066323Y0178316D02*
X0137126Y0178316D01*
X0137126Y0176718D02*
X0066323Y0176718D01*
X0066323Y0175119D02*
X0137126Y0175119D01*
X0137126Y0173521D02*
X0066323Y0173521D01*
X0066323Y0171922D02*
X0137126Y0171922D01*
X0137126Y0170324D02*
X0066323Y0170324D01*
X0066323Y0168725D02*
X0137190Y0168725D01*
X0138789Y0167127D02*
X0101107Y0167127D01*
X0098805Y0167127D02*
X0066323Y0167127D01*
X0066323Y0165528D02*
X0081998Y0165528D01*
X0080762Y0163930D02*
X0066323Y0163930D01*
X0066323Y0162331D02*
X0080446Y0162331D01*
X0080834Y0160733D02*
X0066323Y0160733D01*
X0066323Y0159134D02*
X0082303Y0159134D01*
X0086418Y0165528D02*
X0096110Y0165528D01*
X0103802Y0165528D02*
X0140387Y0165528D01*
X0150380Y0205491D02*
X0170591Y0205491D01*
X0170591Y0207089D02*
X0151830Y0207089D01*
X0152492Y0208688D02*
X0170591Y0208688D01*
X0170591Y0210286D02*
X0152537Y0210286D01*
X0152137Y0211885D02*
X0170591Y0211885D01*
X0170591Y0213483D02*
X0151123Y0213483D01*
X0127752Y0232666D02*
X0127278Y0232666D01*
X0124997Y0231067D02*
X0066323Y0231067D01*
X0066323Y0229469D02*
X0122808Y0229469D01*
X0122808Y0227870D02*
X0066323Y0227870D01*
X0066323Y0226272D02*
X0123496Y0226272D01*
X0122808Y0239060D02*
X0086808Y0239060D01*
X0086808Y0240658D02*
X0124961Y0240658D01*
X0126132Y0240658D02*
X0132211Y0240658D01*
X0132211Y0239060D02*
X0128285Y0239060D01*
X0132511Y0242257D02*
X0086808Y0242257D01*
X0086808Y0243855D02*
X0131449Y0243855D01*
X0131424Y0245454D02*
X0086808Y0245454D01*
X0086808Y0247052D02*
X0131424Y0247052D01*
X0131964Y0248651D02*
X0086808Y0248651D01*
X0087134Y0250249D02*
X0131824Y0250249D01*
X0131824Y0251848D02*
X0088733Y0251848D01*
X0090331Y0253446D02*
X0131824Y0253446D01*
X0132230Y0255045D02*
X0091930Y0255045D01*
X0093528Y0256643D02*
X0189526Y0256643D01*
X0187928Y0255045D02*
X0146422Y0255045D01*
X0140104Y0255045D02*
X0138548Y0255045D01*
X0138954Y0250249D02*
X0139698Y0250249D01*
X0140403Y0248651D02*
X0138815Y0248651D01*
X0139354Y0247052D02*
X0139698Y0247052D01*
X0139698Y0245454D02*
X0139354Y0245454D01*
X0139329Y0243855D02*
X0139698Y0243855D01*
X0140644Y0242257D02*
X0138552Y0242257D01*
X0138961Y0240658D02*
X0140091Y0240658D01*
X0140091Y0239060D02*
X0138961Y0239060D01*
X0112773Y0272628D02*
X0189697Y0272628D01*
X0191296Y0271030D02*
X0107915Y0271030D01*
X0106316Y0269431D02*
X0192894Y0269431D01*
X0194493Y0267833D02*
X0104718Y0267833D01*
X0103119Y0266234D02*
X0196091Y0266234D01*
X0197690Y0264636D02*
X0101521Y0264636D01*
X0099922Y0263037D02*
X0194944Y0263037D01*
X0193856Y0261439D02*
X0098324Y0261439D01*
X0096725Y0259840D02*
X0192723Y0259840D01*
X0191125Y0258242D02*
X0095127Y0258242D01*
X0090970Y0261439D02*
X0066323Y0261439D01*
X0066323Y0263037D02*
X0092568Y0263037D01*
X0094167Y0264636D02*
X0066323Y0264636D01*
X0066323Y0266234D02*
X0095765Y0266234D01*
X0097364Y0267833D02*
X0066323Y0267833D01*
X0066323Y0269431D02*
X0098962Y0269431D01*
X0100561Y0271030D02*
X0066323Y0271030D01*
X0066323Y0272628D02*
X0102159Y0272628D01*
X0102887Y0274227D02*
X0066323Y0274227D01*
X0066323Y0275825D02*
X0102887Y0275825D01*
X0103428Y0277424D02*
X0066323Y0277424D01*
X0066323Y0279022D02*
X0117488Y0279022D01*
X0117488Y0277424D02*
X0117857Y0277424D01*
X0117857Y0275825D02*
X0117488Y0275825D01*
X0114639Y0275825D02*
X0112773Y0275825D01*
X0112773Y0274227D02*
X0188099Y0274227D01*
X0186500Y0275825D02*
X0144328Y0275825D01*
X0145255Y0277424D02*
X0184902Y0277424D01*
X0183303Y0279022D02*
X0141479Y0279022D01*
X0141479Y0277424D02*
X0141110Y0277424D01*
X0141110Y0275825D02*
X0141479Y0275825D01*
X0138261Y0275825D02*
X0120706Y0275825D01*
X0113712Y0277424D02*
X0112232Y0277424D01*
X0113707Y0280621D02*
X0066323Y0280621D01*
X0066323Y0282219D02*
X0114351Y0282219D01*
X0114107Y0283818D02*
X0112418Y0283818D01*
X0103242Y0283818D02*
X0066323Y0283818D01*
X0066323Y0285416D02*
X0102887Y0285416D01*
X0102887Y0287015D02*
X0066323Y0287015D01*
X0066323Y0288613D02*
X0102887Y0288613D01*
X0128767Y0288613D02*
X0131461Y0288613D01*
X0130839Y0287015D02*
X0130610Y0287015D01*
X0132308Y0290212D02*
X0066323Y0290212D01*
X0066323Y0291811D02*
X0132308Y0291811D01*
X0132308Y0293409D02*
X0066323Y0293409D01*
X0066323Y0295008D02*
X0132308Y0295008D01*
X0132308Y0296606D02*
X0066323Y0296606D01*
X0066323Y0298205D02*
X0132308Y0298205D01*
X0132308Y0299803D02*
X0066323Y0299803D01*
X0066323Y0301402D02*
X0132308Y0301402D01*
X0132308Y0303000D02*
X0066323Y0303000D01*
X0066323Y0304599D02*
X0132308Y0304599D01*
X0132308Y0306197D02*
X0066323Y0306197D01*
X0066323Y0307796D02*
X0132308Y0307796D01*
X0132308Y0309394D02*
X0066323Y0309394D01*
X0066323Y0310993D02*
X0132308Y0310993D01*
X0132308Y0312591D02*
X0066323Y0312591D01*
X0066323Y0314190D02*
X0132308Y0314190D01*
X0132308Y0315788D02*
X0086065Y0315788D01*
X0085964Y0315734D02*
X0087117Y0316350D01*
X0088203Y0317076D01*
X0089213Y0317905D01*
X0090137Y0318829D01*
X0090966Y0319839D01*
X0091692Y0320926D01*
X0092308Y0322078D01*
X0092809Y0323286D01*
X0093188Y0324536D01*
X0093443Y0325818D01*
X0093556Y0326972D01*
X0081071Y0326972D01*
X0081071Y0328572D01*
X0079471Y0328572D01*
X0079471Y0341057D01*
X0078317Y0340944D01*
X0077035Y0340689D01*
X0075785Y0340309D01*
X0074578Y0339809D01*
X0073425Y0339193D01*
X0072339Y0338467D01*
X0071328Y0337638D01*
X0070404Y0336714D01*
X0069575Y0335704D01*
X0068849Y0334617D01*
X0068233Y0333465D01*
X0067733Y0332258D01*
X0067354Y0331007D01*
X0067099Y0329726D01*
X0066985Y0328572D01*
X0079471Y0328572D01*
X0079471Y0326972D01*
X0066985Y0326972D01*
X0067099Y0325818D01*
X0067354Y0324536D01*
X0067733Y0323286D01*
X0068233Y0322078D01*
X0068849Y0320926D01*
X0069575Y0319839D01*
X0070404Y0318829D01*
X0071328Y0317905D01*
X0072339Y0317076D01*
X0073425Y0316350D01*
X0074578Y0315734D01*
X0075785Y0315234D01*
X0077035Y0314855D01*
X0078317Y0314600D01*
X0079471Y0314486D01*
X0079471Y0326972D01*
X0081071Y0326972D01*
X0081071Y0314486D01*
X0082225Y0314600D01*
X0083506Y0314855D01*
X0084757Y0315234D01*
X0085964Y0315734D01*
X0088582Y0317387D02*
X0132308Y0317387D01*
X0130258Y0318985D02*
X0129890Y0318985D01*
X0129890Y0320584D02*
X0130258Y0320584D01*
X0126648Y0318985D02*
X0090266Y0318985D01*
X0091464Y0320584D02*
X0126306Y0320584D01*
X0126306Y0322182D02*
X0092352Y0322182D01*
X0092959Y0323781D02*
X0126309Y0323781D01*
X0127226Y0325379D02*
X0093356Y0325379D01*
X0093556Y0328572D02*
X0093443Y0329726D01*
X0093188Y0331007D01*
X0092809Y0332258D01*
X0092308Y0333465D01*
X0091692Y0334617D01*
X0090966Y0335704D01*
X0090137Y0336714D01*
X0089213Y0337638D01*
X0088203Y0338467D01*
X0087117Y0339193D01*
X0085964Y0339809D01*
X0084757Y0340309D01*
X0083506Y0340689D01*
X0082225Y0340944D01*
X0081071Y0341057D01*
X0081071Y0328572D01*
X0093556Y0328572D01*
X0093556Y0328576D02*
X0127493Y0328576D01*
X0127493Y0330175D02*
X0093353Y0330175D01*
X0092956Y0331773D02*
X0127602Y0331773D01*
X0128331Y0326978D02*
X0081071Y0326978D01*
X0081071Y0328576D02*
X0079471Y0328576D01*
X0079471Y0326978D02*
X0066323Y0326978D01*
X0066318Y0328576D02*
X0066986Y0328576D01*
X0067188Y0330175D02*
X0066432Y0330175D01*
X0066748Y0331773D02*
X0067586Y0331773D01*
X0067197Y0333372D02*
X0068195Y0333372D01*
X0067984Y0334970D02*
X0069085Y0334970D01*
X0069001Y0336569D02*
X0070285Y0336569D01*
X0070400Y0338167D02*
X0071973Y0338167D01*
X0072570Y0339766D02*
X0074497Y0339766D01*
X0076339Y0341364D02*
X0222542Y0341364D01*
X0222542Y0339766D02*
X0086045Y0339766D01*
X0088569Y0338167D02*
X0222542Y0338167D01*
X0222542Y0336569D02*
X0090257Y0336569D01*
X0091457Y0334970D02*
X0222542Y0334970D01*
X0222542Y0333372D02*
X0092347Y0333372D01*
X0081071Y0333372D02*
X0079471Y0333372D01*
X0079471Y0334970D02*
X0081071Y0334970D01*
X0081071Y0336569D02*
X0079471Y0336569D01*
X0079471Y0338167D02*
X0081071Y0338167D01*
X0081071Y0339766D02*
X0079471Y0339766D01*
X0079471Y0331773D02*
X0081071Y0331773D01*
X0081071Y0330175D02*
X0079471Y0330175D01*
X0079471Y0325379D02*
X0081071Y0325379D01*
X0081071Y0323781D02*
X0079471Y0323781D01*
X0079471Y0322182D02*
X0081071Y0322182D01*
X0081071Y0320584D02*
X0079471Y0320584D01*
X0079471Y0318985D02*
X0081071Y0318985D01*
X0081071Y0317387D02*
X0079471Y0317387D01*
X0079471Y0315788D02*
X0081071Y0315788D01*
X0074476Y0315788D02*
X0066323Y0315788D01*
X0066323Y0317387D02*
X0071960Y0317387D01*
X0070276Y0318985D02*
X0066323Y0318985D01*
X0066323Y0320584D02*
X0069078Y0320584D01*
X0068190Y0322182D02*
X0066323Y0322182D01*
X0066323Y0323781D02*
X0067583Y0323781D01*
X0067186Y0325379D02*
X0066323Y0325379D01*
X0130057Y0277424D02*
X0130839Y0277424D01*
X0136108Y0290212D02*
X0201509Y0290212D01*
X0201509Y0291811D02*
X0136108Y0291811D01*
X0136108Y0293409D02*
X0202091Y0293409D01*
X0202977Y0295008D02*
X0136108Y0295008D01*
X0136108Y0296606D02*
X0203899Y0296606D01*
X0205497Y0298205D02*
X0136108Y0298205D01*
X0136108Y0299803D02*
X0207096Y0299803D01*
X0208694Y0301402D02*
X0136108Y0301402D01*
X0136108Y0303000D02*
X0209080Y0303000D01*
X0209080Y0304599D02*
X0136108Y0304599D01*
X0136108Y0306197D02*
X0209080Y0306197D01*
X0209080Y0307796D02*
X0136108Y0307796D01*
X0136108Y0309394D02*
X0185146Y0309394D01*
X0184776Y0310993D02*
X0136108Y0310993D01*
X0136108Y0312591D02*
X0184776Y0312591D01*
X0184776Y0314190D02*
X0136108Y0314190D01*
X0136108Y0315788D02*
X0222542Y0315788D01*
X0222542Y0314190D02*
X0215923Y0314190D01*
X0220186Y0312591D02*
X0222542Y0312591D01*
X0222542Y0310993D02*
X0221784Y0310993D01*
X0219607Y0307796D02*
X0212880Y0307796D01*
X0212880Y0306197D02*
X0221089Y0306197D01*
X0221955Y0305331D02*
X0221955Y0305331D01*
X0222688Y0304599D02*
X0212880Y0304599D01*
X0212880Y0303000D02*
X0227367Y0303000D01*
X0227617Y0301613D02*
X0226509Y0300504D01*
X0226509Y0295984D01*
X0227617Y0294876D01*
X0236074Y0294876D01*
X0237183Y0295984D01*
X0237183Y0300504D01*
X0236074Y0301613D01*
X0227617Y0301613D01*
X0227406Y0301402D02*
X0212880Y0301402D01*
X0212470Y0299803D02*
X0226509Y0299803D01*
X0226509Y0298205D02*
X0210871Y0298205D01*
X0209273Y0296606D02*
X0226509Y0296606D01*
X0227485Y0295008D02*
X0207674Y0295008D01*
X0207664Y0293409D02*
X0208784Y0293409D01*
X0213831Y0285416D02*
X0227169Y0285416D01*
X0227617Y0285865D02*
X0226509Y0284756D01*
X0226509Y0280236D01*
X0227617Y0279128D01*
X0236074Y0279128D01*
X0237183Y0280236D01*
X0237183Y0284756D01*
X0236074Y0285865D01*
X0227617Y0285865D01*
X0227604Y0287015D02*
X0225852Y0287015D01*
X0226509Y0283818D02*
X0185296Y0283818D01*
X0186894Y0282219D02*
X0226509Y0282219D01*
X0226509Y0280621D02*
X0188493Y0280621D01*
X0181705Y0280621D02*
X0145260Y0280621D01*
X0144616Y0282219D02*
X0180106Y0282219D01*
X0178508Y0283818D02*
X0144860Y0283818D01*
X0136108Y0317387D02*
X0222542Y0317387D01*
X0222542Y0318985D02*
X0139712Y0318985D01*
X0140135Y0320584D02*
X0222542Y0320584D01*
X0222542Y0322182D02*
X0140135Y0322182D01*
X0140135Y0323781D02*
X0222542Y0323781D01*
X0222542Y0325379D02*
X0216132Y0325379D01*
X0216062Y0325210D02*
X0216235Y0325627D01*
X0216323Y0326070D01*
X0216323Y0327587D01*
X0211164Y0327587D01*
X0211164Y0324003D01*
X0214257Y0324003D01*
X0214699Y0324091D01*
X0215117Y0324264D01*
X0215492Y0324515D01*
X0215811Y0324834D01*
X0216062Y0325210D01*
X0216323Y0326978D02*
X0222542Y0326978D01*
X0222542Y0328576D02*
X0216323Y0328576D01*
X0216323Y0327956D02*
X0216323Y0329474D01*
X0216235Y0329917D01*
X0216062Y0330334D01*
X0215811Y0330709D01*
X0215492Y0331028D01*
X0215117Y0331279D01*
X0214699Y0331452D01*
X0214257Y0331540D01*
X0211164Y0331540D01*
X0211164Y0327956D01*
X0216323Y0327956D01*
X0216128Y0330175D02*
X0222542Y0330175D01*
X0222542Y0331773D02*
X0139239Y0331773D01*
X0139348Y0330175D02*
X0184571Y0330175D01*
X0184637Y0330334D02*
X0184465Y0329917D01*
X0184376Y0329474D01*
X0184376Y0327956D01*
X0189535Y0327956D01*
X0189535Y0327587D01*
X0184376Y0327587D01*
X0184376Y0326070D01*
X0184465Y0325627D01*
X0184637Y0325210D01*
X0184888Y0324834D01*
X0185207Y0324515D01*
X0185583Y0324264D01*
X0186000Y0324091D01*
X0186443Y0324003D01*
X0189535Y0324003D01*
X0189535Y0327587D01*
X0189904Y0327587D01*
X0189904Y0324003D01*
X0192997Y0324003D01*
X0193440Y0324091D01*
X0193857Y0324264D01*
X0194232Y0324515D01*
X0194551Y0324834D01*
X0194802Y0325210D01*
X0194975Y0325627D01*
X0195063Y0326070D01*
X0195063Y0327587D01*
X0189904Y0327587D01*
X0189904Y0327956D01*
X0189535Y0327956D01*
X0189535Y0331540D01*
X0186443Y0331540D01*
X0186000Y0331452D01*
X0185583Y0331279D01*
X0185207Y0331028D01*
X0184888Y0330709D01*
X0184637Y0330334D01*
X0184376Y0328576D02*
X0139348Y0328576D01*
X0138510Y0326978D02*
X0184376Y0326978D01*
X0184567Y0325379D02*
X0139079Y0325379D01*
X0133508Y0331773D02*
X0133334Y0331773D01*
X0189535Y0330175D02*
X0189904Y0330175D01*
X0189904Y0331540D02*
X0189904Y0327956D01*
X0195063Y0327956D01*
X0195063Y0329474D01*
X0194975Y0329917D01*
X0194802Y0330334D01*
X0194551Y0330709D01*
X0194232Y0331028D01*
X0193857Y0331279D01*
X0193440Y0331452D01*
X0192997Y0331540D01*
X0189904Y0331540D01*
X0189904Y0328576D02*
X0189535Y0328576D01*
X0189535Y0326978D02*
X0189904Y0326978D01*
X0189904Y0325379D02*
X0189535Y0325379D01*
X0194872Y0325379D02*
X0205827Y0325379D01*
X0205897Y0325210D02*
X0206148Y0324834D01*
X0206467Y0324515D01*
X0206843Y0324264D01*
X0207260Y0324091D01*
X0207703Y0324003D01*
X0210795Y0324003D01*
X0210795Y0327587D01*
X0211164Y0327587D01*
X0211164Y0327956D01*
X0210795Y0327956D01*
X0210795Y0327587D01*
X0205636Y0327587D01*
X0205636Y0326070D01*
X0205724Y0325627D01*
X0205897Y0325210D01*
X0205636Y0326978D02*
X0195063Y0326978D01*
X0195063Y0328576D02*
X0205636Y0328576D01*
X0205636Y0327956D02*
X0210795Y0327956D01*
X0210795Y0331540D01*
X0207703Y0331540D01*
X0207260Y0331452D01*
X0206843Y0331279D01*
X0206467Y0331028D01*
X0206148Y0330709D01*
X0205897Y0330334D01*
X0205724Y0329917D01*
X0205636Y0329474D01*
X0205636Y0327956D01*
X0205831Y0330175D02*
X0194868Y0330175D01*
X0210795Y0330175D02*
X0211164Y0330175D01*
X0211164Y0328576D02*
X0210795Y0328576D01*
X0210795Y0326978D02*
X0211164Y0326978D01*
X0211164Y0325379D02*
X0210795Y0325379D01*
X0206036Y0314190D02*
X0194663Y0314190D01*
X0194294Y0309394D02*
X0206406Y0309394D01*
X0215554Y0309394D02*
X0218009Y0309394D01*
X0219475Y0293409D02*
X0220595Y0293409D01*
X0226168Y0293409D02*
X0227288Y0293409D01*
X0220911Y0287015D02*
X0219159Y0287015D01*
X0236088Y0287015D02*
X0290596Y0287015D01*
X0290161Y0285416D02*
X0236522Y0285416D01*
X0237183Y0283818D02*
X0289501Y0283818D01*
X0289501Y0282219D02*
X0237183Y0282219D01*
X0237183Y0280621D02*
X0289501Y0280621D01*
X0290043Y0277424D02*
X0236641Y0277424D01*
X0237183Y0275825D02*
X0289501Y0275825D01*
X0289501Y0274227D02*
X0237183Y0274227D01*
X0237183Y0288613D02*
X0289501Y0288613D01*
X0289501Y0290212D02*
X0237183Y0290212D01*
X0237183Y0291811D02*
X0289501Y0291811D01*
X0290280Y0293409D02*
X0236404Y0293409D01*
X0236206Y0295008D02*
X0290477Y0295008D01*
X0289501Y0296606D02*
X0237183Y0296606D01*
X0237183Y0298205D02*
X0289501Y0298205D01*
X0289501Y0299803D02*
X0237183Y0299803D01*
X0236285Y0301402D02*
X0290398Y0301402D01*
X0290359Y0303000D02*
X0236325Y0303000D01*
X0237183Y0304599D02*
X0289501Y0304599D01*
X0289501Y0306197D02*
X0237183Y0306197D01*
X0201779Y0269431D02*
X0199682Y0269431D01*
X0201281Y0267833D02*
X0201849Y0267833D01*
X0202880Y0266234D02*
X0203510Y0266234D01*
X0205064Y0266234D02*
X0209959Y0266234D01*
X0209570Y0264636D02*
X0204478Y0264636D01*
X0206077Y0263037D02*
X0210239Y0263037D01*
X0210893Y0261439D02*
X0207675Y0261439D01*
X0209274Y0259840D02*
X0210164Y0259840D01*
X0202485Y0259840D02*
X0198802Y0259840D01*
X0198970Y0261439D02*
X0200887Y0261439D01*
X0199288Y0263037D02*
X0197881Y0263037D01*
X0196499Y0258242D02*
X0202036Y0258242D01*
X0209821Y0251848D02*
X0210478Y0251848D01*
X0210564Y0250249D02*
X0209821Y0250249D01*
X0209115Y0248651D02*
X0211244Y0248651D01*
X0217015Y0248651D02*
X0219118Y0248651D01*
X0233800Y0213483D02*
X0253268Y0213483D01*
X0253268Y0211885D02*
X0234814Y0211885D01*
X0235214Y0210286D02*
X0253268Y0210286D01*
X0253268Y0208688D02*
X0235169Y0208688D01*
X0234507Y0207089D02*
X0253268Y0207089D01*
X0253268Y0205491D02*
X0233058Y0205491D01*
X0260404Y0264636D02*
X0289501Y0264636D01*
X0289501Y0266234D02*
X0262002Y0266234D01*
X0263601Y0267833D02*
X0289501Y0267833D01*
X0299870Y0261439D02*
X0300042Y0261439D01*
X0306058Y0270685D02*
X0309995Y0266748D01*
X0313364Y0266234D02*
X0316560Y0266234D01*
X0316560Y0264636D02*
X0313364Y0264636D01*
X0313364Y0267833D02*
X0316560Y0267833D01*
X0316560Y0269431D02*
X0313137Y0269431D01*
X0313364Y0272628D02*
X0316560Y0272628D01*
X0316560Y0271030D02*
X0309514Y0271030D01*
X0313364Y0274227D02*
X0316560Y0274227D01*
X0316560Y0275825D02*
X0313364Y0275825D01*
X0313019Y0277424D02*
X0316560Y0277424D01*
X0320360Y0277424D02*
X0355688Y0277424D01*
X0357286Y0275825D02*
X0320360Y0275825D01*
X0320360Y0274227D02*
X0358885Y0274227D01*
X0360483Y0272628D02*
X0320360Y0272628D01*
X0320360Y0271030D02*
X0362082Y0271030D01*
X0363680Y0269431D02*
X0320360Y0269431D01*
X0320360Y0267833D02*
X0365279Y0267833D01*
X0366877Y0266234D02*
X0320360Y0266234D01*
X0320360Y0264636D02*
X0368476Y0264636D01*
X0370074Y0263037D02*
X0320360Y0263037D01*
X0320360Y0261439D02*
X0371673Y0261439D01*
X0373271Y0259840D02*
X0320360Y0259840D01*
X0320360Y0258242D02*
X0374870Y0258242D01*
X0376468Y0256643D02*
X0320360Y0256643D01*
X0321619Y0255045D02*
X0378067Y0255045D01*
X0377047Y0261439D02*
X0415343Y0261439D01*
X0414189Y0263037D02*
X0375448Y0263037D01*
X0373850Y0264636D02*
X0413757Y0264636D01*
X0413841Y0266234D02*
X0372251Y0266234D01*
X0370653Y0267833D02*
X0414505Y0267833D01*
X0416418Y0269431D02*
X0369054Y0269431D01*
X0367456Y0271030D02*
X0415752Y0271030D01*
X0414358Y0272628D02*
X0365857Y0272628D01*
X0364259Y0274227D02*
X0413757Y0274227D01*
X0413757Y0275825D02*
X0362660Y0275825D01*
X0361062Y0277424D02*
X0413601Y0277424D01*
X0412002Y0279022D02*
X0359463Y0279022D01*
X0357865Y0280621D02*
X0410404Y0280621D01*
X0408805Y0282219D02*
X0356266Y0282219D01*
X0354668Y0283818D02*
X0407207Y0283818D01*
X0405608Y0285416D02*
X0353069Y0285416D01*
X0350892Y0282219D02*
X0319809Y0282219D01*
X0319085Y0280621D02*
X0352491Y0280621D01*
X0354089Y0279022D02*
X0320360Y0279022D01*
X0312048Y0288613D02*
X0305302Y0288613D01*
X0304565Y0290212D02*
X0313646Y0290212D01*
X0301138Y0303000D02*
X0299317Y0303000D01*
X0299277Y0301402D02*
X0299540Y0301402D01*
X0304142Y0309394D02*
X0304749Y0309394D01*
X0304749Y0310993D02*
X0304142Y0310993D01*
X0304142Y0312591D02*
X0304749Y0312591D01*
X0304749Y0314190D02*
X0304142Y0314190D01*
X0304142Y0315788D02*
X0304749Y0315788D01*
X0304749Y0317387D02*
X0304142Y0317387D01*
X0304142Y0318985D02*
X0305018Y0318985D01*
X0304142Y0320584D02*
X0306616Y0320584D01*
X0308215Y0322182D02*
X0304142Y0322182D01*
X0304142Y0323781D02*
X0406166Y0323781D01*
X0406316Y0323286D02*
X0406816Y0322078D01*
X0407432Y0320926D01*
X0408158Y0319839D01*
X0408987Y0318829D01*
X0409911Y0317905D01*
X0410921Y0317076D01*
X0412008Y0316350D01*
X0413160Y0315734D01*
X0414368Y0315234D01*
X0415618Y0314855D01*
X0416900Y0314600D01*
X0418054Y0314486D01*
X0418054Y0326972D01*
X0419654Y0326972D01*
X0419654Y0328572D01*
X0432139Y0328572D01*
X0432026Y0329726D01*
X0431771Y0331007D01*
X0431391Y0332258D01*
X0430891Y0333465D01*
X0430275Y0334617D01*
X0429549Y0335704D01*
X0428720Y0336714D01*
X0427796Y0337638D01*
X0426786Y0338467D01*
X0425699Y0339193D01*
X0424547Y0339809D01*
X0423340Y0340309D01*
X0422089Y0340689D01*
X0420807Y0340944D01*
X0419654Y0341057D01*
X0419654Y0328572D01*
X0418054Y0328572D01*
X0418054Y0341057D01*
X0416900Y0340944D01*
X0415618Y0340689D01*
X0414368Y0340309D01*
X0413160Y0339809D01*
X0412008Y0339193D01*
X0410921Y0338467D01*
X0409911Y0337638D01*
X0408987Y0336714D01*
X0408158Y0335704D01*
X0407432Y0334617D01*
X0406816Y0333465D01*
X0406316Y0332258D01*
X0405937Y0331007D01*
X0405682Y0329726D01*
X0405568Y0328572D01*
X0418054Y0328572D01*
X0418054Y0326972D01*
X0405568Y0326972D01*
X0405682Y0325818D01*
X0405937Y0324536D01*
X0406316Y0323286D01*
X0406773Y0322182D02*
X0376479Y0322182D01*
X0378078Y0320584D02*
X0407661Y0320584D01*
X0408859Y0318985D02*
X0379676Y0318985D01*
X0381275Y0317387D02*
X0410543Y0317387D01*
X0413059Y0315788D02*
X0382873Y0315788D01*
X0384472Y0314190D02*
X0432802Y0314190D01*
X0432802Y0315788D02*
X0424648Y0315788D01*
X0424547Y0315734D02*
X0425699Y0316350D01*
X0426786Y0317076D01*
X0427796Y0317905D01*
X0428720Y0318829D01*
X0429549Y0319839D01*
X0430275Y0320926D01*
X0430891Y0322078D01*
X0431391Y0323286D01*
X0431771Y0324536D01*
X0432026Y0325818D01*
X0432139Y0326972D01*
X0419654Y0326972D01*
X0419654Y0314486D01*
X0420807Y0314600D01*
X0422089Y0314855D01*
X0423340Y0315234D01*
X0424547Y0315734D01*
X0427164Y0317387D02*
X0432802Y0317387D01*
X0432802Y0318985D02*
X0428848Y0318985D01*
X0430047Y0320584D02*
X0432802Y0320584D01*
X0432802Y0322182D02*
X0430934Y0322182D01*
X0431541Y0323781D02*
X0432802Y0323781D01*
X0432802Y0325379D02*
X0431938Y0325379D01*
X0432802Y0326978D02*
X0419654Y0326978D01*
X0419654Y0328576D02*
X0418054Y0328576D01*
X0418054Y0326978D02*
X0342228Y0326978D01*
X0342228Y0326621D02*
X0342228Y0328139D01*
X0337069Y0328139D01*
X0337069Y0328507D01*
X0336701Y0328507D01*
X0336701Y0332091D01*
X0333608Y0332091D01*
X0333165Y0332003D01*
X0332748Y0331830D01*
X0332373Y0331580D01*
X0332054Y0331260D01*
X0331803Y0330885D01*
X0331630Y0330468D01*
X0331542Y0330025D01*
X0331542Y0328507D01*
X0336701Y0328507D01*
X0336701Y0328139D01*
X0331542Y0328139D01*
X0331542Y0326621D01*
X0331630Y0326178D01*
X0331803Y0325761D01*
X0332054Y0325385D01*
X0332373Y0325066D01*
X0332748Y0324815D01*
X0333165Y0324642D01*
X0333608Y0324554D01*
X0336701Y0324554D01*
X0336701Y0328138D01*
X0337069Y0328138D01*
X0337069Y0324554D01*
X0340162Y0324554D01*
X0340605Y0324642D01*
X0341022Y0324815D01*
X0341397Y0325066D01*
X0341717Y0325385D01*
X0341968Y0325761D01*
X0342140Y0326178D01*
X0342228Y0326621D01*
X0341711Y0325379D02*
X0405769Y0325379D01*
X0405569Y0328576D02*
X0342228Y0328576D01*
X0342228Y0328507D02*
X0342228Y0330025D01*
X0342140Y0330468D01*
X0341968Y0330885D01*
X0341717Y0331260D01*
X0341397Y0331580D01*
X0341022Y0331830D01*
X0340605Y0332003D01*
X0340162Y0332091D01*
X0337069Y0332091D01*
X0337069Y0328507D01*
X0342228Y0328507D01*
X0342199Y0330175D02*
X0405771Y0330175D01*
X0406169Y0331773D02*
X0341108Y0331773D01*
X0337069Y0331773D02*
X0336701Y0331773D01*
X0336701Y0330175D02*
X0337069Y0330175D01*
X0337069Y0328576D02*
X0336701Y0328576D01*
X0336701Y0326978D02*
X0337069Y0326978D01*
X0337069Y0325379D02*
X0336701Y0325379D01*
X0332060Y0325379D02*
X0320451Y0325379D01*
X0320457Y0325385D02*
X0320708Y0325761D01*
X0320880Y0326178D01*
X0320969Y0326621D01*
X0320969Y0328139D01*
X0315810Y0328139D01*
X0315810Y0328507D01*
X0320969Y0328507D01*
X0320969Y0330025D01*
X0320880Y0330468D01*
X0320708Y0330885D01*
X0320457Y0331260D01*
X0320138Y0331580D01*
X0319762Y0331830D01*
X0319345Y0332003D01*
X0318902Y0332091D01*
X0315810Y0332091D01*
X0315810Y0328507D01*
X0315441Y0328507D01*
X0315441Y0328139D01*
X0310282Y0328139D01*
X0310282Y0326621D01*
X0310370Y0326178D01*
X0310543Y0325761D01*
X0310794Y0325385D01*
X0311113Y0325066D01*
X0311488Y0324815D01*
X0311905Y0324642D01*
X0312348Y0324554D01*
X0315441Y0324554D01*
X0315441Y0328138D01*
X0315810Y0328138D01*
X0315810Y0324554D01*
X0318902Y0324554D01*
X0319345Y0324642D01*
X0319762Y0324815D01*
X0320138Y0325066D01*
X0320457Y0325385D01*
X0320969Y0326978D02*
X0331542Y0326978D01*
X0331542Y0328576D02*
X0320969Y0328576D01*
X0320939Y0330175D02*
X0331572Y0330175D01*
X0332663Y0331773D02*
X0319848Y0331773D01*
X0315810Y0331773D02*
X0315441Y0331773D01*
X0315441Y0332091D02*
X0312348Y0332091D01*
X0311905Y0332003D01*
X0311488Y0331830D01*
X0311113Y0331580D01*
X0310794Y0331260D01*
X0310543Y0330885D01*
X0310370Y0330468D01*
X0310282Y0330025D01*
X0310282Y0328507D01*
X0315441Y0328507D01*
X0315441Y0332091D01*
X0315441Y0330175D02*
X0315810Y0330175D01*
X0315810Y0328576D02*
X0315441Y0328576D01*
X0315441Y0326978D02*
X0315810Y0326978D01*
X0315810Y0325379D02*
X0315441Y0325379D01*
X0310800Y0325379D02*
X0304142Y0325379D01*
X0304142Y0326978D02*
X0310282Y0326978D01*
X0310282Y0328576D02*
X0304142Y0328576D01*
X0304142Y0330175D02*
X0310312Y0330175D01*
X0311403Y0331773D02*
X0304142Y0331773D01*
X0304142Y0333372D02*
X0406777Y0333372D01*
X0407668Y0334970D02*
X0304142Y0334970D01*
X0304142Y0336569D02*
X0408868Y0336569D01*
X0410556Y0338167D02*
X0304142Y0338167D01*
X0304142Y0339766D02*
X0413079Y0339766D01*
X0418054Y0339766D02*
X0419654Y0339766D01*
X0419654Y0338167D02*
X0418054Y0338167D01*
X0418054Y0336569D02*
X0419654Y0336569D01*
X0419654Y0334970D02*
X0418054Y0334970D01*
X0418054Y0333372D02*
X0419654Y0333372D01*
X0419654Y0331773D02*
X0418054Y0331773D01*
X0418054Y0330175D02*
X0419654Y0330175D01*
X0419654Y0325379D02*
X0418054Y0325379D01*
X0418054Y0323781D02*
X0419654Y0323781D01*
X0419654Y0322182D02*
X0418054Y0322182D01*
X0418054Y0320584D02*
X0419654Y0320584D01*
X0419654Y0318985D02*
X0418054Y0318985D01*
X0418054Y0317387D02*
X0419654Y0317387D01*
X0419654Y0315788D02*
X0418054Y0315788D01*
X0432802Y0312591D02*
X0386070Y0312591D01*
X0387669Y0310993D02*
X0432802Y0310993D01*
X0432802Y0309394D02*
X0389267Y0309394D01*
X0390866Y0307796D02*
X0432802Y0307796D01*
X0432802Y0306197D02*
X0392464Y0306197D01*
X0394063Y0304599D02*
X0432802Y0304599D01*
X0432802Y0303000D02*
X0395662Y0303000D01*
X0397260Y0301402D02*
X0432802Y0301402D01*
X0432802Y0299803D02*
X0419998Y0299803D01*
X0419631Y0299955D02*
X0417682Y0299955D01*
X0415881Y0299209D01*
X0414503Y0297831D01*
X0413757Y0296030D01*
X0413757Y0294080D01*
X0414503Y0292279D01*
X0415881Y0290901D01*
X0417682Y0290155D01*
X0419631Y0290155D01*
X0421432Y0290901D01*
X0422811Y0292279D01*
X0423557Y0294080D01*
X0423557Y0296030D01*
X0422811Y0297831D01*
X0421432Y0299209D01*
X0419631Y0299955D01*
X0417315Y0299803D02*
X0398859Y0299803D01*
X0400457Y0298205D02*
X0414877Y0298205D01*
X0413995Y0296606D02*
X0402056Y0296606D01*
X0403654Y0295008D02*
X0413757Y0295008D01*
X0414035Y0293409D02*
X0405253Y0293409D01*
X0406851Y0291811D02*
X0414972Y0291811D01*
X0417545Y0290212D02*
X0408450Y0290212D01*
X0410048Y0288613D02*
X0415286Y0288613D01*
X0414165Y0287015D02*
X0411647Y0287015D01*
X0414179Y0282219D02*
X0414563Y0282219D01*
X0415778Y0280621D02*
X0416557Y0280621D01*
X0420756Y0280621D02*
X0432802Y0280621D01*
X0432802Y0282219D02*
X0422751Y0282219D01*
X0423448Y0283818D02*
X0432802Y0283818D01*
X0432802Y0285416D02*
X0423557Y0285416D01*
X0423149Y0287015D02*
X0432802Y0287015D01*
X0432802Y0288613D02*
X0422028Y0288613D01*
X0419769Y0290212D02*
X0432802Y0290212D01*
X0432802Y0291811D02*
X0422342Y0291811D01*
X0423279Y0293409D02*
X0432802Y0293409D01*
X0432802Y0295008D02*
X0423557Y0295008D01*
X0423318Y0296606D02*
X0432802Y0296606D01*
X0432802Y0298205D02*
X0422437Y0298205D01*
X0421619Y0279022D02*
X0432802Y0279022D01*
X0432802Y0277424D02*
X0422979Y0277424D01*
X0423557Y0275825D02*
X0432802Y0275825D01*
X0432802Y0274227D02*
X0423557Y0274227D01*
X0422955Y0272628D02*
X0432802Y0272628D01*
X0432802Y0271030D02*
X0421561Y0271030D01*
X0420896Y0269431D02*
X0432802Y0269431D01*
X0432802Y0267833D02*
X0422809Y0267833D01*
X0423472Y0266234D02*
X0432802Y0266234D01*
X0432802Y0264636D02*
X0423557Y0264636D01*
X0423125Y0263037D02*
X0432802Y0263037D01*
X0432802Y0261439D02*
X0421970Y0261439D01*
X0418841Y0243855D02*
X0418472Y0243855D01*
X0418472Y0242257D02*
X0418841Y0242257D01*
X0418841Y0240658D02*
X0418472Y0240658D01*
X0432802Y0213483D02*
X0399154Y0213483D01*
X0400169Y0211885D02*
X0432802Y0211885D01*
X0432802Y0210286D02*
X0400569Y0210286D01*
X0400524Y0208688D02*
X0432802Y0208688D01*
X0432802Y0207089D02*
X0399861Y0207089D01*
X0398412Y0205491D02*
X0432802Y0205491D01*
X0315288Y0239060D02*
X0314158Y0239060D01*
X0314158Y0240658D02*
X0315288Y0240658D01*
X0315841Y0242257D02*
X0313749Y0242257D01*
X0314526Y0243855D02*
X0314895Y0243855D01*
X0314895Y0245454D02*
X0314551Y0245454D01*
X0314551Y0247052D02*
X0314895Y0247052D01*
X0315600Y0248651D02*
X0314011Y0248651D01*
X0314151Y0250249D02*
X0314895Y0250249D01*
X0315301Y0255045D02*
X0313745Y0255045D01*
X0313698Y0256643D02*
X0316560Y0256643D01*
X0316560Y0258242D02*
X0313764Y0258242D01*
X0313764Y0259840D02*
X0316560Y0259840D01*
X0300279Y0277424D02*
X0299633Y0277424D01*
X0319615Y0315788D02*
X0332895Y0315788D01*
X0304142Y0341364D02*
X0420625Y0341364D01*
X0424628Y0339766D02*
X0425079Y0339766D01*
X0427151Y0338167D02*
X0427394Y0338167D01*
X0428839Y0336569D02*
X0429189Y0336569D01*
X0430039Y0334970D02*
X0430241Y0334970D01*
X0430930Y0333372D02*
X0431294Y0333372D01*
X0431538Y0331773D02*
X0431843Y0331773D01*
X0431936Y0330175D02*
X0432374Y0330175D01*
X0432139Y0328576D02*
X0432691Y0328576D01*
X0201895Y0058428D02*
X0188686Y0058428D01*
X0190285Y0056829D02*
X0200296Y0056829D01*
X0199497Y0055231D02*
X0191883Y0055231D01*
X0195080Y0052034D02*
X0198950Y0052034D01*
X0199185Y0050435D02*
X0196679Y0050435D01*
X0198277Y0048837D02*
X0199847Y0048837D01*
X0199876Y0047238D02*
X0201142Y0047238D01*
X0201475Y0045640D02*
X0203622Y0045640D01*
X0203073Y0044041D02*
X0231623Y0044041D01*
X0233221Y0042443D02*
X0204672Y0042443D01*
X0206270Y0040844D02*
X0234820Y0040844D01*
X0236418Y0039246D02*
X0207869Y0039246D01*
X0181846Y0029768D02*
X0181846Y0025311D01*
X0181846Y0024859D02*
X0181846Y0024859D01*
X0181846Y0023261D02*
X0181846Y0023261D01*
X0181846Y0021662D02*
X0181846Y0021662D01*
X0181846Y0026458D02*
X0181846Y0026458D01*
X0181846Y0028056D02*
X0181846Y0028056D01*
X0186592Y0018465D02*
X0186745Y0018465D01*
X0186745Y0016867D02*
X0186592Y0016867D01*
X0186592Y0015268D02*
X0186745Y0015268D01*
X0186745Y0013670D02*
X0186592Y0013670D01*
X0186592Y0012071D02*
X0186745Y0012071D01*
X0166863Y0012071D02*
X0166710Y0012071D01*
X0166710Y0013670D02*
X0166863Y0013670D01*
X0166863Y0015268D02*
X0166710Y0015268D01*
X0166710Y0016867D02*
X0166863Y0016867D01*
X0166863Y0018465D02*
X0166710Y0018465D01*
X0284133Y0029655D02*
X0301403Y0029655D01*
X0303001Y0028056D02*
X0285970Y0028056D01*
X0365572Y0020064D02*
X0376312Y0020064D01*
X0376061Y0020246D02*
X0376792Y0019715D01*
X0377596Y0019305D01*
X0378455Y0019026D01*
X0379319Y0018889D01*
X0379319Y0024142D01*
X0374066Y0024142D01*
X0374203Y0023279D01*
X0374482Y0022420D01*
X0374892Y0021615D01*
X0375423Y0020885D01*
X0376061Y0020246D01*
X0374868Y0021662D02*
X0366480Y0021662D01*
X0367104Y0023261D02*
X0374209Y0023261D01*
X0374363Y0026458D02*
X0367104Y0026458D01*
X0367104Y0028056D02*
X0375202Y0028056D01*
X0379319Y0024859D02*
X0367104Y0024859D01*
X0367104Y0032852D02*
X0408402Y0032852D01*
X0409873Y0034450D02*
X0367104Y0034450D01*
X0367104Y0036049D02*
X0412017Y0036049D01*
X0416162Y0037647D02*
X0367132Y0037647D01*
X0379319Y0023261D02*
X0380278Y0023261D01*
X0380278Y0021662D02*
X0379319Y0021662D01*
X0379319Y0020064D02*
X0380278Y0020064D01*
X0418054Y0020064D02*
X0419654Y0020064D01*
X0419654Y0021662D02*
X0418054Y0021662D01*
X0418054Y0018465D02*
X0419654Y0018465D01*
X0419654Y0016867D02*
X0418054Y0016867D01*
X0418054Y0015268D02*
X0419654Y0015268D01*
X0419654Y0013670D02*
X0418054Y0013670D01*
X0418054Y0012071D02*
X0419654Y0012071D01*
X0423296Y0012071D02*
X0424772Y0012071D01*
X0426401Y0013670D02*
X0427458Y0013670D01*
X0428309Y0015268D02*
X0429056Y0015268D01*
X0429667Y0016867D02*
X0430344Y0016867D01*
X0430643Y0018465D02*
X0431267Y0018465D01*
X0431740Y0019284D02*
X0431740Y0019284D01*
X0431949Y0020064D02*
X0431361Y0020064D01*
X0431825Y0021662D02*
X0432377Y0021662D01*
X0432084Y0023261D02*
X0432712Y0023261D01*
X0419654Y0026458D02*
X0418054Y0026458D01*
X0418054Y0028056D02*
X0419654Y0028056D01*
X0419654Y0029655D02*
X0418054Y0029655D01*
X0418054Y0031253D02*
X0419654Y0031253D01*
X0419654Y0032852D02*
X0418054Y0032852D01*
X0418054Y0034450D02*
X0419654Y0034450D01*
X0419654Y0036049D02*
X0418054Y0036049D01*
X0418054Y0037647D02*
X0419654Y0037647D01*
X0089371Y0259840D02*
X0066323Y0259840D01*
X0066323Y0258242D02*
X0087773Y0258242D01*
X0086174Y0256643D02*
X0066323Y0256643D01*
X0066323Y0255045D02*
X0084576Y0255045D01*
X0082977Y0253446D02*
X0066323Y0253446D01*
X0066323Y0251848D02*
X0081745Y0251848D01*
X0081608Y0250249D02*
X0066323Y0250249D01*
X0066323Y0248651D02*
X0081608Y0248651D01*
X0081608Y0247052D02*
X0066323Y0247052D01*
X0066323Y0245454D02*
X0081608Y0245454D01*
X0081608Y0243855D02*
X0066323Y0243855D01*
X0066323Y0242257D02*
X0081608Y0242257D01*
X0081608Y0240658D02*
X0066323Y0240658D01*
X0066323Y0239060D02*
X0081608Y0239060D01*
X0081097Y0237461D02*
X0066323Y0237461D01*
X0066323Y0235863D02*
X0080446Y0235863D01*
X0081474Y0232666D02*
X0066323Y0232666D01*
D27*
X0141295Y0285843D02*
X0142180Y0286728D01*
X0178991Y0286728D01*
X0214129Y0251591D01*
D28*
X0084208Y0235252D03*
X0084208Y0162417D03*
X0178696Y0032496D03*
X0151137Y0018717D03*
D29*
X0127515Y0243126D03*
X0141295Y0272654D03*
X0149169Y0276591D03*
X0172791Y0245094D03*
X0196413Y0260843D03*
X0204287Y0256906D03*
X0212161Y0264780D03*
X0204287Y0268717D03*
X0216098Y0278559D03*
X0218066Y0260843D03*
X0210192Y0243126D03*
X0243657Y0258874D03*
X0284995Y0252969D03*
X0294838Y0243126D03*
X0304680Y0249031D03*
X0314523Y0260843D03*
X0316491Y0280528D03*
X0318460Y0284465D03*
X0302712Y0288402D03*
X0300743Y0282496D03*
X0308617Y0296276D03*
X0326334Y0296276D03*
X0346019Y0327772D03*
X0306649Y0327772D03*
X0222003Y0298244D03*
X0182633Y0321866D03*
X0377515Y0243126D03*
D30*
X0371610Y0153953D02*
X0371610Y0142457D01*
X0288932Y0142457D02*
X0288932Y0153953D01*
X0206255Y0153953D02*
X0206255Y0142457D01*
X0123578Y0142457D02*
X0123578Y0153953D01*
X0123578Y0052457D02*
X0184326Y0052457D01*
X0212161Y0024622D01*
X0206255Y0052457D02*
X0233539Y0052457D01*
X0261373Y0024622D01*
X0288932Y0052457D02*
X0310586Y0030803D01*
X0310586Y0024622D01*
X0359798Y0024622D02*
X0359798Y0040646D01*
X0371610Y0052457D01*
D31*
X0194444Y0026591D02*
X0194444Y0019720D01*
X0191888Y0019720D01*
X0191888Y0014980D01*
X0191488Y0014980D01*
X0191488Y0019720D01*
X0187987Y0019720D01*
X0187682Y0019638D01*
X0187408Y0019480D01*
X0187185Y0019256D01*
X0187027Y0018983D01*
X0186945Y0018678D01*
X0186945Y0014979D01*
X0191488Y0014979D01*
X0191488Y0014580D01*
X0186945Y0014580D01*
X0186945Y0010881D01*
X0187027Y0010576D01*
X0187185Y0010303D01*
X0187408Y0010079D01*
X0187417Y0010074D01*
X0185920Y0010074D01*
X0185929Y0010079D01*
X0186152Y0010303D01*
X0186310Y0010576D01*
X0186392Y0010881D01*
X0186392Y0014580D01*
X0181652Y0014580D01*
X0181652Y0014979D01*
X0186392Y0014979D01*
X0186392Y0018678D01*
X0186310Y0018983D01*
X0186152Y0019256D01*
X0185929Y0019480D01*
X0185655Y0019638D01*
X0185350Y0019720D01*
X0181652Y0019720D01*
X0181652Y0014980D01*
X0181252Y0014980D01*
X0181252Y0019720D01*
X0177554Y0019720D01*
X0177249Y0019638D01*
X0176975Y0019480D01*
X0176752Y0019256D01*
X0176728Y0019215D01*
X0176704Y0019256D01*
X0176480Y0019480D01*
X0176207Y0019638D01*
X0175901Y0019720D01*
X0172203Y0019720D01*
X0172203Y0014980D01*
X0171803Y0014980D01*
X0171803Y0019720D01*
X0168105Y0019720D01*
X0167800Y0019638D01*
X0167526Y0019480D01*
X0167303Y0019256D01*
X0167145Y0018983D01*
X0167063Y0018678D01*
X0167063Y0014979D01*
X0171803Y0014979D01*
X0171803Y0014580D01*
X0167063Y0014580D01*
X0167063Y0010881D01*
X0167145Y0010576D01*
X0167303Y0010303D01*
X0167526Y0010079D01*
X0167535Y0010074D01*
X0166038Y0010074D01*
X0166047Y0010079D01*
X0166271Y0010303D01*
X0166429Y0010576D01*
X0166510Y0010881D01*
X0166510Y0014580D01*
X0162948Y0014580D01*
X0162948Y0014979D01*
X0166510Y0014979D01*
X0166510Y0018678D01*
X0166429Y0018983D01*
X0166271Y0019256D01*
X0166047Y0019480D01*
X0165773Y0019638D01*
X0165468Y0019720D01*
X0162948Y0019720D01*
X0162948Y0020469D01*
X0164323Y0020469D01*
X0164323Y0024619D01*
X0164723Y0024619D01*
X0164723Y0020469D01*
X0168815Y0020469D01*
X0169120Y0020551D01*
X0169394Y0020709D01*
X0169617Y0020932D01*
X0169775Y0021206D01*
X0169857Y0021511D01*
X0169857Y0024235D01*
X0170022Y0024070D01*
X0170022Y0022322D01*
X0170491Y0021854D01*
X0172728Y0021854D01*
X0172889Y0022014D01*
X0173050Y0021854D01*
X0175287Y0021854D01*
X0175448Y0022014D01*
X0175609Y0021854D01*
X0177846Y0021854D01*
X0178007Y0022014D01*
X0178168Y0021854D01*
X0180405Y0021854D01*
X0180566Y0022014D01*
X0180727Y0021854D01*
X0182965Y0021854D01*
X0183433Y0022322D01*
X0183433Y0024636D01*
X0183446Y0024648D01*
X0183446Y0026591D01*
X0183598Y0026591D01*
X0183598Y0025019D01*
X0188732Y0025019D01*
X0188732Y0024619D01*
X0183598Y0024619D01*
X0183598Y0021511D01*
X0183680Y0021206D01*
X0183838Y0020932D01*
X0184062Y0020709D01*
X0184335Y0020551D01*
X0184641Y0020469D01*
X0188732Y0020469D01*
X0188732Y0024619D01*
X0189132Y0024619D01*
X0189132Y0020469D01*
X0193224Y0020469D01*
X0193529Y0020551D01*
X0193803Y0020709D01*
X0194026Y0020932D01*
X0194184Y0021206D01*
X0194266Y0021511D01*
X0194266Y0024619D01*
X0189132Y0024619D01*
X0189132Y0025019D01*
X0194266Y0025019D01*
X0194266Y0026591D01*
X0194444Y0026591D01*
X0194444Y0026409D02*
X0194266Y0026409D01*
X0194266Y0026010D02*
X0194444Y0026010D01*
X0194444Y0025611D02*
X0194266Y0025611D01*
X0194266Y0025213D02*
X0194444Y0025213D01*
X0194444Y0024814D02*
X0189132Y0024814D01*
X0189132Y0024416D02*
X0188732Y0024416D01*
X0188732Y0024814D02*
X0183446Y0024814D01*
X0183433Y0024416D02*
X0183598Y0024416D01*
X0183598Y0024017D02*
X0183433Y0024017D01*
X0183433Y0023619D02*
X0183598Y0023619D01*
X0183598Y0023220D02*
X0183433Y0023220D01*
X0183433Y0022822D02*
X0183598Y0022822D01*
X0183598Y0022423D02*
X0183433Y0022423D01*
X0183598Y0022025D02*
X0183136Y0022025D01*
X0183598Y0021626D02*
X0169857Y0021626D01*
X0169857Y0022025D02*
X0170319Y0022025D01*
X0170022Y0022423D02*
X0169857Y0022423D01*
X0169857Y0022822D02*
X0170022Y0022822D01*
X0170022Y0023220D02*
X0169857Y0023220D01*
X0169857Y0023619D02*
X0170022Y0023619D01*
X0170022Y0024017D02*
X0169857Y0024017D01*
X0169781Y0021228D02*
X0183674Y0021228D01*
X0183941Y0020829D02*
X0169514Y0020829D01*
X0167793Y0019634D02*
X0165781Y0019634D01*
X0166283Y0019235D02*
X0167291Y0019235D01*
X0167106Y0018837D02*
X0166468Y0018837D01*
X0166510Y0018438D02*
X0167063Y0018438D01*
X0167063Y0018040D02*
X0166510Y0018040D01*
X0166510Y0017641D02*
X0167063Y0017641D01*
X0167063Y0017243D02*
X0166510Y0017243D01*
X0166510Y0016844D02*
X0167063Y0016844D01*
X0167063Y0016446D02*
X0166510Y0016446D01*
X0166510Y0016047D02*
X0167063Y0016047D01*
X0167063Y0015649D02*
X0166510Y0015649D01*
X0166510Y0015250D02*
X0167063Y0015250D01*
X0167063Y0014453D02*
X0166510Y0014453D01*
X0166510Y0014055D02*
X0167063Y0014055D01*
X0167063Y0013656D02*
X0166510Y0013656D01*
X0166510Y0013258D02*
X0167063Y0013258D01*
X0167063Y0012859D02*
X0166510Y0012859D01*
X0166510Y0012461D02*
X0167063Y0012461D01*
X0167063Y0012062D02*
X0166510Y0012062D01*
X0166510Y0011664D02*
X0167063Y0011664D01*
X0167063Y0011265D02*
X0166510Y0011265D01*
X0166506Y0010867D02*
X0167067Y0010867D01*
X0167207Y0010468D02*
X0166366Y0010468D01*
X0162948Y0014852D02*
X0171803Y0014852D01*
X0171803Y0015250D02*
X0172203Y0015250D01*
X0172203Y0014979D02*
X0181252Y0014979D01*
X0181252Y0014580D01*
X0176512Y0014580D01*
X0172203Y0014580D01*
X0172203Y0014979D01*
X0172203Y0014852D02*
X0181252Y0014852D01*
X0181252Y0015250D02*
X0181652Y0015250D01*
X0181652Y0014852D02*
X0191488Y0014852D01*
X0191488Y0015250D02*
X0191888Y0015250D01*
X0191888Y0015649D02*
X0191488Y0015649D01*
X0191488Y0016047D02*
X0191888Y0016047D01*
X0191888Y0016446D02*
X0191488Y0016446D01*
X0191488Y0016844D02*
X0191888Y0016844D01*
X0191888Y0017243D02*
X0191488Y0017243D01*
X0191488Y0017641D02*
X0191888Y0017641D01*
X0191888Y0018040D02*
X0191488Y0018040D01*
X0191488Y0018438D02*
X0191888Y0018438D01*
X0191888Y0018837D02*
X0191488Y0018837D01*
X0191488Y0019235D02*
X0191888Y0019235D01*
X0191888Y0019634D02*
X0191488Y0019634D01*
X0189132Y0020829D02*
X0188732Y0020829D01*
X0188732Y0021228D02*
X0189132Y0021228D01*
X0189132Y0021626D02*
X0188732Y0021626D01*
X0188732Y0022025D02*
X0189132Y0022025D01*
X0189132Y0022423D02*
X0188732Y0022423D01*
X0188732Y0022822D02*
X0189132Y0022822D01*
X0189132Y0023220D02*
X0188732Y0023220D01*
X0188732Y0023619D02*
X0189132Y0023619D01*
X0189132Y0024017D02*
X0188732Y0024017D01*
X0187675Y0019634D02*
X0185662Y0019634D01*
X0186165Y0019235D02*
X0187172Y0019235D01*
X0186988Y0018837D02*
X0186350Y0018837D01*
X0186392Y0018438D02*
X0186945Y0018438D01*
X0186945Y0018040D02*
X0186392Y0018040D01*
X0186392Y0017641D02*
X0186945Y0017641D01*
X0186945Y0017243D02*
X0186392Y0017243D01*
X0186392Y0016844D02*
X0186945Y0016844D01*
X0186945Y0016446D02*
X0186392Y0016446D01*
X0186392Y0016047D02*
X0186945Y0016047D01*
X0186945Y0015649D02*
X0186392Y0015649D01*
X0186392Y0015250D02*
X0186945Y0015250D01*
X0186945Y0014453D02*
X0186392Y0014453D01*
X0186392Y0014055D02*
X0186945Y0014055D01*
X0186945Y0013656D02*
X0186392Y0013656D01*
X0186392Y0013258D02*
X0186945Y0013258D01*
X0186945Y0012859D02*
X0186392Y0012859D01*
X0186392Y0012461D02*
X0186945Y0012461D01*
X0186945Y0012062D02*
X0186392Y0012062D01*
X0186392Y0011664D02*
X0186945Y0011664D01*
X0186945Y0011265D02*
X0186392Y0011265D01*
X0186388Y0010867D02*
X0186949Y0010867D01*
X0187089Y0010468D02*
X0186248Y0010468D01*
X0181652Y0015649D02*
X0181252Y0015649D01*
X0181252Y0016047D02*
X0181652Y0016047D01*
X0181652Y0016446D02*
X0181252Y0016446D01*
X0181252Y0016844D02*
X0181652Y0016844D01*
X0181652Y0017243D02*
X0181252Y0017243D01*
X0181252Y0017641D02*
X0181652Y0017641D01*
X0181652Y0018040D02*
X0181252Y0018040D01*
X0181252Y0018438D02*
X0181652Y0018438D01*
X0181652Y0018837D02*
X0181252Y0018837D01*
X0181252Y0019235D02*
X0181652Y0019235D01*
X0181652Y0019634D02*
X0181252Y0019634D01*
X0177242Y0019634D02*
X0176214Y0019634D01*
X0176716Y0019235D02*
X0176739Y0019235D01*
X0172203Y0019235D02*
X0171803Y0019235D01*
X0171803Y0018837D02*
X0172203Y0018837D01*
X0172203Y0018438D02*
X0171803Y0018438D01*
X0171803Y0018040D02*
X0172203Y0018040D01*
X0172203Y0017641D02*
X0171803Y0017641D01*
X0171803Y0017243D02*
X0172203Y0017243D01*
X0172203Y0016844D02*
X0171803Y0016844D01*
X0171803Y0016446D02*
X0172203Y0016446D01*
X0172203Y0016047D02*
X0171803Y0016047D01*
X0171803Y0015649D02*
X0172203Y0015649D01*
X0172203Y0019634D02*
X0171803Y0019634D01*
X0164723Y0020829D02*
X0164323Y0020829D01*
X0164323Y0021228D02*
X0164723Y0021228D01*
X0164723Y0021626D02*
X0164323Y0021626D01*
X0164323Y0022025D02*
X0164723Y0022025D01*
X0164723Y0022423D02*
X0164323Y0022423D01*
X0164323Y0022822D02*
X0164723Y0022822D01*
X0164723Y0023220D02*
X0164323Y0023220D01*
X0164323Y0023619D02*
X0164723Y0023619D01*
X0164723Y0024017D02*
X0164323Y0024017D01*
X0164323Y0024416D02*
X0164723Y0024416D01*
X0162948Y0020431D02*
X0194444Y0020431D01*
X0194444Y0020829D02*
X0193923Y0020829D01*
X0194190Y0021228D02*
X0194444Y0021228D01*
X0194444Y0021626D02*
X0194266Y0021626D01*
X0194266Y0022025D02*
X0194444Y0022025D01*
X0194444Y0022423D02*
X0194266Y0022423D01*
X0194266Y0022822D02*
X0194444Y0022822D01*
X0194444Y0023220D02*
X0194266Y0023220D01*
X0194266Y0023619D02*
X0194444Y0023619D01*
X0194444Y0024017D02*
X0194266Y0024017D01*
X0194266Y0024416D02*
X0194444Y0024416D01*
X0194444Y0020032D02*
X0162948Y0020032D01*
X0183446Y0025213D02*
X0183598Y0025213D01*
X0183598Y0025611D02*
X0183446Y0025611D01*
X0183446Y0026010D02*
X0183598Y0026010D01*
X0183598Y0026409D02*
X0183446Y0026409D01*
M02*
