G75*
%MOIN*%
%OFA0B0*%
%FSLAX25Y25*%
%IPPOS*%
%LPD*%
%AMOC8*
5,1,8,0,0,1.08239X$1,22.5*
%
%ADD10C,0.00000*%
%ADD11C,0.10000*%
%ADD12C,0.07874*%
%ADD13R,0.07000X0.07000*%
%ADD14C,0.07000*%
%ADD15C,0.23000*%
%ADD16C,0.01600*%
%ADD17C,0.04724*%
%ADD18C,0.02381*%
%ADD19C,0.01000*%
%ADD20C,0.11811*%
%ADD21C,0.02400*%
D10*
X0064523Y0024622D02*
X0064523Y0327772D01*
X0064503Y0328129D01*
X0064492Y0328486D01*
X0064490Y0328844D01*
X0064497Y0329201D01*
X0064512Y0329559D01*
X0064535Y0329915D01*
X0064568Y0330271D01*
X0064609Y0330627D01*
X0064658Y0330981D01*
X0064716Y0331334D01*
X0064783Y0331685D01*
X0064858Y0332035D01*
X0064941Y0332382D01*
X0065033Y0332728D01*
X0065133Y0333071D01*
X0065242Y0333412D01*
X0065358Y0333750D01*
X0065483Y0334085D01*
X0065616Y0334417D01*
X0065757Y0334746D01*
X0065905Y0335071D01*
X0066062Y0335392D01*
X0066226Y0335710D01*
X0066398Y0336024D01*
X0066577Y0336333D01*
X0066764Y0336638D01*
X0066958Y0336938D01*
X0067159Y0337234D01*
X0067368Y0337524D01*
X0067583Y0337810D01*
X0067805Y0338090D01*
X0068034Y0338365D01*
X0068270Y0338634D01*
X0068512Y0338897D01*
X0068760Y0339154D01*
X0069014Y0339406D01*
X0069274Y0339651D01*
X0069541Y0339890D01*
X0069813Y0340122D01*
X0070090Y0340348D01*
X0070373Y0340566D01*
X0070661Y0340778D01*
X0070954Y0340983D01*
X0071252Y0341181D01*
X0071554Y0341372D01*
X0071861Y0341555D01*
X0072173Y0341731D01*
X0072488Y0341899D01*
X0072808Y0342059D01*
X0073131Y0342212D01*
X0073458Y0342357D01*
X0073788Y0342493D01*
X0074122Y0342622D01*
X0074459Y0342743D01*
X0074798Y0342856D01*
X0075140Y0342960D01*
X0075484Y0343056D01*
X0075831Y0343144D01*
X0076180Y0343223D01*
X0076530Y0343294D01*
X0076882Y0343356D01*
X0077236Y0343410D01*
X0077591Y0343455D01*
X0077946Y0343492D01*
X0078303Y0343520D01*
X0078302Y0343520D02*
X0416885Y0343520D01*
X0416885Y0343519D02*
X0417296Y0343538D01*
X0417707Y0343547D01*
X0418118Y0343546D01*
X0418530Y0343535D01*
X0418940Y0343514D01*
X0419351Y0343482D01*
X0419760Y0343441D01*
X0420168Y0343390D01*
X0420575Y0343328D01*
X0420980Y0343257D01*
X0421383Y0343175D01*
X0421784Y0343084D01*
X0422183Y0342983D01*
X0422579Y0342873D01*
X0422973Y0342752D01*
X0423363Y0342622D01*
X0423750Y0342482D01*
X0424133Y0342333D01*
X0424513Y0342175D01*
X0424888Y0342007D01*
X0425260Y0341830D01*
X0425627Y0341645D01*
X0425989Y0341450D01*
X0426346Y0341246D01*
X0426699Y0341034D01*
X0427046Y0340813D01*
X0427387Y0340583D01*
X0427723Y0340345D01*
X0428053Y0340100D01*
X0428376Y0339846D01*
X0428694Y0339584D01*
X0429004Y0339314D01*
X0429308Y0339037D01*
X0429606Y0338753D01*
X0429896Y0338461D01*
X0430179Y0338163D01*
X0430454Y0337857D01*
X0430722Y0337545D01*
X0430982Y0337226D01*
X0431234Y0336901D01*
X0431479Y0336570D01*
X0431715Y0336233D01*
X0431942Y0335891D01*
X0432161Y0335542D01*
X0432372Y0335189D01*
X0432574Y0334831D01*
X0432767Y0334467D01*
X0432951Y0334099D01*
X0433126Y0333727D01*
X0433291Y0333351D01*
X0433448Y0332970D01*
X0433595Y0332586D01*
X0433732Y0332198D01*
X0433860Y0331807D01*
X0433979Y0331413D01*
X0434088Y0331017D01*
X0434186Y0330617D01*
X0434276Y0330216D01*
X0434355Y0329812D01*
X0434424Y0329407D01*
X0434483Y0328999D01*
X0434533Y0328591D01*
X0434572Y0328182D01*
X0434601Y0327771D01*
X0434602Y0327772D02*
X0434602Y0024622D01*
X0434597Y0024241D01*
X0434584Y0023861D01*
X0434561Y0023481D01*
X0434528Y0023102D01*
X0434487Y0022724D01*
X0434437Y0022347D01*
X0434377Y0021971D01*
X0434309Y0021596D01*
X0434231Y0021224D01*
X0434144Y0020853D01*
X0434049Y0020485D01*
X0433944Y0020119D01*
X0433831Y0019756D01*
X0433709Y0019395D01*
X0433579Y0019038D01*
X0433439Y0018684D01*
X0433292Y0018333D01*
X0433135Y0017986D01*
X0432971Y0017643D01*
X0432798Y0017304D01*
X0432617Y0016969D01*
X0432428Y0016638D01*
X0432231Y0016313D01*
X0432027Y0015992D01*
X0431814Y0015676D01*
X0431594Y0015366D01*
X0431367Y0015060D01*
X0431132Y0014761D01*
X0430890Y0014467D01*
X0430642Y0014179D01*
X0430386Y0013897D01*
X0430123Y0013622D01*
X0429854Y0013353D01*
X0429579Y0013090D01*
X0429297Y0012834D01*
X0429009Y0012586D01*
X0428715Y0012344D01*
X0428416Y0012109D01*
X0428110Y0011882D01*
X0427800Y0011662D01*
X0427484Y0011449D01*
X0427163Y0011245D01*
X0426838Y0011048D01*
X0426507Y0010859D01*
X0426172Y0010678D01*
X0425833Y0010505D01*
X0425490Y0010341D01*
X0425143Y0010184D01*
X0424792Y0010037D01*
X0424438Y0009897D01*
X0424081Y0009767D01*
X0423720Y0009645D01*
X0423357Y0009532D01*
X0422991Y0009427D01*
X0422623Y0009332D01*
X0422252Y0009245D01*
X0421880Y0009167D01*
X0421505Y0009099D01*
X0421129Y0009039D01*
X0420752Y0008989D01*
X0420374Y0008948D01*
X0419995Y0008915D01*
X0419615Y0008892D01*
X0419235Y0008879D01*
X0418854Y0008874D01*
X0080271Y0008874D01*
X0079890Y0008879D01*
X0079510Y0008892D01*
X0079130Y0008915D01*
X0078751Y0008948D01*
X0078373Y0008989D01*
X0077996Y0009039D01*
X0077620Y0009099D01*
X0077245Y0009167D01*
X0076873Y0009245D01*
X0076502Y0009332D01*
X0076134Y0009427D01*
X0075768Y0009532D01*
X0075405Y0009645D01*
X0075044Y0009767D01*
X0074687Y0009897D01*
X0074333Y0010037D01*
X0073982Y0010184D01*
X0073635Y0010341D01*
X0073292Y0010505D01*
X0072953Y0010678D01*
X0072618Y0010859D01*
X0072287Y0011048D01*
X0071962Y0011245D01*
X0071641Y0011449D01*
X0071325Y0011662D01*
X0071015Y0011882D01*
X0070709Y0012109D01*
X0070410Y0012344D01*
X0070116Y0012586D01*
X0069828Y0012834D01*
X0069546Y0013090D01*
X0069271Y0013353D01*
X0069002Y0013622D01*
X0068739Y0013897D01*
X0068483Y0014179D01*
X0068235Y0014467D01*
X0067993Y0014761D01*
X0067758Y0015060D01*
X0067531Y0015366D01*
X0067311Y0015676D01*
X0067098Y0015992D01*
X0066894Y0016313D01*
X0066697Y0016638D01*
X0066508Y0016969D01*
X0066327Y0017304D01*
X0066154Y0017643D01*
X0065990Y0017986D01*
X0065833Y0018333D01*
X0065686Y0018684D01*
X0065546Y0019038D01*
X0065416Y0019395D01*
X0065294Y0019756D01*
X0065181Y0020119D01*
X0065076Y0020485D01*
X0064981Y0020853D01*
X0064894Y0021224D01*
X0064816Y0021596D01*
X0064748Y0021971D01*
X0064688Y0022347D01*
X0064638Y0022724D01*
X0064597Y0023102D01*
X0064564Y0023481D01*
X0064541Y0023861D01*
X0064528Y0024241D01*
X0064523Y0024622D01*
D11*
X0123578Y0052457D03*
X0206255Y0052457D03*
X0288932Y0052457D03*
X0371610Y0052457D03*
X0371610Y0142457D03*
X0288932Y0142457D03*
X0206255Y0142457D03*
X0123578Y0142457D03*
D12*
X0123578Y0153953D03*
X0099956Y0161827D03*
X0147200Y0161827D03*
X0182633Y0161827D03*
X0206255Y0153953D03*
X0229877Y0161827D03*
X0265310Y0161827D03*
X0288932Y0153953D03*
X0312554Y0161827D03*
X0347987Y0161827D03*
X0371610Y0153953D03*
X0395232Y0161827D03*
X0395232Y0209858D03*
X0347987Y0209858D03*
X0312554Y0209858D03*
X0265310Y0209858D03*
X0229877Y0209858D03*
X0182633Y0209858D03*
X0147200Y0209858D03*
X0099956Y0209858D03*
X0119641Y0024622D03*
X0139641Y0024622D03*
X0212161Y0024622D03*
X0232161Y0024622D03*
X0261373Y0024622D03*
X0281373Y0024622D03*
X0310586Y0024622D03*
X0330586Y0024622D03*
X0359798Y0024622D03*
X0379798Y0024622D03*
D13*
X0418657Y0245055D03*
D14*
X0418657Y0255055D03*
X0418657Y0265055D03*
X0418657Y0275055D03*
X0418657Y0285055D03*
X0418657Y0295055D03*
D15*
X0418854Y0327772D03*
X0080271Y0327772D03*
X0080271Y0024622D03*
X0418854Y0024622D03*
D16*
X0419654Y0024859D02*
X0432802Y0024859D01*
X0432802Y0024622D02*
X0432682Y0022801D01*
X0431740Y0019284D01*
X0429919Y0016131D01*
X0427345Y0013556D01*
X0424191Y0011736D01*
X0420674Y0010793D01*
X0418854Y0010674D01*
X0080271Y0010674D01*
X0078450Y0010793D01*
X0074933Y0011736D01*
X0071780Y0013556D01*
X0069205Y0016131D01*
X0067385Y0019284D01*
X0066442Y0022801D01*
X0066323Y0024622D01*
X0066323Y0327095D01*
X0066369Y0327147D01*
X0066323Y0327832D01*
X0066323Y0328517D01*
X0066318Y0328522D01*
X0066317Y0329591D01*
X0066975Y0332920D01*
X0068472Y0335964D01*
X0070707Y0338518D01*
X0073525Y0340406D01*
X0076737Y0341500D01*
X0078392Y0341720D01*
X0222542Y0341720D01*
X0222542Y0307007D01*
X0223010Y0306539D01*
X0303673Y0306539D01*
X0304142Y0307007D01*
X0304142Y0341720D01*
X0416201Y0341720D01*
X0416247Y0341679D01*
X0416938Y0341720D01*
X0417454Y0341720D01*
X0418948Y0341710D01*
X0422773Y0340922D01*
X0426264Y0339171D01*
X0429184Y0336576D01*
X0431332Y0333315D01*
X0432562Y0329608D01*
X0432802Y0327691D01*
X0432802Y0024622D01*
X0432139Y0023822D02*
X0419654Y0023822D01*
X0419654Y0025422D01*
X0432139Y0025422D01*
X0432026Y0026576D01*
X0431771Y0027858D01*
X0431391Y0029108D01*
X0430891Y0030315D01*
X0430275Y0031468D01*
X0429549Y0032554D01*
X0428720Y0033565D01*
X0427796Y0034489D01*
X0426786Y0035318D01*
X0425699Y0036044D01*
X0424547Y0036660D01*
X0423340Y0037160D01*
X0422089Y0037539D01*
X0420807Y0037794D01*
X0419654Y0037908D01*
X0419654Y0025422D01*
X0418054Y0025422D01*
X0418054Y0037908D01*
X0416900Y0037794D01*
X0415618Y0037539D01*
X0414368Y0037160D01*
X0413160Y0036660D01*
X0412008Y0036044D01*
X0410921Y0035318D01*
X0409911Y0034489D01*
X0408987Y0033565D01*
X0408158Y0032554D01*
X0407432Y0031468D01*
X0406816Y0030315D01*
X0406316Y0029108D01*
X0405937Y0027858D01*
X0405682Y0026576D01*
X0405568Y0025422D01*
X0418054Y0025422D01*
X0418054Y0023822D01*
X0419654Y0023822D01*
X0419654Y0011336D01*
X0420807Y0011450D01*
X0422089Y0011705D01*
X0423340Y0012084D01*
X0424547Y0012584D01*
X0425699Y0013200D01*
X0426786Y0013927D01*
X0427796Y0014756D01*
X0428720Y0015680D01*
X0429549Y0016690D01*
X0430275Y0017776D01*
X0430891Y0018929D01*
X0431391Y0020136D01*
X0431771Y0021387D01*
X0432026Y0022668D01*
X0432139Y0023822D01*
X0432084Y0023261D02*
X0432712Y0023261D01*
X0432377Y0021662D02*
X0431825Y0021662D01*
X0431949Y0020064D02*
X0431361Y0020064D01*
X0431740Y0019284D02*
X0431740Y0019284D01*
X0431267Y0018465D02*
X0430643Y0018465D01*
X0430344Y0016867D02*
X0429667Y0016867D01*
X0429056Y0015268D02*
X0428309Y0015268D01*
X0427458Y0013670D02*
X0426401Y0013670D01*
X0424772Y0012071D02*
X0423296Y0012071D01*
X0419654Y0012071D02*
X0418054Y0012071D01*
X0418054Y0011336D02*
X0418054Y0023822D01*
X0405568Y0023822D01*
X0405682Y0022668D01*
X0405937Y0021387D01*
X0406316Y0020136D01*
X0406816Y0018929D01*
X0407432Y0017776D01*
X0408158Y0016690D01*
X0408987Y0015680D01*
X0409911Y0014756D01*
X0410921Y0013927D01*
X0412008Y0013200D01*
X0413160Y0012584D01*
X0414368Y0012084D01*
X0415618Y0011705D01*
X0416900Y0011450D01*
X0418054Y0011336D01*
X0418054Y0013670D02*
X0419654Y0013670D01*
X0419654Y0015268D02*
X0418054Y0015268D01*
X0418054Y0016867D02*
X0419654Y0016867D01*
X0419654Y0018465D02*
X0418054Y0018465D01*
X0418054Y0020064D02*
X0419654Y0020064D01*
X0419654Y0021662D02*
X0418054Y0021662D01*
X0418054Y0023261D02*
X0419654Y0023261D01*
X0418054Y0024859D02*
X0380278Y0024859D01*
X0380278Y0025102D02*
X0385531Y0025102D01*
X0385394Y0025965D01*
X0385115Y0026824D01*
X0384705Y0027629D01*
X0384174Y0028359D01*
X0383536Y0028998D01*
X0382805Y0029529D01*
X0382001Y0029939D01*
X0381142Y0030218D01*
X0380278Y0030355D01*
X0380278Y0025102D01*
X0379319Y0025102D01*
X0379319Y0030355D01*
X0378455Y0030218D01*
X0377596Y0029939D01*
X0376792Y0029529D01*
X0376061Y0028998D01*
X0375423Y0028359D01*
X0374892Y0027629D01*
X0374482Y0026824D01*
X0374203Y0025965D01*
X0374066Y0025102D01*
X0379319Y0025102D01*
X0379319Y0024142D01*
X0380278Y0024142D01*
X0380278Y0018889D01*
X0381142Y0019026D01*
X0382001Y0019305D01*
X0382805Y0019715D01*
X0383536Y0020246D01*
X0384174Y0020885D01*
X0384705Y0021615D01*
X0385115Y0022420D01*
X0385394Y0023279D01*
X0385531Y0024142D01*
X0380278Y0024142D01*
X0380278Y0025102D01*
X0379319Y0024859D02*
X0367104Y0024859D01*
X0367104Y0023261D02*
X0374209Y0023261D01*
X0374203Y0023279D02*
X0374482Y0022420D01*
X0374892Y0021615D01*
X0375423Y0020885D01*
X0376061Y0020246D01*
X0376792Y0019715D01*
X0377596Y0019305D01*
X0378455Y0019026D01*
X0379319Y0018889D01*
X0379319Y0024142D01*
X0374066Y0024142D01*
X0374203Y0023279D01*
X0374868Y0021662D02*
X0366480Y0021662D01*
X0365992Y0020484D02*
X0367104Y0023169D01*
X0367104Y0037620D01*
X0377803Y0048318D01*
X0378915Y0051004D01*
X0378915Y0053910D01*
X0377803Y0056595D01*
X0375748Y0058650D01*
X0373063Y0059762D01*
X0370156Y0059762D01*
X0367471Y0058650D01*
X0355660Y0046839D01*
X0353605Y0044784D01*
X0352493Y0042099D01*
X0352493Y0023169D01*
X0353605Y0020484D01*
X0355660Y0018429D01*
X0358345Y0017317D01*
X0361252Y0017317D01*
X0363937Y0018429D01*
X0365992Y0020484D01*
X0365572Y0020064D02*
X0376312Y0020064D01*
X0379319Y0020064D02*
X0380278Y0020064D01*
X0380278Y0021662D02*
X0379319Y0021662D01*
X0379319Y0023261D02*
X0380278Y0023261D01*
X0380278Y0026458D02*
X0379319Y0026458D01*
X0379319Y0028056D02*
X0380278Y0028056D01*
X0380278Y0029655D02*
X0379319Y0029655D01*
X0377039Y0029655D02*
X0367104Y0029655D01*
X0367104Y0031253D02*
X0407317Y0031253D01*
X0406542Y0029655D02*
X0382558Y0029655D01*
X0384395Y0028056D02*
X0405997Y0028056D01*
X0405670Y0026458D02*
X0385234Y0026458D01*
X0385388Y0023261D02*
X0405623Y0023261D01*
X0405882Y0021662D02*
X0384729Y0021662D01*
X0383285Y0020064D02*
X0406346Y0020064D01*
X0407064Y0018465D02*
X0363973Y0018465D01*
X0355624Y0018465D02*
X0314760Y0018465D01*
X0314724Y0018429D02*
X0316779Y0020484D01*
X0317891Y0023169D01*
X0317891Y0032256D01*
X0316779Y0034941D01*
X0314724Y0036996D01*
X0293071Y0058650D01*
X0290386Y0059762D01*
X0287479Y0059762D01*
X0284794Y0058650D01*
X0282739Y0056595D01*
X0281627Y0053910D01*
X0281627Y0051004D01*
X0282739Y0048318D01*
X0303280Y0027777D01*
X0303280Y0023169D01*
X0304393Y0020484D01*
X0306448Y0018429D01*
X0309133Y0017317D01*
X0312039Y0017317D01*
X0314724Y0018429D01*
X0316359Y0020064D02*
X0327100Y0020064D01*
X0326848Y0020246D02*
X0327579Y0019715D01*
X0328384Y0019305D01*
X0329242Y0019026D01*
X0330106Y0018889D01*
X0330106Y0024142D01*
X0331065Y0024142D01*
X0331065Y0018889D01*
X0331929Y0019026D01*
X0332788Y0019305D01*
X0333593Y0019715D01*
X0334323Y0020246D01*
X0334962Y0020885D01*
X0335493Y0021615D01*
X0335903Y0022420D01*
X0336182Y0023279D01*
X0336318Y0024142D01*
X0331066Y0024142D01*
X0331066Y0025102D01*
X0336318Y0025102D01*
X0336182Y0025965D01*
X0335903Y0026824D01*
X0335493Y0027629D01*
X0334962Y0028359D01*
X0334323Y0028998D01*
X0333593Y0029529D01*
X0332788Y0029939D01*
X0331929Y0030218D01*
X0331065Y0030355D01*
X0331065Y0025102D01*
X0330106Y0025102D01*
X0330106Y0030355D01*
X0329242Y0030218D01*
X0328384Y0029939D01*
X0327579Y0029529D01*
X0326848Y0028998D01*
X0326210Y0028359D01*
X0325679Y0027629D01*
X0325269Y0026824D01*
X0324990Y0025965D01*
X0324853Y0025102D01*
X0330106Y0025102D01*
X0330106Y0024142D01*
X0324853Y0024142D01*
X0324990Y0023279D01*
X0325269Y0022420D01*
X0325679Y0021615D01*
X0326210Y0020885D01*
X0326848Y0020246D01*
X0325655Y0021662D02*
X0317267Y0021662D01*
X0317891Y0023261D02*
X0324996Y0023261D01*
X0325150Y0026458D02*
X0317891Y0026458D01*
X0317891Y0028056D02*
X0325990Y0028056D01*
X0327826Y0029655D02*
X0317891Y0029655D01*
X0317891Y0031253D02*
X0352493Y0031253D01*
X0352493Y0029655D02*
X0333346Y0029655D01*
X0331065Y0029655D02*
X0330106Y0029655D01*
X0330106Y0028056D02*
X0331065Y0028056D01*
X0331065Y0026458D02*
X0330106Y0026458D01*
X0330106Y0024859D02*
X0317891Y0024859D01*
X0317645Y0032852D02*
X0352493Y0032852D01*
X0352493Y0034450D02*
X0316983Y0034450D01*
X0315672Y0036049D02*
X0352493Y0036049D01*
X0352493Y0037647D02*
X0314073Y0037647D01*
X0312475Y0039246D02*
X0352493Y0039246D01*
X0352493Y0040844D02*
X0310876Y0040844D01*
X0309278Y0042443D02*
X0352635Y0042443D01*
X0353298Y0044041D02*
X0307679Y0044041D01*
X0306081Y0045640D02*
X0354461Y0045640D01*
X0356060Y0047238D02*
X0304482Y0047238D01*
X0302884Y0048837D02*
X0357658Y0048837D01*
X0359257Y0050435D02*
X0301285Y0050435D01*
X0299687Y0052034D02*
X0360855Y0052034D01*
X0362454Y0053632D02*
X0298088Y0053632D01*
X0296490Y0055231D02*
X0364052Y0055231D01*
X0365651Y0056829D02*
X0294891Y0056829D01*
X0293293Y0058428D02*
X0367249Y0058428D01*
X0375970Y0058428D02*
X0432802Y0058428D01*
X0432802Y0060026D02*
X0086808Y0060026D01*
X0086808Y0058428D02*
X0119218Y0058428D01*
X0119440Y0058650D02*
X0117385Y0056595D01*
X0116273Y0053910D01*
X0116273Y0051004D01*
X0117385Y0048318D01*
X0119440Y0046263D01*
X0122125Y0045151D01*
X0181300Y0045151D01*
X0208022Y0018429D01*
X0210708Y0017317D01*
X0213614Y0017317D01*
X0216299Y0018429D01*
X0218354Y0020484D01*
X0219466Y0023169D01*
X0219466Y0026075D01*
X0218354Y0028760D01*
X0190519Y0056595D01*
X0188464Y0058650D01*
X0185779Y0059762D01*
X0122125Y0059762D01*
X0119440Y0058650D01*
X0117619Y0056829D02*
X0086808Y0056829D01*
X0086808Y0055231D02*
X0116820Y0055231D01*
X0116273Y0053632D02*
X0086808Y0053632D01*
X0086808Y0052034D02*
X0116273Y0052034D01*
X0116508Y0050435D02*
X0086808Y0050435D01*
X0086808Y0048837D02*
X0117170Y0048837D01*
X0118465Y0047238D02*
X0086922Y0047238D01*
X0086808Y0047353D02*
X0116781Y0017380D01*
X0146123Y0017380D01*
X0147375Y0018631D01*
X0147375Y0019465D01*
X0147948Y0020848D01*
X0149006Y0021906D01*
X0150389Y0022479D01*
X0151885Y0022479D01*
X0153268Y0021906D01*
X0154327Y0020848D01*
X0154899Y0019465D01*
X0154899Y0017968D01*
X0154327Y0016585D01*
X0153268Y0015527D01*
X0151885Y0014954D01*
X0151052Y0014954D01*
X0149404Y0013307D01*
X0148673Y0012575D01*
X0147717Y0012180D01*
X0115187Y0012180D01*
X0114231Y0012575D01*
X0113500Y0013307D01*
X0113500Y0013307D01*
X0082735Y0044071D01*
X0082004Y0044803D01*
X0081608Y0045758D01*
X0081608Y0159697D01*
X0081019Y0160286D01*
X0080446Y0161669D01*
X0080446Y0163166D01*
X0081019Y0164548D01*
X0081608Y0165138D01*
X0081608Y0232531D01*
X0081019Y0233121D01*
X0080446Y0234504D01*
X0080446Y0236000D01*
X0081019Y0237383D01*
X0082077Y0238441D01*
X0083460Y0239014D01*
X0084956Y0239014D01*
X0086339Y0238441D01*
X0087397Y0237383D01*
X0087970Y0236000D01*
X0087970Y0234504D01*
X0087397Y0233121D01*
X0086808Y0232531D01*
X0086808Y0165138D01*
X0087397Y0164548D01*
X0087970Y0163166D01*
X0087970Y0161669D01*
X0087397Y0160286D01*
X0086808Y0159697D01*
X0086808Y0047353D01*
X0088521Y0045640D02*
X0120945Y0045640D01*
X0120703Y0029959D02*
X0118579Y0029959D01*
X0116618Y0029147D01*
X0115117Y0027645D01*
X0114304Y0025684D01*
X0114304Y0023560D01*
X0115117Y0021599D01*
X0116618Y0020098D01*
X0118579Y0019285D01*
X0120703Y0019285D01*
X0122664Y0020098D01*
X0124166Y0021599D01*
X0124978Y0023560D01*
X0124978Y0025684D01*
X0124166Y0027645D01*
X0122664Y0029147D01*
X0120703Y0029959D01*
X0121437Y0029655D02*
X0136881Y0029655D01*
X0136634Y0029529D02*
X0135904Y0028998D01*
X0135265Y0028359D01*
X0134734Y0027629D01*
X0134324Y0026824D01*
X0134045Y0025965D01*
X0133908Y0025102D01*
X0139161Y0025102D01*
X0139161Y0030355D01*
X0138298Y0030218D01*
X0137439Y0029939D01*
X0136634Y0029529D01*
X0135045Y0028056D02*
X0123755Y0028056D01*
X0124657Y0026458D02*
X0134205Y0026458D01*
X0133908Y0024142D02*
X0134045Y0023279D01*
X0134324Y0022420D01*
X0134734Y0021615D01*
X0135265Y0020885D01*
X0135904Y0020246D01*
X0136634Y0019715D01*
X0137439Y0019305D01*
X0138298Y0019026D01*
X0139161Y0018889D01*
X0139161Y0024142D01*
X0140121Y0024142D01*
X0140121Y0025102D01*
X0145374Y0025102D01*
X0145237Y0025965D01*
X0144958Y0026824D01*
X0144548Y0027629D01*
X0144017Y0028359D01*
X0143378Y0028998D01*
X0142648Y0029529D01*
X0141843Y0029939D01*
X0140984Y0030218D01*
X0140121Y0030355D01*
X0140121Y0025102D01*
X0139161Y0025102D01*
X0139161Y0024142D01*
X0133908Y0024142D01*
X0134051Y0023261D02*
X0124854Y0023261D01*
X0124978Y0024859D02*
X0139161Y0024859D01*
X0140121Y0024859D02*
X0201592Y0024859D01*
X0203191Y0023261D02*
X0145231Y0023261D01*
X0145237Y0023279D02*
X0145374Y0024142D01*
X0140121Y0024142D01*
X0140121Y0018889D01*
X0140984Y0019026D01*
X0141843Y0019305D01*
X0142648Y0019715D01*
X0143378Y0020246D01*
X0144017Y0020885D01*
X0144548Y0021615D01*
X0144958Y0022420D01*
X0145237Y0023279D01*
X0144572Y0021662D02*
X0148762Y0021662D01*
X0147623Y0020064D02*
X0143127Y0020064D01*
X0140121Y0020064D02*
X0139161Y0020064D01*
X0139161Y0021662D02*
X0140121Y0021662D01*
X0140121Y0023261D02*
X0139161Y0023261D01*
X0139161Y0026458D02*
X0140121Y0026458D01*
X0140121Y0028056D02*
X0139161Y0028056D01*
X0139161Y0029655D02*
X0140121Y0029655D01*
X0142401Y0029655D02*
X0196797Y0029655D01*
X0198395Y0028056D02*
X0144237Y0028056D01*
X0145077Y0026458D02*
X0199994Y0026458D01*
X0204789Y0021662D02*
X0153512Y0021662D01*
X0154651Y0020064D02*
X0206388Y0020064D01*
X0207986Y0018465D02*
X0154899Y0018465D01*
X0154443Y0016867D02*
X0408040Y0016867D01*
X0409399Y0015268D02*
X0152643Y0015268D01*
X0149767Y0013670D02*
X0411306Y0013670D01*
X0414412Y0012071D02*
X0084713Y0012071D01*
X0084757Y0012084D02*
X0085964Y0012584D01*
X0087117Y0013200D01*
X0088203Y0013927D01*
X0089213Y0014756D01*
X0090137Y0015680D01*
X0090966Y0016690D01*
X0091692Y0017776D01*
X0092308Y0018929D01*
X0092809Y0020136D01*
X0093188Y0021387D01*
X0093443Y0022668D01*
X0093556Y0023822D01*
X0081071Y0023822D01*
X0081071Y0025422D01*
X0093556Y0025422D01*
X0093443Y0026576D01*
X0093188Y0027858D01*
X0092809Y0029108D01*
X0092308Y0030315D01*
X0091692Y0031468D01*
X0090966Y0032554D01*
X0090137Y0033565D01*
X0089213Y0034489D01*
X0088203Y0035318D01*
X0087117Y0036044D01*
X0085964Y0036660D01*
X0084757Y0037160D01*
X0083506Y0037539D01*
X0082225Y0037794D01*
X0081071Y0037908D01*
X0081071Y0025422D01*
X0079471Y0025422D01*
X0079471Y0037908D01*
X0078317Y0037794D01*
X0077035Y0037539D01*
X0075785Y0037160D01*
X0074578Y0036660D01*
X0073425Y0036044D01*
X0072339Y0035318D01*
X0071328Y0034489D01*
X0070404Y0033565D01*
X0069575Y0032554D01*
X0068849Y0031468D01*
X0068233Y0030315D01*
X0067733Y0029108D01*
X0067354Y0027858D01*
X0067099Y0026576D01*
X0066985Y0025422D01*
X0079471Y0025422D01*
X0079471Y0023822D01*
X0081071Y0023822D01*
X0081071Y0011336D01*
X0082225Y0011450D01*
X0083506Y0011705D01*
X0084757Y0012084D01*
X0087819Y0013670D02*
X0113137Y0013670D01*
X0111539Y0015268D02*
X0089726Y0015268D01*
X0091085Y0016867D02*
X0109940Y0016867D01*
X0108341Y0018465D02*
X0092061Y0018465D01*
X0092779Y0020064D02*
X0106743Y0020064D01*
X0105144Y0021662D02*
X0093243Y0021662D01*
X0093501Y0023261D02*
X0103546Y0023261D01*
X0101947Y0024859D02*
X0081071Y0024859D01*
X0081071Y0023261D02*
X0079471Y0023261D01*
X0079471Y0023822D02*
X0079471Y0011336D01*
X0078317Y0011450D01*
X0077035Y0011705D01*
X0075785Y0012084D01*
X0074578Y0012584D01*
X0073425Y0013200D01*
X0072339Y0013927D01*
X0071328Y0014756D01*
X0070404Y0015680D01*
X0069575Y0016690D01*
X0068849Y0017776D01*
X0068233Y0018929D01*
X0067733Y0020136D01*
X0067354Y0021387D01*
X0067099Y0022668D01*
X0066985Y0023822D01*
X0079471Y0023822D01*
X0079471Y0024859D02*
X0066323Y0024859D01*
X0066323Y0026458D02*
X0067087Y0026458D01*
X0067414Y0028056D02*
X0066323Y0028056D01*
X0066323Y0029655D02*
X0067960Y0029655D01*
X0068735Y0031253D02*
X0066323Y0031253D01*
X0066323Y0032852D02*
X0069819Y0032852D01*
X0071290Y0034450D02*
X0066323Y0034450D01*
X0066323Y0036049D02*
X0073435Y0036049D01*
X0077579Y0037647D02*
X0066323Y0037647D01*
X0066323Y0039246D02*
X0087561Y0039246D01*
X0085962Y0040844D02*
X0066323Y0040844D01*
X0066323Y0042443D02*
X0084364Y0042443D01*
X0082765Y0044041D02*
X0066323Y0044041D01*
X0066323Y0045640D02*
X0081657Y0045640D01*
X0081608Y0047238D02*
X0066323Y0047238D01*
X0066323Y0048837D02*
X0081608Y0048837D01*
X0081608Y0050435D02*
X0066323Y0050435D01*
X0066323Y0052034D02*
X0081608Y0052034D01*
X0081608Y0053632D02*
X0066323Y0053632D01*
X0066323Y0055231D02*
X0081608Y0055231D01*
X0081608Y0056829D02*
X0066323Y0056829D01*
X0066323Y0058428D02*
X0081608Y0058428D01*
X0081608Y0060026D02*
X0066323Y0060026D01*
X0066323Y0061625D02*
X0081608Y0061625D01*
X0081608Y0063223D02*
X0066323Y0063223D01*
X0066323Y0064822D02*
X0081608Y0064822D01*
X0081608Y0066420D02*
X0066323Y0066420D01*
X0066323Y0068019D02*
X0081608Y0068019D01*
X0081608Y0069617D02*
X0066323Y0069617D01*
X0066323Y0071216D02*
X0081608Y0071216D01*
X0081608Y0072814D02*
X0066323Y0072814D01*
X0066323Y0074413D02*
X0081608Y0074413D01*
X0081608Y0076011D02*
X0066323Y0076011D01*
X0066323Y0077610D02*
X0081608Y0077610D01*
X0081608Y0079209D02*
X0066323Y0079209D01*
X0066323Y0080807D02*
X0081608Y0080807D01*
X0081608Y0082406D02*
X0066323Y0082406D01*
X0066323Y0084004D02*
X0081608Y0084004D01*
X0081608Y0085603D02*
X0066323Y0085603D01*
X0066323Y0087201D02*
X0081608Y0087201D01*
X0081608Y0088800D02*
X0066323Y0088800D01*
X0066323Y0090398D02*
X0081608Y0090398D01*
X0081608Y0091997D02*
X0066323Y0091997D01*
X0066323Y0093595D02*
X0081608Y0093595D01*
X0081608Y0095194D02*
X0066323Y0095194D01*
X0066323Y0096792D02*
X0081608Y0096792D01*
X0081608Y0098391D02*
X0066323Y0098391D01*
X0066323Y0099989D02*
X0081608Y0099989D01*
X0081608Y0101588D02*
X0066323Y0101588D01*
X0066323Y0103186D02*
X0081608Y0103186D01*
X0081608Y0104785D02*
X0066323Y0104785D01*
X0066323Y0106383D02*
X0081608Y0106383D01*
X0081608Y0107982D02*
X0066323Y0107982D01*
X0066323Y0109580D02*
X0081608Y0109580D01*
X0081608Y0111179D02*
X0066323Y0111179D01*
X0066323Y0112777D02*
X0081608Y0112777D01*
X0081608Y0114376D02*
X0066323Y0114376D01*
X0066323Y0115974D02*
X0081608Y0115974D01*
X0081608Y0117573D02*
X0066323Y0117573D01*
X0066323Y0119171D02*
X0081608Y0119171D01*
X0081608Y0120770D02*
X0066323Y0120770D01*
X0066323Y0122368D02*
X0081608Y0122368D01*
X0081608Y0123967D02*
X0066323Y0123967D01*
X0066323Y0125565D02*
X0081608Y0125565D01*
X0081608Y0127164D02*
X0066323Y0127164D01*
X0066323Y0128762D02*
X0081608Y0128762D01*
X0081608Y0130361D02*
X0066323Y0130361D01*
X0066323Y0131959D02*
X0081608Y0131959D01*
X0081608Y0133558D02*
X0066323Y0133558D01*
X0066323Y0135156D02*
X0081608Y0135156D01*
X0081608Y0136755D02*
X0066323Y0136755D01*
X0066323Y0138353D02*
X0081608Y0138353D01*
X0081608Y0139952D02*
X0066323Y0139952D01*
X0066323Y0141550D02*
X0081608Y0141550D01*
X0081608Y0143149D02*
X0066323Y0143149D01*
X0066323Y0144747D02*
X0081608Y0144747D01*
X0081608Y0146346D02*
X0066323Y0146346D01*
X0066323Y0147945D02*
X0081608Y0147945D01*
X0081608Y0149543D02*
X0066323Y0149543D01*
X0066323Y0151142D02*
X0081608Y0151142D01*
X0081608Y0152740D02*
X0066323Y0152740D01*
X0066323Y0154339D02*
X0081608Y0154339D01*
X0081608Y0155937D02*
X0066323Y0155937D01*
X0066323Y0157536D02*
X0081608Y0157536D01*
X0081608Y0159134D02*
X0066323Y0159134D01*
X0066323Y0160733D02*
X0080834Y0160733D01*
X0080446Y0162331D02*
X0066323Y0162331D01*
X0066323Y0163930D02*
X0080762Y0163930D01*
X0081608Y0165528D02*
X0066323Y0165528D01*
X0066323Y0167127D02*
X0081608Y0167127D01*
X0081608Y0168725D02*
X0066323Y0168725D01*
X0066323Y0170324D02*
X0081608Y0170324D01*
X0081608Y0171922D02*
X0066323Y0171922D01*
X0066323Y0173521D02*
X0081608Y0173521D01*
X0081608Y0175119D02*
X0066323Y0175119D01*
X0066323Y0176718D02*
X0081608Y0176718D01*
X0081608Y0178316D02*
X0066323Y0178316D01*
X0066323Y0179915D02*
X0081608Y0179915D01*
X0081608Y0181513D02*
X0066323Y0181513D01*
X0066323Y0183112D02*
X0081608Y0183112D01*
X0081608Y0184710D02*
X0066323Y0184710D01*
X0066323Y0186309D02*
X0081608Y0186309D01*
X0081608Y0187907D02*
X0066323Y0187907D01*
X0066323Y0189506D02*
X0081608Y0189506D01*
X0081608Y0191104D02*
X0066323Y0191104D01*
X0066323Y0192703D02*
X0081608Y0192703D01*
X0081608Y0194301D02*
X0066323Y0194301D01*
X0066323Y0195900D02*
X0081608Y0195900D01*
X0081608Y0197498D02*
X0066323Y0197498D01*
X0066323Y0199097D02*
X0081608Y0199097D01*
X0081608Y0200695D02*
X0066323Y0200695D01*
X0066323Y0202294D02*
X0081608Y0202294D01*
X0081608Y0203892D02*
X0066323Y0203892D01*
X0066323Y0205491D02*
X0081608Y0205491D01*
X0081608Y0207089D02*
X0066323Y0207089D01*
X0066323Y0208688D02*
X0081608Y0208688D01*
X0081608Y0210286D02*
X0066323Y0210286D01*
X0066323Y0211885D02*
X0081608Y0211885D01*
X0081608Y0213483D02*
X0066323Y0213483D01*
X0066323Y0215082D02*
X0081608Y0215082D01*
X0081608Y0216680D02*
X0066323Y0216680D01*
X0066323Y0218279D02*
X0081608Y0218279D01*
X0081608Y0219878D02*
X0066323Y0219878D01*
X0066323Y0221476D02*
X0081608Y0221476D01*
X0081608Y0223075D02*
X0066323Y0223075D01*
X0066323Y0224673D02*
X0081608Y0224673D01*
X0081608Y0226272D02*
X0066323Y0226272D01*
X0066323Y0227870D02*
X0081608Y0227870D01*
X0081608Y0229469D02*
X0066323Y0229469D01*
X0066323Y0231067D02*
X0081608Y0231067D01*
X0081474Y0232666D02*
X0066323Y0232666D01*
X0066323Y0234264D02*
X0080545Y0234264D01*
X0080446Y0235863D02*
X0066323Y0235863D01*
X0066323Y0237461D02*
X0081097Y0237461D01*
X0087319Y0237461D02*
X0432802Y0237461D01*
X0432802Y0235863D02*
X0087970Y0235863D01*
X0087871Y0234264D02*
X0432802Y0234264D01*
X0432802Y0232666D02*
X0086942Y0232666D01*
X0086808Y0231067D02*
X0432802Y0231067D01*
X0432802Y0229469D02*
X0086808Y0229469D01*
X0086808Y0227870D02*
X0432802Y0227870D01*
X0432802Y0226272D02*
X0086808Y0226272D01*
X0086808Y0224673D02*
X0432802Y0224673D01*
X0432802Y0223075D02*
X0086808Y0223075D01*
X0086808Y0221476D02*
X0432802Y0221476D01*
X0432802Y0219878D02*
X0086808Y0219878D01*
X0086808Y0218279D02*
X0432802Y0218279D01*
X0432802Y0216680D02*
X0086808Y0216680D01*
X0086808Y0215082D02*
X0098621Y0215082D01*
X0098894Y0215195D02*
X0096933Y0214383D01*
X0095431Y0212881D01*
X0094619Y0210920D01*
X0094619Y0208797D01*
X0095431Y0206835D01*
X0096933Y0205334D01*
X0098894Y0204521D01*
X0101018Y0204521D01*
X0102979Y0205334D01*
X0104480Y0206835D01*
X0105293Y0208797D01*
X0105293Y0210920D01*
X0104480Y0212881D01*
X0102979Y0214383D01*
X0101018Y0215195D01*
X0098894Y0215195D01*
X0101291Y0215082D02*
X0145865Y0215082D01*
X0146138Y0215195D02*
X0144177Y0214383D01*
X0142676Y0212881D01*
X0141863Y0210920D01*
X0141863Y0208797D01*
X0142676Y0206835D01*
X0144177Y0205334D01*
X0146138Y0204521D01*
X0148262Y0204521D01*
X0150223Y0205334D01*
X0151725Y0206835D01*
X0152537Y0208797D01*
X0152537Y0210920D01*
X0151725Y0212881D01*
X0150223Y0214383D01*
X0148262Y0215195D01*
X0146138Y0215195D01*
X0148535Y0215082D02*
X0181298Y0215082D01*
X0181572Y0215195D02*
X0179610Y0214383D01*
X0178109Y0212881D01*
X0177296Y0210920D01*
X0177296Y0208797D01*
X0178109Y0206835D01*
X0179610Y0205334D01*
X0181572Y0204521D01*
X0183695Y0204521D01*
X0185656Y0205334D01*
X0187158Y0206835D01*
X0187970Y0208797D01*
X0187970Y0210920D01*
X0187158Y0212881D01*
X0185656Y0214383D01*
X0183695Y0215195D01*
X0181572Y0215195D01*
X0183968Y0215082D02*
X0228542Y0215082D01*
X0228816Y0215195D02*
X0226854Y0214383D01*
X0225353Y0212881D01*
X0224540Y0210920D01*
X0224540Y0208797D01*
X0225353Y0206835D01*
X0226854Y0205334D01*
X0228816Y0204521D01*
X0230939Y0204521D01*
X0232900Y0205334D01*
X0234402Y0206835D01*
X0235214Y0208797D01*
X0235214Y0210920D01*
X0234402Y0212881D01*
X0232900Y0214383D01*
X0230939Y0215195D01*
X0228816Y0215195D01*
X0231212Y0215082D02*
X0263975Y0215082D01*
X0264249Y0215195D02*
X0262287Y0214383D01*
X0260786Y0212881D01*
X0259973Y0210920D01*
X0259973Y0208797D01*
X0260786Y0206835D01*
X0262287Y0205334D01*
X0264249Y0204521D01*
X0266372Y0204521D01*
X0268333Y0205334D01*
X0269835Y0206835D01*
X0270647Y0208797D01*
X0270647Y0210920D01*
X0269835Y0212881D01*
X0268333Y0214383D01*
X0266372Y0215195D01*
X0264249Y0215195D01*
X0266645Y0215082D02*
X0311219Y0215082D01*
X0311493Y0215195D02*
X0309531Y0214383D01*
X0308030Y0212881D01*
X0307217Y0210920D01*
X0307217Y0208797D01*
X0308030Y0206835D01*
X0309531Y0205334D01*
X0311493Y0204521D01*
X0313616Y0204521D01*
X0315578Y0205334D01*
X0317079Y0206835D01*
X0317891Y0208797D01*
X0317891Y0210920D01*
X0317079Y0212881D01*
X0315578Y0214383D01*
X0313616Y0215195D01*
X0311493Y0215195D01*
X0313890Y0215082D02*
X0346652Y0215082D01*
X0346926Y0215195D02*
X0344964Y0214383D01*
X0343463Y0212881D01*
X0342650Y0210920D01*
X0342650Y0208797D01*
X0343463Y0206835D01*
X0344964Y0205334D01*
X0346926Y0204521D01*
X0349049Y0204521D01*
X0351011Y0205334D01*
X0352512Y0206835D01*
X0353324Y0208797D01*
X0353324Y0210920D01*
X0352512Y0212881D01*
X0351011Y0214383D01*
X0349049Y0215195D01*
X0346926Y0215195D01*
X0349323Y0215082D02*
X0393896Y0215082D01*
X0394170Y0215195D02*
X0392208Y0214383D01*
X0390707Y0212881D01*
X0389895Y0210920D01*
X0389895Y0208797D01*
X0390707Y0206835D01*
X0392208Y0205334D01*
X0394170Y0204521D01*
X0396293Y0204521D01*
X0398255Y0205334D01*
X0399756Y0206835D01*
X0400569Y0208797D01*
X0400569Y0210920D01*
X0399756Y0212881D01*
X0398255Y0214383D01*
X0396293Y0215195D01*
X0394170Y0215195D01*
X0396567Y0215082D02*
X0432802Y0215082D01*
X0432802Y0213483D02*
X0399154Y0213483D01*
X0400169Y0211885D02*
X0432802Y0211885D01*
X0432802Y0210286D02*
X0400569Y0210286D01*
X0400524Y0208688D02*
X0432802Y0208688D01*
X0432802Y0207089D02*
X0399861Y0207089D01*
X0398412Y0205491D02*
X0432802Y0205491D01*
X0432802Y0203892D02*
X0086808Y0203892D01*
X0086808Y0202294D02*
X0432802Y0202294D01*
X0432802Y0200695D02*
X0086808Y0200695D01*
X0086808Y0199097D02*
X0432802Y0199097D01*
X0432802Y0197498D02*
X0086808Y0197498D01*
X0086808Y0195900D02*
X0432802Y0195900D01*
X0432802Y0194301D02*
X0086808Y0194301D01*
X0086808Y0192703D02*
X0432802Y0192703D01*
X0432802Y0191104D02*
X0086808Y0191104D01*
X0086808Y0189506D02*
X0432802Y0189506D01*
X0432802Y0187907D02*
X0086808Y0187907D01*
X0086808Y0186309D02*
X0432802Y0186309D01*
X0432802Y0184710D02*
X0086808Y0184710D01*
X0086808Y0183112D02*
X0432802Y0183112D01*
X0432802Y0181513D02*
X0086808Y0181513D01*
X0086808Y0179915D02*
X0432802Y0179915D01*
X0432802Y0178316D02*
X0086808Y0178316D01*
X0086808Y0176718D02*
X0432802Y0176718D01*
X0432802Y0175119D02*
X0086808Y0175119D01*
X0086808Y0173521D02*
X0432802Y0173521D01*
X0432802Y0171922D02*
X0086808Y0171922D01*
X0086808Y0170324D02*
X0432802Y0170324D01*
X0432802Y0168725D02*
X0086808Y0168725D01*
X0086808Y0167127D02*
X0098805Y0167127D01*
X0098894Y0167164D02*
X0096933Y0166351D01*
X0095431Y0164850D01*
X0094619Y0162888D01*
X0094619Y0160765D01*
X0095431Y0158804D01*
X0096933Y0157302D01*
X0098894Y0156490D01*
X0101018Y0156490D01*
X0102979Y0157302D01*
X0104480Y0158804D01*
X0105293Y0160765D01*
X0105293Y0162888D01*
X0104480Y0164850D01*
X0102979Y0166351D01*
X0101018Y0167164D01*
X0098894Y0167164D01*
X0101107Y0167127D02*
X0146049Y0167127D01*
X0146138Y0167164D02*
X0144177Y0166351D01*
X0142676Y0164850D01*
X0141863Y0162888D01*
X0141863Y0160765D01*
X0142676Y0158804D01*
X0144177Y0157302D01*
X0146138Y0156490D01*
X0148262Y0156490D01*
X0150223Y0157302D01*
X0151725Y0158804D01*
X0152537Y0160765D01*
X0152537Y0162888D01*
X0151725Y0164850D01*
X0150223Y0166351D01*
X0148262Y0167164D01*
X0146138Y0167164D01*
X0148351Y0167127D02*
X0181482Y0167127D01*
X0181572Y0167164D02*
X0179610Y0166351D01*
X0178109Y0164850D01*
X0177296Y0162888D01*
X0177296Y0160765D01*
X0178109Y0158804D01*
X0179610Y0157302D01*
X0181572Y0156490D01*
X0183695Y0156490D01*
X0185656Y0157302D01*
X0187158Y0158804D01*
X0187970Y0160765D01*
X0187970Y0162888D01*
X0187158Y0164850D01*
X0185656Y0166351D01*
X0183695Y0167164D01*
X0181572Y0167164D01*
X0183784Y0167127D02*
X0228726Y0167127D01*
X0228816Y0167164D02*
X0226854Y0166351D01*
X0225353Y0164850D01*
X0224540Y0162888D01*
X0224540Y0160765D01*
X0225353Y0158804D01*
X0226854Y0157302D01*
X0228816Y0156490D01*
X0230939Y0156490D01*
X0232900Y0157302D01*
X0234402Y0158804D01*
X0235214Y0160765D01*
X0235214Y0162888D01*
X0234402Y0164850D01*
X0232900Y0166351D01*
X0230939Y0167164D01*
X0228816Y0167164D01*
X0231028Y0167127D02*
X0264159Y0167127D01*
X0264249Y0167164D02*
X0262287Y0166351D01*
X0260786Y0164850D01*
X0259973Y0162888D01*
X0259973Y0160765D01*
X0260786Y0158804D01*
X0262287Y0157302D01*
X0264249Y0156490D01*
X0266372Y0156490D01*
X0268333Y0157302D01*
X0269835Y0158804D01*
X0270647Y0160765D01*
X0270647Y0162888D01*
X0269835Y0164850D01*
X0268333Y0166351D01*
X0266372Y0167164D01*
X0264249Y0167164D01*
X0266462Y0167127D02*
X0311403Y0167127D01*
X0311493Y0167164D02*
X0309531Y0166351D01*
X0308030Y0164850D01*
X0307217Y0162888D01*
X0307217Y0160765D01*
X0308030Y0158804D01*
X0309531Y0157302D01*
X0311493Y0156490D01*
X0313616Y0156490D01*
X0315578Y0157302D01*
X0317079Y0158804D01*
X0317891Y0160765D01*
X0317891Y0162888D01*
X0317079Y0164850D01*
X0315578Y0166351D01*
X0313616Y0167164D01*
X0311493Y0167164D01*
X0313706Y0167127D02*
X0346836Y0167127D01*
X0346926Y0167164D02*
X0344964Y0166351D01*
X0343463Y0164850D01*
X0342650Y0162888D01*
X0342650Y0160765D01*
X0343463Y0158804D01*
X0344964Y0157302D01*
X0346926Y0156490D01*
X0349049Y0156490D01*
X0351011Y0157302D01*
X0352512Y0158804D01*
X0353324Y0160765D01*
X0353324Y0162888D01*
X0352512Y0164850D01*
X0351011Y0166351D01*
X0349049Y0167164D01*
X0346926Y0167164D01*
X0349139Y0167127D02*
X0394080Y0167127D01*
X0394170Y0167164D02*
X0392208Y0166351D01*
X0390707Y0164850D01*
X0389895Y0162888D01*
X0389895Y0160765D01*
X0390707Y0158804D01*
X0392208Y0157302D01*
X0394170Y0156490D01*
X0396293Y0156490D01*
X0398255Y0157302D01*
X0399756Y0158804D01*
X0400569Y0160765D01*
X0400569Y0162888D01*
X0399756Y0164850D01*
X0398255Y0166351D01*
X0396293Y0167164D01*
X0394170Y0167164D01*
X0396383Y0167127D02*
X0432802Y0167127D01*
X0432802Y0165528D02*
X0399078Y0165528D01*
X0400137Y0163930D02*
X0432802Y0163930D01*
X0432802Y0162331D02*
X0400569Y0162331D01*
X0400555Y0160733D02*
X0432802Y0160733D01*
X0432802Y0159134D02*
X0399893Y0159134D01*
X0398488Y0157536D02*
X0432802Y0157536D01*
X0432802Y0155937D02*
X0378695Y0155937D01*
X0378915Y0155406D02*
X0377803Y0158091D01*
X0375748Y0160146D01*
X0373063Y0161258D01*
X0370156Y0161258D01*
X0367471Y0160146D01*
X0365416Y0158091D01*
X0364304Y0155406D01*
X0364304Y0141004D01*
X0365416Y0138318D01*
X0367471Y0136263D01*
X0370156Y0135151D01*
X0373063Y0135151D01*
X0375748Y0136263D01*
X0377803Y0138318D01*
X0378915Y0141004D01*
X0378915Y0155406D01*
X0378915Y0154339D02*
X0432802Y0154339D01*
X0432802Y0152740D02*
X0378915Y0152740D01*
X0378915Y0151142D02*
X0432802Y0151142D01*
X0432802Y0149543D02*
X0378915Y0149543D01*
X0378915Y0147945D02*
X0432802Y0147945D01*
X0432802Y0146346D02*
X0378915Y0146346D01*
X0378915Y0144747D02*
X0432802Y0144747D01*
X0432802Y0143149D02*
X0378915Y0143149D01*
X0378915Y0141550D02*
X0432802Y0141550D01*
X0432802Y0139952D02*
X0378479Y0139952D01*
X0377817Y0138353D02*
X0432802Y0138353D01*
X0432802Y0136755D02*
X0376239Y0136755D01*
X0373075Y0135156D02*
X0432802Y0135156D01*
X0432802Y0133558D02*
X0086808Y0133558D01*
X0086808Y0135156D02*
X0122112Y0135156D01*
X0122125Y0135151D02*
X0125031Y0135151D01*
X0127716Y0136263D01*
X0129771Y0138318D01*
X0130884Y0141004D01*
X0130884Y0155406D01*
X0129771Y0158091D01*
X0127716Y0160146D01*
X0125031Y0161258D01*
X0122125Y0161258D01*
X0119440Y0160146D01*
X0117385Y0158091D01*
X0116273Y0155406D01*
X0116273Y0141004D01*
X0117385Y0138318D01*
X0119440Y0136263D01*
X0122125Y0135151D01*
X0125044Y0135156D02*
X0204789Y0135156D01*
X0204802Y0135151D02*
X0207708Y0135151D01*
X0210393Y0136263D01*
X0212448Y0138318D01*
X0213561Y0141004D01*
X0213561Y0155406D01*
X0212448Y0158091D01*
X0210393Y0160146D01*
X0207708Y0161258D01*
X0204802Y0161258D01*
X0202117Y0160146D01*
X0200062Y0158091D01*
X0198950Y0155406D01*
X0198950Y0141004D01*
X0200062Y0138318D01*
X0202117Y0136263D01*
X0204802Y0135151D01*
X0207721Y0135156D02*
X0287467Y0135156D01*
X0287479Y0135151D02*
X0290386Y0135151D01*
X0293071Y0136263D01*
X0295126Y0138318D01*
X0296238Y0141004D01*
X0296238Y0155406D01*
X0295126Y0158091D01*
X0293071Y0160146D01*
X0290386Y0161258D01*
X0287479Y0161258D01*
X0284794Y0160146D01*
X0282739Y0158091D01*
X0281627Y0155406D01*
X0281627Y0141004D01*
X0282739Y0138318D01*
X0284794Y0136263D01*
X0287479Y0135151D01*
X0290398Y0135156D02*
X0370144Y0135156D01*
X0366980Y0136755D02*
X0293562Y0136755D01*
X0295140Y0138353D02*
X0365402Y0138353D01*
X0364740Y0139952D02*
X0295802Y0139952D01*
X0296238Y0141550D02*
X0364304Y0141550D01*
X0364304Y0143149D02*
X0296238Y0143149D01*
X0296238Y0144747D02*
X0364304Y0144747D01*
X0364304Y0146346D02*
X0296238Y0146346D01*
X0296238Y0147945D02*
X0364304Y0147945D01*
X0364304Y0149543D02*
X0296238Y0149543D01*
X0296238Y0151142D02*
X0364304Y0151142D01*
X0364304Y0152740D02*
X0296238Y0152740D01*
X0296238Y0154339D02*
X0364304Y0154339D01*
X0364524Y0155937D02*
X0296018Y0155937D01*
X0295356Y0157536D02*
X0309298Y0157536D01*
X0307893Y0159134D02*
X0294083Y0159134D01*
X0291655Y0160733D02*
X0307231Y0160733D01*
X0307217Y0162331D02*
X0270647Y0162331D01*
X0270634Y0160733D02*
X0286210Y0160733D01*
X0283782Y0159134D02*
X0269972Y0159134D01*
X0268567Y0157536D02*
X0282509Y0157536D01*
X0281847Y0155937D02*
X0213341Y0155937D01*
X0213561Y0154339D02*
X0281627Y0154339D01*
X0281627Y0152740D02*
X0213561Y0152740D01*
X0213561Y0151142D02*
X0281627Y0151142D01*
X0281627Y0149543D02*
X0213561Y0149543D01*
X0213561Y0147945D02*
X0281627Y0147945D01*
X0281627Y0146346D02*
X0213561Y0146346D01*
X0213561Y0144747D02*
X0281627Y0144747D01*
X0281627Y0143149D02*
X0213561Y0143149D01*
X0213561Y0141550D02*
X0281627Y0141550D01*
X0282062Y0139952D02*
X0213125Y0139952D01*
X0212463Y0138353D02*
X0282725Y0138353D01*
X0284303Y0136755D02*
X0210885Y0136755D01*
X0201625Y0136755D02*
X0128208Y0136755D01*
X0129786Y0138353D02*
X0200047Y0138353D01*
X0199385Y0139952D02*
X0130448Y0139952D01*
X0130884Y0141550D02*
X0198950Y0141550D01*
X0198950Y0143149D02*
X0130884Y0143149D01*
X0130884Y0144747D02*
X0198950Y0144747D01*
X0198950Y0146346D02*
X0130884Y0146346D01*
X0130884Y0147945D02*
X0198950Y0147945D01*
X0198950Y0149543D02*
X0130884Y0149543D01*
X0130884Y0151142D02*
X0198950Y0151142D01*
X0198950Y0152740D02*
X0130884Y0152740D01*
X0130884Y0154339D02*
X0198950Y0154339D01*
X0199170Y0155937D02*
X0130664Y0155937D01*
X0130001Y0157536D02*
X0143944Y0157536D01*
X0142539Y0159134D02*
X0128728Y0159134D01*
X0126300Y0160733D02*
X0141877Y0160733D01*
X0141863Y0162331D02*
X0105293Y0162331D01*
X0105279Y0160733D02*
X0120856Y0160733D01*
X0118428Y0159134D02*
X0104617Y0159134D01*
X0103212Y0157536D02*
X0117155Y0157536D01*
X0116493Y0155937D02*
X0086808Y0155937D01*
X0086808Y0154339D02*
X0116273Y0154339D01*
X0116273Y0152740D02*
X0086808Y0152740D01*
X0086808Y0151142D02*
X0116273Y0151142D01*
X0116273Y0149543D02*
X0086808Y0149543D01*
X0086808Y0147945D02*
X0116273Y0147945D01*
X0116273Y0146346D02*
X0086808Y0146346D01*
X0086808Y0144747D02*
X0116273Y0144747D01*
X0116273Y0143149D02*
X0086808Y0143149D01*
X0086808Y0141550D02*
X0116273Y0141550D01*
X0116708Y0139952D02*
X0086808Y0139952D01*
X0086808Y0138353D02*
X0117370Y0138353D01*
X0118948Y0136755D02*
X0086808Y0136755D01*
X0086808Y0131959D02*
X0432802Y0131959D01*
X0432802Y0130361D02*
X0086808Y0130361D01*
X0086808Y0128762D02*
X0432802Y0128762D01*
X0432802Y0127164D02*
X0086808Y0127164D01*
X0086808Y0125565D02*
X0432802Y0125565D01*
X0432802Y0123967D02*
X0086808Y0123967D01*
X0086808Y0122368D02*
X0432802Y0122368D01*
X0432802Y0120770D02*
X0086808Y0120770D01*
X0086808Y0119171D02*
X0432802Y0119171D01*
X0432802Y0117573D02*
X0086808Y0117573D01*
X0086808Y0115974D02*
X0432802Y0115974D01*
X0432802Y0114376D02*
X0086808Y0114376D01*
X0086808Y0112777D02*
X0432802Y0112777D01*
X0432802Y0111179D02*
X0086808Y0111179D01*
X0086808Y0109580D02*
X0432802Y0109580D01*
X0432802Y0107982D02*
X0086808Y0107982D01*
X0086808Y0106383D02*
X0432802Y0106383D01*
X0432802Y0104785D02*
X0086808Y0104785D01*
X0086808Y0103186D02*
X0432802Y0103186D01*
X0432802Y0101588D02*
X0086808Y0101588D01*
X0086808Y0099989D02*
X0432802Y0099989D01*
X0432802Y0098391D02*
X0086808Y0098391D01*
X0086808Y0096792D02*
X0432802Y0096792D01*
X0432802Y0095194D02*
X0086808Y0095194D01*
X0086808Y0093595D02*
X0432802Y0093595D01*
X0432802Y0091997D02*
X0086808Y0091997D01*
X0086808Y0090398D02*
X0432802Y0090398D01*
X0432802Y0088800D02*
X0086808Y0088800D01*
X0086808Y0087201D02*
X0432802Y0087201D01*
X0432802Y0085603D02*
X0086808Y0085603D01*
X0086808Y0084004D02*
X0432802Y0084004D01*
X0432802Y0082406D02*
X0086808Y0082406D01*
X0086808Y0080807D02*
X0432802Y0080807D01*
X0432802Y0079209D02*
X0086808Y0079209D01*
X0086808Y0077610D02*
X0432802Y0077610D01*
X0432802Y0076011D02*
X0086808Y0076011D01*
X0086808Y0074413D02*
X0432802Y0074413D01*
X0432802Y0072814D02*
X0086808Y0072814D01*
X0086808Y0071216D02*
X0432802Y0071216D01*
X0432802Y0069617D02*
X0086808Y0069617D01*
X0086808Y0068019D02*
X0432802Y0068019D01*
X0432802Y0066420D02*
X0086808Y0066420D01*
X0086808Y0064822D02*
X0432802Y0064822D01*
X0432802Y0063223D02*
X0086808Y0063223D01*
X0086808Y0061625D02*
X0432802Y0061625D01*
X0432802Y0056829D02*
X0377568Y0056829D01*
X0378368Y0055231D02*
X0432802Y0055231D01*
X0432802Y0053632D02*
X0378915Y0053632D01*
X0378915Y0052034D02*
X0432802Y0052034D01*
X0432802Y0050435D02*
X0378680Y0050435D01*
X0378018Y0048837D02*
X0432802Y0048837D01*
X0432802Y0047238D02*
X0376723Y0047238D01*
X0375124Y0045640D02*
X0432802Y0045640D01*
X0432802Y0044041D02*
X0373526Y0044041D01*
X0371927Y0042443D02*
X0432802Y0042443D01*
X0432802Y0040844D02*
X0370329Y0040844D01*
X0368730Y0039246D02*
X0432802Y0039246D01*
X0432802Y0037647D02*
X0421545Y0037647D01*
X0419654Y0037647D02*
X0418054Y0037647D01*
X0418054Y0036049D02*
X0419654Y0036049D01*
X0419654Y0034450D02*
X0418054Y0034450D01*
X0418054Y0032852D02*
X0419654Y0032852D01*
X0419654Y0031253D02*
X0418054Y0031253D01*
X0418054Y0029655D02*
X0419654Y0029655D01*
X0419654Y0028056D02*
X0418054Y0028056D01*
X0418054Y0026458D02*
X0419654Y0026458D01*
X0427834Y0034450D02*
X0432802Y0034450D01*
X0432802Y0032852D02*
X0429305Y0032852D01*
X0430390Y0031253D02*
X0432802Y0031253D01*
X0432802Y0029655D02*
X0431165Y0029655D01*
X0431710Y0028056D02*
X0432802Y0028056D01*
X0432802Y0026458D02*
X0432037Y0026458D01*
X0432802Y0036049D02*
X0425690Y0036049D01*
X0416162Y0037647D02*
X0367132Y0037647D01*
X0367104Y0036049D02*
X0412017Y0036049D01*
X0409873Y0034450D02*
X0367104Y0034450D01*
X0367104Y0032852D02*
X0408402Y0032852D01*
X0375202Y0028056D02*
X0367104Y0028056D01*
X0367104Y0026458D02*
X0374363Y0026458D01*
X0354025Y0020064D02*
X0334072Y0020064D01*
X0335517Y0021662D02*
X0353117Y0021662D01*
X0352493Y0023261D02*
X0336176Y0023261D01*
X0336022Y0026458D02*
X0352493Y0026458D01*
X0352493Y0028056D02*
X0335182Y0028056D01*
X0331066Y0024859D02*
X0352493Y0024859D01*
X0331065Y0023261D02*
X0330106Y0023261D01*
X0330106Y0021662D02*
X0331065Y0021662D01*
X0331065Y0020064D02*
X0330106Y0020064D01*
X0306411Y0018465D02*
X0265548Y0018465D01*
X0265512Y0018429D02*
X0267567Y0020484D01*
X0268679Y0023169D01*
X0268679Y0026075D01*
X0267567Y0028760D01*
X0237677Y0058650D01*
X0234992Y0059762D01*
X0232085Y0059762D01*
X0204802Y0059762D01*
X0202117Y0058650D01*
X0200062Y0056595D01*
X0198950Y0053910D01*
X0198950Y0051004D01*
X0200062Y0048318D01*
X0202117Y0046263D01*
X0204802Y0045151D01*
X0230513Y0045151D01*
X0257235Y0018429D01*
X0259920Y0017317D01*
X0262826Y0017317D01*
X0265512Y0018429D01*
X0267146Y0020064D02*
X0277887Y0020064D01*
X0277636Y0020246D02*
X0278366Y0019715D01*
X0279171Y0019305D01*
X0280030Y0019026D01*
X0280894Y0018889D01*
X0280894Y0024142D01*
X0281853Y0024142D01*
X0281853Y0018889D01*
X0282717Y0019026D01*
X0283576Y0019305D01*
X0284380Y0019715D01*
X0285111Y0020246D01*
X0285749Y0020885D01*
X0286280Y0021615D01*
X0286690Y0022420D01*
X0286969Y0023279D01*
X0287106Y0024142D01*
X0281853Y0024142D01*
X0281853Y0025102D01*
X0280894Y0025102D01*
X0280894Y0030355D01*
X0280030Y0030218D01*
X0279171Y0029939D01*
X0278366Y0029529D01*
X0277636Y0028998D01*
X0276997Y0028359D01*
X0276467Y0027629D01*
X0276057Y0026824D01*
X0275778Y0025965D01*
X0275641Y0025102D01*
X0280894Y0025102D01*
X0280894Y0024142D01*
X0275641Y0024142D01*
X0275778Y0023279D01*
X0276057Y0022420D01*
X0276467Y0021615D01*
X0276997Y0020885D01*
X0277636Y0020246D01*
X0276443Y0021662D02*
X0268055Y0021662D01*
X0268679Y0023261D02*
X0275783Y0023261D01*
X0275937Y0026458D02*
X0268520Y0026458D01*
X0268679Y0024859D02*
X0280894Y0024859D01*
X0281853Y0024859D02*
X0303280Y0024859D01*
X0303280Y0023261D02*
X0286963Y0023261D01*
X0286304Y0021662D02*
X0303905Y0021662D01*
X0304813Y0020064D02*
X0284859Y0020064D01*
X0281853Y0020064D02*
X0280894Y0020064D01*
X0280894Y0021662D02*
X0281853Y0021662D01*
X0281853Y0023261D02*
X0280894Y0023261D01*
X0281853Y0025102D02*
X0287106Y0025102D01*
X0286969Y0025965D01*
X0286690Y0026824D01*
X0286280Y0027629D01*
X0285749Y0028359D01*
X0285111Y0028998D01*
X0284380Y0029529D01*
X0283576Y0029939D01*
X0282717Y0030218D01*
X0281853Y0030355D01*
X0281853Y0025102D01*
X0281853Y0026458D02*
X0280894Y0026458D01*
X0280894Y0028056D02*
X0281853Y0028056D01*
X0281853Y0029655D02*
X0280894Y0029655D01*
X0278614Y0029655D02*
X0266672Y0029655D01*
X0267858Y0028056D02*
X0276777Y0028056D01*
X0284133Y0029655D02*
X0301403Y0029655D01*
X0299804Y0031253D02*
X0265074Y0031253D01*
X0263475Y0032852D02*
X0298206Y0032852D01*
X0296607Y0034450D02*
X0261877Y0034450D01*
X0260278Y0036049D02*
X0295009Y0036049D01*
X0293410Y0037647D02*
X0258680Y0037647D01*
X0257081Y0039246D02*
X0291812Y0039246D01*
X0290213Y0040844D02*
X0255483Y0040844D01*
X0253884Y0042443D02*
X0288615Y0042443D01*
X0287016Y0044041D02*
X0252286Y0044041D01*
X0250687Y0045640D02*
X0285418Y0045640D01*
X0283819Y0047238D02*
X0249089Y0047238D01*
X0247490Y0048837D02*
X0282524Y0048837D01*
X0281862Y0050435D02*
X0245892Y0050435D01*
X0244293Y0052034D02*
X0281627Y0052034D01*
X0281627Y0053632D02*
X0242695Y0053632D01*
X0241096Y0055231D02*
X0282174Y0055231D01*
X0282973Y0056829D02*
X0239498Y0056829D01*
X0237899Y0058428D02*
X0284572Y0058428D01*
X0285970Y0028056D02*
X0303001Y0028056D01*
X0303280Y0026458D02*
X0286809Y0026458D01*
X0257199Y0018465D02*
X0216335Y0018465D01*
X0217934Y0020064D02*
X0228674Y0020064D01*
X0228423Y0020246D02*
X0229154Y0019715D01*
X0229958Y0019305D01*
X0230817Y0019026D01*
X0231681Y0018889D01*
X0231681Y0024142D01*
X0232640Y0024142D01*
X0232640Y0018889D01*
X0233504Y0019026D01*
X0234363Y0019305D01*
X0235168Y0019715D01*
X0235898Y0020246D01*
X0236537Y0020885D01*
X0237067Y0021615D01*
X0237477Y0022420D01*
X0237756Y0023279D01*
X0237893Y0024142D01*
X0232640Y0024142D01*
X0232640Y0025102D01*
X0231681Y0025102D01*
X0231681Y0030355D01*
X0230817Y0030218D01*
X0229958Y0029939D01*
X0229154Y0029529D01*
X0228423Y0028998D01*
X0227785Y0028359D01*
X0227254Y0027629D01*
X0226844Y0026824D01*
X0226565Y0025965D01*
X0226428Y0025102D01*
X0231681Y0025102D01*
X0231681Y0024142D01*
X0226428Y0024142D01*
X0226565Y0023279D01*
X0226844Y0022420D01*
X0227254Y0021615D01*
X0227785Y0020885D01*
X0228423Y0020246D01*
X0227230Y0021662D02*
X0218842Y0021662D01*
X0219466Y0023261D02*
X0226571Y0023261D01*
X0226725Y0026458D02*
X0219308Y0026458D01*
X0219466Y0024859D02*
X0231681Y0024859D01*
X0232640Y0024859D02*
X0250805Y0024859D01*
X0252403Y0023261D02*
X0237751Y0023261D01*
X0237091Y0021662D02*
X0254002Y0021662D01*
X0255600Y0020064D02*
X0235647Y0020064D01*
X0232640Y0020064D02*
X0231681Y0020064D01*
X0231681Y0021662D02*
X0232640Y0021662D01*
X0232640Y0023261D02*
X0231681Y0023261D01*
X0232640Y0025102D02*
X0237893Y0025102D01*
X0237756Y0025965D01*
X0237477Y0026824D01*
X0237067Y0027629D01*
X0236537Y0028359D01*
X0235898Y0028998D01*
X0235168Y0029529D01*
X0234363Y0029939D01*
X0233504Y0030218D01*
X0232640Y0030355D01*
X0232640Y0025102D01*
X0232640Y0026458D02*
X0231681Y0026458D01*
X0231681Y0028056D02*
X0232640Y0028056D01*
X0232640Y0029655D02*
X0231681Y0029655D01*
X0229401Y0029655D02*
X0217460Y0029655D01*
X0218646Y0028056D02*
X0227564Y0028056D01*
X0234920Y0029655D02*
X0246009Y0029655D01*
X0244411Y0031253D02*
X0215861Y0031253D01*
X0214263Y0032852D02*
X0242812Y0032852D01*
X0241214Y0034450D02*
X0212664Y0034450D01*
X0211066Y0036049D02*
X0239615Y0036049D01*
X0238017Y0037647D02*
X0209467Y0037647D01*
X0207869Y0039246D02*
X0236418Y0039246D01*
X0234820Y0040844D02*
X0206270Y0040844D01*
X0204672Y0042443D02*
X0233221Y0042443D01*
X0231623Y0044041D02*
X0203073Y0044041D01*
X0203622Y0045640D02*
X0201475Y0045640D01*
X0201142Y0047238D02*
X0199876Y0047238D01*
X0199847Y0048837D02*
X0198277Y0048837D01*
X0199185Y0050435D02*
X0196679Y0050435D01*
X0195080Y0052034D02*
X0198950Y0052034D01*
X0198950Y0053632D02*
X0193482Y0053632D01*
X0191883Y0055231D02*
X0199497Y0055231D01*
X0200296Y0056829D02*
X0190285Y0056829D01*
X0190519Y0056595D02*
X0190519Y0056595D01*
X0188686Y0058428D02*
X0201895Y0058428D01*
X0184008Y0042443D02*
X0091718Y0042443D01*
X0093316Y0040844D02*
X0185607Y0040844D01*
X0187205Y0039246D02*
X0094915Y0039246D01*
X0096513Y0037647D02*
X0188804Y0037647D01*
X0190402Y0036049D02*
X0098112Y0036049D01*
X0099710Y0034450D02*
X0192001Y0034450D01*
X0193599Y0032852D02*
X0101309Y0032852D01*
X0102907Y0031253D02*
X0195198Y0031253D01*
X0182410Y0044041D02*
X0090119Y0044041D01*
X0089159Y0037647D02*
X0082962Y0037647D01*
X0081071Y0037647D02*
X0079471Y0037647D01*
X0079471Y0036049D02*
X0081071Y0036049D01*
X0081071Y0034450D02*
X0079471Y0034450D01*
X0079471Y0032852D02*
X0081071Y0032852D01*
X0081071Y0031253D02*
X0079471Y0031253D01*
X0079471Y0029655D02*
X0081071Y0029655D01*
X0081071Y0028056D02*
X0079471Y0028056D01*
X0079471Y0026458D02*
X0081071Y0026458D01*
X0081071Y0021662D02*
X0079471Y0021662D01*
X0079471Y0020064D02*
X0081071Y0020064D01*
X0081071Y0018465D02*
X0079471Y0018465D01*
X0079471Y0016867D02*
X0081071Y0016867D01*
X0081071Y0015268D02*
X0079471Y0015268D01*
X0079471Y0013670D02*
X0081071Y0013670D01*
X0081071Y0012071D02*
X0079471Y0012071D01*
X0075829Y0012071D02*
X0074353Y0012071D01*
X0072723Y0013670D02*
X0071667Y0013670D01*
X0070816Y0015268D02*
X0070068Y0015268D01*
X0069457Y0016867D02*
X0068781Y0016867D01*
X0068481Y0018465D02*
X0067858Y0018465D01*
X0067763Y0020064D02*
X0067176Y0020064D01*
X0067299Y0021662D02*
X0066748Y0021662D01*
X0067041Y0023261D02*
X0066412Y0023261D01*
X0087107Y0036049D02*
X0090758Y0036049D01*
X0089252Y0034450D02*
X0092356Y0034450D01*
X0093955Y0032852D02*
X0090723Y0032852D01*
X0091807Y0031253D02*
X0095553Y0031253D01*
X0097152Y0029655D02*
X0092582Y0029655D01*
X0093128Y0028056D02*
X0098750Y0028056D01*
X0100349Y0026458D02*
X0093454Y0026458D01*
X0104506Y0029655D02*
X0117845Y0029655D01*
X0115527Y0028056D02*
X0106104Y0028056D01*
X0107703Y0026458D02*
X0114625Y0026458D01*
X0114304Y0024859D02*
X0109301Y0024859D01*
X0110900Y0023261D02*
X0114428Y0023261D01*
X0115090Y0021662D02*
X0112498Y0021662D01*
X0114097Y0020064D02*
X0116700Y0020064D01*
X0115695Y0018465D02*
X0147209Y0018465D01*
X0136155Y0020064D02*
X0122582Y0020064D01*
X0124192Y0021662D02*
X0134710Y0021662D01*
X0236757Y0028056D02*
X0247608Y0028056D01*
X0249206Y0026458D02*
X0237597Y0026458D01*
X0233134Y0157536D02*
X0262054Y0157536D01*
X0260649Y0159134D02*
X0234539Y0159134D01*
X0235201Y0160733D02*
X0259987Y0160733D01*
X0259973Y0162331D02*
X0235214Y0162331D01*
X0234783Y0163930D02*
X0260405Y0163930D01*
X0261464Y0165528D02*
X0233724Y0165528D01*
X0226031Y0165528D02*
X0186479Y0165528D01*
X0187539Y0163930D02*
X0224972Y0163930D01*
X0224540Y0162331D02*
X0187970Y0162331D01*
X0187957Y0160733D02*
X0203533Y0160733D01*
X0201105Y0159134D02*
X0187295Y0159134D01*
X0185890Y0157536D02*
X0199832Y0157536D01*
X0208977Y0160733D02*
X0224554Y0160733D01*
X0225216Y0159134D02*
X0211405Y0159134D01*
X0212679Y0157536D02*
X0226621Y0157536D01*
X0269157Y0165528D02*
X0308708Y0165528D01*
X0307649Y0163930D02*
X0270216Y0163930D01*
X0268491Y0205491D02*
X0309374Y0205491D01*
X0307925Y0207089D02*
X0269940Y0207089D01*
X0270602Y0208688D02*
X0307262Y0208688D01*
X0307217Y0210286D02*
X0270647Y0210286D01*
X0270248Y0211885D02*
X0307617Y0211885D01*
X0308632Y0213483D02*
X0269233Y0213483D01*
X0261388Y0213483D02*
X0233800Y0213483D01*
X0234814Y0211885D02*
X0260373Y0211885D01*
X0259973Y0210286D02*
X0235214Y0210286D01*
X0235169Y0208688D02*
X0260018Y0208688D01*
X0260680Y0207089D02*
X0234507Y0207089D01*
X0233058Y0205491D02*
X0262130Y0205491D01*
X0226697Y0205491D02*
X0185813Y0205491D01*
X0187263Y0207089D02*
X0225247Y0207089D01*
X0224585Y0208688D02*
X0187925Y0208688D01*
X0187970Y0210286D02*
X0224540Y0210286D01*
X0224940Y0211885D02*
X0187570Y0211885D01*
X0186556Y0213483D02*
X0225955Y0213483D01*
X0179453Y0205491D02*
X0150380Y0205491D01*
X0151830Y0207089D02*
X0178003Y0207089D01*
X0177341Y0208688D02*
X0152492Y0208688D01*
X0152537Y0210286D02*
X0177296Y0210286D01*
X0177696Y0211885D02*
X0152137Y0211885D01*
X0151123Y0213483D02*
X0178711Y0213483D01*
X0143278Y0213483D02*
X0103878Y0213483D01*
X0104893Y0211885D02*
X0142263Y0211885D01*
X0141863Y0210286D02*
X0105293Y0210286D01*
X0105248Y0208688D02*
X0141908Y0208688D01*
X0142570Y0207089D02*
X0104586Y0207089D01*
X0103136Y0205491D02*
X0144020Y0205491D01*
X0143354Y0165528D02*
X0103802Y0165528D01*
X0104862Y0163930D02*
X0142294Y0163930D01*
X0151046Y0165528D02*
X0178787Y0165528D01*
X0177727Y0163930D02*
X0152106Y0163930D01*
X0152537Y0162331D02*
X0177296Y0162331D01*
X0177310Y0160733D02*
X0152524Y0160733D01*
X0151861Y0159134D02*
X0177972Y0159134D01*
X0179377Y0157536D02*
X0150457Y0157536D01*
X0096700Y0157536D02*
X0086808Y0157536D01*
X0086808Y0159134D02*
X0095295Y0159134D01*
X0094632Y0160733D02*
X0087582Y0160733D01*
X0087970Y0162331D02*
X0094619Y0162331D01*
X0095050Y0163930D02*
X0087654Y0163930D01*
X0086808Y0165528D02*
X0096110Y0165528D01*
X0096776Y0205491D02*
X0086808Y0205491D01*
X0086808Y0207089D02*
X0095326Y0207089D01*
X0094664Y0208688D02*
X0086808Y0208688D01*
X0086808Y0210286D02*
X0094619Y0210286D01*
X0095019Y0211885D02*
X0086808Y0211885D01*
X0086808Y0213483D02*
X0096034Y0213483D01*
X0066323Y0239060D02*
X0432802Y0239060D01*
X0432802Y0240658D02*
X0423717Y0240658D01*
X0423834Y0240860D02*
X0423957Y0241318D01*
X0423957Y0244871D01*
X0418841Y0244871D01*
X0418841Y0245239D01*
X0423957Y0245239D01*
X0423957Y0248792D01*
X0423834Y0249250D01*
X0423597Y0249660D01*
X0423262Y0249995D01*
X0422852Y0250232D01*
X0422394Y0250355D01*
X0420114Y0250355D01*
X0421432Y0250901D01*
X0422811Y0252279D01*
X0423557Y0254080D01*
X0423557Y0256030D01*
X0422811Y0257831D01*
X0421432Y0259209D01*
X0419631Y0259955D01*
X0417682Y0259955D01*
X0415881Y0259209D01*
X0414503Y0257831D01*
X0413757Y0256030D01*
X0413757Y0254080D01*
X0414503Y0252279D01*
X0415881Y0250901D01*
X0417199Y0250355D01*
X0414920Y0250355D01*
X0414462Y0250232D01*
X0414052Y0249995D01*
X0413716Y0249660D01*
X0413479Y0249250D01*
X0413357Y0248792D01*
X0413357Y0245239D01*
X0418472Y0245239D01*
X0418472Y0244871D01*
X0413357Y0244871D01*
X0413357Y0241318D01*
X0413479Y0240860D01*
X0413716Y0240450D01*
X0414052Y0240115D01*
X0414462Y0239878D01*
X0414920Y0239755D01*
X0418472Y0239755D01*
X0418472Y0244871D01*
X0418841Y0244871D01*
X0418841Y0239755D01*
X0422394Y0239755D01*
X0422852Y0239878D01*
X0423262Y0240115D01*
X0423597Y0240450D01*
X0423834Y0240860D01*
X0423957Y0242257D02*
X0432802Y0242257D01*
X0432802Y0243855D02*
X0423957Y0243855D01*
X0423957Y0245454D02*
X0432802Y0245454D01*
X0432802Y0247052D02*
X0423957Y0247052D01*
X0423957Y0248651D02*
X0432802Y0248651D01*
X0432802Y0250249D02*
X0422789Y0250249D01*
X0422379Y0251848D02*
X0432802Y0251848D01*
X0432802Y0253446D02*
X0423294Y0253446D01*
X0423557Y0255045D02*
X0432802Y0255045D01*
X0432802Y0256643D02*
X0423303Y0256643D01*
X0422400Y0258242D02*
X0432802Y0258242D01*
X0432802Y0259840D02*
X0419909Y0259840D01*
X0419631Y0260155D02*
X0421432Y0260901D01*
X0422811Y0262279D01*
X0423557Y0264080D01*
X0423557Y0266030D01*
X0422811Y0267831D01*
X0421432Y0269209D01*
X0419631Y0269955D01*
X0417682Y0269955D01*
X0415881Y0269209D01*
X0414503Y0267831D01*
X0413757Y0266030D01*
X0413757Y0264080D01*
X0414503Y0262279D01*
X0415881Y0260901D01*
X0417682Y0260155D01*
X0419631Y0260155D01*
X0417405Y0259840D02*
X0209908Y0259840D01*
X0208310Y0258242D02*
X0414914Y0258242D01*
X0414011Y0256643D02*
X0206877Y0256643D01*
X0206877Y0256809D02*
X0212257Y0262189D01*
X0212676Y0262189D01*
X0213628Y0262583D01*
X0214357Y0263312D01*
X0214751Y0264264D01*
X0214751Y0265295D01*
X0214357Y0266247D01*
X0213628Y0266976D01*
X0212676Y0267370D01*
X0211645Y0267370D01*
X0210693Y0266976D01*
X0209965Y0266247D01*
X0209570Y0265295D01*
X0209570Y0264876D01*
X0204190Y0259496D01*
X0203771Y0259496D01*
X0202819Y0259102D01*
X0202091Y0258373D01*
X0201696Y0257421D01*
X0201696Y0256390D01*
X0202091Y0255438D01*
X0202819Y0254709D01*
X0203771Y0254315D01*
X0204802Y0254315D01*
X0205754Y0254709D01*
X0206483Y0255438D01*
X0206877Y0256390D01*
X0206877Y0256809D01*
X0206090Y0255045D02*
X0413757Y0255045D01*
X0414019Y0253446D02*
X0066323Y0253446D01*
X0066323Y0251848D02*
X0414934Y0251848D01*
X0414525Y0250249D02*
X0066323Y0250249D01*
X0066323Y0248651D02*
X0413357Y0248651D01*
X0413357Y0247052D02*
X0066323Y0247052D01*
X0066323Y0245454D02*
X0413357Y0245454D01*
X0413357Y0243855D02*
X0066323Y0243855D01*
X0066323Y0242257D02*
X0413357Y0242257D01*
X0413596Y0240658D02*
X0066323Y0240658D01*
X0066323Y0255045D02*
X0202484Y0255045D01*
X0201696Y0256643D02*
X0066323Y0256643D01*
X0066323Y0258242D02*
X0202036Y0258242D01*
X0204534Y0259840D02*
X0198802Y0259840D01*
X0198609Y0259375D02*
X0199003Y0260327D01*
X0199003Y0260746D01*
X0204383Y0266126D01*
X0204802Y0266126D01*
X0205754Y0266520D01*
X0206483Y0267249D01*
X0206877Y0268201D01*
X0206877Y0269232D01*
X0206483Y0270184D01*
X0205754Y0270913D01*
X0204802Y0271307D01*
X0203771Y0271307D01*
X0202819Y0270913D01*
X0202091Y0270184D01*
X0201696Y0269232D01*
X0201696Y0268813D01*
X0196316Y0263433D01*
X0195897Y0263433D01*
X0194945Y0263039D01*
X0194217Y0262310D01*
X0193822Y0261358D01*
X0193822Y0260327D01*
X0194217Y0259375D01*
X0194945Y0258646D01*
X0195897Y0258252D01*
X0196928Y0258252D01*
X0197880Y0258646D01*
X0198609Y0259375D01*
X0199696Y0261439D02*
X0206133Y0261439D01*
X0207731Y0263037D02*
X0201294Y0263037D01*
X0202893Y0264636D02*
X0209330Y0264636D01*
X0209959Y0266234D02*
X0205064Y0266234D01*
X0206725Y0267833D02*
X0414505Y0267833D01*
X0413841Y0266234D02*
X0214362Y0266234D01*
X0214751Y0264636D02*
X0413757Y0264636D01*
X0414189Y0263037D02*
X0214082Y0263037D01*
X0211507Y0261439D02*
X0415343Y0261439D01*
X0421970Y0261439D02*
X0432802Y0261439D01*
X0432802Y0263037D02*
X0423125Y0263037D01*
X0423557Y0264636D02*
X0432802Y0264636D01*
X0432802Y0266234D02*
X0423472Y0266234D01*
X0422809Y0267833D02*
X0432802Y0267833D01*
X0432802Y0269431D02*
X0420896Y0269431D01*
X0419631Y0270155D02*
X0421432Y0270901D01*
X0422811Y0272279D01*
X0423557Y0274080D01*
X0423557Y0276030D01*
X0422811Y0277831D01*
X0421432Y0279209D01*
X0419631Y0279955D01*
X0417682Y0279955D01*
X0415881Y0279209D01*
X0414503Y0277831D01*
X0413757Y0276030D01*
X0413757Y0274080D01*
X0414503Y0272279D01*
X0415881Y0270901D01*
X0417682Y0270155D01*
X0419631Y0270155D01*
X0421561Y0271030D02*
X0432802Y0271030D01*
X0432802Y0272628D02*
X0422955Y0272628D01*
X0423557Y0274227D02*
X0432802Y0274227D01*
X0432802Y0275825D02*
X0423557Y0275825D01*
X0422979Y0277424D02*
X0432802Y0277424D01*
X0432802Y0279022D02*
X0421619Y0279022D01*
X0420756Y0280621D02*
X0432802Y0280621D01*
X0432802Y0282219D02*
X0422751Y0282219D01*
X0422811Y0282279D02*
X0423557Y0284080D01*
X0423557Y0286030D01*
X0422811Y0287831D01*
X0421432Y0289209D01*
X0419631Y0289955D01*
X0417682Y0289955D01*
X0415881Y0289209D01*
X0414503Y0287831D01*
X0413757Y0286030D01*
X0413757Y0284080D01*
X0414503Y0282279D01*
X0415881Y0280901D01*
X0417682Y0280155D01*
X0419631Y0280155D01*
X0421432Y0280901D01*
X0422811Y0282279D01*
X0423448Y0283818D02*
X0432802Y0283818D01*
X0432802Y0285416D02*
X0423557Y0285416D01*
X0423149Y0287015D02*
X0432802Y0287015D01*
X0432802Y0288613D02*
X0422028Y0288613D01*
X0421432Y0290901D02*
X0422811Y0292279D01*
X0423557Y0294080D01*
X0423557Y0296030D01*
X0422811Y0297831D01*
X0421432Y0299209D01*
X0419631Y0299955D01*
X0417682Y0299955D01*
X0415881Y0299209D01*
X0414503Y0297831D01*
X0413757Y0296030D01*
X0413757Y0294080D01*
X0414503Y0292279D01*
X0415881Y0290901D01*
X0417682Y0290155D01*
X0419631Y0290155D01*
X0421432Y0290901D01*
X0422342Y0291811D02*
X0432802Y0291811D01*
X0432802Y0293409D02*
X0423279Y0293409D01*
X0423557Y0295008D02*
X0432802Y0295008D01*
X0432802Y0296606D02*
X0423318Y0296606D01*
X0422437Y0298205D02*
X0432802Y0298205D01*
X0432802Y0299803D02*
X0419998Y0299803D01*
X0417315Y0299803D02*
X0066323Y0299803D01*
X0066323Y0298205D02*
X0414877Y0298205D01*
X0413995Y0296606D02*
X0066323Y0296606D01*
X0066323Y0295008D02*
X0413757Y0295008D01*
X0414035Y0293409D02*
X0066323Y0293409D01*
X0066323Y0291811D02*
X0414972Y0291811D01*
X0417545Y0290212D02*
X0304565Y0290212D01*
X0304908Y0289869D02*
X0304179Y0290598D01*
X0303227Y0290992D01*
X0302197Y0290992D01*
X0301244Y0290598D01*
X0300516Y0289869D01*
X0300121Y0288917D01*
X0300121Y0287886D01*
X0300516Y0286934D01*
X0301244Y0286205D01*
X0302197Y0285811D01*
X0302615Y0285811D01*
X0304749Y0283678D01*
X0305862Y0282565D01*
X0314865Y0282565D01*
X0314728Y0282428D01*
X0303499Y0282428D01*
X0303334Y0282593D01*
X0303334Y0283011D01*
X0302940Y0283963D01*
X0302211Y0284692D01*
X0301259Y0285087D01*
X0300228Y0285087D01*
X0299276Y0284692D01*
X0298547Y0283963D01*
X0298153Y0283011D01*
X0298153Y0281981D01*
X0298547Y0281029D01*
X0299276Y0280300D01*
X0300228Y0279906D01*
X0300647Y0279906D01*
X0300812Y0279741D01*
X0301925Y0278628D01*
X0314728Y0278628D01*
X0315024Y0278331D01*
X0315976Y0277937D01*
X0317007Y0277937D01*
X0317959Y0278331D01*
X0318688Y0279060D01*
X0319082Y0280012D01*
X0319082Y0281043D01*
X0318738Y0281874D01*
X0318975Y0281874D01*
X0319927Y0282268D01*
X0320656Y0282997D01*
X0321050Y0283949D01*
X0321050Y0284980D01*
X0320656Y0285932D01*
X0319927Y0286661D01*
X0318975Y0287055D01*
X0317945Y0287055D01*
X0316992Y0286661D01*
X0316696Y0286365D01*
X0307436Y0286365D01*
X0305302Y0288498D01*
X0305302Y0288917D01*
X0304908Y0289869D01*
X0305302Y0288613D02*
X0415286Y0288613D01*
X0414165Y0287015D02*
X0319072Y0287015D01*
X0317848Y0287015D02*
X0306785Y0287015D01*
X0304608Y0283818D02*
X0303000Y0283818D01*
X0303010Y0285416D02*
X0066323Y0285416D01*
X0066323Y0283818D02*
X0298487Y0283818D01*
X0298153Y0282219D02*
X0066323Y0282219D01*
X0066323Y0280621D02*
X0298955Y0280621D01*
X0301530Y0279022D02*
X0066323Y0279022D01*
X0066323Y0277424D02*
X0414334Y0277424D01*
X0413757Y0275825D02*
X0066323Y0275825D01*
X0066323Y0274227D02*
X0413757Y0274227D01*
X0414358Y0272628D02*
X0066323Y0272628D01*
X0066323Y0271030D02*
X0203102Y0271030D01*
X0201779Y0269431D02*
X0066323Y0269431D01*
X0066323Y0267833D02*
X0200716Y0267833D01*
X0199117Y0266234D02*
X0066323Y0266234D01*
X0066323Y0264636D02*
X0197519Y0264636D01*
X0194944Y0263037D02*
X0066323Y0263037D01*
X0066323Y0261439D02*
X0193856Y0261439D01*
X0194024Y0259840D02*
X0066323Y0259840D01*
X0066323Y0287015D02*
X0300482Y0287015D01*
X0300121Y0288613D02*
X0066323Y0288613D01*
X0066323Y0290212D02*
X0300859Y0290212D01*
X0319082Y0280621D02*
X0416557Y0280621D01*
X0415694Y0279022D02*
X0318650Y0279022D01*
X0319809Y0282219D02*
X0414563Y0282219D01*
X0413865Y0283818D02*
X0320996Y0283818D01*
X0320870Y0285416D02*
X0413757Y0285416D01*
X0419769Y0290212D02*
X0432802Y0290212D01*
X0432802Y0301402D02*
X0066323Y0301402D01*
X0066323Y0303000D02*
X0432802Y0303000D01*
X0432802Y0304599D02*
X0066323Y0304599D01*
X0066323Y0306197D02*
X0432802Y0306197D01*
X0432802Y0307796D02*
X0304142Y0307796D01*
X0304142Y0309394D02*
X0432802Y0309394D01*
X0432802Y0310993D02*
X0304142Y0310993D01*
X0304142Y0312591D02*
X0432802Y0312591D01*
X0432802Y0314190D02*
X0304142Y0314190D01*
X0304142Y0315788D02*
X0413059Y0315788D01*
X0413160Y0315734D02*
X0414368Y0315234D01*
X0415618Y0314855D01*
X0416900Y0314600D01*
X0418054Y0314486D01*
X0418054Y0326972D01*
X0419654Y0326972D01*
X0419654Y0328572D01*
X0432139Y0328572D01*
X0432026Y0329726D01*
X0431771Y0331007D01*
X0431391Y0332258D01*
X0430891Y0333465D01*
X0430275Y0334617D01*
X0429549Y0335704D01*
X0428720Y0336714D01*
X0427796Y0337638D01*
X0426786Y0338467D01*
X0425699Y0339193D01*
X0424547Y0339809D01*
X0423340Y0340309D01*
X0422089Y0340689D01*
X0420807Y0340944D01*
X0419654Y0341057D01*
X0419654Y0328572D01*
X0418054Y0328572D01*
X0418054Y0341057D01*
X0416900Y0340944D01*
X0415618Y0340689D01*
X0414368Y0340309D01*
X0413160Y0339809D01*
X0412008Y0339193D01*
X0410921Y0338467D01*
X0409911Y0337638D01*
X0408987Y0336714D01*
X0408158Y0335704D01*
X0407432Y0334617D01*
X0406816Y0333465D01*
X0406316Y0332258D01*
X0405937Y0331007D01*
X0405682Y0329726D01*
X0405568Y0328572D01*
X0418054Y0328572D01*
X0418054Y0326972D01*
X0405568Y0326972D01*
X0405682Y0325818D01*
X0405937Y0324536D01*
X0406316Y0323286D01*
X0406816Y0322078D01*
X0407432Y0320926D01*
X0408158Y0319839D01*
X0408987Y0318829D01*
X0409911Y0317905D01*
X0410921Y0317076D01*
X0412008Y0316350D01*
X0413160Y0315734D01*
X0410543Y0317387D02*
X0304142Y0317387D01*
X0304142Y0318985D02*
X0408859Y0318985D01*
X0407661Y0320584D02*
X0304142Y0320584D01*
X0304142Y0322182D02*
X0406773Y0322182D01*
X0406166Y0323781D02*
X0304142Y0323781D01*
X0304142Y0325379D02*
X0405769Y0325379D01*
X0405569Y0328576D02*
X0304142Y0328576D01*
X0304142Y0326978D02*
X0418054Y0326978D01*
X0418054Y0328576D02*
X0419654Y0328576D01*
X0419654Y0326978D02*
X0432802Y0326978D01*
X0432139Y0326972D02*
X0419654Y0326972D01*
X0419654Y0314486D01*
X0420807Y0314600D01*
X0422089Y0314855D01*
X0423340Y0315234D01*
X0424547Y0315734D01*
X0425699Y0316350D01*
X0426786Y0317076D01*
X0427796Y0317905D01*
X0428720Y0318829D01*
X0429549Y0319839D01*
X0430275Y0320926D01*
X0430891Y0322078D01*
X0431391Y0323286D01*
X0431771Y0324536D01*
X0432026Y0325818D01*
X0432139Y0326972D01*
X0432139Y0328576D02*
X0432691Y0328576D01*
X0432374Y0330175D02*
X0431936Y0330175D01*
X0431843Y0331773D02*
X0431538Y0331773D01*
X0431294Y0333372D02*
X0430930Y0333372D01*
X0430241Y0334970D02*
X0430039Y0334970D01*
X0429189Y0336569D02*
X0428839Y0336569D01*
X0427394Y0338167D02*
X0427151Y0338167D01*
X0425079Y0339766D02*
X0424628Y0339766D01*
X0420625Y0341364D02*
X0304142Y0341364D01*
X0304142Y0339766D02*
X0413079Y0339766D01*
X0410556Y0338167D02*
X0304142Y0338167D01*
X0304142Y0336569D02*
X0408868Y0336569D01*
X0407668Y0334970D02*
X0304142Y0334970D01*
X0304142Y0333372D02*
X0406777Y0333372D01*
X0406169Y0331773D02*
X0304142Y0331773D01*
X0304142Y0330175D02*
X0405771Y0330175D01*
X0418054Y0330175D02*
X0419654Y0330175D01*
X0419654Y0331773D02*
X0418054Y0331773D01*
X0418054Y0333372D02*
X0419654Y0333372D01*
X0419654Y0334970D02*
X0418054Y0334970D01*
X0418054Y0336569D02*
X0419654Y0336569D01*
X0419654Y0338167D02*
X0418054Y0338167D01*
X0418054Y0339766D02*
X0419654Y0339766D01*
X0419654Y0325379D02*
X0418054Y0325379D01*
X0418054Y0323781D02*
X0419654Y0323781D01*
X0419654Y0322182D02*
X0418054Y0322182D01*
X0418054Y0320584D02*
X0419654Y0320584D01*
X0419654Y0318985D02*
X0418054Y0318985D01*
X0418054Y0317387D02*
X0419654Y0317387D01*
X0419654Y0315788D02*
X0418054Y0315788D01*
X0424648Y0315788D02*
X0432802Y0315788D01*
X0432802Y0317387D02*
X0427164Y0317387D01*
X0428848Y0318985D02*
X0432802Y0318985D01*
X0432802Y0320584D02*
X0430047Y0320584D01*
X0430934Y0322182D02*
X0432802Y0322182D01*
X0432802Y0323781D02*
X0431541Y0323781D01*
X0431938Y0325379D02*
X0432802Y0325379D01*
X0415752Y0271030D02*
X0205471Y0271030D01*
X0206795Y0269431D02*
X0416418Y0269431D01*
X0418472Y0243855D02*
X0418841Y0243855D01*
X0418841Y0242257D02*
X0418472Y0242257D01*
X0418472Y0240658D02*
X0418841Y0240658D01*
X0391309Y0213483D02*
X0351910Y0213483D01*
X0352925Y0211885D02*
X0390294Y0211885D01*
X0389895Y0210286D02*
X0353324Y0210286D01*
X0353279Y0208688D02*
X0389940Y0208688D01*
X0390602Y0207089D02*
X0352617Y0207089D01*
X0351168Y0205491D02*
X0392051Y0205491D01*
X0391385Y0165528D02*
X0351834Y0165528D01*
X0352893Y0163930D02*
X0390326Y0163930D01*
X0389895Y0162331D02*
X0353324Y0162331D01*
X0353311Y0160733D02*
X0368887Y0160733D01*
X0366459Y0159134D02*
X0352649Y0159134D01*
X0351244Y0157536D02*
X0365186Y0157536D01*
X0374332Y0160733D02*
X0389908Y0160733D01*
X0390570Y0159134D02*
X0376760Y0159134D01*
X0378033Y0157536D02*
X0391975Y0157536D01*
X0344731Y0157536D02*
X0315811Y0157536D01*
X0317216Y0159134D02*
X0343326Y0159134D01*
X0342664Y0160733D02*
X0317878Y0160733D01*
X0317891Y0162331D02*
X0342650Y0162331D01*
X0343082Y0163930D02*
X0317460Y0163930D01*
X0316401Y0165528D02*
X0344141Y0165528D01*
X0344807Y0205491D02*
X0315735Y0205491D01*
X0317184Y0207089D02*
X0343358Y0207089D01*
X0342695Y0208688D02*
X0317846Y0208688D01*
X0317891Y0210286D02*
X0342650Y0210286D01*
X0343050Y0211885D02*
X0317492Y0211885D01*
X0316477Y0213483D02*
X0344065Y0213483D01*
X0222542Y0307796D02*
X0066323Y0307796D01*
X0066323Y0309394D02*
X0222542Y0309394D01*
X0222542Y0310993D02*
X0066323Y0310993D01*
X0066323Y0312591D02*
X0222542Y0312591D01*
X0222542Y0314190D02*
X0066323Y0314190D01*
X0066323Y0315788D02*
X0074476Y0315788D01*
X0074578Y0315734D02*
X0075785Y0315234D01*
X0077035Y0314855D01*
X0078317Y0314600D01*
X0079471Y0314486D01*
X0079471Y0326972D01*
X0066985Y0326972D01*
X0067099Y0325818D01*
X0067354Y0324536D01*
X0067733Y0323286D01*
X0068233Y0322078D01*
X0068849Y0320926D01*
X0069575Y0319839D01*
X0070404Y0318829D01*
X0071328Y0317905D01*
X0072339Y0317076D01*
X0073425Y0316350D01*
X0074578Y0315734D01*
X0071960Y0317387D02*
X0066323Y0317387D01*
X0066323Y0318985D02*
X0070276Y0318985D01*
X0069078Y0320584D02*
X0066323Y0320584D01*
X0066323Y0322182D02*
X0068190Y0322182D01*
X0067583Y0323781D02*
X0066323Y0323781D01*
X0066323Y0325379D02*
X0067186Y0325379D01*
X0066323Y0326978D02*
X0079471Y0326978D01*
X0079471Y0326972D02*
X0079471Y0328572D01*
X0079471Y0341057D01*
X0078317Y0340944D01*
X0077035Y0340689D01*
X0075785Y0340309D01*
X0074578Y0339809D01*
X0073425Y0339193D01*
X0072339Y0338467D01*
X0071328Y0337638D01*
X0070404Y0336714D01*
X0069575Y0335704D01*
X0068849Y0334617D01*
X0068233Y0333465D01*
X0067733Y0332258D01*
X0067354Y0331007D01*
X0067099Y0329726D01*
X0066985Y0328572D01*
X0079471Y0328572D01*
X0081071Y0328572D01*
X0081071Y0341057D01*
X0082225Y0340944D01*
X0083506Y0340689D01*
X0084757Y0340309D01*
X0085964Y0339809D01*
X0087117Y0339193D01*
X0088203Y0338467D01*
X0089213Y0337638D01*
X0090137Y0336714D01*
X0090966Y0335704D01*
X0091692Y0334617D01*
X0092308Y0333465D01*
X0092809Y0332258D01*
X0093188Y0331007D01*
X0093443Y0329726D01*
X0093556Y0328572D01*
X0081071Y0328572D01*
X0081071Y0326972D01*
X0093556Y0326972D01*
X0093443Y0325818D01*
X0093188Y0324536D01*
X0092809Y0323286D01*
X0092308Y0322078D01*
X0091692Y0320926D01*
X0090966Y0319839D01*
X0090137Y0318829D01*
X0089213Y0317905D01*
X0088203Y0317076D01*
X0087117Y0316350D01*
X0085964Y0315734D01*
X0084757Y0315234D01*
X0083506Y0314855D01*
X0082225Y0314600D01*
X0081071Y0314486D01*
X0081071Y0326972D01*
X0079471Y0326972D01*
X0079471Y0325379D02*
X0081071Y0325379D01*
X0081071Y0323781D02*
X0079471Y0323781D01*
X0079471Y0322182D02*
X0081071Y0322182D01*
X0081071Y0320584D02*
X0079471Y0320584D01*
X0079471Y0318985D02*
X0081071Y0318985D01*
X0081071Y0317387D02*
X0079471Y0317387D01*
X0079471Y0315788D02*
X0081071Y0315788D01*
X0086065Y0315788D02*
X0222542Y0315788D01*
X0222542Y0317387D02*
X0088582Y0317387D01*
X0090266Y0318985D02*
X0222542Y0318985D01*
X0222542Y0320584D02*
X0091464Y0320584D01*
X0092352Y0322182D02*
X0222542Y0322182D01*
X0222542Y0323781D02*
X0092959Y0323781D01*
X0093356Y0325379D02*
X0222542Y0325379D01*
X0222542Y0326978D02*
X0081071Y0326978D01*
X0081071Y0328576D02*
X0079471Y0328576D01*
X0079471Y0330175D02*
X0081071Y0330175D01*
X0081071Y0331773D02*
X0079471Y0331773D01*
X0079471Y0333372D02*
X0081071Y0333372D01*
X0081071Y0334970D02*
X0079471Y0334970D01*
X0079471Y0336569D02*
X0081071Y0336569D01*
X0081071Y0338167D02*
X0079471Y0338167D01*
X0079471Y0339766D02*
X0081071Y0339766D01*
X0086045Y0339766D02*
X0222542Y0339766D01*
X0222542Y0341364D02*
X0076339Y0341364D01*
X0074497Y0339766D02*
X0072570Y0339766D01*
X0071973Y0338167D02*
X0070400Y0338167D01*
X0070285Y0336569D02*
X0069001Y0336569D01*
X0069085Y0334970D02*
X0067984Y0334970D01*
X0068195Y0333372D02*
X0067197Y0333372D01*
X0067586Y0331773D02*
X0066748Y0331773D01*
X0066432Y0330175D02*
X0067188Y0330175D01*
X0066986Y0328576D02*
X0066318Y0328576D01*
X0088569Y0338167D02*
X0222542Y0338167D01*
X0222542Y0336569D02*
X0090257Y0336569D01*
X0091457Y0334970D02*
X0222542Y0334970D01*
X0222542Y0333372D02*
X0092347Y0333372D01*
X0092956Y0331773D02*
X0222542Y0331773D01*
X0222542Y0330175D02*
X0093353Y0330175D01*
X0093556Y0328576D02*
X0222542Y0328576D01*
D17*
X0084208Y0235252D03*
X0084208Y0162417D03*
X0178696Y0032496D03*
X0151137Y0018717D03*
D18*
X0127515Y0243126D03*
X0141295Y0272654D03*
X0149169Y0276591D03*
X0172791Y0245094D03*
X0196413Y0260843D03*
X0204287Y0256906D03*
X0212161Y0264780D03*
X0204287Y0268717D03*
X0216098Y0278559D03*
X0218066Y0260843D03*
X0210192Y0243126D03*
X0243657Y0258874D03*
X0284995Y0252969D03*
X0294838Y0243126D03*
X0304680Y0249031D03*
X0314523Y0260843D03*
X0316491Y0280528D03*
X0318460Y0284465D03*
X0302712Y0288402D03*
X0300743Y0282496D03*
X0308617Y0296276D03*
X0326334Y0296276D03*
X0346019Y0327772D03*
X0306649Y0327772D03*
X0222003Y0298244D03*
X0182633Y0321866D03*
X0377515Y0243126D03*
D19*
X0316491Y0280528D02*
X0302712Y0280528D01*
X0300743Y0282496D01*
X0302712Y0288402D02*
X0306649Y0284465D01*
X0318460Y0284465D01*
X0212161Y0264780D02*
X0204287Y0256906D01*
X0196413Y0260843D02*
X0204287Y0268717D01*
D20*
X0206255Y0153953D02*
X0206255Y0142457D01*
X0123578Y0142457D02*
X0123578Y0153953D01*
X0123578Y0052457D02*
X0184326Y0052457D01*
X0212161Y0024622D01*
X0206255Y0052457D02*
X0233539Y0052457D01*
X0261373Y0024622D01*
X0288932Y0052457D02*
X0310586Y0030803D01*
X0310586Y0024622D01*
X0359798Y0024622D02*
X0359798Y0040646D01*
X0371610Y0052457D01*
X0371610Y0142457D02*
X0371610Y0153953D01*
X0288932Y0153953D02*
X0288932Y0142457D01*
D21*
X0151137Y0018717D02*
X0147200Y0014780D01*
X0115704Y0014780D01*
X0084208Y0046276D01*
X0084208Y0162417D01*
X0084208Y0235252D01*
M02*
